22700 0 2 4           
16 Autodesk Neutron 20 ASM 227.1.1.65535 NT 24 Wed Aug 25 12:28:10 2021 
10 9.999999999999999547e-07 1.000000000000000036e-10 
asmheader $-1 -1 @13 227.1.1.65535 #
body $2 -1 $-1 $3 $-1 $-1 #
ATTRIB_CUSTOM-attrib $-1 -1 $4 $-1 $1 @20 Timestamp_attrib_def 1 1629894478202169 #
lump $-1 -1 $-1 $-1 $5 $1 #
ATTRIB_CUSTOM-attrib $-1 -1 $-1 $2 $1 @22 generic_tag_attrib_def 3 3 -1 @23 generic_tag_attrib_def  1 3 @3 312 1 0 0 #
shell $-1 -1 $-1 $-1 $-1 $6 $-1 $3 #
face $7 141 $-1 $8 $9 $5 $-1 $10 reversed single #
ATTRIB_CUSTOM-attrib $-1 -1 $-1 $-1 $6 @22 generic_tag_attrib_def 3 3 -1 @23 generic_tag_attrib_def  1 3 @3 816 0 1 -312 0 #
face $11 142 $-1 $12 $13 $5 $-1 $14 reversed single #
loop $-1 -1 $-1 $-1 $15 $6 #
cone-surface $-1 -1 $-1 1.160698119273372964 4.469444042920824423 0 0.402021598033084071 0.9156301844712882998 0 0 0 -0.1500000000000000222 1 I I -0.8571673007021122226 0.5150380749100543776 0.1500000000000000222 forward I I I I #
ATTRIB_CUSTOM-attrib $-1 -1 $-1 $-1 $8 @22 generic_tag_attrib_def 3 3 -1 @23 generic_tag_attrib_def  1 3 @3 815 0 1 -312 0 #
face $16 143 $-1 $17 $18 $5 $-1 $19 forward single #
loop $-1 -1 $-1 $-1 $20 $8 #
cone-surface $-1 -1 $-1 1.084262117531573422 4.295356106557434828 0 0.402021598033084071 0.9156301844712882998 0 0 0 -0.3000000000000000444 1 I I 0 1 0.3000000000000000444 forward I I I I #
coedge $-1 -1 $-1 $21 $22 $23 $24 reversed $9 0 $-1 #
ATTRIB_CUSTOM-attrib $-1 -1 $-1 $-1 $12 @22 generic_tag_attrib_def 3 3 -1 @23 generic_tag_attrib_def  1 3 @3 126 4567 1 -312 0 #
face $25 144 $-1 $26 $27 $5 $-1 $28 forward single #
loop $-1 -1 $-1 $-1 $29 $12 #
plane-surface $-1 -1 $-1 2.685950670897789827 7.648491004595374676 0 0 0 1 1 0 0 forward_v I I I I #
coedge $-1 -1 $-1 $30 $31 $29 $32 reversed $13 0 $-1 #
coedge $-1 -1 $-1 $22 $15 $31 $33 reversed $9 0 $-1 #
coedge $-1 -1 $-1 $15 $21 $34 $35 reversed $9 0 $-1 #
coedge $-1 -1 $-1 $34 $29 $15 $24 forward $18 0 $-1 #
edge $-1 57 $-1 $36 -0.1749950095822991603 $37 0.1749950095823000484 $23 $38 forward @7 unknown #
ATTRIB_CUSTOM-attrib $-1 -1 $-1 $-1 $17 @22 generic_tag_attrib_def 3 3 -1 @23 generic_tag_attrib_def  1 1 @1 4 24191 1 -312 0 #
face $39 145 $-1 $40 $41 $5 $-1 $42 forward single #
loop $-1 -1 $-1 $-1 $43 $17 #
cone-surface $-1 -1 $-1 1.168861807084144111 4.488037369778670183 0 -0.402021598033084071 -0.9156301844712882998 0 0.7017490052676480516 -0.3081137573885582848 0 1 I I 0 1 0.7664109562670857745 forward I I I I #
coedge $-1 -1 $-1 $23 $44 $20 $32 forward $18 0 $-1 #
coedge $-1 -1 $-1 $45 $20 $46 $47 reversed $13 0 $-1 #
coedge $-1 -1 $-1 $20 $45 $21 $33 forward $13 0 $-1 #
edge $-1 60 $-1 $48 -0.1000000000000002554 $36 0.1000000000000000749 $29 $49 forward @7 unknown #
edge $-1 58 $-1 $50 -1.570796326794896558 $36 1.570796326794896558 $31 $51 forward @7 unknown #
coedge $-1 -1 $-1 $52 $23 $22 $35 forward $18 0 $-1 #
edge $-1 59 $-1 $37 -0.174995009582300215 $50 0.1749950095822991325 $34 $53 forward @7 unknown #
vertex $-1 2 $-1 $24 0 $54 #
vertex $-1 1 $-1 $24 1 $55 #
straight-curve $-1 -1 $-1 1.023353591602679469 4.529747282625786298 0 0.9919046835878538859 0.1269846395296660158 0 I I #
ATTRIB_CUSTOM-attrib $-1 -1 $-1 $-1 $26 @22 generic_tag_attrib_def 3 3 -1 @23 generic_tag_attrib_def  1 2 @2 41 28111 1 -312 0 #
face $56 146 $-1 $57 $58 $5 $-1 $59 forward single #
loop $-1 -1 $-1 $-1 $60 $26 #
torus-surface $-1 -1 $-1 1.105462452361584802 4.343641239958797584 0 -0.402021598033084071 -0.9156301844712882998 0 1.066410956267085819 -0.3000000000000000444 0 0 -1 forward_v I I I I #
coedge $-1 -1 $-1 $61 $62 $63 $64 reversed $27 0 $-1 #
coedge $-1 -1 $-1 $29 $63 $65 $66 forward $18 0 $-1 #
coedge $-1 -1 $-1 $31 $30 $52 $67 reversed $13 0 $-1 #
coedge $-1 -1 $-1 $65 $68 $30 $47 forward $69 0 $-1 #
edge $-1 61 $-1 $70 -1.570796326794896558 $48 1.570796326794896558 $46 $71 forward @7 unknown #
vertex $-1 4 $-1 $47 1 $72 #
straight-curve $-1 -1 $-1 0.8095730621901870983 4.415962585967360354 0 0.402021598033084071 0.9156301844712882998 0 I I #
vertex $-1 3 $-1 $35 1 $73 #
ellipse-curve $-1 -1 $-1 1.124464277334881857 4.386919125004563824 0 0.402021598033084071 0.9156301844712882998 0 0 0 -0.3000000000000000444 1 I I #
coedge $-1 -1 $-1 $74 $34 $45 $67 forward $18 0 $-1 #
straight-curve $-1 -1 $-1 1.298042646944066014 4.409140803215860771 0 0.5777918237414043645 -0.8161841755496010986 -0 I I #
point $-1 -1 $-1 0.8497752219934953111 4.507525604414489351 0 #
point $-1 -1 $-1 1.196931961211864293 4.551968960837085021 0 #
ATTRIB_CUSTOM-attrib $-1 -1 $-1 $-1 $40 @22 generic_tag_attrib_def 3 3 -1 @23 generic_tag_attrib_def  1 1 @1 5 10043 1 -312 0 #
face $75 147 $-1 $76 $77 $5 $-1 $78 forward single #
loop $-1 -1 $-1 $-1 $79 $40 #
torus-surface $-1 -1 $-1 1.314851137765109979 4.820537510159814687 0 -0.402021598033084071 -0.9156301844712882998 0 0.9870542987242277855 0.2268502189456054197 0 0 -1 forward_v I I I I #
coedge $-1 -1 $-1 $80 $81 $82 $83 reversed $41 0 $-1 #
coedge $-1 -1 $-1 $84 $43 $81 $85 reversed $27 0 $-1 #
coedge $-1 -1 $-1 $43 $84 $86 $87 reversed $27 0 $-1 #
coedge $-1 -1 $-1 $44 $82 $43 $64 forward $18 0 $-1 #
edge $-1 91 $-1 $88 0.1577013648837396753 $89 0.3104356829744477908 $43 $90 forward @7 unknown #
coedge $-1 -1 $-1 $86 $46 $44 $66 reversed $69 0 $-1 #
edge $-1 92 $-1 $89 -0.8256718239943577897 $48 -0.3592608677272726148 $65 $91 forward @7 unknown #
edge $-1 62 $-1 $50 -0.1000000000000000749 $70 0.09999999999999936717 $52 $92 forward @7 unknown #
coedge $-1 -1 $-1 $46 $86 $74 $93 reversed $69 0 $-1 #
loop $-1 -1 $-1 $-1 $46 $94 #
vertex $-1 5 $-1 $93 0 $95 #
ellipse-curve $-1 -1 $-1 1.044059957728265209 4.203793088110306719 0 0.402021598033084071 0.9156301844712882998 -0 0 0 -0.3000000000000000444 1 I I #
point $-1 -1 $-1 0.7693709023868784413 4.324399567520231358 0 #
point $-1 -1 $-1 1.399153332676268402 4.266312645594638298 0 #
coedge $-1 -1 $-1 $96 $52 $68 $93 forward $18 0 $-1 #
ATTRIB_CUSTOM-attrib $-1 -1 $-1 $-1 $57 @22 generic_tag_attrib_def 3 3 -1 @23 generic_tag_attrib_def  1 2 @2 63 25322 1 -312 0 #
face $97 148 $-1 $98 $99 $5 $-1 $100 forward single #
loop $-1 -1 $-1 $-1 $101 $57 #
torus-surface $-1 -1 $-1 1.419003978336376148 5.057752339144274245 0 -0.402021598033084071 -0.9156301844712882998 0 1.186333942279710785 -0.09999999999999992228 0 0 -1 forward_v I I I I #
coedge $-1 -1 $-1 $102 $103 $104 $105 reversed $58 0 $-1 #
coedge $-1 -1 $-1 $106 $60 $103 $107 forward $41 0 $-1 #
coedge $-1 -1 $-1 $60 $106 $61 $85 forward $41 0 $-1 #
coedge $-1 -1 $-1 $63 $104 $60 $83 forward $18 0 $-1 #
edge $-1 90 $-1 $108 1.721996481269297385 $88 3.141592653589794004 $60 $109 forward @7 unknown #
coedge $-1 -1 $-1 $62 $61 $96 $110 reversed $27 0 $-1 #
edge $-1 93 $-1 $111 -3.141592653589793116 $88 -1.224646799147352961e-16 $61 $112 forward @7 tangent #
coedge $-1 -1 $-1 $68 $65 $62 $87 forward $69 0 $-1 #
edge $-1 94 $-1 $89 3.141592653589793116 $113 6.283185307179586232 $86 $114 forward @7 unknown #
vertex $-1 33 $-1 $83 1 $115 #
vertex $-1 34 $-1 $66 0 $116 #
straight-curve $-1 -1 $-1 0.4671128018164959483 4.796151127167227912 0 -0.402021598033084071 -0.9156301844712881888 0 I I #
straight-curve $-1 -1 $-1 1.098320996977316222 4.17996893936576086 0 0.9156301844712882998 -0.402021598033084071 0 I I #
straight-curve $-1 -1 $-1 1.358951172872960189 4.174749627147509301 0 -0.402021598033084071 -0.9156301844712882998 -0 I I #
edge $-1 63 $-1 $70 0.2407391322727275851 $113 0.70715008853981276 $68 $91 forward @7 unknown #
face $117 154 $-1 $118 $69 $5 $-1 $119 forward single #
point $-1 -1 $-1 1.318749013069651754 4.083186608700381193 0 #
coedge $-1 -1 $-1 $120 $74 $84 $110 forward $18 0 $-1 #
ATTRIB_CUSTOM-attrib $-1 -1 $-1 $-1 $76 @22 generic_tag_attrib_def 3 3 -1 @23 generic_tag_attrib_def  1 1 @1 6 19721 1 -312 0 #
face $121 149 $-1 $122 $123 $5 $-1 $124 forward single #
loop $-1 -1 $-1 $-1 $125 $76 #
sphere-surface $-1 -1 $-1 1.709811995759804804 5.720086402642155399 0 1.289476137712440629 1 0 0 0 0 1 forward_v I I I I #
coedge $-1 -1 $-1 $126 $127 $128 $129 reversed $77 0 $-1 #
coedge $-1 -1 $-1 $130 $79 $127 $131 reversed $58 0 $-1 #
coedge $-1 -1 $-1 $79 $130 $80 $107 reversed $58 0 $-1 #
coedge $-1 -1 $-1 $82 $128 $79 $105 forward $18 0 $-1 #
edge $-1 89 $-1 $132 -0.9151178854991850464 $108 1.419596172320495731 $79 $133 forward @7 unknown #
coedge $-1 -1 $-1 $81 $80 $120 $134 reversed $41 0 $-1 #
edge $-1 95 $-1 $108 1.224646799147352961e-16 $135 3.141592653589793116 $103 $136 forward @7 tangent #
vertex $-1 32 $-1 $83 0 $137 #
ellipse-curve $-1 -1 $-1 0.1290243917525500938 4.77236147675728084 0 -0 -0 -1 -0.2746890553413865455 0.1206064794099252352 -0 1 I I #
edge $-1 64 $-1 $113 -0.3104356829744471802 $111 -0.1577013648837396753 $84 $138 forward @7 unknown #
vertex $-1 7 $-1 $134 0 $139 #
ellipse-curve $-1 -1 $-1 1.105462452361584802 4.343641239958797584 0 0.402021598033084071 0.9156301844712882998 -0 -0.7017490052676481627 0.3081137573885578407 9.385827244239485098e-17 1 I I #
vertex $-1 6 $-1 $93 1 $140 #
ellipse-curve $-1 -1 $-1 1.044059957728264987 4.203793088110305831 0 -0.402021598033084071 -0.9156301844712882998 0 0.7017490052676477186 -0.3081137573885577297 0 1 I I #
point $-1 -1 $-1 0.4037134470939366393 4.651754997347355314 0 #
point $-1 -1 $-1 0.3423109524606172682 4.511906845498863561 0 #
ATTRIB_CUSTOM-attrib $-1 -1 $-1 $-1 $94 @22 generic_tag_attrib_def 3 3 -1 @23 generic_tag_attrib_def  1 1 @1 3 23550 1 -312 0 #
face $141 155 $-1 $142 $143 $5 $-1 $144 forward single #
plane-surface $-1 -1 $-1 1.044059957728264987 4.203793088110306719 0 -0.402021598033084071 -0.9156301844712882998 0 0 -0 -1 forward_v I I I I #
coedge $-1 -1 $-1 $145 $96 $106 $134 forward $18 0 $-1 #
ATTRIB_CUSTOM-attrib $-1 -1 $-1 $-1 $98 @22 generic_tag_attrib_def 3 3 -1 @23 generic_tag_attrib_def  1 1 @1 7 21214 1 -312 0 #
face $146 150 $-1 $147 $148 $5 $-1 $149 forward single #
loop $-1 -1 $-1 $-1 $150 $98 #
cone-surface $-1 -1 $-1 1.684139404585135891 5.661615416237080645 0 -0.402021598033084071 -0.9156301844712882998 0 1.165606454084813892 -0.5117775465423706205 0 1 I I -0.003389393130620310668 0.9999942559906062067 1.27301007967301727 forward I I I I #
coedge $-1 -1 $-1 $151 $152 $153 $154 reversed $99 0 $-1 #
coedge $-1 -1 $-1 $155 $101 $152 $156 forward $77 0 $-1 #
coedge $-1 -1 $-1 $101 $155 $102 $131 forward $77 0 $-1 #
coedge $-1 -1 $-1 $104 $153 $101 $129 forward $18 0 $-1 #
edge $-1 88 $-1 $157 2.59403667939279492 $132 4.056710539088978607 $101 $158 forward @7 unknown #
coedge $-1 -1 $-1 $103 $102 $145 $159 reversed $58 0 $-1 #
edge $-1 96 $-1 $160 -3.141592653589793116 $132 -1.224646799147353454e-16 $102 $161 forward @7 tangent #
vertex $-1 31 $-1 $129 1 $162 #
ellipse-curve $-1 -1 $-1 0.4110744281410672052 5.217354656678353741 0 0 0 1 -0.2077109078205168213 0.09119868753466729705 -0 1 I I #
edge $-1 65 $-1 $111 -3.141592653589792228 $135 -1.72199648126929783 $106 $163 forward @7 unknown #
vertex $-1 8 $-1 $134 1 $164 #
ellipse-curve $-1 -1 $-1 1.224692934502739528 4.61519637254777404 0 -0.402021598033084071 -0.9156301844712882998 0 -0.9350631033410597981 0.4105539217058602475 1.250638146195067309e-16 1 I I #
point $-1 -1 $-1 0.2896298311616797294 5.025750294253634287 0 #
straight-curve $-1 -1 $-1 1.870610812351792163 4.179923612390112453 0 0.402021598033084071 0.9156301844712881888 -0 I I #
point $-1 -1 $-1 1.807211457629232854 4.035527482570239854 -1.877165448847897266e-16 #
point $-1 -1 $-1 1.745808962995913038 3.89567933072174899 0 #
ATTRIB_CUSTOM-attrib $-1 -1 $-1 $-1 $118 @22 generic_tag_attrib_def 3 3 -1 @23 generic_tag_attrib_def  1 1 @1 0 684 1 -312 0 #
face $165 156 $-1 $166 $167 $5 $-1 $168 forward single #
loop $-1 -1 $-1 $-1 $169 $118 #
cone-surface $-1 -1 $-1 3.427559841654766792 9.632368192245179372 0 -0.402021598033084071 -0.9156301844712882998 0 1.17906497357307205 -0.5176867177378934315 0 1 I I -0.003389393130620699246 0.9999942559906064288 1.287708720801836515 forward I I I I #
coedge $-1 -1 $-1 $170 $120 $130 $159 forward $18 0 $-1 #
ATTRIB_CUSTOM-attrib $-1 -1 $-1 $-1 $122 @22 generic_tag_attrib_def 3 3 -1 @23 generic_tag_attrib_def  1 1 @1 8 1632 1 -312 0 #
face $171 151 $-1 $172 $173 $5 $-1 $174 forward single #
loop $-1 -1 $-1 $-1 $175 $122 #
torus-surface $-1 -1 $-1 1.862864308603219055 6.068672941594769554 0 -0.402021598033084071 -0.9156301844712882998 0 1.274516895337839628 0.2999999999999998224 0 0 -1 forward_v I I I I #
coedge $-1 -1 $-1 $176 $177 $178 $179 reversed $123 0 $-1 #
coedge $-1 -1 $-1 $180 $125 $177 $181 forward $99 0 $-1 #
coedge $-1 -1 $-1 $125 $180 $126 $156 reversed $99 0 $-1 #
coedge $-1 -1 $-1 $128 $178 $125 $154 forward $18 0 $-1 #
edge $-1 87 $-1 $182 1.319420996575217053 $157 1.704628646122977154 $125 $183 forward @7 unknown #
coedge $-1 -1 $-1 $127 $126 $170 $184 reversed $77 0 $-1 #
edge $-1 97 $-1 $157 1.224646799147353207e-16 $185 3.141592653589793116 $152 $186 forward @7 tangent #
vertex $-1 30 $-1 $129 0 $187 #
ellipse-curve $-1 -1 $-1 0.3327608119222538186 5.53468420642045178 0 -0 -0 -1 -0.09156301844712876059 0.04020215980330837241 -0 1 I I #
edge $-1 66 $-1 $135 -1.419596172320496619 $160 0.9151178854991858236 $130 $188 forward @7 unknown #
vertex $-1 9 $-1 $184 0 $189 #
ellipse-curve $-1 -1 $-1 1.387138360835107109 4.985176334835726308 0 0.402021598033084071 0.9156301844712882998 -0 -1.030417455977487684 0.452420725439992566 1.378173700091642901e-16 1 I I #
point $-1 -1 $-1 0.3567209048576196473 5.437597060275718874 0 #
ellipse-curve $-1 -1 $-1 2.081900512970619399 3.914921003160314328 0 -0 -0 -1 0.2746890553413865455 -0.1206064794099252352 0 1 I I #
point $-1 -1 $-1 2.159756037843799437 4.204642450841913792 2.465190328815661892e-32 #
ATTRIB_CUSTOM-attrib $-1 -1 $-1 $-1 $142 @22 generic_tag_attrib_def 3 3 -1 @23 generic_tag_attrib_def  1 1 @1 1 19472 1 -312 0 #
face $190 157 $-1 $191 $192 $5 $-1 $193 forward single #
loop $-1 -1 $-1 $-1 $194 $142 #
torus-surface $-1 -1 $-1 3.722912575140734148 10.30505314043942988 0 -0.402021598033084071 -0.9156301844712882998 0 1.272090607336140433 0.2999999999999998224 0 0 -1 forward_v I I I I #
coedge $-1 -1 $-1 $195 $196 $197 $198 forward $143 0 $-1 #
coedge $-1 -1 $-1 $199 $145 $155 $184 forward $18 0 $-1 #
ATTRIB_CUSTOM-attrib $-1 -1 $-1 $-1 $147 @22 generic_tag_attrib_def 3 3 -1 @23 generic_tag_attrib_def  1 1 @1 9 32216 1 -312 0 #
face $200 152 $-1 $201 $202 $5 $-1 $203 forward single #
loop $-1 -1 $-1 $-1 $204 $147 #
cone-surface $-1 -1 $-1 2.170933384030144353 6.770320180805638799 0 -0.402021598033084071 -0.9156301844712882998 0 1.169364311982900251 -0.5134274921896323507 0 1 I I -0.003389393130620255157 0.9999942559906062067 1.277114201579238939 forward I I I I #
coedge $-1 -1 $-1 $205 $206 $207 $208 reversed $148 0 $-1 #
coedge $-1 -1 $-1 $209 $150 $206 $210 forward $123 0 $-1 #
coedge $-1 -1 $-1 $150 $209 $151 $181 reversed $123 0 $-1 #
coedge $-1 -1 $-1 $153 $207 $150 $179 forward $18 0 $-1 #
edge $-1 86 $-1 $211 -0.1445679821580116431 $182 0.1445679821580116431 $150 $212 forward @7 unknown #
coedge $-1 -1 $-1 $152 $151 $199 $213 reversed $99 0 $-1 #
edge $-1 98 $-1 $182 3.141592653589793116 $214 6.283185307179586232 $151 $215 forward @7 unknown #
vertex $-1 29 $-1 $154 0 $216 #
ellipse-curve $-1 -1 $-1 1.709811995759804804 5.720086402642155399 0 0 0 1 0 1.289476137712440629 0 1 I I #
edge $-1 67 $-1 $160 2.226474768090606293 $185 3.689148627786765555 $155 $217 forward @7 unknown #
vertex $-1 10 $-1 $184 1 $218 #
ellipse-curve $-1 -1 $-1 1.439933306270157587 5.105420236816012647 0 -0.402021598033084071 -0.9156301844712882998 0 -1.008066712934134523 0.4426072859227009326 1.348279790529877257e-16 1 I I #
point $-1 -1 $-1 0.4318665933360228415 5.548027522738713913 0 #
ellipse-curve $-1 -1 $-1 2.218627847389152752 4.423720363641275632 0 0 0 1 0.2077109078205168213 -0.09119868753466729705 0 1 I I #
point $-1 -1 $-1 2.417555816812594571 4.532755609395733742 -2.756347400183286296e-16 #
ATTRIB_CUSTOM-attrib $-1 -1 $-1 $-1 $166 @22 generic_tag_attrib_def 3 3 -1 @23 generic_tag_attrib_def  1 2 @2 12 4315 1 -312 0 #
face $219 158 $-1 $220 $221 $5 $-1 $222 forward single #
loop $-1 -1 $-1 $-1 $223 $166 #
torus-surface $-1 -1 $-1 3.13201187608814946 8.959238590363426624 0 -0.402021598033084071 -0.9156301844712882998 0 1.285216979056790443 0.2999999999999998224 0 0 -1 forward_v I I I I #
coedge $-1 -1 $-1 $224 $225 $226 $227 forward $167 0 $-1 #
coedge $-1 -1 $-1 $228 $169 $225 $229 forward $143 0 $-1 #
coedge $-1 -1 $-1 $169 $230 $231 $232 forward $143 0 $-1 #
coedge $-1 -1 $-1 $233 $226 $169 $198 reversed $234 0 $-1 #
edge $-1 104 $-1 $235 1.732549891581130375 $236 1.761064514217081767 $169 $237 forward @7 unknown #
coedge $-1 -1 $-1 $238 $170 $180 $213 forward $18 0 $-1 #
ATTRIB_CUSTOM-attrib $-1 -1 $-1 $-1 $172 @22 generic_tag_attrib_def 3 3 -1 @23 generic_tag_attrib_def  1 2 @2 10 1829 1 -312 0 #
face $239 153 $-1 $94 $240 $5 $-1 $241 forward single #
loop $-1 -1 $-1 $-1 $242 $172 #
torus-surface $-1 -1 $-1 2.479002459457069651 7.471967420016506267 0 -0.402021598033084071 -0.9156301844712882998 0 1.279711507820640692 0.3000000000000002665 0 0 -1 forward_v I I I I #
coedge $-1 -1 $-1 $243 $244 $245 $246 reversed $173 0 $-1 #
coedge $-1 -1 $-1 $247 $175 $244 $248 forward $148 0 $-1 #
coedge $-1 -1 $-1 $175 $247 $176 $210 reversed $148 0 $-1 #
coedge $-1 -1 $-1 $178 $245 $175 $208 forward $18 0 $-1 #
edge $-1 85 $-1 $249 -1.567406927174699094 $211 1.574185726415108233 $175 $250 forward @7 unknown #
coedge $-1 -1 $-1 $177 $176 $238 $251 reversed $123 0 $-1 #
edge $-1 99 $-1 $211 3.141592653589793116 $252 6.283185307179586232 $176 $253 forward @7 unknown #
vertex $-1 28 $-1 $208 1 $254 #
straight-curve $-1 -1 $-1 0.5185329505003215544 6.173392962779450599 0 -0.3989158581598130082 -0.9169875343256417288 0 I I #
edge $-1 68 $-1 $185 -2.532075955860783711 $214 -2.146868306313032715 $180 $183 forward @7 unknown #
vertex $-1 11 $-1 $213 1 $255 #
ellipse-curve $-1 -1 $-1 1.626020287212227355 5.529245368404263949 0 -0.402021598033084071 -0.9156301844712882998 0 1.165157797376901394 -0.5115805568736780939 0 1 I I #
point $-1 -1 $-1 0.4608624898353257393 6.040825925277942154 0 #
ellipse-curve $-1 -1 $-1 2.505247144750498478 4.58082047186809671 0 -0 -0 -1 0.09156301844712876059 -0.04020215980330837241 0 1 I I #
point $-1 -1 $-1 2.448000019204291888 4.662812950893311381 0 #
ATTRIB_CUSTOM-attrib $-1 -1 $-1 $-1 $191 @22 generic_tag_attrib_def 3 3 -1 @23 generic_tag_attrib_def  1 1 @1 2 18798 1 -312 0 #
face $256 159 $-1 $257 $258 $5 $-1 $222 forward single #
loop $-1 -1 $-1 $-1 $259 $191 #
sphere-surface $-1 -1 $-1 3.63807344717747938 10.11182654075573417 0 1.289476137713267967 1 0 0 0 0 1 forward_v I I I I #
coedge $-1 -1 $-1 $260 $261 $262 $263 forward $192 0 $-1 #
coedge $-1 -1 $-1 $264 $194 $265 $266 forward $167 0 $-1 #
coedge $-1 -1 $-1 $194 $267 $195 $229 reversed $167 0 $-1 #
coedge $-1 -1 $-1 $197 $268 $194 $227 reversed $234 0 $-1 #
edge $-1 111 $-1 $236 1.475412969186079115 $269 2.314828581197063251 $194 $270 forward @7 unknown #
coedge $-1 -1 $-1 $271 $195 $272 $273 forward $143 0 $-1 #
edge $-1 105 $-1 $236 -2.626564017739056123 $274 -0.5150286358507373263 $195 $275 forward @7 unknown #
coedge $-1 -1 $-1 $196 $276 $277 $278 reversed $143 0 $-1 #
coedge $-1 -1 $-1 $279 $280 $196 $232 reversed $281 0 $-1 #
edge $-1 110 $-1 $282 -5.719322203619014196e-15 $235 0.5153560762282944907 $196 $283 forward @7 unknown #
coedge $-1 -1 $-1 $284 $197 $280 $285 forward $234 0 $-1 #
loop $-1 -1 $-1 $-1 $226 $286 #
vertex $-1 35 $-1 $198 0 $287 #
vertex $-1 36 $-1 $229 0 $288 #
intcurve-curve $-1 -1 $-1 forward { exact_int_cur 21900 full nurbs 2 open 2 
	1.732549891581130375 2 1.761064514217081767 2 
	2.5638344666008277 10.45566905858354545 -0.6349999999999998979 1.000003864145230903 
	2.569522794287911527 10.46876289582768926 -0.6349999999999845768 1.000003839422923813 
	2.575211687087000545 10.4818580305344522 -0.6349999999999845768 1.000003812840160489 
	0 
	
	null_surface 
	null_surface 
	nullbs 
	nullbs 
	I I 
	0 
	0 
	0 
	
	0 F 1 F 0 UNEXTENDED UNEXTENDED } I I #
coedge $-1 -1 $-1 $289 $199 $209 $251 forward $18 0 $-1 #
ATTRIB_CUSTOM-attrib $-1 -1 $-1 $-1 $201 @22 generic_tag_attrib_def 3 3 -1 @23 generic_tag_attrib_def  1 2 @2 11 2620 1 -312 0 #
loop $-1 -1 $-1 $-1 $290 $201 #
cone-surface $-1 -1 $-1 2.805507167772609556 8.215603005189967334 0 -0.402021598033084071 -0.9156301844712882998 0 1.174262971797620958 -0.5155783245675227278 0 1 I I -0.003389393130620199646 0.9999942559906063178 1.282464243438714346 forward I I I I #
coedge $-1 -1 $-1 $291 $292 $293 $294 reversed $202 0 $-1 #
coedge $-1 -1 $-1 $295 $204 $292 $296 forward $173 0 $-1 #
coedge $-1 -1 $-1 $204 $295 $205 $248 reversed $173 0 $-1 #
coedge $-1 -1 $-1 $207 $293 $204 $246 forward $18 0 $-1 #
edge $-1 84 $-1 $297 -0.4663042147387306269 $249 0.4663042147387347902 $204 $298 forward @7 unknown #
coedge $-1 -1 $-1 $206 $205 $289 $299 reversed $148 0 $-1 #
edge $-1 100 $-1 $249 3.141592653589793116 $300 6.283185307179586232 $205 $301 forward @7 unknown #
vertex $-1 27 $-1 $246 1 $302 #
ellipse-curve $-1 -1 $-1 0.6958781686132593514 6.581056260578653117 0 0 0 1 -0.2746890553413863234 0.1206064794099251519 -0 1 I I #
edge $-1 69 $-1 $214 -0.144567982158010977 $252 0.1445679821580121704 $209 $303 forward @7 unknown #
vertex $-1 12 $-1 $299 0 $304 #
ellipse-curve $-1 -1 $-1 1.742258521958044426 5.79398546406989734 0 -0.402021598033084071 -0.9156301844712882998 0 1.166055110792727056 -0.5119745362110620368 0 1 I I #
point $-1 -1 $-1 0.5762034111653173696 6.305960000280959044 0 #
point $-1 -1 $-1 2.791178084589128972 5.017664811530586633 0 #
ATTRIB_CUSTOM-attrib $-1 -1 $-1 $-1 $220 @22 generic_tag_attrib_def 3 3 -1 @23 generic_tag_attrib_def  1 1 @1 2 5303 1 -312 0 #
face $305 160 $-1 $306 $307 $5 $-1 $19 forward single #
loop $-1 -1 $-1 $-1 $308 $220 #
coedge $-1 -1 $-1 $309 $310 $311 $312 forward $221 0 $-1 #
coedge $-1 -1 $-1 $313 $223 $314 $315 reversed $192 0 $-1 #
coedge $-1 -1 $-1 $223 $316 $317 $318 forward $192 0 $-1 #
coedge $-1 -1 $-1 $319 $320 $223 $263 reversed $321 0 $-1 #
edge $-1 119 $-1 $322 -0.6387350640049568318 $323 0 $223 $324 forward @7 unknown #
coedge $-1 -1 $-1 $325 $224 $326 $327 reversed $167 0 $-1 #
coedge $-1 -1 $-1 $328 $326 $224 $266 reversed $329 0 $-1 #
edge $-1 112 $-1 $269 -0.7261296684397463563 $330 0.003370870583603229748 $224 $331 forward @7 unknown #
coedge $-1 -1 $-1 $225 $332 $333 $334 forward $167 0 $-1 #
coedge $-1 -1 $-1 $226 $335 $328 $336 forward $234 0 $-1 #
vertex $-1 41 $-1 $227 1 $337 #
intcurve-curve $-1 -1 $-1 forward { int_int_cur 21900 full nubs 3 open 9 
	1.475412969186079115 3 1.587946199262184388 2 1.708471962324055182 2 1.820917188847032797 2 1.928307860091721837 3 
	2.035698531336413986 2 2.148143757859388714 2 2.26866952092126084 2 2.314828581197063251 3 
	2.575211687087000545 10.4818580305344522 -0.6349999999999845768 
	2.540127798201162523 10.49938689211868592 -0.6349999999999845768 
	2.504467468933196272 10.52496627204588897 -0.6349999999999845768 
	2.449499126397083337 10.57986296912522128 -0.6349999999999845768 
	2.422126839543335741 10.61954913097364894 -0.6349999999999845768 
	2.391907889143628729 10.69108530466594154 -0.6349999999999845768 
	2.382694653522700712 10.73510967205766953 -0.6349999999999845768 
	2.382948036125156488 10.80838786657283812 -0.6349999999999845768 
	2.391717944149799546 10.8504393792269731 -0.6349999999999845768 
	2.406109067239011523 10.88321609260106371 -0.6349999999999845768 
	2.420500190328223944 10.91599280597515431 -0.6349999999999845768 
	2.445523676494046672 10.95090793369038096 -0.6349999999999845768 
	2.499300060563705905 11.00068602636716797 -0.6349999999999845768 
	2.537946197847717134 11.02369699566169814 -0.6349999999999845768 
	2.611062468228014133 11.04986224199092248 -0.6349999999999845768 
	2.658804061535443797 11.05656849268198627 -0.6349999999999845768 
	2.714315021539406292 11.05419666249184729 -0.6349999999999845768 
	2.730628010353789659 11.05246131417870004 -0.6350000000000000089 
	2.74702950212555308 11.04953567285726734 -0.6350000000000000089 
	0.0005188122054436592693 
	
	torus 3.722912575140734148 10.30505314043942988 0 -0.402021598033084071 -0.9156301844712882998 0 1.272090607336140433 -0.2999999999999998224 0 0 -1 forward_v I I I I 
	plane 12.76969255576405793 10.42868405547900323 -0.6349999999999845768 0 0 -1 1 0 0 reverse_v I I I I 
	nullbs 
	nullbs 
	I I 
	0 
	0 
	0 
	
	0 } I I #
coedge $-1 -1 $-1 $338 $228 $339 $340 forward $143 0 $-1 #
coedge $-1 -1 $-1 $333 $341 $228 $273 reversed $234 0 $-1 #
edge $-1 106 $-1 $274 0.9462134102487846921 $342 1.807171813013713102 $228 $343 forward @7 unknown #
vertex $-1 37 $-1 $273 0 $344 #
ellipse-curve $-1 -1 $-1 3.602502020576209052 10.03081031660205724 0 -0.402021598033084071 -0.9156301844712882998 0 1.180415458329514333 -0.5182796689633023535 0 1 I I #
coedge $-1 -1 $-1 $230 $338 $345 $346 reversed $143 0 $-1 #
coedge $-1 -1 $-1 $347 $348 $230 $278 forward $18 0 $-1 #
edge $-1 80 $-1 $282 -0.4351586697148957517 $349 0.4351586697148970839 $230 $350 forward @7 unknown #
coedge $-1 -1 $-1 $351 $231 $348 $352 reversed $281 0 $-1 #
coedge $-1 -1 $-1 $231 $351 $233 $285 reversed $281 0 $-1 #
loop $-1 -1 $-1 $-1 $231 $353 #
vertex $-1 22 $-1 $352 1 $354 #
ellipse-curve $-1 -1 $-1 3.513439685956800673 9.829818537101623122 -2.220446049250313081e-16 -0.550297641291732087 -0.8349685658686536449 0 -1.091353123710103734 0.7192714484637339201 -7.146949193177673772e-15 0.9857537942971772438 I I #
coedge $-1 -1 $-1 $341 $233 $355 $356 forward $234 0 $-1 #
edge $-1 133 $-1 $235 0.1697643601788368928 $357 0.2901802757990414317 $233 $358 forward @7 unknown #
face $359 166 $-1 $360 $234 $5 $-1 $361 reversed single #
point $-1 -1 $-1 2.5638344666008277 10.45566905858354545 -0.6349999999999998979 #
point $-1 -1 $-1 2.575211687087000545 10.4818580305344522 -0.6349999999999845768 #
coedge $-1 -1 $-1 $362 $238 $247 $299 forward $18 0 $-1 #
coedge $-1 -1 $-1 $363 $364 $365 $366 reversed $240 0 $-1 #
coedge $-1 -1 $-1 $367 $242 $364 $368 forward $202 0 $-1 #
coedge $-1 -1 $-1 $242 $367 $243 $296 reversed $202 0 $-1 #
coedge $-1 -1 $-1 $245 $365 $242 $294 forward $18 0 $-1 #
edge $-1 83 $-1 $369 -1.567406927174695985 $297 1.574185726415104236 $242 $370 forward @7 unknown #
coedge $-1 -1 $-1 $244 $243 $362 $371 reversed $173 0 $-1 #
edge $-1 101 $-1 $297 3.141592653589793116 $372 6.283185307179586232 $243 $373 forward @7 unknown #
vertex $-1 26 $-1 $294 1 $374 #
straight-curve $-1 -1 $-1 1.001569072047243658 7.283747672995271039 0 -0.3989158581598128972 -0.9169875343256417288 0 I I #
edge $-1 70 $-1 $252 -1.574185726415108899 $300 1.56740692717469865 $247 $375 forward @7 unknown #
vertex $-1 13 $-1 $371 0 $376 #
ellipse-curve $-1 -1 $-1 1.983470095248393461 6.343360419119640881 0 -0.402021598033084071 -0.9156301844712882998 0 1.167917169187189019 -0.5127921017567028672 0 1 I I #
point $-1 -1 $-1 0.8155529260612044418 6.856152520876343637 0 #
straight-curve $-1 -1 $-1 2.849745858669949783 5.14983786969471069 0 0.4051227194746840343 0.9142623158401730343 -0 I I #
point $-1 -1 $-1 2.908313632750771482 5.282010927858835636 0 #
ATTRIB_CUSTOM-attrib $-1 -1 $-1 $-1 $257 @22 generic_tag_attrib_def 3 3 -1 @23 generic_tag_attrib_def  1 3 @3 126 30963 1 -312 0 #
face $377 161 $-1 $378 $379 $5 $-1 $380 reversed single #
loop $-1 -1 $-1 $-1 $381 $257 #
coedge $-1 -1 $-1 $382 $382 $383 $384 forward $258 0 $-1 #
coedge $-1 -1 $-1 $310 $259 $325 $385 reversed $221 0 $-1 #
coedge $-1 -1 $-1 $259 $309 $386 $387 reversed $221 0 $-1 #
coedge $-1 -1 $-1 $388 $389 $259 $312 reversed $390 0 $-1 #
edge $-1 122 $-1 $391 0 $392 0.4776165712683301257 $259 $393 forward @7 unknown #
coedge $-1 -1 $-1 $394 $260 $363 $395 reversed $192 0 $-1 #
coedge $-1 -1 $-1 $396 $397 $260 $315 forward $18 0 $-1 #
edge $-1 74 $-1 $398 -1.574185726415110231 $323 -0.3446394746516380225 $260 $399 forward @7 unknown #
coedge $-1 -1 $-1 $261 $345 $400 $401 forward $192 0 $-1 #
coedge $-1 -1 $-1 $402 $403 $261 $318 reversed $404 0 $-1 #
edge $-1 121 $-1 $405 -0.4360187659920289893 $322 0.1853228538164261308 $261 $406 forward @7 unknown #
coedge $-1 -1 $-1 $407 $262 $403 $408 reversed $321 0 $-1 #
coedge $-1 -1 $-1 $262 $407 $396 $409 reversed $321 0 $-1 #
loop $-1 -1 $-1 $-1 $320 $410 #
vertex $-1 48 $-1 $318 1 $411 #
vertex $-1 17 $-1 $263 1 $412 #
intcurve-curve $-1 -1 $-1 forward { int_int_cur 21900 full nubs 3 open 4 
	-0.6387350640049568318 3 -0.5070323102920868408 2 -0.2535161551460434204 2 0 3 
	4.328016890721141152 8.236233388610846973 -0.635000000000000564 
	4.356931041777739821 8.236233388610846973 -0.5983686861256297673 
	4.384002317644467794 8.236233388610846973 -0.555326685955746191 
	4.444203093362848023 8.236233388610846973 -0.4419069114851738589 
	4.476045256679133999 8.236233388610846973 -0.3553322080250167492 
	4.517244158115040875 8.236233388610846973 -0.1766333750148479376 
	4.526584150018805985 8.236233388610846973 -0.08450538504868118639 
	4.526584150018805985 8.236233388610846973 0 
	0.0003842418427990862266 
	
	torus 3.13201187608814946 8.959238590363426624 0 -0.402021598033084071 -0.9156301844712882998 0 1.285216979056790443 -0.2999999999999998224 0 0 -1 forward_v I I I I 
	plane 4.308795335707550578 8.236233388610846973 5.310382685379518842e-16 -0 -1 0 1 -0 1.224646799147353207e-16 forward_v I I I I 
	nullbs 
	nullbs 
	I I 
	0 
	0 
	0 
	
	0 } I I #
coedge $-1 -1 $-1 $413 $264 $309 $385 forward $167 0 $-1 #
coedge $-1 -1 $-1 $265 $414 $264 $327 forward $329 0 $-1 #
edge $-1 113 $-1 $415 -1.851782685354505187 $330 -1.570796326794894116 $264 $416 forward @5 knife #
coedge $-1 -1 $-1 $414 $265 $268 $336 reversed $329 0 $-1 #
loop $-1 -1 $-1 $-1 $265 $417 #
vertex $-1 42 $-1 $266 1 $418 #
intcurve-curve $-1 -1 $-1 forward { int_int_cur 21900 full nubs 3 open 3 
	-0.7261296684397463563 3 -0 2 0.003370870583603229748 3 
	2.747029502125553524 11.04953567285726734 -0.6350000000000002309 
	2.711505632445324387 11.07832388174286109 -0.4583087818461313856 
	2.679050172148730091 11.09102027126064449 -0.2454138280048594467 
	2.67875517859131973 11.09114979536485635 -0.002247195092792965594 
	2.678754497091275333 11.09115009458496814 -0.001123623527867821095 
	2.678754497091275333 11.09115009458496814 -7.789308452498087934e-17 
	0.0001540320326777779014 
	
	cone 2.55814801768135025 10.81646103924358115 0 0 0 1 0.1920488062046579181 0.2304718118021504836 0 1 I I 0 1 0.3000000000000002109 forward I I I I 
	torus 3.722912575140734148 10.30505314043942988 0 -0.402021598033084071 -0.9156301844712882998 0 1.272090607336140433 0.2999999999999998224 0 0 -1 forward_v I I I I 
	nullbs 
	nullbs 
	I F -0 
	0 
	1 -0 
	0 
	
	0 } I I #
coedge $-1 -1 $-1 $267 $419 $382 $420 forward $167 0 $-1 #
coedge $-1 -1 $-1 $383 $272 $267 $334 reversed $234 0 $-1 #
edge $-1 118 $-1 $421 1.36440632549708285 $274 2.381202750997364781 $267 $422 forward @7 unknown #
coedge $-1 -1 $-1 $268 $423 $424 $425 forward $234 0 $-1 #
edge $-1 138 $-1 $426 0 $269 0.01366539427505459973 $268 $427 forward @7 unknown #
point $-1 -1 $-1 2.74702950212555308 11.04953567285726734 -0.6350000000000000089 #
coedge $-1 -1 $-1 $276 $271 $428 $429 forward $143 0 $-1 #
coedge $-1 -1 $-1 $430 $431 $271 $340 reversed $379 0 $-1 #
edge $-1 107 $-1 $342 2.625254522790948286 $432 2.675637355651946159 $271 $433 forward @7 unknown #
coedge $-1 -1 $-1 $272 $284 $430 $434 forward $234 0 $-1 #
vertex $-1 38 $-1 $273 1 $435 #
intcurve-curve $-1 -1 $-1 forward { exact_int_cur 21900 full nurbs 2 open 2 
	0.9462134102487846921 2 1.807171813013713102 2 
	4.629792354065417115 9.579762602669662286 -0.6349999999999845768 1.000003812788164304 
	4.45494994800653199 9.185723893574227361 -0.6350000000000000089 1.000004615405883923 
	4.280629110793183756 8.792863639093631889 -0.6350000000000000089 1.000003721957986924 
	0 
	
	null_surface 
	null_surface 
	nullbs 
	nullbs 
	I I 
	0 
	0 
	0 
	
	0 F 1 F 0 UNEXTENDED UNEXTENDED } I I #
point $-1 -1 $-1 4.629792354065417115 9.579762602669662286 -0.6349999999999845768 #
coedge $-1 -1 $-1 $316 $394 $276 $346 forward $192 0 $-1 #
edge $-1 109 $-1 $349 3.141592653589793116 $436 5.824878310244034019 $276 $437 forward @7 unknown #
coedge $-1 -1 $-1 $365 $277 $394 $438 forward $18 0 $-1 #
coedge $-1 -1 $-1 $277 $439 $279 $352 forward $18 0 $-1 #
vertex $-1 23 $-1 $438 0 $440 #
straight-curve $-1 -1 $-1 2.248494868081694076 10.15005490998307103 0 -0.3989158581598125641 -0.9169875343256418398 0 I I #
coedge $-1 -1 $-1 $280 $279 $441 $442 reversed $281 0 $-1 #
edge $-1 79 $-1 $443 0.6180752311737586213 $282 0.9082555069727999975 $348 $444 forward @7 unknown #
face $445 163 $-1 $446 $281 $5 $-1 $447 reversed single #
point $-1 -1 $-1 2.422086562246694719 10.54908998556535948 0 #
coedge $-1 -1 $-1 $441 $448 $284 $356 reversed $449 0 $-1 #
edge $-1 134 $-1 $357 -0.8438187779194680216 $450 -0 $284 $451 forward @7 unknown #
vertex $-1 54 $-1 $285 1 $452 #
straight-curve $-1 -1 $-1 2.422086562246694719 10.54908998556535948 -0.6350000000000000089 0.8349685658686536449 -0.550297641291732087 0 I I #
ATTRIB_CUSTOM-attrib $-1 -1 $-1 $-1 $286 @22 generic_tag_attrib_def 3 3 -1 @23 generic_tag_attrib_def  1 3 @3 410 0 1 -312 0 #
face $453 167 $-1 $454 $404 $5 $-1 $361 reversed single #
plane-surface $-1 -1 $-1 12.76969255576405793 10.42868405547900323 -0.6349999999999845768 0 0 -1 1 0 0 reverse_v I I I I #
coedge $-1 -1 $-1 $455 $289 $295 $371 forward $18 0 $-1 #
coedge $-1 -1 $-1 $456 $290 $313 $395 forward $240 0 $-1 #
coedge $-1 -1 $-1 $290 $456 $291 $368 reversed $240 0 $-1 #
coedge $-1 -1 $-1 $293 $347 $290 $366 forward $18 0 $-1 #
edge $-1 82 $-1 $457 -0.5121617976991243992 $369 0.5121617976991252874 $290 $458 forward @7 unknown #
coedge $-1 -1 $-1 $292 $291 $455 $459 reversed $202 0 $-1 #
edge $-1 102 $-1 $369 3.141592653589793116 $460 6.283185307179586232 $291 $461 forward @7 unknown #
vertex $-1 25 $-1 $366 1 $462 #
ellipse-curve $-1 -1 $-1 1.307259975481225966 7.986439085411888072 0 0 0 1 -0.274689055341386712 0.1206064794099253323 -0 1 I I #
edge $-1 71 $-1 $300 -0.4663042147387331804 $372 0.4663042147387322922 $295 $463 forward @7 unknown #
vertex $-1 14 $-1 $459 0 $464 #
ellipse-curve $-1 -1 $-1 2.358396672811895023 7.197279942491634053 0 -0.402021598033084071 -0.9156301844712882998 0 1.17081145477861237 -0.514062882622560835 0 1 I I #
point $-1 -1 $-1 1.187585218033282652 7.711342825114194 0 #
ellipse-curve $-1 -1 $-1 3.029850448593178758 5.556289622610885992 0 0 0 1 0.2746890553413863234 -0.1206064794099251519 0 1 I I #
point $-1 -1 $-1 3.15138726443558248 5.830568317362939013 0 #
ATTRIB_CUSTOM-attrib $-1 -1 $-1 $-1 $306 @22 generic_tag_attrib_def 3 3 -1 @23 generic_tag_attrib_def  1 3 @3 405 0 1 -312 0 #
face $465 162 $-1 $353 $466 $5 $-1 $467 reversed single #
loop $-1 -1 $-1 $-1 $468 $306 #
plane-surface $-1 -1 $-1 2.336776227600060984 9.611775228870074628 0 -0.3882370859080303549 -0.9215595288019330367 0 0.9215595288019330367 -0.3882370859080303549 -0 forward_v I I I I #
coedge $-1 -1 $-1 $469 $386 $470 $471 forward $307 0 $-1 #
coedge $-1 -1 $-1 $308 $308 $332 $420 reversed $258 0 $-1 #
coedge $-1 -1 $-1 $472 $333 $308 $384 reversed $234 0 $-1 #
edge $-1 124 $-1 $473 2.445544146583319201 $421 4.665088470334119108 $308 $474 forward @7 unknown #
edge $-1 114 $-1 $415 -3.141592653589793116 $392 -2.735513880097816486 $325 $475 forward @7 unknown #
coedge $-1 -1 $-1 $381 $469 $310 $387 forward $307 0 $-1 #
edge $-1 123 $-1 $391 0.6542715061513294517 $415 0.7594960426418225774 $310 $476 forward @7 unknown #
coedge $-1 -1 $-1 $477 $311 $469 $478 reversed $390 0 $-1 #
coedge $-1 -1 $-1 $311 $479 $413 $480 reversed $390 0 $-1 #
loop $-1 -1 $-1 $-1 $388 $454 #
vertex $-1 50 $-1 $387 0 $481 #
vertex $-1 44 $-1 $480 0 $482 #
intcurve-curve $-1 -1 $-1 forward { int_int_cur 21900 full nubs 3 open 3 
	0 3 0.4023587874612904458 2 0.4776165712683301257 3 
	2.853322316945469783 11.13501487793101141 0 
	2.853322316945469783 11.13501487793101141 -0.1341195958204301486 
	2.851280673253125286 11.10523468872557373 -0.2760555826043988858 
	2.842245003066629749 11.03365619439409429 -0.4246330273468503225 
	2.840610780562611737 11.02134961319187134 -0.4474821494755866769 
	2.838724629902548369 11.00806334821727006 -0.4696272596474443395 
	0.000394614667580235395 
	
	cone 0.4545797196741419022 11.34652238879130159 0 0 0 1 2.219160786636984017 -0.9348940464924524463 0 1 I I 0 -1 2.408049309111902403 forward I I I I 
	sphere 3.63807344717747938 10.11182654075573417 0 1.289476137713267967 1 0 0 0 0 1 forward_v I I I I 
	nullbs 
	nullbs 
	I I 
	0 
	0 
	0 
	
	0 } I I #
coedge $-1 -1 $-1 $345 $313 $347 $438 reversed $192 0 $-1 #
edge $-1 103 $-1 $457 3.141592653589793116 $398 6.283185307179586232 $363 $483 forward @7 unknown #
coedge $-1 -1 $-1 $484 $314 $320 $409 forward $18 0 $-1 #
coedge $-1 -1 $-1 $314 $455 $456 $485 forward $18 0 $-1 #
vertex $-1 16 $-1 $315 0 $486 #
ellipse-curve $-1 -1 $-1 4.308795335707550578 8.442553606623762974 0 0 0 1 0.2746890553413863234 -0.1206064794099251519 0 1 I I #
coedge $-1 -1 $-1 $428 $487 $316 $401 reversed $466 0 $-1 #
edge $-1 120 $-1 $436 0.5345745180591818801 $405 0.5975571125185067389 $316 $488 forward @7 unknown #
coedge $-1 -1 $-1 $403 $317 $487 $489 forward $404 0 $-1 #
coedge $-1 -1 $-1 $317 $402 $319 $408 forward $404 0 $-1 #
loop $-1 -1 $-1 $-1 $317 $360 #
vertex $-1 49 $-1 $318 0 $490 #
intcurve-curve $-1 -1 $-1 forward { int_int_cur 21900 full nubs 3 open 7 
	-0.4360187659920289893 3 -0.3402308654168917368 2 -0.2198922222746853006 2 -0.1074638801725473769 2 0 3 
	0.1074638801725459059 2 0.1853228538164261308 3 
	4.308795335707550578 8.768306387454511963 -0.6350000000000001199 
	4.338707128268450397 8.751654496627811142 -0.6350000000000001199 
	4.367802810377201084 8.729569878005433381 -0.6349999999999845768 
	4.418756426226846834 8.678640466959004485 -0.6349999999999845768 
	4.446059365010441411 8.638997412345258198 -0.6349999999999845768 
	4.47621619027530393 8.567508825510060433 -0.6349999999999845768 
	4.485403983159645946 8.523486040509926198 -0.6349999999999845768 
	4.485128461018692114 8.450189150925435655 -0.6349999999999845768 
	4.476344099919791653 8.408110739753405838 -0.6349999999999845768 
	4.461943166307190012 8.375311682277942538 -0.6349999999999845768 
	4.447542232694589259 8.342512624802479237 -0.6349999999999845768 
	4.422508724895653387 8.307568652876566873 -0.6349999999999845768 
	4.377187581526414739 8.265591799704573361 -0.6349999999999845768 
	4.353026087702756008 8.248693345586739056 -0.635000000000000564 
	4.328016890721141152 8.236233388610846973 -0.635000000000000564 
	0.0005168982154672476783 
	
	torus 3.13201187608814946 8.959238590363426624 0 -0.402021598033084071 -0.9156301844712882998 0 1.285216979056790443 -0.2999999999999998224 0 0 -1 forward_v I I I I 
	plane 12.76969255576405793 10.42868405547900323 -0.6349999999999845768 0 0 -1 1 0 0 reverse_v I I I I 
	nullbs 
	nullbs 
	I I 
	0 
	0 
	0 
	
	0 } I I #
coedge $-1 -1 $-1 $320 $319 $491 $492 forward $321 0 $-1 #
edge $-1 135 $-1 $493 -7.021918523204380591 $322 -7.002696968190790017 $403 $494 forward @7 unknown #
edge $-1 75 $-1 $323 -1.029211146716136671 $495 -0.8114223324048803754 $396 $496 forward @7 unknown #
face $497 165 $-1 $286 $321 $5 $-1 $498 reversed single #
point $-1 -1 $-1 4.328016890721141152 8.236233388610846973 -0.635000000000000564 #
point $-1 -1 $-1 4.526584150018806874 8.236233388610846973 0 #
coedge $-1 -1 $-1 $419 $325 $389 $480 forward $167 0 $-1 #
coedge $-1 -1 $-1 $326 $328 $499 $500 forward $329 0 $-1 #
vertex $-1 43 $-1 $387 1 $501 #
ellipse-curve $-1 -1 $-1 2.558148017681350694 10.81646103924358115 0 0 0 1 -0.2746890553413863234 0.1206064794099251519 -0 1 I I #
face $502 170 $-1 $-1 $329 $5 $-1 $503 reversed single #
point $-1 -1 $-1 2.678754497091275333 11.09115009458496814 -7.789308452498087934e-17 #
coedge $-1 -1 $-1 $332 $413 $472 $504 forward $167 0 $-1 #
edge $-1 117 $-1 $473 -2.578141127466320182 $421 -0.5634515261234734895 $332 $475 forward @7 unknown #
vertex $-1 47 $-1 $334 0 $505 #
intcurve-curve $-1 -1 $-1 forward { int_int_cur 21900 full nubs 3 open 10 
	1.36440632549708285 3 1.45618560938307362 2 1.587946199262184166 2 1.708471962324054072 2 1.820917188847028356 2 
	1.928307860091721171 3 2.035698531336409545 2 2.148143757859386493 2 2.268669520921259064 2 2.381202750997364781 3 
	4.75910325504301035 10.16489140303577621 -0.6349999999999845768 
	4.791685226492857552 10.15915098887941248 -0.6349999999999845768 
	4.824774773393879279 10.14890669160153713 -0.6349999999999845768 
	4.893001392011288253 10.11895073917648524 -0.6349999999999845768 
	4.936822794770903577 10.08966898466234774 -0.6349999999999845768 
	4.996326023884385847 10.03024331175363848 -0.6349999999999845768 
	5.023698310738132555 9.990557149905210821 -0.6349999999999845768 
	5.053917261137839567 9.919020976212920004 -0.6349999999999845768 
	5.063130496758767585 9.874996608821193789 -0.6349999999999845768 
	5.062877114156312253 9.801718414306023419 -0.6349999999999845768 
	5.054107206131667418 9.759666901651886661 -0.6349999999999845768 
	5.039716083042454997 9.726890188277796057 -0.6349999999999845768 
	5.025324959953243464 9.694113474903705452 -0.6349999999999845768 
	5.000301473787420292 9.659198347188482359 -0.6349999999999845768 
	4.946525089717762391 9.609420254511695347 -0.6349999999999845768 
	4.907878952433751607 9.586409285217161624 -0.6349999999999845768 
	4.834762682053453275 9.560244038887937279 -0.6349999999999845768 
	4.787021088746023167 9.553537788196873493 -0.6349999999999845768 
	4.709405573502398745 9.55685408505545908 -0.6349999999999845768 
	4.666440487835504136 9.56579640995429159 -0.6349999999999845768 
	4.629792354065417115 9.579762602669662286 -0.6349999999999845768 
	0.0005188122054418317381 
	
	torus 3.722912575140734148 10.30505314043942988 0 -0.402021598033084071 -0.9156301844712882998 0 1.272090607336140433 -0.2999999999999998224 0 0 -1 forward_v I I I I 
	plane 12.76969255576405793 10.42868405547900323 -0.6349999999999845768 0 0 -1 1 0 0 reverse_v I I I I 
	nullbs 
	nullbs 
	I I 
	0 
	0 
	0 
	
	0 } I I #
coedge $-1 -1 $-1 $335 $472 $479 $506 forward $234 0 $-1 #
coedge $-1 -1 $-1 $507 $499 $335 $425 reversed $508 0 $-1 #
edge $-1 137 $-1 $509 0.3714492494698679592 $426 0.4743724841833604211 $335 $510 forward @7 unknown #
vertex $-1 56 $-1 $425 1 $511 #
ellipse-curve $-1 -1 $-1 2.55814801768135025 10.81646103924358115 -0.6350000000000000089 -0 -0 1 0.1920488062046579181 0.2304718118021504836 0 1 I I #
coedge $-1 -1 $-1 $512 $400 $338 $429 reversed $466 0 $-1 #
edge $-1 108 $-1 $432 2.679116417055127819 $436 2.686689311303438021 $338 $513 forward @7 unknown #
coedge $-1 -1 $-1 $514 $339 $341 $434 reversed $379 0 $-1 #
coedge $-1 -1 $-1 $339 $468 $512 $515 reversed $379 0 $-1 #
vertex $-1 39 $-1 $429 0 $516 #
ellipse-curve $-1 -1 $-1 3.249721516374569852 9.22716717325367064 -2.220446049250313081e-16 -0.3882370859080303549 -0.9215595288019330367 0 -1.185451508577597401 0.4994102114854934715 -1.470983032287184717e-12 0.999887413757326593 I I #
edge $-1 128 $-1 $450 -2.139871648520849323 $342 -0.03056365219399804004 $341 $517 forward @7 unknown #
point $-1 -1 $-1 4.280629110793183756 8.792863639093631889 -0.6350000000000000089 #
vertex $-1 40 $-1 $429 1 $518 #
ellipse-curve $-1 -1 $-1 3.252617662733324089 9.233926067888297951 0 -0.402021598033084071 -0.9156301844712882998 0 1.17771448881662999 -0.5170937665124831772 0 1 I I #
edge $-1 81 $-1 $349 -1.567406927174701092 $457 1.574185726415109343 $394 $519 forward @7 unknown #
coedge $-1 -1 $-1 $348 $520 $521 $522 forward $18 0 $-1 #
point $-1 -1 $-1 2.074903173916694321 9.751019834400780795 0 #
coedge $-1 -1 $-1 $521 $355 $351 $442 forward $449 0 $-1 #
edge $-1 132 $-1 $357 -0.6350000000000000089 $443 0 $351 $523 forward @7 unknown #
vertex $-1 21 $-1 $522 1 $524 #
straight-curve $-1 -1 $-1 3.180451360346081113 10.04927912238800225 0 -0.8349685658686536449 0.550297641291732087 0 I I #
ATTRIB_CUSTOM-attrib $-1 -1 $-1 $-1 $353 @22 generic_tag_attrib_def 3 3 -1 @23 generic_tag_attrib_def  1 3 @3 407 0 1 -312 0 #
face $525 164 $-1 $410 $449 $5 $-1 $526 reversed single #
plane-surface $-1 -1 $-1 2.422086562246695607 10.54908998556535948 0 -0.550297641291732087 -0.8349685658686536449 0 0.8349685658686536449 -0.550297641291732087 0 forward_v I I I I #
coedge $-1 -1 $-1 $355 $521 $514 $527 forward $449 0 $-1 #
loop $-1 -1 $-1 $-1 $521 $446 #
vertex $-1 52 $-1 $356 1 $528 #
straight-curve $-1 -1 $-1 2.336776227600060984 9.611775228870074628 -0.6350000000000000089 -0.3882370859080302994 -0.9215595288019330367 0 I I #
point $-1 -1 $-1 2.664377970973990539 10.3894044642437624 -0.6350000000000000089 #
ATTRIB_CUSTOM-attrib $-1 -1 $-1 $-1 $360 @22 generic_tag_attrib_def 3 3 -1 @23 generic_tag_attrib_def  1 3 @3 411 0 1 -312 0 #
face $529 168 $-1 $530 $390 $5 $-1 $531 reversed single #
coedge $-1 -1 $-1 $397 $362 $367 $459 forward $18 0 $-1 #
coedge $-1 -1 $-1 $364 $363 $397 $485 reversed $240 0 $-1 #
vertex $-1 24 $-1 $438 1 $532 #
straight-curve $-1 -1 $-1 1.631244195974988376 8.731181329757490062 0 -0.3989158581598129527 -0.9169875343256418398 0 I I #
edge $-1 72 $-1 $372 -1.57418572641510357 $460 1.567406927174694653 $367 $533 forward @7 unknown #
vertex $-1 15 $-1 $485 0 $534 #
ellipse-curve $-1 -1 $-1 2.599608246102244724 7.74665489754137937 0 -0.402021598033084071 -0.9156301844712882998 0 1.172673513173073889 -0.5148804481682016654 0 1 I I #
point $-1 -1 $-1 1.426934732929170835 8.261535345709580369 0 #
straight-curve $-1 -1 $-1 3.340297696013045048 6.256892688616006559 0 0.4051227194746840898 0.9142623158401731454 -0 I I #
point $-1 -1 $-1 3.529208127590507615 6.683217059869073218 0 #
ATTRIB_CUSTOM-attrib $-1 -1 $-1 $-1 $378 @22 generic_tag_attrib_def 3 3 -1 @23 generic_tag_attrib_def  1 3 @3 406 0 1 -312 0 #
loop $-1 -1 $-1 $-1 $535 $378 #
plane-surface $-1 -1 $-1 4.308795335707550578 8.780997695831127103 0 -1 0 0 -0 -1 9.748037114392334389e-16 forward_v I I I I #
coedge $-1 -1 $-1 $431 $514 $520 $536 reversed $379 0 $-1 #
coedge $-1 -1 $-1 $386 $381 $388 $478 forward $307 0 $-1 #
coedge $-1 -1 $-1 $499 $507 $381 $471 reversed $508 0 $-1 #
edge $-1 125 $-1 $415 -0.9597171243295444798 $537 -0.8567938896160524065 $381 $538 forward @7 unknown #
coedge $-1 -1 $-1 $423 $383 $419 $504 reversed $234 0 $-1 #
vertex $-1 46 $-1 $420 0 $539 #
ellipse-curve $-1 -1 $-1 3.63807344717747938 10.11182654075573417 -0.6349999999999845768 0 0 -1 0 -1.122285039431581533 0 1 I I #
ellipse-curve $-1 -1 $-1 3.838789156085339993 10.56896954618805928 0 -0.402021598033084071 -0.9156301844712882998 0 1.088592332199331159 -0.4779633048576721888 0 1 I I #
ellipse-curve $-1 -1 $-1 3.63807344717747938 10.11182654075573417 0 0 0 1 0 1.289476137713267967 0 1 I I #
coedge $-1 -1 $-1 $479 $388 $507 $540 reversed $390 0 $-1 #
edge $-1 126 $-1 $537 0.2502407457040152217 $391 0.3107709761465531906 $469 $541 forward @7 unknown #
coedge $-1 -1 $-1 $389 $477 $423 $506 reversed $390 0 $-1 #
edge $-1 115 $-1 $392 -0.171089728375580119 $542 -0 $413 $543 forward @7 unknown #
point $-1 -1 $-1 2.853322316945469783 11.13501487793101141 0 #
point $-1 -1 $-1 2.838724629902548369 11.00806334821727006 -0.4696272596474443395 #
ellipse-curve $-1 -1 $-1 3.011406089442975276 8.684551112838555298 0 -0.402021598033084071 -0.9156301844712882998 0 1.175852430422167583 -0.5162762009668422358 0 1 I I #
coedge $-1 -1 $-1 $520 $396 $535 $544 forward $18 0 $-1 #
edge $-1 73 $-1 $460 -0.5121617976991246213 $398 0.5121617976991238441 $456 $545 forward @7 unknown #
point $-1 -1 $-1 4.187258519865142858 8.168274911871712618 0 #
coedge $-1 -1 $-1 $400 $491 $402 $489 reversed $466 0 $-1 #
intcurve-curve $-1 -1 $-1 forward { int_int_cur 21900 full nubs 3 open 2 
	0.5345745180591818801 3 0.5975571125185067389 3 
	4.308795335707550578 8.770194920644453163 -0.5690689999651517006 
	4.308795335707550578 8.770160352065751397 -0.590148105500591269 
	4.308795335707550578 8.76964647218014548 -0.6123842235460890127 
	4.308795335707550578 8.768306387454511963 -0.6350000000000001199 
	0.0004178994699017328724 
	
	torus 3.13201187608814946 8.959238590363426624 0 -0.402021598033084071 -0.9156301844712882998 0 1.285216979056790443 -0.2999999999999998224 0 0 -1 forward_v I I I I 
	plane 4.308795335707550578 8.780997695831127103 0 -1 0 0 -0 -1 9.748037114392334389e-16 forward_v I I I I 
	nullbs 
	nullbs 
	I I 
	0 
	0 
	0 
	
	0 } I I #
edge $-1 131 $-1 $405 -0.5320729988436649904 $493 -0 $402 $546 forward @7 unknown #
point $-1 -1 $-1 4.308795335707550578 8.768306387454511963 -0.6350000000000001199 #
coedge $-1 -1 $-1 $487 $535 $407 $492 reversed $466 0 $-1 #
edge $-1 130 $-1 $493 -0.6350000000000000089 $495 -5.310382685379518842e-16 $491 $547 forward @7 unknown #
vertex $-1 53 $-1 $489 1 $548 #
straight-curve $-1 -1 $-1 11.33071385891193117 8.236233388610846973 -0.6350000000000014522 1 0 -1.224646799147353207e-16 I I #
vertex $-1 18 $-1 $409 1 $549 #
straight-curve $-1 -1 $-1 3.497373003302670202 8.236233388610846973 0 -1 0 0 I I #
ATTRIB_CUSTOM-attrib $-1 -1 $-1 $-1 $410 @22 generic_tag_attrib_def 3 3 -1 @23 generic_tag_attrib_def  1 3 @3 409 0 1 -312 0 #
plane-surface $-1 -1 $-1 4.308795335707550578 8.236233388610846973 5.310382685379518842e-16 -0 -1 0 1 -0 1.224646799147353207e-16 forward_v I I I I #
coedge $-1 -1 $-1 $424 $470 $414 $500 reversed $508 0 $-1 #
edge $-1 140 $-1 $426 -0.6350000000000000089 $415 0 $499 $550 forward @7 unknown #
point $-1 -1 $-1 2.750196823886009945 11.04693285104573341 0 #
ATTRIB_CUSTOM-attrib $-1 -1 $-1 $-1 $417 @22 generic_tag_attrib_def 3 3 -1 @23 generic_tag_attrib_def  1 3 @3 414 0 1 -312 0 #
cone-surface $-1 -1 $-1 2.55814801768135025 10.81646103924358115 0 0 0 1 0.1920488062046579181 0.2304718118021504836 0 1 I I 0 1 0.3000000000000002109 forward I I I I #
edge $-1 116 $-1 $542 0.4788098944032997406 $473 0.5639015345946384317 $419 $551 forward @7 unknown #
point $-1 -1 $-1 4.75910325504301035 10.16489140303577621 -0.6349999999999845768 #
edge $-1 136 $-1 $542 -0.2627500823220778603 $509 -0.2502407457040152217 $423 $552 forward @7 unknown #
coedge $-1 -1 $-1 $470 $424 $477 $540 forward $508 0 $-1 #
loop $-1 -1 $-1 $-1 $470 $530 #
vertex $-1 55 $-1 $506 1 $553 #
straight-curve $-1 -1 $-1 3.146282936692139209 10.78588679190592892 -0.6350000000000000089 -0.8349685658686536449 0.550297641291732087 0 I I #
point $-1 -1 $-1 2.750196823886008168 11.04693285104573164 -0.6350000000000000089 #
coedge $-1 -1 $-1 $535 $428 $431 $515 forward $466 0 $-1 #
ellipse-curve $-1 -1 $-1 4.308795335707550578 11.66430969996892486 0 -1 0 0 0 3.221756093345157446 -1.30281290559390915e-16 0.4020096191542978925 I I #
coedge $-1 -1 $-1 $468 $430 $448 $527 reversed $379 0 $-1 #
edge $-1 127 $-1 $432 -0.5778633726756530198 $554 0 $431 $555 forward @7 unknown #
point $-1 -1 $-1 4.308795335707550578 8.780997695831127103 -0.5778633726756530198 #
straight-curve $-1 -1 $-1 4.308795335707550578 8.780997695831127103 -0.6350000000000000089 0.9215595288019330367 -0.3882370859080303549 0 I I #
point $-1 -1 $-1 4.308795335707550578 8.770194920644453163 -0.5690689999651517006 #
ellipse-curve $-1 -1 $-1 1.955228416468748565 9.475923574103090274 0 0 0 1 -0.2746890553413863234 0.1206064794099251519 -0 1 I I #
coedge $-1 -1 $-1 $439 $484 $468 $536 forward $18 0 $-1 #
coedge $-1 -1 $-1 $448 $441 $439 $522 reversed $449 0 $-1 #
edge $-1 78 $-1 $556 0.4149510191839620998 $443 1.258769797103429955 $439 $557 forward @7 unknown #
straight-curve $-1 -1 $-1 2.664377970973990539 10.3894044642437624 0 0 0 1 I I #
point $-1 -1 $-1 2.664377970973990539 10.3894044642437624 0 #
ATTRIB_CUSTOM-attrib $-1 -1 $-1 $-1 $446 @22 generic_tag_attrib_def 3 3 -1 @23 generic_tag_attrib_def  1 3 @3 408 0 1 -312 0 #
plane-surface $-1 -1 $-1 2.664377970973990539 10.3894044642437624 0 -0.9215595288019330367 0.3882370859080302994 0 -0.3882370859080302994 -0.9215595288019330367 -0 forward_v I I I I #
edge $-1 129 $-1 $556 0 $450 0.6350000000000000089 $448 $558 forward @7 unknown #
point $-1 -1 $-1 2.336776227600060984 9.611775228870074628 -0.6350000000000000089 #
ATTRIB_CUSTOM-attrib $-1 -1 $-1 $-1 $454 @22 generic_tag_attrib_def 3 3 -1 @23 generic_tag_attrib_def  1 3 @3 412 0 1 -312 0 #
face $559 169 $-1 $417 $508 $5 $-1 $560 reversed single #
cone-surface $-1 -1 $-1 0.4545797196741419022 11.34652238879130159 0 0 0 1 2.219160786636984017 -0.9348940464924524463 0 1 I I 0 -1 2.408049309111902403 forward I I I I #
point $-1 -1 $-1 1.835553659020807693 9.200827313805397978 0 #
ellipse-curve $-1 -1 $-1 3.650744943432913558 6.957495754621124462 0 0 0 1 0.274689055341386712 -0.1206064794099253323 0 1 I I #
point $-1 -1 $-1 3.772281759275318613 7.231774449373177482 0 #
coedge $-1 -1 $-1 $491 $512 $484 $544 reversed $466 0 $-1 #
edge $-1 77 $-1 $554 -1.597869257782474905 $556 0.5420023907383747508 $520 $561 forward @7 unknown #
vertex $-1 51 $-1 $471 1 $562 #
straight-curve $-1 -1 $-1 3.551530454827037442 10.51880278121990031 0 0.8349685658686536449 -0.550297641291732087 0 I I #
point $-1 -1 $-1 2.918475057127668748 10.97304768934034236 -0.6349999999999845768 #
edge $-1 139 $-1 $509 -0.6350000000000000089 $537 0 $477 $563 forward @7 unknown #
ellipse-curve $-1 -1 $-1 0.4545797196741419022 11.34652238879130159 0 0 0 1 2.219160786636984017 -0.9348940464924524463 0 1 I I #
vertex $-1 45 $-1 $504 0 $564 #
intcurve-curve $-1 -1 $-1 forward { int_int_cur 21900 full nubs 3 open 2 
	-0.171089728375580119 3 -0 3 
	2.838724629902548369 11.00806334821727006 -0.4696272596474443395 
	2.839679058139589873 11.01478645190408834 -0.5227339943997728611 
	2.840325354163340865 11.01953679109753992 -0.5779730580888398084 
	2.840404214116738046 11.02011320259698124 -0.6349999999999997868 
	5.989561190239620623e-05 
	
	cone 0.4545797196741419022 11.34652238879130159 0 0 0 1 2.219160786636984017 -0.9348940464924524463 0 1 I I 0 -1 2.408049309111902403 forward I I I I 
	torus 3.722912575140734148 10.30505314043942988 0 -0.402021598033084071 -0.9156301844712882998 0 1.272090607336140433 0.2999999999999998224 0 0 -1 forward_v I I I I 
	nullbs 
	nullbs 
	I I 
	0 
	0 
	0 
	
	0 } I I #
edge $-1 76 $-1 $495 0.02148903839759519485 $554 0.5662533456178753255 $484 $565 forward @7 unknown #
straight-curve $-1 -1 $-1 3.979770139570230736 7.700024680622445494 0 0.4051227194746839788 0.9142623158401731454 -0 I I #
straight-curve $-1 -1 $-1 4.308795335707550578 8.236233388610846973 -0.635000000000000564 0 -1 -9.748037114392334389e-16 I I #
straight-curve $-1 -1 $-1 4.308795335707550578 8.236233388610846973 5.310382685379518842e-16 0 0 1 I I #
point $-1 -1 $-1 4.308795335707550578 8.236233388610846973 -0.635000000000000564 #
point $-1 -1 $-1 4.308795335707550578 8.236233388610846973 0 #
straight-curve $-1 -1 $-1 2.750196823886008168 11.04693285104573164 0 0 0 1 I I #
intcurve-curve $-1 -1 $-1 forward { int_int_cur 21900 full nubs 3 open 2 
	0.4788098944032997406 3 0.5639015345946384317 3 
	2.840404214116738046 11.02011320259697769 -0.6350000000000000089 
	2.86661422153619494 11.00807475853890338 -0.6350000000000000089 
	2.894106702346045168 10.99168952724473414 -0.6349999999999845768 
	2.918475057127668748 10.97304768934034236 -0.6349999999999845768 
	0.0005188122054436592693 
	
	torus 3.722912575140734148 10.30505314043942988 0 -0.402021598033084071 -0.9156301844712882998 0 1.272090607336140433 -0.2999999999999998224 0 0 -1 forward_v I I I I 
	plane 12.76969255576405793 10.42868405547900323 -0.6349999999999845768 0 0 -1 1 0 0 reverse_v I I I I 
	nullbs 
	nullbs 
	I I 
	0 
	0 
	0 
	
	0 } I I #
ellipse-curve $-1 -1 $-1 0.4545797196741419022 11.34652238879130159 -0.6350000000000000089 0 0 -1 2.219160786636984017 -0.9348940464924524463 0 1 I I #
point $-1 -1 $-1 2.836134489569294814 10.9902944377487799 -0.6350000000000000089 #
vertex $-1 19 $-1 $544 1 $566 #
straight-curve $-1 -1 $-1 4.308795335707550578 8.780997695831127103 0 0 0 1 I I #
vertex $-1 20 $-1 $522 0 $567 #
straight-curve $-1 -1 $-1 2.175676853117511911 9.229373163155020876 0 0.3882370859080302994 0.9215595288019330367 -0 I I #
straight-curve $-1 -1 $-1 2.336776227600060984 9.611775228870074628 0 0 0 -1 I I #
ATTRIB_CUSTOM-attrib $-1 -1 $-1 $-1 $530 @22 generic_tag_attrib_def 3 3 -1 @23 generic_tag_attrib_def  1 3 @3 413 0 1 -312 0 #
plane-surface $-1 -1 $-1 2.836134489569295702 10.99029443774878168 0 0.550297641291732087 0.8349685658686536449 -0 -0.8349685658686536449 0.550297641291732087 0 forward_v I I I I #
straight-curve $-1 -1 $-1 2.836263695418439035 9.40134980013462318 0 -0.9215595288019330367 0.3882370859080303549 0 I I #
point $-1 -1 $-1 2.836134489569294814 10.9902944377487799 0 #
straight-curve $-1 -1 $-1 2.836134489569294814 10.9902944377487799 0 0 0 1 I I #
point $-1 -1 $-1 2.840404214116738046 11.02011320259697769 -0.6350000000000000089 #
straight-curve $-1 -1 $-1 4.308795335707550578 8.214744350213251778 0 0 1 -0 I I #
point $-1 -1 $-1 4.308795335707550578 8.780997695831127103 0 #
point $-1 -1 $-1 2.336776227600060984 9.611775228870074628 0 #
End-of-ASM-data 