22700 0 2 4           
16 Autodesk Neutron 20 ASM 227.1.1.65535 NT 24 Wed Aug 25 12:28:10 2021 
10 9.999999999999999547e-07 1.000000000000000036e-10 
asmheader $-1 -1 @13 227.1.1.65535 #
body $2 -1 $-1 $3 $-1 $-1 #
ATTRIB_CUSTOM-attrib $-1 -1 $4 $-1 $1 @20 Timestamp_attrib_def 1 1629894478202169 #
lump $-1 -1 $-1 $-1 $5 $1 #
ATTRIB_CUSTOM-attrib $-1 -1 $-1 $2 $1 @22 generic_tag_attrib_def 3 3 -1 @23 generic_tag_attrib_def  1 3 @3 312 2 0 0 #
shell $-1 -1 $-1 $-1 $-1 $6 $-1 $3 #
face $7 0 $-1 $8 $9 $5 $-1 $10 reversed single #
ATTRIB_CUSTOM-attrib $-1 -1 $-1 $-1 $6 @22 generic_tag_attrib_def 3 3 -1 @23 generic_tag_attrib_def  1 3 @3 817 4755 1 -312 0 #
face $11 311 $-1 $12 $13 $5 $-1 $14 reversed single #
loop $-1 -1 $-1 $-1 $15 $6 #
cone-surface $-1 -1 $-1 1.160698119273372964 4.469444042920824423 0 0.402021598033084071 0.9156301844712882998 0 0 0 -0.1500000000000000222 1 I I -0.8571673007021122226 0.5150380749100543776 0.1500000000000000222 forward I I I I #
ATTRIB_CUSTOM-attrib $-1 -1 $-1 $-1 $8 @22 generic_tag_attrib_def 3 3 -1 @23 generic_tag_attrib_def  1 3 @3 818 0 1 -312 0 #
face $16 312 $-1 $17 $18 $5 $-1 $19 reversed single #
loop $-1 -1 $-1 $-1 $20 $8 #
cone-surface $-1 -1 $-1 1.084262117531573422 4.295356106557434828 0 0.402021598033084071 0.9156301844712882998 0 0 0 -0.3000000000000000444 1 I I 0 1 0.3000000000000000444 forward I I I I #
coedge $-1 -1 $-1 $21 $22 $23 $24 reversed $9 0 $-1 #
ATTRIB_CUSTOM-attrib $-1 -1 $-1 $-1 $12 @22 generic_tag_attrib_def 3 3 -1 @23 generic_tag_attrib_def  1 2 @2 68 31931 1 -312 0 #
face $25 313 $-1 $26 $27 $5 $-1 $28 forward single #
loop $-1 -1 $-1 $-1 $29 $12 #
plane-surface $-1 -1 $-1 2.685950670897789827 7.648491004595374676 0 0 0 1 1 0 0 forward_v I I I I #
coedge $-1 -1 $-1 $30 $31 $29 $32 reversed $13 0 $-1 #
coedge $-1 -1 $-1 $22 $15 $31 $33 reversed $9 0 $-1 #
coedge $-1 -1 $-1 $15 $21 $34 $35 reversed $9 0 $-1 #
coedge $-1 -1 $-1 $34 $29 $15 $24 forward $18 0 $-1 #
edge $-1 227 $-1 $36 -0.1749950095822991325 $37 0.174995009582300215 $23 $38 forward @7 unknown #
ATTRIB_CUSTOM-attrib $-1 -1 $-1 $-1 $17 @22 generic_tag_attrib_def 3 3 -1 @23 generic_tag_attrib_def  1 1 @1 5 14517 1 -312 0 #
face $39 314 $-1 $40 $41 $5 $-1 $42 forward single #
loop $-1 -1 $-1 $-1 $43 $17 #
torus-surface $-1 -1 $-1 1.314851137765109979 4.820537510159814687 0 -0.402021598033084071 -0.9156301844712882998 0 0.9870542987242277855 0.2268502189456054197 0 0 -1 forward_v I I I I #
coedge $-1 -1 $-1 $23 $44 $20 $32 forward $18 0 $-1 #
coedge $-1 -1 $-1 $45 $20 $46 $47 reversed $13 0 $-1 #
coedge $-1 -1 $-1 $20 $45 $21 $33 forward $13 0 $-1 #
edge $-1 230 $-1 $48 -0.09999999999999936717 $36 0.1000000000000000749 $29 $49 forward @7 unknown #
edge $-1 228 $-1 $50 1.570796326794896558 $36 4.712388980384689674 $31 $51 forward @7 unknown #
coedge $-1 -1 $-1 $52 $23 $22 $35 forward $18 0 $-1 #
edge $-1 229 $-1 $37 -0.1749950095823000484 $50 0.1749950095822991603 $34 $53 forward @7 unknown #
vertex $-1 172 $-1 $24 0 $54 #
vertex $-1 171 $-1 $35 0 $55 #
straight-curve $-1 -1 $-1 1.298042646944066014 4.409140803215860771 0 -0.5777918237414043645 0.8161841755496010986 0 I I #
ATTRIB_CUSTOM-attrib $-1 -1 $-1 $-1 $26 @22 generic_tag_attrib_def 3 3 -1 @23 generic_tag_attrib_def  1 1 @1 7 2711 1 -312 0 #
face $56 315 $-1 $57 $58 $5 $-1 $59 forward single #
loop $-1 -1 $-1 $-1 $60 $26 #
cone-surface $-1 -1 $-1 1.684139404585135891 5.661615416237080645 0 -0.402021598033084071 -0.9156301844712882998 0 1.165606454084813892 -0.5117775465423706205 0 1 I I -0.003389393130620310668 0.9999942559906062067 1.27301007967301727 forward I I I I #
coedge $-1 -1 $-1 $61 $62 $63 $64 forward $27 0 $-1 #
coedge $-1 -1 $-1 $29 $65 $66 $67 reversed $18 0 $-1 #
coedge $-1 -1 $-1 $31 $30 $52 $68 reversed $13 0 $-1 #
coedge $-1 -1 $-1 $66 $69 $30 $47 forward $70 0 $-1 #
edge $-1 231 $-1 $71 1.570796326794896558 $48 4.712388980384689674 $46 $72 forward @7 unknown #
vertex $-1 174 $-1 $67 0 $73 #
straight-curve $-1 -1 $-1 1.358951172872960189 4.174749627147509301 0 0.402021598033084071 0.9156301844712882998 0 I I #
vertex $-1 173 $-1 $35 1 $74 #
ellipse-curve $-1 -1 $-1 1.124464277334881857 4.386919125004563824 0 0.402021598033084071 0.9156301844712882998 0 0 0 -0.3000000000000000444 1 I I #
coedge $-1 -1 $-1 $75 $34 $45 $68 forward $18 0 $-1 #
straight-curve $-1 -1 $-1 1.023353591602679469 4.529747282625786298 0 -0.9919046835878538859 -0.1269846395296660158 -0 I I #
point $-1 -1 $-1 1.399153332676268402 4.266312645594638298 0 #
point $-1 -1 $-1 1.196931961211864293 4.551968960837085021 0 #
ATTRIB_CUSTOM-attrib $-1 -1 $-1 $-1 $40 @22 generic_tag_attrib_def 3 3 -1 @23 generic_tag_attrib_def  1 1 @1 8 4506 1 -312 0 #
face $76 316 $-1 $77 $78 $5 $-1 $79 forward single #
loop $-1 -1 $-1 $-1 $80 $40 #
torus-surface $-1 -1 $-1 1.862864308603219055 6.068672941594769554 0 -0.402021598033084071 -0.9156301844712882998 0 1.274516895337839628 0.2999999999999998224 0 0 -1 forward_v I I I I #
coedge $-1 -1 $-1 $81 $82 $83 $84 forward $41 0 $-1 #
coedge $-1 -1 $-1 $85 $43 $86 $87 reversed $27 0 $-1 #
coedge $-1 -1 $-1 $43 $85 $88 $89 reversed $27 0 $-1 #
coedge $-1 -1 $-1 $90 $91 $43 $64 reversed $18 0 $-1 #
edge $-1 236 $-1 $92 -0.9151178854991850464 $93 1.419596172320495731 $43 $94 forward @7 unknown #
coedge $-1 -1 $-1 $44 $95 $96 $97 reversed $18 0 $-1 #
coedge $-1 -1 $-1 $98 $46 $44 $67 forward $70 0 $-1 #
edge $-1 262 $-1 $48 0.2407391322727275851 $99 0.70715008853981276 $66 $100 forward @7 unknown #
edge $-1 232 $-1 $50 -0.1000000000000000749 $71 0.1000000000000002554 $52 $101 forward @7 unknown #
coedge $-1 -1 $-1 $46 $98 $75 $102 forward $70 0 $-1 #
loop $-1 -1 $-1 $-1 $46 $103 #
vertex $-1 175 $-1 $47 0 $104 #
ellipse-curve $-1 -1 $-1 1.044059957728265209 4.203793088110306719 0 0.402021598033084071 0.9156301844712882998 -0 0 0 -0.3000000000000000444 1 I I #
point $-1 -1 $-1 1.318749013069651754 4.083186608700381193 0 #
point $-1 -1 $-1 0.8497752219934953111 4.507525604414489351 0 #
coedge $-1 -1 $-1 $105 $52 $69 $102 reversed $18 0 $-1 #
ATTRIB_CUSTOM-attrib $-1 -1 $-1 $-1 $57 @22 generic_tag_attrib_def 3 3 -1 @23 generic_tag_attrib_def  1 1 @1 9 12876 1 -312 0 #
face $106 317 $-1 $107 $108 $5 $-1 $109 forward single #
loop $-1 -1 $-1 $-1 $110 $57 #
cone-surface $-1 -1 $-1 2.170933384030144353 6.770320180805638799 0 -0.402021598033084071 -0.9156301844712882998 0 1.169364311982900251 -0.5134274921896323507 0 1 I I -0.003389393130620255157 0.9999942559906062067 1.277114201579238939 forward I I I I #
coedge $-1 -1 $-1 $111 $112 $113 $114 forward $58 0 $-1 #
coedge $-1 -1 $-1 $115 $60 $116 $117 reversed $41 0 $-1 #
coedge $-1 -1 $-1 $60 $115 $111 $118 forward $41 0 $-1 #
coedge $-1 -1 $-1 $113 $119 $60 $84 reversed $18 0 $-1 #
edge $-1 239 $-1 $120 -0.1445679821580116431 $121 0.1445679821580116431 $60 $122 forward @7 unknown #
coedge $-1 -1 $-1 $62 $61 $123 $124 forward $27 0 $-1 #
coedge $-1 -1 $-1 $125 $126 $61 $87 forward $127 0 $-1 #
edge $-1 263 $-1 $128 -3.141592653589793116 $93 1.224646799147352961e-16 $61 $129 forward @7 tangent #
coedge $-1 -1 $-1 $130 $131 $62 $89 forward $132 0 $-1 #
edge $-1 264 $-1 $92 -1.224646799147353454e-16 $133 3.141592653589793116 $62 $134 forward @7 tangent #
coedge $-1 -1 $-1 $119 $63 $131 $135 reversed $18 0 $-1 #
coedge $-1 -1 $-1 $63 $105 $125 $136 reversed $18 0 $-1 #
vertex $-1 179 $-1 $135 1 $137 #
vertex $-1 178 $-1 $136 0 $138 #
ellipse-curve $-1 -1 $-1 0.4110744281410672052 5.217354656678353741 0 0 0 1 -0.2077109078205168213 0.09119868753466729705 -0 1 I I #
coedge $-1 -1 $-1 $65 $123 $126 $139 reversed $18 0 $-1 #
coedge $-1 -1 $-1 $140 $141 $65 $97 forward $142 0 $-1 #
edge $-1 261 $-1 $99 -0.3104356829744471802 $143 -0.1577013648837396753 $96 $144 forward @7 unknown #
coedge $-1 -1 $-1 $69 $66 $141 $145 forward $70 0 $-1 #
vertex $-1 204 $-1 $67 1 $146 #
straight-curve $-1 -1 $-1 1.098320996977316222 4.17996893936576086 0 0.9156301844712882998 -0.402021598033084071 0 I I #
straight-curve $-1 -1 $-1 0.8095730621901870983 4.415962585967360354 0 -0.402021598033084071 -0.9156301844712882998 -0 I I #
edge $-1 233 $-1 $147 -0.8256718239943577897 $71 -0.3592608677272726148 $69 $100 forward @7 unknown #
face $148 323 $-1 $149 $70 $5 $-1 $150 forward single #
point $-1 -1 $-1 0.7693709023868784413 4.324399567520231358 0 #
coedge $-1 -1 $-1 $91 $75 $151 $152 reversed $18 0 $-1 #
ATTRIB_CUSTOM-attrib $-1 -1 $-1 $-1 $77 @22 generic_tag_attrib_def 3 3 -1 @23 generic_tag_attrib_def  1 2 @2 10 19496 1 -312 0 #
face $153 318 $-1 $154 $155 $5 $-1 $156 forward single #
loop $-1 -1 $-1 $-1 $157 $77 #
torus-surface $-1 -1 $-1 2.479002459457069651 7.471967420016506267 0 -0.402021598033084071 -0.9156301844712882998 0 1.279711507820640692 0.3000000000000002665 0 0 -1 forward_v I I I I #
coedge $-1 -1 $-1 $158 $159 $160 $161 forward $78 0 $-1 #
coedge $-1 -1 $-1 $162 $80 $82 $118 reversed $58 0 $-1 #
coedge $-1 -1 $-1 $80 $162 $158 $163 forward $58 0 $-1 #
coedge $-1 -1 $-1 $160 $83 $80 $114 reversed $18 0 $-1 #
edge $-1 240 $-1 $164 -1.567406927174699094 $120 1.574185726415108233 $80 $165 forward @7 unknown #
coedge $-1 -1 $-1 $82 $81 $166 $167 forward $41 0 $-1 #
coedge $-1 -1 $-1 $168 $169 $81 $117 forward $170 0 $-1 #
edge $-1 265 $-1 $171 0 $121 3.141592653589793116 $116 $172 forward @7 unknown #
edge $-1 266 $-1 $173 0 $120 3.141592653589793116 $82 $174 forward @7 unknown #
coedge $-1 -1 $-1 $83 $90 $168 $175 reversed $18 0 $-1 #
vertex $-1 182 $-1 $114 1 $176 #
vertex $-1 181 $-1 $175 0 $177 #
straight-curve $-1 -1 $-1 0.5185329505003215544 6.173392962779450599 0 -0.3989158581598130082 -0.9169875343256417288 0 I I #
coedge $-1 -1 $-1 $95 $178 $85 $124 reversed $18 0 $-1 #
edge $-1 259 $-1 $128 -1.419596172320496619 $133 0.9151178854991858236 $85 $179 forward @7 unknown #
coedge $-1 -1 $-1 $180 $86 $91 $136 forward $127 0 $-1 #
coedge $-1 -1 $-1 $86 $180 $95 $139 forward $127 0 $-1 #
loop $-1 -1 $-1 $-1 $125 $181 #
vertex $-1 202 $-1 $139 1 $182 #
ellipse-curve $-1 -1 $-1 1.224692934502739528 4.61519637254777404 0 -0.402021598033084071 -0.9156301844712882998 0 -0.9350631033410597981 0.4105539217058602475 1.250638146195067309e-16 1 I I #
coedge $-1 -1 $-1 $183 $88 $178 $184 forward $132 0 $-1 #
coedge $-1 -1 $-1 $88 $183 $90 $135 forward $132 0 $-1 #
loop $-1 -1 $-1 $-1 $131 $185 #
vertex $-1 201 $-1 $184 0 $186 #
ellipse-curve $-1 -1 $-1 1.387138360835107109 4.985176334835726308 0 0.402021598033084071 0.9156301844712882998 -0 -1.030417455977487684 0.452420725439992566 1.378173700091642901e-16 1 I I #
edge $-1 237 $-1 $187 2.59403667939279492 $92 4.056710539088978607 $131 $188 forward @7 unknown #
edge $-1 235 $-1 $93 1.721996481269297385 $189 3.141592653589794004 $125 $190 forward @7 unknown #
point $-1 -1 $-1 0.3567209048576196473 5.437597060275718874 0 #
point $-1 -1 $-1 0.2896298311616797294 5.025750294253634287 0 #
edge $-1 260 $-1 $143 -3.141592653589792228 $128 -1.72199648126929783 $126 $191 forward @7 unknown #
coedge $-1 -1 $-1 $151 $96 $180 $192 reversed $142 0 $-1 #
coedge $-1 -1 $-1 $96 $151 $98 $145 reversed $142 0 $-1 #
loop $-1 -1 $-1 $-1 $151 $154 #
vertex $-1 203 $-1 $139 0 $193 #
straight-curve $-1 -1 $-1 1.870610812351792163 4.179923612390112453 0 0.402021598033084071 0.9156301844712881888 -0 I I #
edge $-1 271 $-1 $99 0 $147 3.141592653589793116 $98 $194 forward @7 unknown #
point $-1 -1 $-1 1.745808962995913038 3.89567933072174899 0 #
vertex $-1 176 $-1 $102 0 $195 #
ATTRIB_CUSTOM-attrib $-1 -1 $-1 $-1 $103 @22 generic_tag_attrib_def 3 3 -1 @23 generic_tag_attrib_def  1 1 @1 3 15510 1 -312 0 #
face $196 324 $-1 $197 $198 $5 $-1 $199 forward single #
plane-surface $-1 -1 $-1 1.044059957728264987 4.203793088110306719 0 -0.402021598033084071 -0.9156301844712882998 0 0 -0 -1 forward_v I I I I #
coedge $-1 -1 $-1 $141 $140 $105 $152 forward $142 0 $-1 #
edge $-1 234 $-1 $189 0.1577013648837396753 $147 0.3104356829744477908 $151 $200 forward @7 unknown #
ATTRIB_CUSTOM-attrib $-1 -1 $-1 $-1 $107 @22 generic_tag_attrib_def 3 3 -1 @23 generic_tag_attrib_def  1 2 @2 11 286 1 -312 0 #
face $201 319 $-1 $181 $142 $5 $-1 $202 forward single #
loop $-1 -1 $-1 $-1 $203 $107 #
cone-surface $-1 -1 $-1 2.805507167772609556 8.215603005189967334 0 -0.402021598033084071 -0.9156301844712882998 0 1.174262971797620958 -0.5155783245675227278 0 1 I I -0.003389393130620199646 0.9999942559906063178 1.282464243438714346 forward I I I I #
coedge $-1 -1 $-1 $204 $205 $206 $207 forward $108 0 $-1 #
coedge $-1 -1 $-1 $208 $110 $112 $163 reversed $78 0 $-1 #
coedge $-1 -1 $-1 $110 $208 $204 $209 forward $78 0 $-1 #
coedge $-1 -1 $-1 $206 $113 $110 $161 reversed $18 0 $-1 #
edge $-1 241 $-1 $210 -0.4663042147387306269 $164 0.4663042147387347902 $110 $211 forward @7 unknown #
coedge $-1 -1 $-1 $112 $111 $212 $213 forward $58 0 $-1 #
edge $-1 267 $-1 $214 0 $164 3.141592653589793116 $112 $215 forward @7 unknown #
vertex $-1 183 $-1 $161 1 $216 #
ellipse-curve $-1 -1 $-1 0.6958781686132593514 6.581056260578653117 0 0 0 1 -0.2746890553413863234 0.1206064794099251519 -0 1 I I #
coedge $-1 -1 $-1 $217 $212 $115 $167 reversed $18 0 $-1 #
edge $-1 256 $-1 $171 -0.144567982158010977 $173 0.1445679821580121704 $115 $218 forward @7 unknown #
coedge $-1 -1 $-1 $219 $116 $119 $175 forward $170 0 $-1 #
coedge $-1 -1 $-1 $116 $219 $217 $220 forward $170 0 $-1 #
loop $-1 -1 $-1 $-1 $168 $221 #
vertex $-1 199 $-1 $220 1 $222 #
ellipse-curve $-1 -1 $-1 1.626020287212227355 5.529245368404263949 0 -0.402021598033084071 -0.9156301844712882998 0 1.165157797376901394 -0.5115805568736780939 0 1 I I #
vertex $-1 198 $-1 $213 0 $223 #
ellipse-curve $-1 -1 $-1 1.742258521958044426 5.79398546406989734 0 -0.402021598033084071 -0.9156301844712882998 0 1.166055110792727056 -0.5119745362110620368 0 1 I I #
edge $-1 238 $-1 $121 1.319420996575217053 $187 1.704628646122977154 $168 $224 forward @7 unknown #
point $-1 -1 $-1 0.5762034111653173696 6.305960000280959044 0 #
point $-1 -1 $-1 0.4608624898353257393 6.040825925277942154 0 #
coedge $-1 -1 $-1 $123 $217 $130 $184 reversed $18 0 $-1 #
ellipse-curve $-1 -1 $-1 2.218627847389152752 4.423720363641275632 0 0 0 1 0.2077109078205168213 -0.09119868753466729705 0 1 I I #
coedge $-1 -1 $-1 $126 $125 $140 $192 forward $127 0 $-1 #
face $225 320 $-1 $221 $127 $5 $-1 $226 forward single #
point $-1 -1 $-1 2.159756037843799437 4.204642450841913792 2.465190328815661892e-32 #
coedge $-1 -1 $-1 $131 $130 $219 $227 forward $132 0 $-1 #
edge $-1 258 $-1 $133 2.226474768090606293 $228 3.689148627786765555 $130 $229 forward @7 unknown #
face $230 322 $-1 $103 $132 $5 $-1 $231 forward single #
point $-1 -1 $-1 2.417555816812594571 4.532755609395733742 -2.756347400183286296e-16 #
vertex $-1 180 $-1 $135 0 $232 #
ellipse-curve $-1 -1 $-1 0.3327608119222538186 5.53468420642045178 0 -0 -0 -1 -0.09156301844712876059 0.04020215980330837241 -0 1 I I #
vertex $-1 177 $-1 $136 1 $233 #
ellipse-curve $-1 -1 $-1 0.1290243917525500938 4.77236147675728084 0 -0 -0 -1 -0.2746890553413865455 0.1206064794099252352 -0 1 I I #
ellipse-curve $-1 -1 $-1 2.081900512970619399 3.914921003160314328 0 -0 -0 -1 0.2746890553413865455 -0.1206064794099252352 0 1 I I #
edge $-1 272 $-1 $189 -1.224646799147352961e-16 $143 3.141592653589793116 $140 $234 forward @7 tangent #
point $-1 -1 $-1 1.807211457629232854 4.035527482570239854 -1.877165448847897266e-16 #
ellipse-curve $-1 -1 $-1 1.044059957728264987 4.203793088110305831 0 -0.402021598033084071 -0.9156301844712882998 0 0.7017490052676477186 -0.3081137573885577297 0 1 I I #
point $-1 -1 $-1 0.3423109524606172682 4.511906845498863561 0 #
ATTRIB_CUSTOM-attrib $-1 -1 $-1 $-1 $149 @22 generic_tag_attrib_def 3 3 -1 @23 generic_tag_attrib_def  1 1 @1 2 17255 1 -312 0 #
face $235 325 $-1 $236 $237 $5 $-1 $199 forward single #
loop $-1 -1 $-1 $-1 $238 $149 #
sphere-surface $-1 -1 $-1 3.63807344717747938 10.11182654075573417 0 1.289476137713267967 1 0 0 0 0 1 forward_v I I I I #
straight-curve $-1 -1 $-1 0.4671128018164959483 4.796151127167227912 0 -0.402021598033084071 -0.9156301844712881888 0 I I #
ATTRIB_CUSTOM-attrib $-1 -1 $-1 $-1 $154 @22 generic_tag_attrib_def 3 3 -1 @23 generic_tag_attrib_def  1 1 @1 4 15395 1 -312 0 #
cone-surface $-1 -1 $-1 1.168861807084144111 4.488037369778670183 0 -0.402021598033084071 -0.9156301844712882998 0 0.7017490052676480516 -0.3081137573885582848 0 1 I I 0 1 0.7664109562670857745 forward I I I I #
coedge $-1 -1 $-1 $239 $240 $241 $242 forward $155 0 $-1 #
coedge $-1 -1 $-1 $243 $157 $159 $209 reversed $108 0 $-1 #
coedge $-1 -1 $-1 $157 $243 $239 $244 forward $108 0 $-1 #
coedge $-1 -1 $-1 $241 $160 $157 $207 reversed $18 0 $-1 #
edge $-1 242 $-1 $245 -1.567406927174695985 $210 1.574185726415104236 $157 $246 forward @7 unknown #
coedge $-1 -1 $-1 $159 $158 $247 $248 forward $78 0 $-1 #
edge $-1 268 $-1 $249 0 $210 3.141592653589793116 $159 $250 forward @7 unknown #
vertex $-1 184 $-1 $207 1 $251 #
straight-curve $-1 -1 $-1 1.001569072047243658 7.283747672995271039 0 -0.3989158581598128972 -0.9169875343256417288 0 I I #
coedge $-1 -1 $-1 $166 $247 $162 $213 reversed $18 0 $-1 #
edge $-1 255 $-1 $173 -1.574185726415108899 $214 1.56740692717469865 $162 $252 forward @7 unknown #
vertex $-1 197 $-1 $248 0 $253 #
ellipse-curve $-1 -1 $-1 1.983470095248393461 6.343360419119640881 0 -0.402021598033084071 -0.9156301844712882998 0 1.167917169187189019 -0.5127921017567028672 0 1 I I #
point $-1 -1 $-1 0.8155529260612044418 6.856152520876343637 0 #
coedge $-1 -1 $-1 $178 $166 $169 $220 reversed $18 0 $-1 #
straight-curve $-1 -1 $-1 2.849745858669949783 5.14983786969471069 0 0.4051227194746840343 0.9142623158401730343 -0 I I #
coedge $-1 -1 $-1 $169 $168 $183 $227 reversed $170 0 $-1 #
edge $-1 257 $-1 $228 -2.532075955860783711 $171 -2.146868306313032715 $169 $224 forward @7 unknown #
face $254 321 $-1 $185 $170 $5 $-1 $255 forward single #
point $-1 -1 $-1 2.791178084589128972 5.017664811530586633 0 #
point $-1 -1 $-1 2.908313632750771482 5.282010927858835636 0 #
ellipse-curve $-1 -1 $-1 1.709811995759804804 5.720086402642155399 0 0 0 1 0 1.289476137712440629 0 1 I I #
ATTRIB_CUSTOM-attrib $-1 -1 $-1 $-1 $181 @22 generic_tag_attrib_def 3 3 -1 @23 generic_tag_attrib_def  1 2 @2 41 31476 1 -312 0 #
torus-surface $-1 -1 $-1 1.105462452361584802 4.343641239958797584 0 -0.402021598033084071 -0.9156301844712882998 0 1.066410956267085819 -0.3000000000000000444 0 0 -1 forward_v I I I I #
edge $-1 273 $-1 $228 -3.141592653589793116 $187 1.224646799147353207e-16 $219 $256 forward @7 tangent #
vertex $-1 200 $-1 $184 1 $257 #
ellipse-curve $-1 -1 $-1 2.505247144750498478 4.58082047186809671 0 -0 -0 -1 0.09156301844712876059 -0.04020215980330837241 0 1 I I #
ATTRIB_CUSTOM-attrib $-1 -1 $-1 $-1 $185 @22 generic_tag_attrib_def 3 3 -1 @23 generic_tag_attrib_def  1 2 @2 63 21269 1 -312 0 #
torus-surface $-1 -1 $-1 1.419003978336376148 5.057752339144274245 0 -0.402021598033084071 -0.9156301844712882998 0 1.186333942279710785 -0.09999999999999992228 0 0 -1 forward_v I I I I #
point $-1 -1 $-1 0.4318665933360228415 5.548027522738713913 0 #
point $-1 -1 $-1 0.4037134470939366393 4.651754997347355314 0 #
ellipse-curve $-1 -1 $-1 1.105462452361584802 4.343641239958797584 0 0.402021598033084071 0.9156301844712882998 -0 -0.7017490052676481627 0.3081137573885578407 9.385827244239485098e-17 1 I I #
ATTRIB_CUSTOM-attrib $-1 -1 $-1 $-1 $197 @22 generic_tag_attrib_def 3 3 -1 @23 generic_tag_attrib_def  1 1 @1 2 13705 1 -312 0 #
face $258 326 $-1 $259 $260 $5 $-1 $261 forward single #
loop $-1 -1 $-1 $-1 $262 $197 #
coedge $-1 -1 $-1 $263 $264 $265 $266 forward $198 0 $-1 #
coedge $-1 -1 $-1 $267 $203 $205 $244 reversed $155 0 $-1 #
coedge $-1 -1 $-1 $203 $267 $268 $269 forward $155 0 $-1 #
coedge $-1 -1 $-1 $270 $206 $203 $242 reversed $18 0 $-1 #
edge $-1 243 $-1 $271 -0.5121617976991243992 $245 0.5121617976991252874 $203 $272 forward @7 unknown #
coedge $-1 -1 $-1 $205 $204 $273 $274 forward $108 0 $-1 #
edge $-1 269 $-1 $275 0 $245 3.141592653589793116 $205 $276 forward @7 unknown #
vertex $-1 185 $-1 $242 1 $277 #
ellipse-curve $-1 -1 $-1 1.307259975481225966 7.986439085411888072 0 0 0 1 -0.274689055341386712 0.1206064794099253323 -0 1 I I #
coedge $-1 -1 $-1 $212 $273 $208 $248 reversed $18 0 $-1 #
edge $-1 254 $-1 $214 -0.4663042147387331804 $249 0.4663042147387322922 $208 $278 forward @7 unknown #
vertex $-1 196 $-1 $274 0 $279 #
ellipse-curve $-1 -1 $-1 2.358396672811895023 7.197279942491634053 0 -0.402021598033084071 -0.9156301844712882998 0 1.17081145477861237 -0.514062882622560835 0 1 I I #
point $-1 -1 $-1 1.187585218033282652 7.711342825114194 0 #
ellipse-curve $-1 -1 $-1 3.029850448593178758 5.556289622610885992 0 0 0 1 0.2746890553413863234 -0.1206064794099251519 0 1 I I #
point $-1 -1 $-1 3.15138726443558248 5.830568317362939013 0 #
ATTRIB_CUSTOM-attrib $-1 -1 $-1 $-1 $221 @22 generic_tag_attrib_def 3 3 -1 @23 generic_tag_attrib_def  1 1 @1 6 21172 1 -312 0 #
sphere-surface $-1 -1 $-1 1.709811995759804804 5.720086402642155399 0 1.289476137712440629 1 0 0 0 0 1 forward_v I I I I #
ellipse-curve $-1 -1 $-1 1.439933306270157587 5.105420236816012647 0 -0.402021598033084071 -0.9156301844712882998 0 -1.008066712934134523 0.4426072859227009326 1.348279790529877257e-16 1 I I #
point $-1 -1 $-1 2.448000019204291888 4.662812950893311381 0 #
ATTRIB_CUSTOM-attrib $-1 -1 $-1 $-1 $236 @22 generic_tag_attrib_def 3 3 -1 @23 generic_tag_attrib_def  1 1 @1 1 16307 1 -312 0 #
face $280 327 $-1 $281 $282 $5 $-1 $283 forward single #
loop $-1 -1 $-1 $-1 $284 $236 #
torus-surface $-1 -1 $-1 3.722912575140734148 10.30505314043942988 0 -0.402021598033084071 -0.9156301844712882998 0 1.272090607336140433 0.2999999999999998224 0 0 -1 forward_v I I I I #
coedge $-1 -1 $-1 $285 $285 $286 $287 forward $237 0 $-1 #
coedge $-1 -1 $-1 $264 $238 $288 $289 forward $198 0 $-1 #
coedge $-1 -1 $-1 $238 $263 $290 $291 reversed $198 0 $-1 #
coedge $-1 -1 $-1 $292 $293 $238 $266 reversed $294 0 $-1 #
edge $-1 274 $-1 $295 -0.4776165712635578875 $296 0 $238 $297 forward @7 unknown #
coedge $-1 -1 $-1 $240 $239 $298 $299 forward $155 0 $-1 #
coedge $-1 -1 $-1 $300 $301 $240 $269 reversed $302 0 $-1 #
edge $-1 270 $-1 $303 0 $271 3.141592653589793116 $240 $304 forward @7 unknown #
coedge $-1 -1 $-1 $305 $241 $301 $306 reversed $18 0 $-1 #
vertex $-1 186 $-1 $306 1 $307 #
straight-curve $-1 -1 $-1 1.631244195974988376 8.731181329757490062 0 -0.3989158581598129527 -0.9169875343256418398 0 I I #
coedge $-1 -1 $-1 $247 $298 $243 $274 reversed $18 0 $-1 #
edge $-1 253 $-1 $249 -1.57418572641510357 $275 1.567406927174694653 $243 $308 forward @7 unknown #
vertex $-1 195 $-1 $299 0 $309 #
ellipse-curve $-1 -1 $-1 2.599608246102244724 7.74665489754137937 0 -0.402021598033084071 -0.9156301844712882998 0 1.172673513173073889 -0.5148804481682016654 0 1 I I #
point $-1 -1 $-1 1.426934732929170835 8.261535345709580369 0 #
straight-curve $-1 -1 $-1 3.340297696013045048 6.256892688616006559 0 0.4051227194746840898 0.9142623158401731454 -0 I I #
point $-1 -1 $-1 3.529208127590507615 6.683217059869073218 0 #
ATTRIB_CUSTOM-attrib $-1 -1 $-1 $-1 $259 @22 generic_tag_attrib_def 3 3 -1 @23 generic_tag_attrib_def  1 1 @1 0 12547 1 -312 0 #
face $310 328 $-1 $311 $312 $5 $-1 $19 reversed single #
loop $-1 -1 $-1 $-1 $313 $259 #
cone-surface $-1 -1 $-1 3.427559841654766792 9.632368192245179372 0 -0.402021598033084071 -0.9156301844712882998 0 1.17906497357307205 -0.5176867177378934315 0 1 I I -0.003389393130620699246 0.9999942559906064288 1.287708720801836515 forward I I I I #
coedge $-1 -1 $-1 $314 $315 $316 $317 forward $260 0 $-1 #
coedge $-1 -1 $-1 $262 $262 $318 $319 reversed $237 0 $-1 #
coedge $-1 -1 $-1 $320 $321 $262 $287 reversed $322 0 $-1 #
edge $-1 277 $-1 $323 -1.523495816744326659 $324 0.6960485070064740265 $262 $325 forward @7 unknown #
coedge $-1 -1 $-1 $326 $327 $263 $289 reversed $312 0 $-1 #
edge $-1 275 $-1 $296 0.6542715061513294517 $328 0.7594960426418225774 $263 $329 forward @7 unknown #
coedge $-1 -1 $-1 $330 $331 $264 $291 forward $260 0 $-1 #
edge $-1 276 $-1 $295 2.735513880097816486 $328 3.141592653589793116 $290 $332 forward @7 unknown #
coedge $-1 -1 $-1 $333 $265 $331 $334 reversed $294 0 $-1 #
coedge $-1 -1 $-1 $265 $335 $326 $336 reversed $294 0 $-1 #
loop $-1 -1 $-1 $-1 $293 $337 #
vertex $-1 205 $-1 $291 0 $338 #
vertex $-1 206 $-1 $289 0 $339 #
intcurve-curve $-1 -1 $-1 forward { int_int_cur 21900 full nubs 3 open 3 
	-0.4776165712635578875 3 -0.4023587874612903903 2 0 3 
	2.838724629902548369 11.00806334821727006 0.4696272596474443395 
	2.840610780562660587 11.02134961319221595 0.4474821494750118589 
	2.842245003066720344 11.03365619439480838 0.4246330273453657878 
	2.851280673253125286 11.10523468872557373 0.2760555826043988858 
	2.853322316945469783 11.13501487793101141 0.1341195958204301486 
	2.853322316945469783 11.13501487793101141 0 
	0.000394614667580235395 
	
	cone 0.4545797196741419022 11.34652238879130159 0 0 0 1 2.219160786636984017 -0.9348940464924524463 0 1 I I 0 -1 2.408049309111902403 forward I I I I 
	sphere 3.63807344717747938 10.11182654075573417 0 1.289476137713267967 1 0 0 0 0 1 forward_v I I I I 
	nullbs 
	nullbs 
	I I 
	0 
	0 
	0 
	
	0 } I I #
coedge $-1 -1 $-1 $273 $340 $267 $299 reversed $18 0 $-1 #
edge $-1 252 $-1 $275 -0.5121617976991246213 $303 0.5121617976991238441 $267 $341 forward @7 unknown #
coedge $-1 -1 $-1 $342 $268 $340 $343 forward $302 0 $-1 #
coedge $-1 -1 $-1 $268 $344 $270 $306 forward $302 0 $-1 #
loop $-1 -1 $-1 $-1 $342 $311 #
vertex $-1 194 $-1 $343 0 $345 #
ellipse-curve $-1 -1 $-1 3.011406089442975276 8.684551112838555298 0 -0.402021598033084071 -0.9156301844712882998 0 1.175852430422167583 -0.5162762009668422358 0 1 I I #
coedge $-1 -1 $-1 $346 $270 $347 $348 reversed $18 0 $-1 #
edge $-1 244 $-1 $349 -1.567406927174701092 $271 1.574185726415109343 $301 $350 forward @7 unknown #
point $-1 -1 $-1 1.835553659020807693 9.200827313805397978 0 #
ellipse-curve $-1 -1 $-1 3.650744943432913558 6.957495754621124462 0 0 0 1 0.274689055341386712 -0.1206064794099253323 0 1 I I #
point $-1 -1 $-1 3.772281759275318613 7.231774449373177482 0 #
ATTRIB_CUSTOM-attrib $-1 -1 $-1 $-1 $281 @22 generic_tag_attrib_def 3 3 -1 @23 generic_tag_attrib_def  1 2 @2 68 640 1 -312 0 #
face $351 329 $-1 $352 $302 $5 $-1 $353 forward single #
loop $-1 -1 $-1 $-1 $327 $281 #
coedge $-1 -1 $-1 $354 $355 $356 $357 forward $282 0 $-1 #
coedge $-1 -1 $-1 $358 $284 $355 $359 reversed $260 0 $-1 #
coedge $-1 -1 $-1 $284 $330 $360 $361 forward $260 0 $-1 #
coedge $-1 -1 $-1 $362 $356 $284 $317 reversed $322 0 $-1 #
edge $-1 279 $-1 $363 1.541787138986381089 $364 2.381202750997365669 $284 $365 forward @7 unknown #
coedge $-1 -1 $-1 $366 $358 $285 $319 forward $260 0 $-1 #
edge $-1 278 $-1 $323 0.5634515261234734895 $324 2.578141127466320182 $318 $332 forward @7 unknown #
coedge $-1 -1 $-1 $367 $286 $358 $368 reversed $322 0 $-1 #
coedge $-1 -1 $-1 $286 $369 $366 $370 reversed $322 0 $-1 #
loop $-1 -1 $-1 $-1 $356 $352 #
vertex $-1 209 $-1 $319 0 $371 #
vertex $-1 208 $-1 $287 1 $372 #
ellipse-curve $-1 -1 $-1 3.63807344717747938 10.11182654075573417 0.6349999999999845768 0 0 1 0 1.122285039431581533 0 1 I I #
coedge $-1 -1 $-1 $327 $288 $293 $336 forward $312 0 $-1 #
coedge $-1 -1 $-1 $288 $326 $373 $374 forward $312 0 $-1 #
vertex $-1 207 $-1 $289 1 $375 #
ellipse-curve $-1 -1 $-1 3.63807344717747938 10.11182654075573417 0 0 0 1 0 1.289476137713267967 0 1 I I #
coedge $-1 -1 $-1 $315 $290 $376 $377 forward $260 0 $-1 #
coedge $-1 -1 $-1 $290 $366 $292 $334 forward $260 0 $-1 #
ellipse-curve $-1 -1 $-1 3.838789156085339993 10.56896954618805928 0 -0.402021598033084071 -0.9156301844712882998 0 1.088592332199331159 -0.4779633048576721888 0 1 I I #
coedge $-1 -1 $-1 $335 $292 $369 $378 forward $294 0 $-1 #
edge $-1 283 $-1 $379 -0.5992208231143045793 $295 -0.461968388406099606 $331 $380 forward @7 unknown #
coedge $-1 -1 $-1 $293 $333 $381 $382 reversed $294 0 $-1 #
edge $-1 293 $-1 $296 -0.3107709761465531906 $383 -0.2502407457040152217 $326 $384 forward @7 unknown #
face $385 331 $-1 $386 $294 $5 $-1 $387 reversed single #
point $-1 -1 $-1 2.838724629902548369 11.00806334821727006 0.4696272596474443395 #
point $-1 -1 $-1 2.853322316945469783 11.13501487793101141 0 #
coedge $-1 -1 $-1 $298 $388 $300 $343 reversed $18 0 $-1 #
straight-curve $-1 -1 $-1 3.979770139570230736 7.700024680622445494 0 0.4051227194746839788 0.9142623158401731454 -0 I I #
coedge $-1 -1 $-1 $389 $300 $390 $391 forward $302 0 $-1 #
edge $-1 251 $-1 $303 -1.574185726415110231 $392 -0.3446394746516380225 $300 $393 forward @7 unknown #
coedge $-1 -1 $-1 $301 $394 $395 $396 forward $302 0 $-1 #
point $-1 -1 $-1 4.187258519865142858 8.168274911871712618 0 #
coedge $-1 -1 $-1 $397 $305 $398 $399 forward $18 0 $-1 #
coedge $-1 -1 $-1 $395 $354 $305 $348 forward $282 0 $-1 #
edge $-1 245 $-1 $400 -0.4351586697148957517 $349 0.4351586697148970839 $347 $401 forward @7 unknown #
vertex $-1 187 $-1 $306 0 $402 #
ellipse-curve $-1 -1 $-1 1.955228416468748565 9.475923574103090274 0 0 0 1 -0.2746890553413863234 0.1206064794099251519 -0 1 I I #
ATTRIB_CUSTOM-attrib $-1 -1 $-1 $-1 $311 @22 generic_tag_attrib_def 3 3 -1 @23 generic_tag_attrib_def  1 2 @2 12 1068 1 -312 0 #
face $403 330 $-1 $337 $322 $5 $-1 $404 reversed single #
torus-surface $-1 -1 $-1 3.13201187608814946 8.959238590363426624 0 -0.402021598033084071 -0.9156301844712882998 0 1.285216979056790443 0.2999999999999998224 0 0 -1 forward_v I I I I #
coedge $-1 -1 $-1 $347 $313 $405 $406 forward $282 0 $-1 #
coedge $-1 -1 $-1 $313 $407 $314 $359 forward $282 0 $-1 #
coedge $-1 -1 $-1 $316 $408 $313 $357 reversed $322 0 $-1 #
edge $-1 286 $-1 $364 0.9462134101990777868 $409 0.9747280328009484407 $313 $410 forward @7 unknown #
coedge $-1 -1 $-1 $318 $314 $320 $368 forward $260 0 $-1 #
edge $-1 280 $-1 $411 0.5150286358507373263 $364 2.626564017739056123 $355 $412 forward @7 unknown #
coedge $-1 -1 $-1 $376 $413 $315 $361 reversed $414 0 $-1 #
edge $-1 285 $-1 $415 -0.5500766617975371142 $363 -0 $315 $416 forward @7 unknown #
coedge $-1 -1 $-1 $417 $316 $413 $418 reversed $322 0 $-1 #
vertex $-1 210 $-1 $361 1 $419 #
vertex $-1 211 $-1 $317 1 $420 #
intcurve-curve $-1 -1 $-1 forward { int_int_cur 21900 full nubs 3 open 9 
	1.541787138986381089 3 1.587946199262183278 2 1.708471962324055626 2 1.820917188847031687 2 1.928307860091722059 3 
	2.03569853133641443 2 2.14814375785939049 2 2.268669520921262173 2 2.381202750997365669 3 
	2.74702950212555308 11.04953567285726734 0.6350000000000000089 
	2.730628010353789659 11.05246131417870004 0.6350000000000000089 
	2.714315021539406736 11.05419666249184552 0.6349999999999845768 
	2.658804061535443797 11.05656849268198627 0.6349999999999845768 
	2.611062468228013689 11.04986224199092248 0.6349999999999845768 
	2.537946197847716245 11.02369699566169814 0.6349999999999845768 
	2.499300060563705017 11.00068602636716619 0.6349999999999845768 
	2.445523676494046672 10.95090793369037918 0.6349999999999845768 
	2.4205001903282235 10.91599280597515431 0.6349999999999845768 
	2.406109067239011523 10.88321609260106371 0.6349999999999845768 
	2.391717944149799102 10.8504393792269731 0.6349999999999845768 
	2.382948036125156044 10.80838786657283634 0.6349999999999845768 
	2.382694653522701156 10.73510967205766597 0.6349999999999845768 
	2.391907889143628285 10.69108530466593798 0.6349999999999845768 
	2.422126839543335741 10.61954913097364717 0.6349999999999845768 
	2.449499126397084225 10.57986296912521951 0.6349999999999845768 
	2.504467468933197605 10.52496627204588897 0.6349999999999845768 
	2.540127798201163856 10.49938689211868592 0.6349999999999845768 
	2.575211687087000545 10.4818580305344522 0.6349999999999845768 
	0.0005188122054410456915 
	
	torus 3.722912575140734148 10.30505314043942988 0 -0.402021598033084071 -0.9156301844712882998 0 1.272090607336140433 -0.2999999999999998224 0 0 -1 forward_v I I I I 
	plane 12.76969255576405793 10.42868405547900323 0.6349999999999845768 0 0 1 1 0 0 forward_v I I I I 
	nullbs 
	nullbs 
	I I 
	0 
	0 
	0 
	
	0 } I I #
coedge $-1 -1 $-1 $331 $318 $321 $370 forward $260 0 $-1 #
coedge $-1 -1 $-1 $421 $320 $407 $422 reversed $322 0 $-1 #
edge $-1 281 $-1 $411 1.475412969186079337 $323 2.492209394686359047 $358 $423 forward @7 unknown #
coedge $-1 -1 $-1 $321 $417 $333 $378 reversed $322 0 $-1 #
edge $-1 282 $-1 $324 1.364406325497083738 $379 1.449497965688422596 $366 $424 forward @7 unknown #
point $-1 -1 $-1 4.75910325504301035 10.16489140303577621 0.6349999999999845768 #
point $-1 -1 $-1 2.918475057127668748 10.97304768934034236 0.6349999999999845768 #
coedge $-1 -1 $-1 $381 $425 $327 $374 reversed $426 0 $-1 #
edge $-1 292 $-1 $383 0.8567938896160524065 $328 0.9597171243295444798 $327 $427 forward @7 unknown #
point $-1 -1 $-1 2.750196823886009945 11.04693285104573341 0 #
coedge $-1 -1 $-1 $428 $360 $330 $377 reversed $414 0 $-1 #
edge $-1 284 $-1 $328 -1.851782685354505187 $415 -1.570796326794894116 $330 $429 forward @5 knife #
edge $-1 299 $-1 $379 -0.2627500823220778603 $430 -0.2502407457040152217 $333 $431 forward @7 unknown #
vertex $-1 213 $-1 $334 0 $432 #
intcurve-curve $-1 -1 $-1 forward { int_int_cur 21900 full nubs 3 open 2 
	-0.5992208231143045793 3 -0.461968388406099606 3 
	2.840404214116738046 11.02011320259698124 0.6349999999999998979 
	2.84032567444533246 11.01953913213649727 0.5782046674387958385 
	2.83968104432103452 11.01480044279756321 0.5228445104208460092 
	2.838724629902548369 11.00806334821727006 0.4696272596474443395 
	3.155493141348770841e-05 
	
	cone 0.4545797196741419022 11.34652238879130159 0 0 0 1 2.219160786636984017 -0.9348940464924524463 0 1 I I 0 -1 2.408049309111902403 forward I I I I 
	torus 3.722912575140734148 10.30505314043942988 0 -0.402021598033084071 -0.9156301844712882998 0 1.272090607336140433 0.2999999999999998224 0 0 -1 forward_v I I I I 
	nullbs 
	nullbs 
	I I 
	0 
	0 
	0 
	
	0 } I I #
coedge $-1 -1 $-1 $433 $373 $335 $382 forward $426 0 $-1 #
edge $-1 303 $-1 $383 0 $430 0.6350000000000000089 $335 $434 forward @7 unknown #
vertex $-1 219 $-1 $374 0 $435 #
ellipse-curve $-1 -1 $-1 0.4545797196741419022 11.34652238879130159 0 -0 -0 -1 2.219160786636984017 -0.9348940464924524463 0 1 I I #
ATTRIB_CUSTOM-attrib $-1 -1 $-1 $-1 $337 @22 generic_tag_attrib_def 3 3 -1 @23 generic_tag_attrib_def  1 3 @3 693 0 1 -312 0 #
face $436 332 $-1 $437 $426 $5 $-1 $438 reversed single #
cone-surface $-1 -1 $-1 0.4545797196741419022 11.34652238879130159 0 0 0 1 2.219160786636984017 -0.9348940464924524463 0 1 I I 0 -1 2.408049309111902403 forward I I I I #
coedge $-1 -1 $-1 $340 $439 $440 $441 forward $18 0 $-1 #
coedge $-1 -1 $-1 $394 $342 $442 $443 forward $302 0 $-1 #
coedge $-1 -1 $-1 $440 $444 $342 $391 reversed $445 0 $-1 #
edge $-1 294 $-1 $392 0 $446 0.6387350640049569428 $342 $447 forward @7 unknown #
vertex $-1 193 $-1 $391 0 $448 #
ellipse-curve $-1 -1 $-1 4.308795335707550578 8.442553606623762974 0 0 0 1 0.2746890553413863234 -0.1206064794099251519 0 1 I I #
coedge $-1 -1 $-1 $344 $389 $449 $450 forward $302 0 $-1 #
coedge $-1 -1 $-1 $451 $347 $344 $396 reversed $282 0 $-1 #
edge $-1 288 $-1 $452 0.4583069969355518802 $349 3.141592653589793116 $395 $453 forward @7 unknown #
coedge $-1 -1 $-1 $454 $346 $455 $456 forward $18 0 $-1 #
coedge $-1 -1 $-1 $405 $457 $346 $399 reversed $458 0 $-1 #
edge $-1 246 $-1 $400 -0.9082555069727999975 $459 -0.6180752311737586213 $346 $460 forward @7 unknown #
vertex $-1 188 $-1 $406 1 $461 #
straight-curve $-1 -1 $-1 2.248494868081694076 10.15005490998307103 0 -0.3989158581598125641 -0.9169875343256418398 0 I I #
point $-1 -1 $-1 2.074903173916694321 9.751019834400780795 0 #
ATTRIB_CUSTOM-attrib $-1 -1 $-1 $-1 $352 @22 generic_tag_attrib_def 3 3 -1 @23 generic_tag_attrib_def  1 3 @3 692 0 1 -312 0 #
plane-surface $-1 -1 $-1 12.76969255576405793 10.42868405547900323 0.6349999999999845768 0 0 1 1 0 0 forward_v I I I I #
coedge $-1 -1 $-1 $462 $398 $354 $406 reversed $458 0 $-1 #
edge $-1 287 $-1 $409 -0.5153560762283054819 $400 -5.719322203619014196e-15 $354 $463 forward @7 unknown #
coedge $-1 -1 $-1 $355 $464 $367 $422 forward $282 0 $-1 #
coedge $-1 -1 $-1 $356 $465 $462 $466 reversed $322 0 $-1 #
vertex $-1 215 $-1 $406 0 $467 #
intcurve-curve $-1 -1 $-1 forward { exact_int_cur 21900 full nurbs 2 open 2 
	0.9462134101990777868 2 0.9747280328009484407 2 
	2.575211687087000545 10.4818580305344522 0.6349999999999845768 1.000003812840160489 
	2.569522794294364587 10.46876289584252184 0.6349999999999998979 1.000003839422923813 
	2.5638344666008277 10.45566905858354545 0.6349999999999998979 1.000003864145230681 
	0 
	
	null_surface 
	null_surface 
	nullbs 
	nullbs 
	I I 
	0 
	0 
	0 
	
	0 F 1 F 0 UNEXTENDED UNEXTENDED } I I #
vertex $-1 212 $-1 $359 0 $468 #
ellipse-curve $-1 -1 $-1 3.602502020576209052 10.03081031660205724 0 -0.402021598033084071 -0.9156301844712882998 0 1.180415458329514333 -0.5182796689633023535 0 1 I I #
coedge $-1 -1 $-1 $360 $428 $362 $418 forward $414 0 $-1 #
loop $-1 -1 $-1 $-1 $360 $469 #
vertex $-1 214 $-1 $361 0 $470 #
intcurve-curve $-1 -1 $-1 forward { int_int_cur 21900 full nubs 3 open 3 
	-0.5500766617975371142 3 -0.5475348717113369679 2 -0 3 
	2.678754497091275333 11.09115009458496814 -7.789308452498087934e-17 
	2.678754497091275333 11.09115009458496814 0.001123623527868763917 
	2.67875517859131973 11.09114979536485635 0.002247195092791711389 
	2.679050172148730091 11.09102027126064449 0.245413828006766449 
	2.711505632445645464 11.07832388174260174 0.4583087818477281083 
	2.747029502125553524 11.04953567285726734 0.6350000000000001199 
	0.0001540320326559032824 
	
	cone 2.55814801768135025 10.81646103924358115 0 0 0 1 0.1920488062046579181 0.2304718118021504836 0 1 I I 0 1 0.3000000000000002109 forward I I I I 
	torus 3.722912575140734148 10.30505314043942988 0 -0.402021598033084071 -0.9156301844712882998 0 1.272090607336140433 0.2999999999999998224 0 0 -1 forward_v I I I I 
	nullbs 
	nullbs 
	F -0.5475348717113369679 I 
	0 
	1 -0.5475348717113369679 
	0 
	
	0 } I I #
coedge $-1 -1 $-1 $369 $362 $433 $471 reversed $322 0 $-1 #
edge $-1 297 $-1 $472 0 $363 0.01366539427505459973 $413 $473 forward @7 unknown #
point $-1 -1 $-1 2.74702950212555308 11.04953567285726734 0.6350000000000000089 #
point $-1 -1 $-1 2.575211687087000545 10.4818580305344522 0.6349999999999845768 #
coedge $-1 -1 $-1 $465 $367 $474 $475 reversed $322 0 $-1 #
edge $-1 291 $-1 $476 0.900106111375338358 $411 1.761064514167373529 $407 $477 forward @7 unknown #
intcurve-curve $-1 -1 $-1 forward { int_int_cur 21900 full nubs 3 open 10 
	1.475412969186079337 3 1.58794619926218239 2 1.708471962324054738 2 1.820917188847029022 2 1.928307860091721171 3 
	2.035698531336412209 2 2.148143757859387826 2 2.268669520921258176 2 2.400430110800368055 2 2.492209394686359047 3 
	4.629792354065417115 9.579762602669662286 0.6349999999999845768 
	4.666440487835503248 9.56579640995429159 0.6349999999999845768 
	4.709405573502397857 9.556854085055460857 0.6349999999999845768 
	4.787021088746021391 9.553537788196873493 0.6349999999999845768 
	4.834762682053451499 9.560244038887939055 0.6349999999999845768 
	4.907878952433748942 9.586409285217163401 0.6349999999999845768 
	4.946525089717760615 9.609420254511691795 0.6349999999999845768 
	5.000301473787419404 9.659198347188478806 0.6349999999999845768 
	5.025324959953242576 9.694113474903705452 0.6349999999999845768 
	5.039716083042454997 9.726890188277796057 0.6349999999999845768 
	5.054107206131667418 9.759666901651886661 0.6349999999999845768 
	5.062877114156311364 9.801718414306021643 0.6349999999999845768 
	5.063130496758766697 9.874996608821192012 0.6349999999999845768 
	5.053917261137840455 9.919020976212920004 0.6349999999999845768 
	5.023698310738133443 9.990557149905210821 0.6349999999999845768 
	4.996326023884385847 10.03024331175363848 0.6349999999999845768 
	4.936822794770903577 10.08966898466234774 0.6349999999999845768 
	4.893001392011289141 10.11895073917648524 0.6349999999999845768 
	4.824774773393880167 10.14890669160153891 0.6349999999999845768 
	4.79168522649285844 10.15915098887941248 0.6349999999999845768 
	4.75910325504301035 10.16489140303577621 0.6349999999999845768 
	0.0005188122054425241096 
	
	torus 3.722912575140734148 10.30505314043942988 0 -0.402021598033084071 -0.9156301844712882998 0 1.272090607336140433 -0.2999999999999998224 0 0 -1 forward_v I I I I 
	plane 12.76969255576405793 10.42868405547900323 0.6349999999999845768 0 0 1 1 0 0 forward_v I I I I 
	nullbs 
	nullbs 
	I I 
	0 
	0 
	0 
	
	0 } I I #
intcurve-curve $-1 -1 $-1 forward { int_int_cur 21900 full nubs 3 open 2 
	1.364406325497083738 3 1.449497965688422596 3 
	2.918475057127668748 10.97304768934034236 0.6349999999999845768 
	2.894113500718686449 10.99168509478705502 0.6349999999999845768 
	2.866625811748292563 11.00806931327135096 0.6350000000000000089 
	2.840404214116738046 11.02011320259697769 0.6350000000000000089 
	0.0005188122054410456915 
	
	torus 3.722912575140734148 10.30505314043942988 0 -0.402021598033084071 -0.9156301844712882998 0 1.272090607336140433 -0.2999999999999998224 0 0 -1 forward_v I I I I 
	plane 12.76969255576405793 10.42868405547900323 0.6349999999999845768 0 0 1 1 0 0 forward_v I I I I 
	nullbs 
	nullbs 
	I I 
	0 
	0 
	0 
	
	0 } I I #
coedge $-1 -1 $-1 $373 $433 $428 $478 reversed $426 0 $-1 #
loop $-1 -1 $-1 $-1 $373 $386 #
straight-curve $-1 -1 $-1 3.551530454827037442 10.51880278121990031 0 -0.8349685658686536449 0.550297641291732087 0 I I #
coedge $-1 -1 $-1 $413 $376 $425 $478 forward $414 0 $-1 #
ellipse-curve $-1 -1 $-1 2.558148017681350694 10.81646103924358115 0 0 0 1 -0.2746890553413863234 0.1206064794099251519 -0 1 I I #
vertex $-1 223 $-1 $382 1 $479 #
ellipse-curve $-1 -1 $-1 0.4545797196741419022 11.34652238879130159 0.6350000000000000089 -0 -0 -1 2.219160786636984017 -0.9348940464924524463 0 1 I I #
point $-1 -1 $-1 2.840404214116738046 11.02011320259697769 0.6350000000000000089 #
coedge $-1 -1 $-1 $425 $381 $417 $471 forward $426 0 $-1 #
straight-curve $-1 -1 $-1 2.836134489569294814 10.9902944377487799 0 0 0 1 I I #
point $-1 -1 $-1 2.836134489569294814 10.9902944377487799 0 #
ATTRIB_CUSTOM-attrib $-1 -1 $-1 $-1 $386 @22 generic_tag_attrib_def 3 3 -1 @23 generic_tag_attrib_def  1 3 @3 694 0 1 -312 0 #
face $480 333 $-1 $481 $458 $5 $-1 $482 reversed single #
plane-surface $-1 -1 $-1 2.836134489569295702 10.99029443774878168 0 0.550297641291732087 0.8349685658686536449 -0 -0.8349685658686536449 0.550297641291732087 0 forward_v I I I I #
coedge $-1 -1 $-1 $388 $454 $483 $484 forward $18 0 $-1 #
coedge $-1 -1 $-1 $485 $390 $388 $441 reversed $445 0 $-1 #
edge $-1 250 $-1 $486 0.8114223324048803754 $392 1.029211146716136671 $388 $487 forward @7 unknown #
coedge $-1 -1 $-1 $488 $489 $389 $443 reversed $490 0 $-1 #
edge $-1 295 $-1 $446 -0.1853228538164274353 $491 0.4360187659920298775 $389 $492 forward @7 unknown #
coedge $-1 -1 $-1 $390 $485 $488 $493 forward $445 0 $-1 #
loop $-1 -1 $-1 $-1 $440 $494 #
vertex $-1 220 $-1 $391 1 $495 #
intcurve-curve $-1 -1 $-1 forward { int_int_cur 21900 full nubs 3 open 4 
	0 3 0.2535161551460435314 2 0.5070323102920870628 2 0.6387350640049569428 3 
	4.526584150018805985 8.236233388610846973 0 
	4.526584150018805985 8.236233388610846973 0.08450538504868118639 
	4.517244158115040875 8.236233388610846973 0.1766333750148479376 
	4.476045256679133999 8.236233388610846973 0.3553322080250167492 
	4.444203093362848023 8.236233388610846973 0.4419069114851738589 
	4.384002317644467794 8.236233388610846973 0.555326685955746191 
	4.356931041777739821 8.236233388610846973 0.5983686861256298783 
	4.328016890721141152 8.236233388610846973 0.635000000000000564 
	0.0003842418427981832488 
	
	torus 3.13201187608814946 8.959238590363426624 0 -0.402021598033084071 -0.9156301844712882998 0 1.285216979056790443 -0.2999999999999998224 0 0 -1 forward_v I I I I 
	plane 4.308795335707550578 8.236233388610846973 5.310382685379518842e-16 -0 -1 0 1 -0 1.224646799147353207e-16 forward_v I I I I 
	nullbs 
	nullbs 
	I I 
	0 
	0 
	0 
	
	0 } I I #
point $-1 -1 $-1 4.526584150018806874 8.236233388610846973 0 #
coedge $-1 -1 $-1 $496 $497 $394 $450 reversed $498 0 $-1 #
edge $-1 296 $-1 $491 -0.597557112518507072 $452 -0.5345745180591822132 $394 $499 forward @7 unknown #
coedge $-1 -1 $-1 $464 $395 $497 $500 forward $282 0 $-1 #
vertex $-1 216 $-1 $396 0 $501 #
ellipse-curve $-1 -1 $-1 3.252617662733324089 9.233926067888297951 0 -0.402021598033084071 -0.9156301844712882998 0 1.17771448881662999 -0.5170937665124831772 0 1 I I #
coedge $-1 -1 $-1 $439 $397 $502 $503 forward $18 0 $-1 #
coedge $-1 -1 $-1 $504 $505 $397 $456 reversed $506 0 $-1 #
edge $-1 247 $-1 $459 -1.258769797103429955 $507 -0.4149510191839620998 $397 $508 forward @7 unknown #
coedge $-1 -1 $-1 $398 $462 $504 $509 reversed $458 0 $-1 #
loop $-1 -1 $-1 $-1 $398 $437 #
vertex $-1 189 $-1 $456 0 $510 #
straight-curve $-1 -1 $-1 3.180451360346081113 10.04927912238800225 0 0.8349685658686536449 -0.550297641291732087 0 I I #
point $-1 -1 $-1 2.422086562246694719 10.54908998556535948 0 #
coedge $-1 -1 $-1 $457 $405 $408 $466 forward $458 0 $-1 #
ellipse-curve $-1 -1 $-1 3.513439685956800673 9.829818537101623122 -2.220446049250313081e-16 -0.550297641291732087 -0.8349685658686536449 0 -1.091353123710103734 0.7192714484637339201 -7.146949193177673772e-15 0.9857537942971772438 I I #
coedge $-1 -1 $-1 $407 $451 $511 $512 forward $282 0 $-1 #
coedge $-1 -1 $-1 $408 $421 $513 $514 reversed $322 0 $-1 #
edge $-1 302 $-1 $409 0.1697643601788368928 $515 0.2901802757990414317 $462 $516 forward @7 unknown #
point $-1 -1 $-1 2.5638344666008277 10.45566905858354545 0.6349999999999998979 #
point $-1 -1 $-1 4.629792354065417115 9.579762602669662286 0.6349999999999845768 #
face $517 338 $-1 $494 $414 $5 $-1 $518 reversed single #
point $-1 -1 $-1 2.678754497091275333 11.09115009458496814 -7.789308452498087934e-17 #
edge $-1 298 $-1 $430 0.3714492494698679592 $472 0.4743724841833604211 $433 $519 forward @7 unknown #
vertex $-1 222 $-1 $478 1 $520 #
ellipse-curve $-1 -1 $-1 2.55814801768135025 10.81646103924358115 0.6350000000000000089 0 0 1 0.1920488062046579181 0.2304718118021504836 0 1 I I #
coedge $-1 -1 $-1 $511 $521 $421 $475 forward $522 0 $-1 #
edge $-1 300 $-1 $523 -2.139871648520849323 $476 -0.03056365219399804004 $474 $524 forward @7 unknown #
vertex $-1 218 $-1 $512 1 $525 #
intcurve-curve $-1 -1 $-1 forward { exact_int_cur 21900 full nurbs 2 open 2 
	0.900106111375338358 2 1.761064514167373529 2 
	4.280629110793183756 8.792863639093631889 0.6350000000000000089 1.000003721957986924 
	4.454949948005195282 9.185723893571196896 0.6349999999999881295 1.000004615405883701 
	4.629792354065417115 9.579762602669662286 0.6349999999999845768 1.000003812788163859 
	0 
	
	null_surface 
	null_surface 
	nullbs 
	nullbs 
	I I 
	0 
	0 
	0 
	
	0 F 1 F 0 UNEXTENDED UNEXTENDED } I I #
edge $-1 304 $-1 $328 0 $472 0.6350000000000000089 $425 $526 forward @7 unknown #
point $-1 -1 $-1 2.836134489569294814 10.9902944377487799 0.6350000000000000089 #
ATTRIB_CUSTOM-attrib $-1 -1 $-1 $-1 $437 @22 generic_tag_attrib_def 3 3 -1 @23 generic_tag_attrib_def  1 3 @3 695 0 1 -312 0 #
face $527 334 $-1 $528 $506 $5 $-1 $529 reversed single #
plane-surface $-1 -1 $-1 2.422086562246695607 10.54908998556535948 0 -0.550297641291732087 -0.8349685658686536449 0 0.8349685658686536449 -0.550297641291732087 0 forward_v I I I I #
coedge $-1 -1 $-1 $530 $531 $439 $484 reversed $498 0 $-1 #
edge $-1 249 $-1 $532 -0.5662533456178753255 $486 -0.02148903839759519485 $439 $533 forward @7 unknown #
coedge $-1 -1 $-1 $444 $440 $531 $534 forward $445 0 $-1 #
vertex $-1 192 $-1 $441 0 $535 #
straight-curve $-1 -1 $-1 3.497373003302670202 8.236233388610846973 0 1 -0 0 I I #
coedge $-1 -1 $-1 $489 $442 $444 $493 reversed $490 0 $-1 #
coedge $-1 -1 $-1 $442 $488 $496 $536 reversed $490 0 $-1 #
loop $-1 -1 $-1 $-1 $442 $528 #
vertex $-1 221 $-1 $450 0 $537 #
intcurve-curve $-1 -1 $-1 forward { int_int_cur 21900 full nubs 3 open 7 
	-0.1853228538164274353 3 -0.107463880172547821 2 0 3 0.1074638801725474879 2 0.2198922222746836075 2 
	0.3402308654168916258 2 0.4360187659920298775 3 
	4.328016890721141152 8.236233388610846973 0.635000000000000564 
	4.353026087702754232 8.24869334558673728 0.635000000000000564 
	4.377187581526413851 8.265591799704571585 0.6349999999999845768 
	4.422508724895653387 8.307568652876565096 0.6349999999999845768 
	4.447542232694588371 8.342512624802479237 0.6349999999999845768 
	4.461943166307190012 8.375311682277942538 0.6349999999999845768 
	4.476344099919791653 8.408110739753405838 0.6349999999999845768 
	4.485128461018692114 8.450189150925435655 0.6349999999999845768 
	4.485403983159645946 8.523486040509926198 0.6349999999999845768 
	4.47621619027530393 8.567508825510060433 0.6349999999999845768 
	4.446059365010442299 8.638997412345258198 0.6349999999999845768 
	4.41875642622684861 8.678640466959004485 0.6349999999999845768 
	4.367802810377201972 8.729569878005433381 0.6349999999999845768 
	4.338707128268451285 8.751654496627809365 0.6350000000000001199 
	4.308795335707550578 8.768306387454511963 0.6350000000000001199 
	0.0005168982154664562107 
	
	torus 3.13201187608814946 8.959238590363426624 0 -0.402021598033084071 -0.9156301844712882998 0 1.285216979056790443 -0.2999999999999998224 0 0 -1 forward_v I I I I 
	plane 12.76969255576405793 10.42868405547900323 0.6349999999999845768 0 0 1 1 0 0 forward_v I I I I 
	nullbs 
	nullbs 
	I I 
	0 
	0 
	0 
	
	0 } I I #
edge $-1 307 $-1 $538 -7.021918523204380591 $446 -7.002696968190790017 $444 $539 forward @7 unknown #
face $540 339 $-1 $-1 $445 $5 $-1 $541 reversed single #
point $-1 -1 $-1 4.328016890721141152 8.236233388610846973 0.635000000000000564 #
coedge $-1 -1 $-1 $531 $449 $489 $536 forward $498 0 $-1 #
coedge $-1 -1 $-1 $449 $530 $451 $500 reversed $498 0 $-1 #
loop $-1 -1 $-1 $-1 $483 $542 #
intcurve-curve $-1 -1 $-1 forward { int_int_cur 21900 full nubs 3 open 2 
	-0.597557112518507072 3 -0.5345745180591822132 3 
	4.308795335707550578 8.768306387454511963 0.6350000000000001199 
	4.308795335707550578 8.769646488833643616 0.6123841896481131419 
	4.308795335707550578 8.770160351054741454 0.5901485146244186408 
	4.308795335707550578 8.770194920644453163 0.5690689999651517006 
	0.0004178994699017603569 
	
	torus 3.13201187608814946 8.959238590363426624 0 -0.402021598033084071 -0.9156301844712882998 0 1.285216979056790443 -0.2999999999999998224 0 0 -1 forward_v I I I I 
	plane 4.308795335707550578 8.780997695831127103 0 -1 0 0 -0 -1 9.748037114392334389e-16 forward_v I I I I 
	nullbs 
	nullbs 
	I I 
	0 
	0 
	0 
	
	0 } I I #
edge $-1 289 $-1 $452 -2.686689311303438465 $543 -2.679116417055128263 $451 $544 forward @7 unknown #
point $-1 -1 $-1 4.308795335707550578 8.770194920644453163 0.5690689999651517006 #
coedge $-1 -1 $-1 $521 $545 $454 $503 reversed $522 0 $-1 #
edge $-1 248 $-1 $507 -0.5420023907383747508 $532 1.597869257782474905 $454 $546 forward @7 unknown #
coedge $-1 -1 $-1 $513 $455 $457 $509 forward $506 0 $-1 #
coedge $-1 -1 $-1 $455 $513 $521 $547 forward $506 0 $-1 #
loop $-1 -1 $-1 $-1 $455 $481 #
vertex $-1 190 $-1 $456 1 $548 #
straight-curve $-1 -1 $-1 2.175676853117511911 9.229373163155020876 0 -0.3882370859080302994 -0.9215595288019330367 0 I I #
edge $-1 305 $-1 $459 0 $515 0.6350000000000000089 $457 $549 forward @7 unknown #
point $-1 -1 $-1 2.664377970973990539 10.3894044642437624 0 #
coedge $-1 -1 $-1 $545 $474 $464 $512 reversed $522 0 $-1 #
edge $-1 290 $-1 $543 -2.675637355654232774 $476 -2.62525452279323579 $464 $550 forward @7 unknown #
coedge $-1 -1 $-1 $505 $504 $465 $514 forward $506 0 $-1 #
edge $-1 301 $-1 $515 -0.8438187779194680216 $523 -0 $513 $551 forward @7 unknown #
vertex $-1 225 $-1 $509 1 $552 #
straight-curve $-1 -1 $-1 2.422086562246694719 10.54908998556535948 0.6350000000000000089 0.8349685658686536449 -0.550297641291732087 0 I I #
ATTRIB_CUSTOM-attrib $-1 -1 $-1 $-1 $469 @22 generic_tag_attrib_def 3 3 -1 @23 generic_tag_attrib_def  1 3 @3 700 0 1 -312 0 #
cone-surface $-1 -1 $-1 2.55814801768135025 10.81646103924358115 0 0 0 1 0.1920488062046579181 0.2304718118021504836 0 1 I I 0 1 0.3000000000000002109 forward I I I I #
straight-curve $-1 -1 $-1 3.146282936692139209 10.78588679190592892 0.6350000000000000089 -0.8349685658686536449 0.550297641291732087 0 I I #
point $-1 -1 $-1 2.750196823886008168 11.04693285104573164 0.6350000000000000089 #
coedge $-1 -1 $-1 $474 $502 $505 $547 reversed $522 0 $-1 #
loop $-1 -1 $-1 $-1 $502 $553 #
vertex $-1 224 $-1 $547 0 $554 #
straight-curve $-1 -1 $-1 4.308795335707550578 8.780997695831127103 0.6350000000000000089 0.9215595288019330367 -0.3882370859080303549 0 I I #
point $-1 -1 $-1 4.280629110793183756 8.792863639093631889 0.6350000000000000089 #
straight-curve $-1 -1 $-1 2.750196823886008168 11.04693285104573164 0 0 0 1 I I #
ATTRIB_CUSTOM-attrib $-1 -1 $-1 $-1 $481 @22 generic_tag_attrib_def 3 3 -1 @23 generic_tag_attrib_def  1 3 @3 696 0 1 -312 0 #
face $555 335 $-1 $553 $490 $5 $-1 $404 reversed single #
plane-surface $-1 -1 $-1 2.664377970973990539 10.3894044642437624 0 -0.9215595288019330367 0.3882370859080302994 0 -0.3882370859080302994 -0.9215595288019330367 -0 forward_v I I I I #
coedge $-1 -1 $-1 $497 $483 $545 $556 forward $498 0 $-1 #
coedge $-1 -1 $-1 $483 $496 $485 $534 reversed $498 0 $-1 #
vertex $-1 191 $-1 $484 0 $557 #
straight-curve $-1 -1 $-1 4.308795335707550578 8.214744350213251778 0 0 -1 0 I I #
edge $-1 310 $-1 $486 -5.310382685379518842e-16 $538 0.6350000000000000089 $531 $558 forward @7 unknown #
point $-1 -1 $-1 4.308795335707550578 8.236233388610846973 0 #
edge $-1 308 $-1 $491 -0.5320729988436649904 $538 -0 $496 $559 forward @7 unknown #
point $-1 -1 $-1 4.308795335707550578 8.768306387454511963 0.6350000000000001199 #
vertex $-1 226 $-1 $534 1 $560 #
straight-curve $-1 -1 $-1 11.33071385891193117 8.236233388610846973 0.6350000000000014522 1 0 1.224646799147353207e-16 I I #
ATTRIB_CUSTOM-attrib $-1 -1 $-1 $-1 $494 @22 generic_tag_attrib_def 3 3 -1 @23 generic_tag_attrib_def  1 3 @3 701 0 1 -312 0 #
plane-surface $-1 -1 $-1 4.308795335707550578 8.236233388610846973 5.310382685379518842e-16 -0 -1 0 1 -0 1.224646799147353207e-16 forward_v I I I I #
face $561 337 $-1 $469 $498 $5 $-1 $562 reversed single #
vertex $-1 217 $-1 $500 1 $563 #
ellipse-curve $-1 -1 $-1 4.308795335707550578 11.66430969996892486 0 -1 0 0 0 3.221756093345157446 -1.30281290559390915e-16 0.4020096191542978925 I I #
coedge $-1 -1 $-1 $502 $511 $530 $556 reversed $522 0 $-1 #
straight-curve $-1 -1 $-1 2.836263695418439035 9.40134980013462318 0 0.9215595288019330367 -0.3882370859080303549 0 I I #
edge $-1 306 $-1 $523 -0.6350000000000000089 $507 0 $505 $564 forward @7 unknown #
point $-1 -1 $-1 2.336776227600060984 9.611775228870074628 0 #
straight-curve $-1 -1 $-1 2.664377970973990539 10.3894044642437624 0 0 0 1 I I #
ellipse-curve $-1 -1 $-1 3.249721516374569852 9.22716717325367064 -2.220446049250313081e-16 -0.3882370859080303549 -0.9215595288019330367 0 -1.185451508577597401 0.4994102114854934715 -1.470983032287184717e-12 0.999887413757326593 I I #
straight-curve $-1 -1 $-1 2.336776227600060984 9.611775228870074628 0.6350000000000000089 -0.3882370859080302994 -0.9215595288019330367 -0 I I #
point $-1 -1 $-1 2.664377970973990539 10.3894044642437624 0.6350000000000000089 #
face $565 336 $-1 $542 $522 $5 $-1 $566 reversed single #
point $-1 -1 $-1 2.336776227600060984 9.611775228870074628 0.6350000000000000089 #
ATTRIB_CUSTOM-attrib $-1 -1 $-1 $-1 $528 @22 generic_tag_attrib_def 3 3 -1 @23 generic_tag_attrib_def  1 3 @3 697 0 1 -312 0 #
edge $-1 309 $-1 $532 0 $543 0.5778633726756530198 $545 $567 forward @7 unknown #
point $-1 -1 $-1 4.308795335707550578 8.780997695831127103 0 #
straight-curve $-1 -1 $-1 4.308795335707550578 8.236233388610846973 5.310382685379518842e-16 0 0 1 I I #
straight-curve $-1 -1 $-1 4.308795335707550578 8.236233388610846973 0.635000000000000564 0 -1 9.748037114392334389e-16 I I #
point $-1 -1 $-1 4.308795335707550578 8.236233388610846973 0.635000000000000564 #
ATTRIB_CUSTOM-attrib $-1 -1 $-1 $-1 $542 @22 generic_tag_attrib_def 3 3 -1 @23 generic_tag_attrib_def  1 3 @3 699 0 1 -312 0 #
plane-surface $-1 -1 $-1 4.308795335707550578 8.780997695831127103 0 -1 0 0 -0 -1 9.748037114392334389e-16 forward_v I I I I #
point $-1 -1 $-1 4.308795335707550578 8.780997695831127103 0.5778633726756530198 #
straight-curve $-1 -1 $-1 2.336776227600060984 9.611775228870074628 0 0 0 -1 I I #
ATTRIB_CUSTOM-attrib $-1 -1 $-1 $-1 $553 @22 generic_tag_attrib_def 3 3 -1 @23 generic_tag_attrib_def  1 3 @3 698 0 1 -312 0 #
plane-surface $-1 -1 $-1 2.336776227600060984 9.611775228870074628 0 -0.3882370859080303549 -0.9215595288019330367 0 0.9215595288019330367 -0.3882370859080303549 -0 forward_v I I I I #
straight-curve $-1 -1 $-1 4.308795335707550578 8.780997695831127103 0 0 0 1 I I #
End-of-ASM-data 