22700 0 2 4           
16 Autodesk Neutron 20 ASM 227.1.1.65535 NT 24 Wed Aug 25 12:28:13 2021 
10 9.999999999999999547e-07 1.000000000000000036e-10 
asmheader $-1 -1 @13 227.1.1.65535 #
body $2 -1 $-1 $3 $-1 $-1 #
ATTRIB_CUSTOM-attrib $-1 -1 $4 $-1 $1 @20 Timestamp_attrib_def 1 1629894478196128 #
lump $-1 -1 $-1 $-1 $5 $1 #
ATTRIB_CUSTOM-attrib $-1 -1 $-1 $2 $1 @22 generic_tag_attrib_def 3 3 -1 @23 generic_tag_attrib_def  1 3 @3 303 1 0 0 #
shell $-1 -1 $-1 $-1 $-1 $6 $-1 $3 #
face $7 12 $-1 $8 $9 $5 $-1 $10 reversed single #
ATTRIB_CUSTOM-attrib $-1 -1 $-1 $-1 $6 @22 generic_tag_attrib_def 3 3 -1 @23 generic_tag_attrib_def  1 3 @3 188 0 1 -303 0 #
face $11 13 $-1 $12 $13 $5 $-1 $14 forward single #
loop $-1 -1 $-1 $15 $16 $6 #
cone-surface $-1 -1 $-1 11.25272035033031948 15.64256485049743262 -0.1161937343685282009 0 -0.9834957461386302224 -0.1809312502781623422 0 0.02713968754172435549 -0.1475243619207945445 1 I I -0.8571673007021122226 0.5150380749100543776 0.1500000000000000222 forward I I I I #
ATTRIB_CUSTOM-attrib $-1 -1 $-1 $-1 $8 @22 generic_tag_attrib_def 3 3 -1 @23 generic_tag_attrib_def  1 1 @1 3 0 1 -303 0 #
face $17 14 $-1 $18 $19 $5 $-1 $20 forward single #
loop $-1 -1 $-1 $21 $22 $8 #
plane-surface $-1 -1 $-1 9.952807524667472094 15.60000000000000142 -1.90358663057886421e-16 -1 -0 -0 0 0 1 forward_v I I I I #
loop $-1 -1 $-1 $-1 $23 $6 #
coedge $-1 -1 $-1 $16 $16 $24 $25 reversed $9 0 $-1 #
ATTRIB_CUSTOM-attrib $-1 -1 $-1 $-1 $12 @22 generic_tag_attrib_def 3 3 -1 @23 generic_tag_attrib_def  1 1 @1 2 0 1 -303 0 #
face $26 15 $-1 $27 $28 $5 $-1 $29 forward single #
loop $-1 -1 $-1 $30 $24 $12 #
cone-surface $-1 -1 $-1 15.83421545440264566 14.80000000000000071 -1.878326061941236128e-16 1 0 0 0 0.8000000000000007105 -7.039582679135039465e-16 1 I I 0 1 0.8000000000000007105 forward I I I I #
loop $-1 -1 $-1 $-1 $31 $8 #
coedge $-1 -1 $-1 $22 $22 $32 $33 forward $13 0 $-1 #
coedge $-1 -1 $-1 $23 $23 $-1 $34 forward $15 0 $-1 #
coedge $-1 -1 $-1 $24 $24 $16 $25 forward $19 0 $-1 #
edge $-1 6 $-1 $35 0 $35 0.4512264482899952522 $24 $36 forward @7 unknown #
ATTRIB_CUSTOM-attrib $-1 -1 $-1 $-1 $18 @22 generic_tag_attrib_def 3 3 -1 @23 generic_tag_attrib_def  1 1 @1 1 0 1 -303 0 #
face $37 16 $-1 $-1 $38 $5 $-1 $39 forward single #
loop $-1 -1 $-1 $40 $41 $18 #
plane-surface $-1 -1 $-1 21.71562338413781745 15.50000000000000178 -1.781121950664122997e-16 1 0 0 0 0 -1 forward_v I I I I #
loop $-1 -1 $-1 $42 $43 $12 #
coedge $-1 -1 $-1 $31 $31 $43 $44 reversed $21 0 $-1 #
coedge $-1 -1 $-1 $32 $32 $22 $33 reversed $45 0 $-1 #
edge $-1 8 $-1 $46 1.57079632679489456 $46 7.853981633974481014 $32 $47 forward @7 unknown #
edge $-1 7 $-1 $48 1 $48 0 $23 $-1 forward @7 unknown #
vertex $-1 0 $-1 $25 0 $49 #
intcurve-curve $-1 -1 $-1 forward { int_int_cur 21900 full nubs 3 periodic 19 
	0 3 0.02062863699335384243 2 0.04125727398670768487 2 0.06129371893193551885 2 0.08133016387716335283 2 
	0.1171729876813956406 2 0.1530158114856279283 2 0.1751669580624935496 2 0.1973181046393591709 2 0.2256132241449939624 2 
	0.2539083436506321401 2 0.2760594902274975393 2 0.298210636804362994 2 0.3340534606085961977 2 0.3698962844128294569 2 
	0.3899327293580573395 2 0.4099691743032852775 2 0.4305978112966402649 2 0.4512264482899952522 3 
	11.25272035033031948 15.59993844918781036 -0.009923583576669059436 
	11.24584413799920135 15.59993844918781036 -0.009923583576669059436 
	11.23840331337031806 15.59992807764657563 -0.01094105564792191218 
	11.22421827419131368 15.59985759260254845 -0.0152469046694222541 
	11.217474983932048 15.59979449701610932 -0.01853827666904599852 
	11.20625814873472947 15.59958142389797331 -0.02614590267555681052 
	11.20084527305363054 15.59941772451718478 -0.03102998805490533862 
	11.19183795304584272 15.59890311634337579 -0.04225363679272308576 
	11.1882435953538959 15.5985469058928814 -0.04859302596846152428 
	11.18131981562113531 15.59736288036041429 -0.06584419950577516389 
	11.17954033941379599 15.59623804483571696 -0.07849415491542811874 
	11.18179940389314275 15.59339591399482394 -0.1033405968036925915 
	11.18580988954564504 15.59168153924112588 -0.115539960063600386 
	11.19518922702726016 15.58902226114269673 -0.1322329626434383953 
	11.19991425942161101 15.58790678401849483 -0.1386914867190347234 
	11.21105807826065259 15.58585256006897701 -0.1498939025462168173 
	11.21748504816425651 15.58492111564246585 -0.1546309889913569102 
	11.23235237886364501 15.58336937820286217 -0.1623324827916851898 
	11.24328864382844095 15.58276084742211864 -0.1651830976311111643 
	11.262152056832198 15.58276084742211864 -0.1651830976311111643 
	11.27308832179699749 15.58336937820286217 -0.1623324827916858282 
	11.28795565249638599 15.58492111564246585 -0.1546309889913564661 
	11.29438262239998814 15.58585256006897701 -0.1498939025462137919 
	11.30552644123902972 15.58790678401849483 -0.1386914867190309208 
	11.31025147363338235 15.58902226114269851 -0.1322329626434384231 
	11.31963081111499747 15.59168153924112765 -0.1155399600636002055 
	11.32364129676749798 15.59339591399482394 -0.1033405968036915645 
	11.32590036124684474 15.59623804483571696 -0.07849415491542655055 
	11.3241208850395072 15.59736288036041252 -0.06584419950577331815 
	11.31719710530674661 15.59854690589287785 -0.04859302596845942873 
	11.31360274761479801 15.59890311634337579 -0.04225363679272169104 
	11.30459542760701019 15.59941772451718478 -0.03102998805490352063 
	11.29918255192591303 15.59958142389797331 -0.02614590267555315026 
	11.2879657167285945 15.59979449701610932 -0.01853827666904190458 
	11.28122242646932349 15.59985759260254845 -0.01524690466942031988 
	11.26703738729031556 15.59992807764657563 -0.01094105564791938295 
	11.2595965626614376 15.59993844918781036 -0.009923583576669059436 
	11.25272035033031948 15.59993844918781036 -0.009923583576669059436 
	0.0002217375925976949901 
	
	cone 11.25272035033031948 15.64256485049743262 -0.1161937343685282009 0 -0.9834957461386302224 -0.1809312502781623422 0 0.02713968754172435549 -0.1475243619207945445 1 I I -0.8571673007021122226 0.5150380749100543776 0.1500000000000000222 forward I I I I 
	cone 15.83421545440264566 14.80000000000000071 -1.878326061941236128e-16 1 0 0 0 0.8000000000000007105 -7.039582679135039465e-16 1 I I 0 1 0.8000000000000007105 forward I I I I 
	nullbs 
	nullbs 
	I I 
	0 
	0 
	0 
	
	0 } I I #
ATTRIB_CUSTOM-attrib $-1 -1 $-1 $-1 $27 @22 generic_tag_attrib_def 3 3 -1 @23 generic_tag_attrib_def  1 1 @1 0 0 1 -303 0 #
loop $-1 -1 $-1 $45 $50 $27 #
cone-surface $-1 -1 $-1 15.83421545440264566 14.80000000000000071 -1.878326061941236128e-16 1 0 0 0 0.7000000000000010658 -6.159634844243163476e-16 1 I I 0 -1 0.7000000000000010658 forward I I I I #
loop $-1 -1 $-1 $-1 $51 $18 #
coedge $-1 -1 $-1 $41 $41 $52 $53 forward $28 0 $-1 #
loop $-1 -1 $-1 $-1 $52 $12 #
coedge $-1 -1 $-1 $43 $43 $31 $44 forward $30 0 $-1 #
edge $-1 9 $-1 $54 1.570796326794896558 $54 7.85398163397448279 $43 $55 forward @7 unknown #
loop $-1 -1 $-1 $-1 $32 $27 #
vertex $-1 2 $-1 $33 2 $56 #
ellipse-curve $-1 -1 $-1 9.952807524667472094 14.80000000000000071 -1.878326061941236128e-16 1 0 0 0 0 -0.7000000000000010658 1 I I #
vertex $-1 1 $-1 $34 0 $57 #
point $-1 -1 $-1 11.25272035033031948 15.59993844918781036 -0.009923583576668965761 #
coedge $-1 -1 $-1 $50 $50 $51 $58 forward $38 0 $-1 #
coedge $-1 -1 $-1 $51 $51 $50 $58 reversed $40 0 $-1 #
coedge $-1 -1 $-1 $52 $52 $41 $53 reversed $42 0 $-1 #
edge $-1 10 $-1 $59 1.570796326794896558 $59 7.85398163397448279 $41 $60 forward @7 unknown #
vertex $-1 3 $-1 $44 2 $61 #
ellipse-curve $-1 -1 $-1 9.952807524667472094 14.80000000000000071 -1.878326061941236128e-16 1 0 0 0 0 -0.8000000000000007105 1 I I #
point $-1 -1 $-1 9.952807524667472094 15.50000000000000178 -1.618641674192420711e-15 #
point $-1 -1 $-1 11.25272035033031948 15.5539232710720583 -0.1325009038250635207 #
edge $-1 11 $-1 $62 1.570796326794896558 $62 7.85398163397448279 $50 $63 forward @7 unknown #
vertex $-1 4 $-1 $53 2 $64 #
ellipse-curve $-1 -1 $-1 21.71562338413781745 14.80000000000000071 -1.878326061941236128e-16 1 0 0 0 0 -0.8000000000000007105 1 I I #
point $-1 -1 $-1 9.952807524667472094 15.60000000000000142 -1.90358663057886421e-16 #
vertex $-1 5 $-1 $58 2 $65 #
ellipse-curve $-1 -1 $-1 21.71562338413781745 14.80000000000000071 -1.878326061941236128e-16 1 0 0 0 0 -0.7000000000000010658 1 I I #
point $-1 -1 $-1 21.71562338413781745 15.60000000000000142 -1.9035866305788578e-16 #
point $-1 -1 $-1 21.71562338413781745 15.50000000000000178 -1.781121950664120532e-16 #
End-of-ASM-data 