# WaveFront *.obj file
# Vertices: 89
# Triangles : 178

v 1.1252720350330319e+01 1.5599938449187810e+01 -9.9235835766689658e-03
v 1.1281765122064115e+01 1.5599841911937482e+01 -1.5897129823624276e-02
v 1.1305650453709593e+01 1.5599332603962797e+01 -3.2668671798287287e-02
v 1.1320830198431466e+01 1.5597905087901463e+01 -5.7850027306559700e-02
v 1.1325054565072449e+01 1.5595323009067547e+01 -8.6370362657765098e-02
v 1.1319017296826638e+01 1.5591699939603691e+01 -1.1491679427925799e-01
v 1.1304260348252853e+01 1.5587723839726252e+01 -1.3960601925383326e-01
v 1.1281344628124300e+01 1.5584231125292090e+01 -1.5805550377947661e-01
v 1.1252720350330321e+01 1.5582760847422119e+01 -1.6518309763111111e-01
v 1.1224096072536346e+01 1.5584231125292089e+01 -1.5805550377947861e-01
v 1.1201180352407791e+01 1.5587723839726248e+01 -1.3960601925383970e-01
v 1.1186423403834006e+01 1.5591699939603689e+01 -1.1491679427926221e-01
v 1.1180386135588192e+01 1.5595323009067547e+01 -8.6370362657769914e-02
v 1.1184610502229177e+01 1.5597905087901463e+01 -5.7850027306564092e-02
v 1.1199790246951046e+01 1.5599332603962797e+01 -3.2668671798291110e-02
v 1.1223675578596517e+01 1.5599841911937483e+01 -1.5897129823627589e-02
v 1.1252720350330319e+01 1.5553923271072058e+01 -1.3250090382506327e-01
v 9.9528075246674721e+00 1.5500000000000002e+01 -1.6186416741924207e-15
v 9.9528075246674721e+00 1.5452730560583051e+01 2.5286916633100598e-01
v 9.9528075246674721e+00 1.5317306242054464e+01 4.7158695055258942e-01
v 9.9528075246674721e+00 1.5112016849043579e+01 6.2661430394854356e-01
v 9.9528075246674721e+00 1.4864587851624314e+01 6.9701392340652490e-01
v 9.9528075246674721e+00 1.4608435906949543e+01 6.7327795022097447e-01
v 9.9528075246674721e+00 1.4378155754534522e+01 5.5861205909616918e-01
v 9.9528075246674721e+00 1.4204848004989271e+01 3.6850251401415074e-01
v 9.9528075246674721e+00 1.4111918830221269e+01 1.2862466247160084e-01
v 9.9528075246674721e+00 1.4111918830221269e+01 -1.2862466247159793e-01
v 9.9528075246674721e+00 1.4204848004989270e+01 -3.6850251401414874e-01
v 9.9528075246674721e+00 1.4378155754534520e+01 -5.5861205909616796e-01
v 9.9528075246674721e+00 1.4608435906949541e+01 -6.7327795022097414e-01
v 9.9528075246674721e+00 1.4864587851624311e+01 -6.9701392340652557e-01
v 9.9528075246674721e+00 1.5112016849043577e+01 -6.2661430394854523e-01
v 9.9528075246674721e+00 1.5317306242054462e+01 -4.7158695055259181e-01
v 9.9528075246674721e+00 1.5452730560583051e+01 -2.5286916633100887e-01
v 9.9528075246674721e+00 1.5600000000000001e+01 -1.9035866305788642e-16
v 9.9528075246674721e+00 1.5556653793360509e+01 -2.5975957536374744e-01
v 9.9528075246674721e+00 1.5431312407517115e+01 -4.9137017015173512e-01
v 9.9528075246674721e+00 1.5237558526497942e+01 -6.6973318261002379e-01
v 9.9528075246674721e+00 1.4996388389712640e+01 -7.7552021275146532e-01
v 9.9528075246674721e+00 1.4733936523622134e+01 -7.9726759440533679e-01
v 9.9528075246674721e+00 1.4478643660277625e+01 -7.3261866132404674e-01
v 9.9528075246674721e+00 1.4258174742699406e+01 -5.8857912853850580e-01
v 9.9528075246674721e+00 1.4096420999034809e+01 -3.8075791442965889e-01
v 9.9528075246674721e+00 1.4010910957277822e+01 -1.3167567222458765e-01
v 9.9528075246674721e+00 1.4010910957277822e+01 1.3167567222458754e-01
v 9.9528075246674721e+00 1.4096420999034809e+01 3.8075791442965884e-01
v 9.9528075246674721e+00 1.4258174742699408e+01 5.8857912853850580e-01
v 9.9528075246674721e+00 1.4478643660277625e+01 7.3261866132404641e-01
v 9.9528075246674721e+00 1.4733936523622134e+01 7.9726759440533634e-01
v 9.9528075246674721e+00 1.4996388389712640e+01 7.7552021275146488e-01
v 9.9528075246674721e+00 1.5237558526497942e+01 6.6973318261002324e-01
v 9.9528075246674721e+00 1.5431312407517115e+01 4.9137017015173451e-01
v 9.9528075246674721e+00 1.5556653793360509e+01 2.5975957536374683e-01
v 2.1715623384137817e+01 1.5600000000000001e+01 -1.9035866305788578e-16
v 2.1715623384137817e+01 1.5556653793360509e+01 -2.5975957536374744e-01
v 2.1715623384137817e+01 1.5431312407517115e+01 -4.9137017015173512e-01
v 2.1715623384137817e+01 1.5237558526497942e+01 -6.6973318261002379e-01
v 2.1715623384137817e+01 1.4996388389712640e+01 -7.7552021275146532e-01
v 2.1715623384137817e+01 1.4733936523622134e+01 -7.9726759440533679e-01
v 2.1715623384137817e+01 1.4478643660277625e+01 -7.3261866132404674e-01
v 2.1715623384137817e+01 1.4258174742699406e+01 -5.8857912853850580e-01
v 2.1715623384137817e+01 1.4096420999034809e+01 -3.8075791442965889e-01
v 2.1715623384137817e+01 1.4010910957277822e+01 -1.3167567222458765e-01
v 2.1715623384137817e+01 1.4010910957277822e+01 1.3167567222458754e-01
v 2.1715623384137817e+01 1.4096420999034809e+01 3.8075791442965884e-01
v 2.1715623384137817e+01 1.4258174742699408e+01 5.8857912853850580e-01
v 2.1715623384137817e+01 1.4478643660277625e+01 7.3261866132404641e-01
v 2.1715623384137817e+01 1.4733936523622134e+01 7.9726759440533634e-01
v 2.1715623384137817e+01 1.4996388389712640e+01 7.7552021275146488e-01
v 2.1715623384137817e+01 1.5237558526497942e+01 6.6973318261002324e-01
v 2.1715623384137817e+01 1.5431312407517115e+01 4.9137017015173451e-01
v 2.1715623384137817e+01 1.5556653793360509e+01 2.5975957536374683e-01
v 2.1715623384137817e+01 1.5500000000000002e+01 -1.7811219506641205e-16
v 2.1715623384137817e+01 1.5452730560583051e+01 -2.5286916633100770e-01
v 2.1715623384137817e+01 1.5317306242054462e+01 -4.7158695055259092e-01
v 2.1715623384137817e+01 1.5112016849043577e+01 -6.2661430394854478e-01
v 2.1715623384137817e+01 1.4864587851624313e+01 -6.9701392340652546e-01
v 2.1715623384137817e+01 1.4608435906949541e+01 -6.7327795022097447e-01
v 2.1715623384137817e+01 1.4378155754534520e+01 -5.5861205909616862e-01
v 2.1715623384137817e+01 1.4204848004989270e+01 -3.6850251401414980e-01
v 2.1715623384137817e+01 1.4111918830221269e+01 -1.2862466247159912e-01
v 2.1715623384137817e+01 1.4111918830221269e+01 1.2862466247159898e-01
v 2.1715623384137817e+01 1.4204848004989270e+01 3.6850251401414963e-01
v 2.1715623384137817e+01 1.4378155754534522e+01 5.5861205909616840e-01
v 2.1715623384137817e+01 1.4608435906949543e+01 6.7327795022097414e-01
v 2.1715623384137817e+01 1.4864587851624313e+01 6.9701392340652502e-01
v 2.1715623384137817e+01 1.5112016849043577e+01 6.2661430394854434e-01
v 2.1715623384137817e+01 1.5317306242054462e+01 4.7158695055259059e-01
v 2.1715623384137817e+01 1.5452730560583051e+01 2.5286916633100726e-01

vn -1.3566522597658534e-01 9.3291594775825382e-01 -3.3356076040062183e-01
vn -2.6116176875293545e-01 9.2333812758119260e-01 -2.8149819306115587e-01
vn -6.3073972987761283e-17 9.3620687680399339e-01 -3.5144940435987698e-01
vn -2.5751903745502741e-01 9.2372225539351516e-01 -2.8358621306218990e-01
vn -3.7133574207869147e-01 9.0759383840287633e-01 -1.9591628607137551e-01
vn -4.5626461890164210e-01 8.8625002167080380e-01 -7.9896787338660014e-02
vn -4.4603605678833996e-01 8.8961363538682636e-01 -9.8180526473142821e-02
vn -5.0874619702898938e-01 8.5754177607737980e-01 7.6153852762639473e-02
vn -5.1503807491005438e-01 8.4302039396965944e-01 1.5508835141359073e-01
vn -4.9915860051667976e-01 8.2005929147438572e-01 2.7989899963515041e-01
vn -3.5174087981836749e-01 7.7495017841150160e-01 5.2510053746361995e-01
vn -4.4603605678833980e-01 7.9642715255249241e-01 4.0835722930032448e-01
vn -2.4488254478445717e-14 7.4983391113532538e-01 6.6162610718705828e-01
vn -2.5751903745502708e-01 7.6231853254580373e-01 5.9376291588937136e-01
vn 4.9915860051666361e-01 8.2005929147437417e-01 2.7989899963521336e-01
vn 4.4603605678833980e-01 7.9642715255249241e-01 4.0835722930032448e-01
vn 3.5174087981831081e-01 7.7495017841149205e-01 5.2510053746367213e-01
vn 4.5626461890165193e-01 8.8625002167080036e-01 -7.9896787338641445e-02
vn 4.4603605678833980e-01 8.8961363538682647e-01 -9.8180526473143209e-02
vn 5.0874619702899293e-01 8.5754177607737581e-01 7.6153852762661539e-02
vn 3.7133574207869396e-01 9.0759383840287589e-01 -1.9591628607137310e-01
vn 2.6116176875294350e-01 9.2333812758119149e-01 -2.8149819306115115e-01
vn 1.3566522597662048e-01 9.3291594775825226e-01 -3.3356076040061244e-01
vn 2.5751903745502713e-01 9.2372225539351516e-01 -2.8358621306219001e-01
vn 6.3073972987761283e-17 9.3620687680399339e-01 -3.5144940435987698e-01
vn 6.3073972987761283e-17 9.3620687680399339e-01 -3.5144940435987693e-01
vn 5.1503807491005438e-01 8.4302039396965944e-01 1.5508835141359073e-01
vn 2.5751903745502730e-01 7.6231853254580373e-01 5.9376291588937125e-01
vn -1.0000000000000000e+00 -0.0000000000000000e+00 -0.0000000000000000e+00
vn -0.0000000000000000e+00 9.9980254393173262e-01 -1.9871415340532942e-02
vn -0.0000000000000000e+00 1.0000000000000000e+00 -3.1575710797034455e-18
vn -0.0000000000000000e+00 9.9992306148476118e-01 -1.2404479470835962e-02
vn -0.0000000000000000e+00 1.0000000000000000e+00 -3.1575710797027063e-18
vn -0.0000000000000000e+00 9.9980254393173262e-01 -1.9871415340528845e-02
vn -0.0000000000000000e+00 9.9916586901842674e-01 -4.0835844409685268e-02
vn -0.0000000000000000e+00 9.9738201833742546e-01 -7.2312581873167650e-02
vn -0.0000000000000000e+00 9.9415490438186371e-01 -1.0796307745469065e-01
vn -0.0000000000000000e+00 9.8962905004794099e-01 -1.4364659167975316e-01
vn -0.0000000000000000e+00 9.8465580871131797e-01 -1.7450770289892725e-01
vn -0.0000000000000000e+00 9.4581724170063464e-01 -3.2469946920468395e-01
vn -0.0000000000000000e+00 9.8028890649879374e-01 -1.9756937970090244e-01
vn -0.0000000000000000e+00 9.7845105927764631e-01 -2.0647887203888840e-01
vn -0.0000000000000000e+00 9.8028890649879308e-01 -1.9756937970090527e-01
vn -0.0000000000000000e+00 9.8465580871131653e-01 -1.7450770289893591e-01
vn -0.0000000000000000e+00 9.8962905004794033e-01 -1.4364659167975871e-01
vn -0.0000000000000000e+00 9.9415490438186305e-01 -1.0796307745469659e-01
vn -0.0000000000000000e+00 9.9738201833742512e-01 -7.2312581873173090e-02
vn -0.0000000000000000e+00 9.9916586901842663e-01 -4.0835844409690021e-02
vn -0.0000000000000000e+00 9.4581724170063464e-01 3.2469946920468362e-01
vn -0.0000000000000000e+00 7.8914050939639313e-01 6.1421271268966826e-01
vn -0.0000000000000000e+00 5.4694815812242636e-01 8.3716647826252877e-01
vn -0.0000000000000000e+00 2.4548548714079943e-01 9.6940026593933026e-01
vn -0.0000000000000000e+00 -8.2579345472333365e-02 9.9658449300666974e-01
vn -0.0000000000000000e+00 -4.0169542465296976e-01 9.1577332665505728e-01
vn -0.0000000000000000e+00 -6.7728157162574054e-01 7.3572391067313203e-01
vn -0.0000000000000000e+00 -8.7947375120648907e-01 4.7594739303707317e-01
vn -0.0000000000000000e+00 -9.8636130340272221e-01 1.6459459028073445e-01
vn 0.0000000000000000e+00 -9.8636130340272243e-01 -1.6459459028073378e-01
vn 0.0000000000000000e+00 -9.8636130340272243e-01 -1.6459459028073409e-01
vn 0.0000000000000000e+00 -8.7947375120648941e-01 -4.7594739303707290e-01
vn 0.0000000000000000e+00 -6.7728157162574187e-01 -7.3572391067313081e-01
vn 0.0000000000000000e+00 -4.0169542465296992e-01 -9.1577332665505728e-01
vn 0.0000000000000000e+00 -8.2579345472333393e-02 -9.9658449300666985e-01
vn -0.0000000000000000e+00 2.4548548714079937e-01 -9.6940026593933026e-01
vn -0.0000000000000000e+00 5.4694815812242636e-01 -8.3716647826252888e-01
vn -0.0000000000000000e+00 7.8914050939639302e-01 -6.1421271268966859e-01
vn 1.0000000000000000e+00 0.0000000000000000e+00 0.0000000000000000e+00
vn 0.0000000000000000e+00 -9.3247222940435592e-01 -3.6124166618715281e-01
vn 0.0000000000000000e+00 -1.0000000000000000e+00 2.0440129542832786e-15
vn 0.0000000000000000e+00 -1.0000000000000000e+00 -1.3886301611016387e-17
vn 0.0000000000000000e+00 -9.3247222940435537e-01 3.6124166618715442e-01
vn 0.0000000000000000e+00 -9.3247222940435581e-01 3.6124166618715292e-01
vn 0.0000000000000000e+00 -7.3900891722065798e-01 6.7369564364655843e-01
vn 0.0000000000000000e+00 -7.3900891722065853e-01 6.7369564364655776e-01
vn 0.0000000000000000e+00 -4.4573835577653748e-01 8.9516329135506278e-01
vn 0.0000000000000000e+00 -4.4573835577653759e-01 8.9516329135506267e-01
vn 0.0000000000000000e+00 -9.2268359463300045e-02 9.9573417629503480e-01
vn 0.0000000000000000e+00 -9.2268359463302696e-02 9.9573417629503458e-01
vn -0.0000000000000000e+00 2.7366299007208456e-01 9.6182564317281860e-01
vn -0.0000000000000000e+00 2.7366299007208444e-01 9.6182564317281871e-01
vn -0.0000000000000000e+00 6.0263463637925763e-01 7.9801722728023849e-01
vn -0.0000000000000000e+00 6.0263463637925729e-01 7.9801722728023883e-01
vn -0.0000000000000000e+00 8.5021713572961488e-01 5.2643216287735461e-01
vn -0.0000000000000000e+00 8.5021713572961422e-01 5.2643216287735561e-01
vn -0.0000000000000000e+00 9.8297309968390212e-01 1.8374951781656818e-01
vn -0.0000000000000000e+00 9.8297309968390179e-01 1.8374951781656992e-01
vn -0.0000000000000000e+00 9.8297309968390190e-01 1.8374951781656967e-01
vn -0.0000000000000000e+00 9.8297309968390223e-01 1.8374951781656798e-01
vn 0.0000000000000000e+00 9.8297309968390134e-01 -1.8374951781657253e-01
vn 0.0000000000000000e+00 9.8297309968390179e-01 -1.8374951781656992e-01
vn 0.0000000000000000e+00 8.5021713572961288e-01 -5.2643216287735783e-01
vn 0.0000000000000000e+00 8.5021713572961422e-01 -5.2643216287735572e-01
vn 0.0000000000000000e+00 6.0263463637925474e-01 -7.9801722728024072e-01
vn 0.0000000000000000e+00 6.0263463637925563e-01 -7.9801722728024016e-01
vn 0.0000000000000000e+00 2.7366299007208184e-01 -9.6182564317281938e-01
vn 0.0000000000000000e+00 2.7366299007208206e-01 -9.6182564317281938e-01
vn 0.0000000000000000e+00 -9.2268359463305083e-02 -9.9573417629503425e-01
vn 0.0000000000000000e+00 -9.2268359463302668e-02 -9.9573417629503458e-01
vn 0.0000000000000000e+00 -4.4573835577654014e-01 -8.9516329135506145e-01
vn 0.0000000000000000e+00 -4.4573835577653748e-01 -8.9516329135506267e-01
vn 0.0000000000000000e+00 -7.3900891722066064e-01 -6.7369564364655554e-01
vn 0.0000000000000000e+00 -7.3900891722065865e-01 -6.7369564364655776e-01
vn 0.0000000000000000e+00 -9.3247222940435648e-01 -3.6124166618715131e-01

g face 0
f 2//1 3//2 1//3
f 1//3 3//2 17//4
f 4//5 5//6 3//2
f 3//2 5//6 17//7
f 5//6 6//8 17//9
f 17//9 6//8 7//10
f 7//10 8//11 17//12
f 8//11 9//13 17//14
f 11//15 17//16 10//17
f 13//18 17//19 12//20
f 13//18 14//21 17//19
f 15//22 16//23 14//21
f 14//21 16//23 17//24
f 1//25 17//26 16//23
f 12//20 17//27 11//15
f 10//17 17//28 9//13

g face 1
f 19//29 53//29 18//29
f 18//29 53//29 35//29
f 18//29 35//29 36//29
f 53//29 19//29 52//29
f 52//29 19//29 20//29
f 52//29 20//29 51//29
f 51//29 20//29 21//29
f 51//29 21//29 50//29
f 50//29 21//29 22//29
f 50//29 22//29 49//29
f 49//29 22//29 23//29
f 49//29 23//29 48//29
f 48//29 23//29 24//29
f 48//29 24//29 47//29
f 47//29 24//29 25//29
f 47//29 25//29 46//29
f 46//29 25//29 26//29
f 46//29 26//29 45//29
f 45//29 26//29 27//29
f 45//29 27//29 44//29
f 44//29 27//29 43//29
f 43//29 27//29 28//29
f 43//29 28//29 42//29
f 42//29 28//29 29//29
f 42//29 29//29 41//29
f 41//29 29//29 30//29
f 41//29 30//29 40//29
f 40//29 30//29 31//29
f 40//29 31//29 39//29
f 39//29 31//29 32//29
f 39//29 32//29 38//29
f 38//29 32//29 33//29
f 38//29 33//29 37//29
f 37//29 33//29 34//29
f 37//29 34//29 36//29
f 36//29 34//29 18//29

g face 2
f 16//30 35//31 1//32
f 1//32 35//31 54//33
f 1//32 54//33 2//34
f 2//34 54//33 3//35
f 3//35 54//33 4//36
f 4//36 54//33 5//37
f 5//37 54//33 6//38
f 6//38 54//33 7//39
f 7//39 54//33 55//40
f 7//39 55//40 8//41
f 8//41 55//40 9//42
f 9//42 55//40 36//40
f 9//42 36//40 10//43
f 10//43 36//40 11//44
f 11//44 36//40 35//31
f 11//44 35//31 12//45
f 12//45 35//31 13//46
f 13//46 35//31 14//47
f 14//47 35//31 15//48
f 15//48 35//31 16//30
f 35//31 53//49 54//33
f 54//33 53//49 72//49
f 72//49 53//49 52//50
f 72//49 52//50 71//50
f 71//50 52//50 51//51
f 71//50 51//51 70//51
f 70//51 51//51 50//52
f 70//51 50//52 69//52
f 69//52 50//52 49//53
f 69//52 49//53 68//53
f 68//53 49//53 48//54
f 68//53 48//54 67//54
f 67//54 48//54 47//55
f 67//54 47//55 66//55
f 66//55 47//55 46//56
f 66//55 46//56 65//56
f 65//56 46//56 45//57
f 65//56 45//57 64//57
f 64//57 45//57 44//58
f 64//57 44//58 63//58
f 63//59 44//59 43//60
f 63//59 43//60 62//60
f 62//60 43//60 42//61
f 62//60 42//61 61//61
f 61//61 42//61 41//62
f 61//61 41//62 60//62
f 60//62 41//62 40//63
f 60//62 40//63 59//63
f 59//63 40//63 39//64
f 59//63 39//64 58//64
f 58//64 39//64 38//65
f 58//64 38//65 57//65
f 57//65 38//65 37//66
f 57//65 37//66 56//66
f 56//66 37//66 36//40
f 56//66 36//40 55//40

g face 3
f 55//67 54//67 73//67
f 73//67 54//67 72//67
f 73//67 72//67 89//67
f 89//67 72//67 71//67
f 89//67 71//67 88//67
f 88//67 71//67 70//67
f 88//67 70//67 87//67
f 87//67 70//67 69//67
f 87//67 69//67 86//67
f 86//67 69//67 68//67
f 86//67 68//67 85//67
f 85//67 68//67 67//67
f 85//67 67//67 84//67
f 84//67 67//67 66//67
f 84//67 66//67 83//67
f 83//67 66//67 65//67
f 83//67 65//67 82//67
f 82//67 65//67 64//67
f 82//67 64//67 63//67
f 82//67 63//67 81//67
f 81//67 63//67 62//67
f 81//67 62//67 80//67
f 80//67 62//67 61//67
f 80//67 61//67 79//67
f 79//67 61//67 60//67
f 79//67 60//67 78//67
f 78//67 60//67 59//67
f 78//67 59//67 77//67
f 77//67 59//67 58//67
f 77//67 58//67 76//67
f 76//67 58//67 57//67
f 76//67 57//67 75//67
f 75//67 57//67 56//67
f 75//67 56//67 74//67
f 74//67 56//67 55//67
f 74//67 55//67 73//67

g face 4
f 89//68 18//69 73//70
f 73//70 18//69 34//71
f 73//70 34//71 74//72
f 74//72 34//71 33//73
f 74//72 33//73 75//74
f 75//74 33//73 32//75
f 75//74 32//75 76//76
f 76//76 32//75 31//77
f 76//76 31//77 77//78
f 77//78 31//77 30//79
f 77//78 30//79 78//80
f 78//80 30//79 29//81
f 78//80 29//81 79//82
f 79//82 29//81 28//83
f 79//82 28//83 80//84
f 80//84 28//83 27//85
f 80//84 27//85 81//86
f 81//87 27//88 26//89
f 81//87 26//89 82//90
f 82//90 26//89 25//91
f 82//90 25//91 83//92
f 83//92 25//91 24//93
f 83//92 24//93 84//94
f 84//94 24//93 23//95
f 84//94 23//95 85//96
f 85//96 23//95 22//97
f 85//96 22//97 86//98
f 86//98 22//97 21//99
f 86//98 21//99 87//100
f 87//100 21//99 20//101
f 87//100 20//101 88//102
f 88//102 20//101 19//103
f 88//102 19//103 89//68
f 89//68 19//103 18//69

g halfedge 0 edge 0
l 1 16 15 14 13 12 11 10 9 8 7 6 5 4 3 2 1

g halfedge 1 edge 0
l 1 2 3 4 5 6 7 8 9 10 11 12 13 14 15 16 1

g halfedge 2 edge 1
l

g halfedge 3 edge 2
l 18 34 33 32 31 30 29 28 27 26 25 24 23 22 21 20 19 18

g halfedge 4 edge 2
l 18 19 20 21 22 23 24 25 26 27 28 29 30 31 32 33 34 18

g halfedge 5 edge 3
l 35 53 52 51 50 49 48 47 46 45 44 43 42 41 40 39 38 37 36 35

g halfedge 6 edge 3
l 35 36 37 38 39 40 41 42 43 44 45 46 47 48 49 50 51 52 53 35

g halfedge 7 edge 4
l 54 72 71 70 69 68 67 66 65 64 63 62 61 60 59 58 57 56 55 54

g halfedge 8 edge 4
l 54 55 56 57 58 59 60 61 62 63 64 65 66 67 68 69 70 71 72 54

g halfedge 9 edge 5
l 73 89 88 87 86 85 84 83 82 81 80 79 78 77 76 75 74 73

g halfedge 10 edge 5
l 73 74 75 76 77 78 79 80 81 82 83 84 85 86 87 88 89 73

g vertex 0
p 1

g vertex 1
p 17

g vertex 2
p 18

g vertex 3
p 35

g vertex 4
p 54

g vertex 5
p 73

# End of file
