22700 0 2 4           
16 Autodesk Neutron 20 ASM 227.1.1.65535 NT 24 Wed Aug 25 12:28:14 2021 
10 9.999999999999999547e-07 1.000000000000000036e-10 
asmheader $-1 -1 @13 227.1.1.65535 #
body $2 -1 $-1 $3 $-1 $-1 #
ATTRIB_CUSTOM-attrib $-1 -1 $4 $-1 $1 @20 Timestamp_attrib_def 1 1629894478208195 #
lump $-1 -1 $-1 $-1 $5 $1 #
ATTRIB_CUSTOM-attrib $-1 -1 $-1 $2 $1 @22 generic_tag_attrib_def 3 3 -1 @23 generic_tag_attrib_def  1 3 @3 318 1 0 0 #
shell $-1 -1 $-1 $-1 $-1 $6 $-1 $3 #
face $7 64 $-1 $8 $9 $5 $-1 $10 forward single #
ATTRIB_CUSTOM-attrib $-1 -1 $-1 $-1 $6 @22 generic_tag_attrib_def 3 3 -1 @23 generic_tag_attrib_def  1 2 @2 90 0 1 -318 0 #
face $11 65 $-1 $12 $13 $5 $-1 $14 forward single #
loop $-1 -1 $-1 $-1 $15 $6 #
torus-surface $-1 -1 $-1 16.30205175193924205 10.75022713990754397 -1.579292252529285179e-14 -0 -0 1 7.144571464480647727 0.1999999999999996225 1 0 0 forward_v I I I I #
ATTRIB_CUSTOM-attrib $-1 -1 $-1 $-1 $8 @22 generic_tag_attrib_def 3 3 -1 @23 generic_tag_attrib_def  1 2 @2 13 0 1 -318 0 #
face $16 66 $-1 $17 $18 $5 $-1 $19 forward single #
loop $-1 -1 $-1 $-1 $20 $8 #
cone-surface $-1 -1 $-1 14.56684509014183071 11.10750925737857031 0.1999999999999846068 0 0 -1 -5.325081295097666256 -2.3075092573785696 0 1 I I 0 1 5.803541140742161986 forward I I I I #
coedge $-1 -1 $-1 $21 $22 $23 $24 forward $9 0 $-1 #
ATTRIB_CUSTOM-attrib $-1 -1 $-1 $-1 $12 @22 generic_tag_attrib_def 3 3 -1 @23 generic_tag_attrib_def  1 2 @2 12 0 1 -318 0 #
face $25 67 $-1 $26 $27 $5 $-1 $28 forward single #
loop $-1 -1 $-1 $-1 $29 $12 #
plane-surface $-1 -1 $-1 7.921123463658663155 8.800000000000000711 0.1999999999999846068 0 1 0 1 -0 -0 forward_v I I I I #
coedge $-1 -1 $-1 $30 $31 $32 $33 forward $13 0 $-1 #
coedge $-1 -1 $-1 $34 $15 $35 $36 forward $9 0 $-1 #
coedge $-1 -1 $-1 $15 $37 $38 $39 forward $9 0 $-1 #
coedge $-1 -1 $-1 $40 $35 $15 $24 reversed $41 0 $-1 #
edge $-1 26 $-1 $42 -0.8902227808832312572 $43 -0.5934731761501036429 $15 $44 reversed @7 unknown #
ATTRIB_CUSTOM-attrib $-1 -1 $-1 $-1 $17 @22 generic_tag_attrib_def 3 3 -1 @23 generic_tag_attrib_def  1 2 @2 11 0 1 -318 0 #
face $45 68 $-1 $46 $47 $5 $-1 $48 forward single #
loop $-1 -1 $-1 $-1 $49 $17 #
plane-surface $-1 -1 $-1 7.921123463658663155 8.503849545302664126 0.1999999999999846068 -1 -0 -0 -0 1 -0 forward_v I I I I #
coedge $-1 -1 $-1 $50 $51 $52 $53 reversed $18 0 $-1 #
coedge $-1 -1 $-1 $54 $20 $55 $56 forward $13 0 $-1 #
coedge $-1 -1 $-1 $20 $54 $50 $57 reversed $13 0 $-1 #
coedge $-1 -1 $-1 $52 $58 $20 $33 reversed $59 0 $-1 #
edge $-1 32 $-1 $60 0 $61 0.4525348548535231274 $20 $62 forward @7 unknown #
coedge $-1 -1 $-1 $63 $21 $64 $65 forward $9 0 $-1 #
coedge $-1 -1 $-1 $23 $66 $21 $36 reversed $41 0 $-1 #
edge $-1 27 $-1 $43 -0.5934731761501036429 $67 -0.2967235714169761396 $21 $68 reversed @7 unknown #
coedge $-1 -1 $-1 $22 $63 $69 $70 forward $9 0 $-1 #
coedge $-1 -1 $-1 $71 $72 $22 $39 reversed $73 0 $-1 #
edge $-1 31 $-1 $74 -0.1781529352720674364 $42 0.1838642765961145675 $38 $75 forward @7 tangent #
coedge $-1 -1 $-1 $76 $23 $72 $77 reversed $41 0 $-1 #
loop $-1 -1 $-1 $-1 $66 $78 #
vertex $-1 0 $-1 $77 1 $79 #
vertex $-1 1 $-1 $24 1 $80 #
intcurve-curve $-1 -1 $-1 forward { int_int_cur 21900 full nubs 3 periodic 17 
	0 3 0.07396477259659302306 2 0.1480607397052350893 2 0.222320359851502225 2 0.2967235714169761396 2 
	0.3711341039591837254 2 0.4454106612723489622 2 0.5195151836966818149 2 0.5934731761501036429 2 0.6674311686035254709 2 
	0.7415356910278583236 2 0.8158122483410236159 2 0.8902227808832312572 2 0.9646259924487051718 2 1.038885612594972363 2 
	1.112981579703614221 2 1.186946352300207508 3 
	8.982890511682068535 11.36064399418048509 -1.579292252529285179e-14 
	8.982890511682068535 11.36064399418048509 0.02465492419884854694 
	8.988676555290721737 11.36064399418048509 0.05366953625900316993 
	9.00759584841945049 11.36064399418048509 0.09925282482649487592 
	9.024091802743587465 11.36064399418048509 0.1238763393120099199 
	9.059096640805375245 11.36064399418048509 0.1588069563822360475 
	9.083814798821725489 11.36064399418048509 0.1752790920592401935 
	9.129610867994777834 11.36064399418048509 0.1942091327565780845 
	9.158803331391522917 11.36064399418048509 0.1999999999999838296 
	9.20840791276074988 11.36064399418048509 0.1999999999999838296 
	9.237603185668612937 11.36064399418048509 0.1942082458313555693 
	9.283407591755670651 11.36064399418048509 0.1752772068366639513 
	9.308132759899169884 11.36064399418048509 0.158803373801118114 
	9.343147292444855978 11.36064399418048509 0.1238704421565929026 
	9.359648539199655559 11.36064399418048509 0.09924635446719050347 
	9.378572167611839205 11.36064399418048509 0.05366422480436988662 
	9.384359644791192778 11.36064399418048509 0.02465266415112483955 
	9.384359644791192778 11.36064399418048509 -0.02465266415115637336 
	9.378572167611839205 11.36064399418048509 -0.0536642248044014239 
	9.359648539199655559 11.36064399418048509 -0.09924635446722204768 
	9.343147292444855978 11.36064399418048509 -0.1238704421566244468 
	9.308132759899169884 11.36064399418048509 -0.1588033738011496721 
	9.283407591755670651 11.36064399418048509 -0.1752772068366955649 
	9.237603185668612937 11.36064399418048509 -0.1942082458313871829 
	9.20840791276074988 11.36064399418048509 -0.2000000000000154154 
	9.158803331391522917 11.36064399418048509 -0.2000000000000154154 
	9.129610867994777834 11.36064399418048509 -0.1942091327566096703 
	9.083814798821725489 11.36064399418048509 -0.1752790920592717794 
	9.059096640805375245 11.36064399418048509 -0.1588069563822676611 
	9.024091802743587465 11.36064399418048509 -0.123876339312041589 
	9.00759584841945049 11.36064399418048509 -0.09925282482652660054 
	8.988676555290721737 11.36064399418048509 -0.05366953625903489455 
	8.982890511682068535 11.36064399418048509 -0.02465492419888018483 
	8.982890511682068535 11.36064399418048509 -1.579292252529285179e-14 
	0.0003434993922214628131 
	
	torus 16.30205175193924205 10.75022713990754397 -1.579292252529285179e-14 -0 -0 1 7.144571464480647727 0.1999999999999996225 1 0 0 forward_v I I I I 
	plane 9.950492691062724049 11.36064399418048509 0.1999999999999846068 0 -1 0 -1 -0 -0 forward_v I I I I 
	nullbs 
	nullbs 
	I I 
	0 
	0 
	0 
	
	0 } I I #
ATTRIB_CUSTOM-attrib $-1 -1 $-1 $-1 $26 @22 generic_tag_attrib_def 3 3 -1 @23 generic_tag_attrib_def  1 2 @2 10 0 1 -318 0 #
face $81 69 $-1 $82 $83 $5 $-1 $84 forward single #
loop $-1 -1 $-1 $-1 $85 $26 #
plane-surface $-1 -1 $-1 9.950492691062724049 8.503849545302664126 0.1999999999999846068 0 -1 0 -1 -0 -0 forward_v I I I I #
coedge $-1 -1 $-1 $86 $87 $88 $89 reversed $27 0 $-1 #
coedge $-1 -1 $-1 $90 $29 $31 $57 forward $18 0 $-1 #
coedge $-1 -1 $-1 $29 $90 $86 $91 reversed $18 0 $-1 #
coedge $-1 -1 $-1 $88 $32 $29 $53 forward $59 0 $-1 #
edge $-1 36 $-1 $60 0.7087288960185595954 $92 2.029369227404060894 $29 $93 forward @7 unknown #
coedge $-1 -1 $-1 $31 $30 $94 $95 reversed $13 0 $-1 #
coedge $-1 -1 $-1 $96 $97 $30 $56 reversed $98 0 $-1 #
edge $-1 33 $-1 $61 0 $99 0.4000000000000000222 $55 $100 forward @7 unknown #
edge $-1 35 $-1 $60 0 $101 0.4000000000000000222 $50 $102 forward @7 unknown #
coedge $-1 -1 $-1 $32 $103 $96 $104 forward $59 0 $-1 #
loop $-1 -1 $-1 $-1 $105 $106 #
vertex $-1 6 $-1 $53 0 $107 #
vertex $-1 7 $-1 $104 1 $108 #
ellipse-curve $-1 -1 $-1 14.56684509014183071 11.10750925737857031 0.1999999999999846068 0 0 -1 -5.325081295097666256 -2.3075092573785696 0 1 F 0 F 0.4525348548535234605 #
coedge $-1 -1 $-1 $37 $34 $109 $110 forward $9 0 $-1 #
coedge $-1 -1 $-1 $105 $111 $34 $65 reversed $59 0 $-1 #
edge $-1 28 $-1 $67 -0.1838642765961145675 $112 0.1781529352720674364 $64 $113 forward @7 tangent #
coedge $-1 -1 $-1 $35 $76 $105 $114 reversed $41 0 $-1 #
vertex $-1 2 $-1 $114 0 $115 #
intcurve-curve $-1 -1 $-1 forward { int_int_cur 21900 full nubs 3 periodic 17 
	0 3 0.07396477259659239856 2 0.1480607397052350616 2 0.2223203598515023638 2 0.2967235714169761396 2 
	0.3711341039591837254 2 0.4454106612723490177 2 0.5195151836966818149 2 0.5934731761501036429 2 0.6674311686035254709 2 
	0.7415356910278583236 2 0.8158122483410236159 2 0.8902227808832312572 2 0.9646259924487050608 2 1.038885612594972363 2 
	1.112981579703614887 2 1.186946352300207286 3 
	8.982890511682068535 11.36064399418048509 -1.501576640805524221e-14 
	8.982890511682068535 11.36064399418048509 0.0246549241988491194 
	8.988676555290721737 11.36064399418048509 0.05366953625900347524 
	9.00759584841945049 11.36064399418048509 0.09925282482649522287 
	9.024091802743587465 11.36064399418048509 0.1238763393120106138 
	9.059096640805375245 11.36064399418048509 0.1588069563822369079 
	9.083814798821725489 11.36064399418048509 0.1752790920592413315 
	9.129610867994777834 11.36064399418048509 0.1942091327565791947 
	9.158803331391522917 11.36064399418048509 0.1999999999999846068 
	9.20840791276074988 11.36064399418048509 0.1999999999999846068 
	9.237603185668612937 11.36064399418048509 0.1942082458313564575 
	9.283407591755670651 11.36064399418048509 0.1752772068366648395 
	9.308132759899169884 11.36064399418048509 0.1588033738011188634 
	9.343147292444855978 11.36064399418048509 0.1238704421565936381 
	9.359648539199655559 11.36064399418048509 0.09924635446719123899 
	9.378572167611839205 11.36064399418048509 0.05366422480437061521 
	9.384359644791192778 11.36064399418048509 0.02465266415112556467 
	9.384359644791192778 11.36064399418048509 -0.02465266415115563436 
	9.378572167611839205 11.36064399418048509 -0.0536642248044006745 
	9.359648539199655559 11.36064399418048509 -0.0992463544672212844 
	9.343147292444855978 11.36064399418048509 -0.1238704421566237113 
	9.308132759899169884 11.36064399418048509 -0.1588033738011489504 
	9.283407591755670651 11.36064399418048509 -0.175277206836694871 
	9.237603185668612937 11.36064399418048509 -0.194208245831386489 
	9.20840791276074988 11.36064399418048509 -0.2000000000000146383 
	9.158803331391522917 11.36064399418048509 -0.2000000000000146383 
	9.129610867994777834 11.36064399418048509 -0.1942091327566091985 
	9.083814798821725489 11.36064399418048509 -0.1752790920592713353 
	9.059096640805375245 11.36064399418048509 -0.1588069563822668839 
	9.024091802743587465 11.36064399418048509 -0.1238763393120406037 
	9.00759584841945049 11.36064399418048509 -0.09925282482652522664 
	8.988676555290721737 11.36064399418048509 -0.0536695362590334929 
	8.982890511682068535 11.36064399418048509 -0.02465492419887915093 
	8.982890511682068535 11.36064399418048509 -1.501576640805524221e-14 
	0.0003434993922213198611 
	
	torus 16.30205175193924205 10.75022713990754397 -1.501576640805524221e-14 0 0 -1 7.144571464480647727 0.1999999999999996225 -1 0 0 forward_v I I I I 
	plane 9.950492691062724049 11.36064399418048509 0.1999999999999846068 0 -1 0 -1 -0 -0 forward_v I I I I 
	nullbs 
	nullbs 
	I I 
	0 
	0 
	0 
	
	0 } I I #
coedge $-1 -1 $-1 $109 $116 $37 $70 reversed $117 0 $-1 #
edge $-1 30 $-1 $118 -0.6041410254680587011 $74 -0.3019208645905108734 $37 $119 reversed @7 unknown #
coedge $-1 -1 $-1 $120 $38 $116 $121 reversed $73 0 $-1 #
coedge $-1 -1 $-1 $38 $122 $40 $77 forward $73 0 $-1 #
loop $-1 -1 $-1 $-1 $71 $123 #
vertex $-1 5 $-1 $121 1 $124 #
ellipse-curve $-1 -1 $-1 16.30205175193924205 10.75022713990754397 -0.2000000000000154154 0 0 -1 -7.110065124504419742 -0.7013382467662088171 0 1 F -0.2672594007424992646 F 0.2711820357655179148 #
coedge $-1 -1 $-1 $66 $40 $125 $126 reversed $41 0 $-1 #
edge $-1 51 $-1 $127 -2.029369227404060894 $42 -1.262480938254684659 $40 $128 forward @7 unknown #
face $129 71 $-1 $130 $41 $5 $-1 $131 forward single #
point $-1 -1 $-1 9.183604401913347814 11.36064399418048687 -0.2000000000000154154 #
point $-1 -1 $-1 9.384359644791192778 11.36064399418048687 -1.579292252529285179e-14 #
ATTRIB_CUSTOM-attrib $-1 -1 $-1 $-1 $46 @22 generic_tag_attrib_def 3 3 -1 @23 generic_tag_attrib_def  1 1 @1 9 0 1 -318 0 #
face $132 70 $-1 $78 $117 $5 $-1 $133 forward single #
loop $-1 -1 $-1 $-1 $134 $46 #
plane-surface $-1 -1 $-1 9.950492691062724049 8.800000000000000711 0.1999999999999846068 1 -0 0 -0 -1 -0 forward_v I I I I #
coedge $-1 -1 $-1 $135 $136 $137 $138 reversed $47 0 $-1 #
coedge $-1 -1 $-1 $139 $49 $51 $91 forward $27 0 $-1 #
coedge $-1 -1 $-1 $49 $139 $135 $140 reversed $27 0 $-1 #
coedge $-1 -1 $-1 $137 $52 $49 $89 forward $59 0 $-1 #
edge $-1 39 $-1 $92 0 $141 0.2961504546973365848 $49 $142 forward @7 unknown #
coedge $-1 -1 $-1 $51 $50 $143 $144 reversed $18 0 $-1 #
edge $-1 38 $-1 $92 0 $145 0.4000000000000000222 $86 $146 forward @7 unknown #
vertex $-1 10 $-1 $89 0 $147 #
straight-curve $-1 -1 $-1 9.950492691062724049 8.800000000000000711 0.1999999999999846068 -1 0 0 F 0 F 2.029369227404060894 #
coedge $-1 -1 $-1 $148 $143 $54 $95 forward $73 0 $-1 #
edge $-1 34 $-1 $101 0 $99 0.4525348548535231274 $54 $149 forward @7 unknown #
coedge $-1 -1 $-1 $150 $55 $58 $104 reversed $98 0 $-1 #
coedge $-1 -1 $-1 $55 $150 $148 $151 reversed $98 0 $-1 #
loop $-1 -1 $-1 $-1 $96 $152 #
vertex $-1 8 $-1 $56 1 $153 #
straight-curve $-1 -1 $-1 8.768827103164637649 11.36064399418048154 0.1999999999999846068 0 0 -1 I I #
vertex $-1 9 $-1 $57 1 $154 #
straight-curve $-1 -1 $-1 9.241763795044164453 8.800000000000000711 0.1999999999999846068 0 0 -1 I I #
coedge $-1 -1 $-1 $58 $155 $156 $157 forward $59 0 $-1 #
edge $-1 62 $-1 $158 0 $61 0.8477036395059744933 $96 $159 forward @7 unknown #
coedge $-1 -1 $-1 $160 $64 $66 $114 forward $59 0 $-1 #
face $161 77 $-1 $-1 $59 $5 $-1 $162 reversed single #
point $-1 -1 $-1 9.241763795044164453 8.800000000000000711 0.1999999999999846068 #
point $-1 -1 $-1 8.768827103164637649 11.36064399418048154 0.1999999999999846068 #
coedge $-1 -1 $-1 $163 $69 $63 $110 reversed $117 0 $-1 #
edge $-1 29 $-1 $112 -0.9063611863456066953 $118 -0.6041410254680589231 $63 $164 reversed @7 unknown #
coedge $-1 -1 $-1 $64 $165 $163 $166 reversed $59 0 $-1 #
vertex $-1 3 $-1 $166 0 $167 #
ellipse-curve $-1 -1 $-1 16.30205175193924205 10.75022713990754397 0.1999999999999846068 -0 -0 1 -7.110065124504419742 -0.7013382467662088171 0 1 F -0.2711820357655179148 F 0.2672594007424992646 #
edge $-1 50 $-1 $67 1.262480938254684659 $168 2.029369227404060894 $66 $159 forward @7 unknown #
point $-1 -1 $-1 9.183604401913347814 11.36064399418048687 0.1999999999999846068 #
coedge $-1 -1 $-1 $69 $169 $71 $121 forward $117 0 $-1 #
loop $-1 -1 $-1 $-1 $163 $82 #
vertex $-1 4 $-1 $110 1 $170 #
intcurve-curve $-1 -1 $-1 forward { int_int_cur 21900 full nubs 3 periodic 17 
	0 3 0.07316934046200035402 2 0.1477254857565278856 2 0.2240384335478751709 2 0.3019208645905108734 2 
	0.3798874576612058518 2 0.4563935014738359497 2 0.5310455087246060968 2 0.6041410254680587011 2 0.6772365422115111944 2 
	0.7518885494622813415 2 0.8283945932749113839 2 0.9063611863456063622 2 0.9842436173882420647 2 1.060556565179589406 2 
	1.135112710474116993 2 1.20828205093611718 3 
	9.221137679615567961 8.800000000000000711 -1.579292252529285179e-14 
	9.221137679615567961 8.800000000000000711 -0.02438978015401591093 
	9.226996093987718695 8.800000000000000711 -0.05306519405560135294 
	9.246183020633809591 8.800000000000000711 -0.09841516129177660388 
	9.263067296705264297 8.800000000000000711 -0.1229976800750810229 
	9.299023261577488597 8.800000000000000711 -0.1581576329247533497 
	9.324621369253360825 8.800000000000000711 -0.1747866269866707178 
	9.372257374850200051 8.800000000000000711 -0.1940898034401737082 
	9.402844582422023478 8.800000000000000711 -0.2000000000000156375 
	9.454794257126467372 8.800000000000000711 -0.2000000000000151934 
	9.485413820271221041 8.800000000000000711 -0.19407980621665194 
	9.533145200113196438 8.800000000000000711 -0.174765925338675604 
	9.558823300161181535 8.800000000000000711 -0.1581183088034686657 
	9.59488911255444954 8.800000000000000711 -0.1229329725443455423 
	9.611832691628992009 8.800000000000000711 -0.09834470953135968085 
	9.631067886906423681 8.800000000000000711 -0.05300721436679192711 
	9.636942080820023904 8.800000000000000711 -0.0243651722478333034 
	9.636942080820023904 8.800000000000000711 0.02436517224780174531 
	9.631067886906423681 8.800000000000000711 0.0530072143667603482 
	9.611832691628992009 8.800000000000000711 0.09834470953132806725 
	9.59488911255444954 8.800000000000000711 0.1229329725443139149 
	9.558823300161181535 8.800000000000000711 0.1581183088034370243 
	9.533145200113196438 8.800000000000000711 0.1747659253386439626 
	9.485413820271221041 8.800000000000000711 0.1940798062166202986 
	9.454794257126467372 8.800000000000000711 0.1999999999999836076 
	9.402844582422023478 8.800000000000000711 0.1999999999999840516 
	9.372257374850200051 8.800000000000000711 0.1940898034401421224 
	9.324621369253360825 8.800000000000000711 0.174786626986639132 
	9.299023261577488597 8.800000000000000711 0.1581576329247217361 
	9.263067296705264297 8.800000000000000711 0.1229976800750493815 
	9.246183020633809591 8.800000000000000711 0.09841516129174487926 
	9.226996093987718695 8.800000000000000711 0.0530651940555696422 
	9.221137679615567961 8.800000000000000711 0.02438978015398427304 
	9.221137679615567961 8.800000000000000711 -1.579292252529285179e-14 
	0.0003482859168657880347 
	
	torus 16.30205175193924205 10.75022713990754397 -1.579292252529285179e-14 -0 -0 1 7.144571464480647727 0.1999999999999996225 1 0 0 forward_v I I I I 
	plane 9.636942080820023904 8.800000000000000711 0.1999999999999846068 0 1 0 1 -0 -0 forward_v I I I I 
	nullbs 
	nullbs 
	I I 
	0 
	0 
	0 
	
	0 } I I #
coedge $-1 -1 $-1 $171 $71 $172 $173 forward $73 0 $-1 #
edge $-1 49 $-1 $174 -0.664117611972365296 $74 -0.1424303136792079982 $71 $175 forward @7 unknown #
coedge $-1 -1 $-1 $72 $176 $177 $178 forward $73 0 $-1 #
face $179 76 $-1 $106 $73 $5 $-1 $180 forward single #
point $-1 -1 $-1 9.428805392769566751 8.800000000000000711 -0.2000000000000154154 #
coedge $-1 -1 $-1 $177 $181 $76 $126 forward $182 0 $-1 #
edge $-1 52 $-1 $168 0 $127 0.4000000000000000222 $125 $183 forward @7 unknown #
vertex $-1 19 $-1 $126 1 $184 #
straight-curve $-1 -1 $-1 7.921123463658663155 11.36064399418048509 -0.2000000000000154154 -1 -0 -0 I I #
ATTRIB_CUSTOM-attrib $-1 -1 $-1 $-1 $78 @22 generic_tag_attrib_def 3 3 -1 @23 generic_tag_attrib_def  1 1 @1 6 0 1 -318 0 #
face $185 72 $-1 $186 $182 $5 $-1 $187 forward single #
plane-surface $-1 -1 $-1 9.950492691062724049 11.36064399418048509 0.1999999999999846068 0 -1 0 -1 -0 -0 forward_v I I I I #
ATTRIB_CUSTOM-attrib $-1 -1 $-1 $-1 $82 @22 generic_tag_attrib_def 3 3 -1 @23 generic_tag_attrib_def  1 1 @1 8 0 1 -318 0 #
plane-surface $-1 -1 $-1 9.636942080820023904 8.800000000000000711 0.1999999999999846068 0 1 0 1 -0 -0 forward_v I I I I #
coedge $-1 -1 $-1 $188 $189 $165 $190 reversed $83 0 $-1 #
coedge $-1 -1 $-1 $191 $85 $87 $140 forward $47 0 $-1 #
coedge $-1 -1 $-1 $85 $191 $188 $192 reversed $47 0 $-1 #
coedge $-1 -1 $-1 $165 $88 $85 $138 forward $59 0 $-1 #
edge $-1 42 $-1 $141 0 $193 2.029369227404060894 $85 $194 forward @7 unknown #
coedge $-1 -1 $-1 $87 $86 $195 $196 reversed $27 0 $-1 #
edge $-1 41 $-1 $141 0 $197 0.4000000000000000222 $135 $198 forward @7 unknown #
vertex $-1 12 $-1 $138 0 $199 #
straight-curve $-1 -1 $-1 7.921123463658663155 8.800000000000000711 0.1999999999999846068 0 -1 0 F 0 F 0.2961504546973365848 #
coedge $-1 -1 $-1 $94 $195 $90 $144 forward $73 0 $-1 #
edge $-1 37 $-1 $145 -2.029369227404060894 $101 -0.7087288960185595954 $90 $200 forward @7 unknown #
vertex $-1 11 $-1 $91 1 $201 #
straight-curve $-1 -1 $-1 7.921123463658663155 8.800000000000000711 0.1999999999999846068 0 0 -1 I I #
point $-1 -1 $-1 7.921123463658663155 8.800000000000000711 0.1999999999999846068 #
coedge $-1 -1 $-1 $202 $94 $97 $151 forward $73 0 $-1 #
ellipse-curve $-1 -1 $-1 14.56684509014183071 11.10750925737857031 -0.2000000000000154154 0 0 -1 -5.325081295097666256 -2.3075092573785696 0 1 I I #
coedge $-1 -1 $-1 $97 $96 $203 $204 forward $98 0 $-1 #
edge $-1 63 $-1 $99 -0.8477036395059744933 $205 -0 $97 $206 forward @7 unknown #
face $207 75 $-1 $123 $98 $5 $-1 $208 forward single #
point $-1 -1 $-1 8.768827103164637649 11.36064399418048154 -0.2000000000000154154 #
point $-1 -1 $-1 9.241763795044164453 8.800000000000000711 -0.2000000000000154154 #
coedge $-1 -1 $-1 $103 $160 $209 $210 forward $59 0 $-1 #
coedge $-1 -1 $-1 $211 $203 $103 $157 reversed $212 0 $-1 #
edge $-1 59 $-1 $213 0 $158 0.1829045226415662029 $156 $214 forward @7 unknown #
vertex $-1 24 $-1 $104 0 $215 #
straight-curve $-1 -1 $-1 7.921123463658663155 11.36064399418048509 0.1999999999999846068 1 0 0 F 0 F 2.029369227404060894 #
coedge $-1 -1 $-1 $155 $105 $181 $216 forward $59 0 $-1 #
ATTRIB_CUSTOM-attrib $-1 -1 $-1 $-1 $106 @22 generic_tag_attrib_def 3 3 -1 @23 generic_tag_attrib_def  1 1 @1 1 0 1 -318 0 #
plane-surface $-1 -1 $-1 8.935808077360693602 10.02369903106235682 0.1999999999999846068 0 0 -1 -1 0 0 forward_v I I I I #
coedge $-1 -1 $-1 $169 $109 $111 $166 forward $117 0 $-1 #
intcurve-curve $-1 -1 $-1 forward { int_int_cur 21900 full nubs 3 periodic 17 
	0 3 0.07316934046200129771 2 0.1477254857565281632 2 0.2240384335478737832 2 0.3019208645905112065 2 
	0.3798874576612061849 2 0.4563935014738362828 2 0.5310455087246064299 2 0.6041410254680589231 2 0.6772365422115115274 2 
	0.7518885494622816745 2 0.8283945932749117169 2 0.9063611863456066953 2 0.9842436173882440631 2 1.060556565179589628 2 
	1.135112710474116549 2 1.208282050936117846 3 
	9.221137679615567961 8.800000000000000711 -1.501576640805524221e-14 
	9.221137679615567961 8.800000000000000711 -0.02438978015401544602 
	9.226996093987718695 8.800000000000000711 -0.05306519405560133906 
	9.246183020633809591 8.800000000000000711 -0.09841516129177656225 
	9.263067296705264297 8.800000000000000711 -0.1229976800750806065 
	9.299023261577488597 8.800000000000000711 -0.1581576329247523505 
	9.324621369253359049 8.800000000000000711 -0.1747866269866697186 
	9.372257374850198275 8.800000000000000711 -0.1940898034401731254 
	9.402844582422023478 8.800000000000000711 -0.2000000000000148603 
	9.454794257126467372 8.800000000000000711 -0.2000000000000144162 
	9.485413820271221041 8.800000000000000711 -0.1940798062166511073 
	9.533145200113196438 8.800000000000000711 -0.1747659253386747713 
	9.558823300161181535 8.800000000000000711 -0.158118308803467833 
	9.59488911255444954 8.800000000000000711 -0.1229329725443447235 
	9.611832691628992009 8.800000000000000711 -0.09834470953135887594 
	9.631067886906423681 8.800000000000000711 -0.05300721436679115689 
	9.636942080820023904 8.800000000000000711 -0.024365172247832554 
	9.636942080820023904 8.800000000000000711 0.02436517224780250165 
	9.631067886906423681 8.800000000000000711 0.0530072143667611323 
	9.611832691628992009 8.800000000000000711 0.09834470953132889992 
	9.59488911255444954 8.800000000000000711 0.1229329725443147475 
	9.558823300161181535 8.800000000000000711 0.158118308803437857 
	9.533145200113196438 8.800000000000000711 0.1747659253386447953 
	9.485413820271221041 8.800000000000000711 0.1940798062166211313 
	9.454794257126467372 8.800000000000000711 0.1999999999999843847 
	9.402844582422023478 8.800000000000000711 0.1999999999999848288 
	9.372257374850198275 8.800000000000000711 0.1940898034401430938 
	9.324621369253359049 8.800000000000000711 0.1747866269866396871 
	9.299023261577488597 8.800000000000000711 0.1581576329247223744 
	9.263067296705264297 8.800000000000000711 0.1229976800750506166 
	9.246183020633809591 8.800000000000000711 0.09841516129174655847 
	9.226996093987718695 8.800000000000000711 0.05306519405557130753 
	9.221137679615567961 8.800000000000000711 0.02438978015398541449 
	9.221137679615567961 8.800000000000000711 -1.501576640805524221e-14 
	0.0003482859168654614188 
	
	torus 16.30205175193924205 10.75022713990754397 -1.501576640805524221e-14 0 0 -1 7.144571464480647727 0.1999999999999996225 -1 0 0 forward_v I I I I 
	plane 9.636942080820023904 8.800000000000000711 0.1999999999999846068 0 1 0 1 -0 -0 forward_v I I I I 
	nullbs 
	nullbs 
	I I 
	0 
	0 
	0 
	
	0 } I I #
coedge $-1 -1 $-1 $111 $137 $134 $190 forward $59 0 $-1 #
edge $-1 48 $-1 $112 0.1424303136792079982 $217 0.664117611972365296 $111 $218 forward @7 unknown #
point $-1 -1 $-1 9.428805392769566751 8.800000000000000711 0.1999999999999846068 #
vertex $-1 18 $-1 $216 0 $219 #
coedge $-1 -1 $-1 $116 $163 $189 $220 forward $117 0 $-1 #
point $-1 -1 $-1 9.636942080820023904 8.799999999999997158 -1.579292252529285179e-14 #
coedge $-1 -1 $-1 $195 $120 $191 $221 forward $73 0 $-1 #
coedge $-1 -1 $-1 $189 $188 $120 $173 reversed $83 0 $-1 #
edge $-1 46 $-1 $174 -0.2961504546973365848 $222 -0 $172 $223 forward @7 unknown #
vertex $-1 17 $-1 $220 1 $224 #
straight-curve $-1 -1 $-1 9.286375079090358753 8.800000000000000711 -0.2000000000000154154 -1 0 0 I I #
coedge $-1 -1 $-1 $122 $202 $225 $226 forward $73 0 $-1 #
coedge $-1 -1 $-1 $227 $125 $122 $178 reversed $182 0 $-1 #
edge $-1 54 $-1 $228 -0.1829045226415662029 $127 -0 $177 $229 forward @7 unknown #
ATTRIB_CUSTOM-attrib $-1 -1 $-1 $-1 $123 @22 generic_tag_attrib_def 3 3 -1 @23 generic_tag_attrib_def  1 1 @1 0 0 1 -318 0 #
plane-surface $-1 -1 $-1 8.935808077360693602 10.02369903106235682 -0.2000000000000154154 0 0 -1 -1 0 0 forward_v I I I I #
coedge $-1 -1 $-1 $125 $227 $160 $216 reversed $182 0 $-1 #
loop $-1 -1 $-1 $-1 $181 $130 #
straight-curve $-1 -1 $-1 9.950492691062724049 11.36064399418048509 0.1999999999999846068 0 0 -1 I I #
point $-1 -1 $-1 9.950492691062724049 11.36064399418048509 -0.2000000000000154154 #
ATTRIB_CUSTOM-attrib $-1 -1 $-1 $-1 $130 @22 generic_tag_attrib_def 3 3 -1 @23 generic_tag_attrib_def  1 1 @1 5 0 1 -318 0 #
face $230 73 $-1 $231 $232 $5 $-1 $233 forward single #
plane-surface $-1 -1 $-1 9.950492691062724049 11.5435485168220513 0.1999999999999846068 1 -0 0 -0 -1 -0 forward_v I I I I #
coedge $-1 -1 $-1 $172 $134 $136 $192 forward $83 0 $-1 #
coedge $-1 -1 $-1 $134 $172 $169 $220 reversed $83 0 $-1 #
edge $-1 45 $-1 $193 0 $217 0.2961504546973365848 $134 $234 forward @7 unknown #
coedge $-1 -1 $-1 $136 $135 $171 $221 reversed $47 0 $-1 #
edge $-1 44 $-1 $193 0 $222 0.4000000000000000222 $188 $235 forward @7 unknown #
vertex $-1 14 $-1 $190 0 $236 #
straight-curve $-1 -1 $-1 7.921123463658663155 8.503849545302664126 0.1999999999999846068 1 0 0 F 0 F 2.029369227404060894 #
coedge $-1 -1 $-1 $143 $171 $139 $196 forward $73 0 $-1 #
edge $-1 40 $-1 $197 -0.2961504546973365848 $145 -0 $139 $237 forward @7 unknown #
vertex $-1 13 $-1 $140 1 $238 #
straight-curve $-1 -1 $-1 7.921123463658663155 8.503849545302664126 0.1999999999999846068 0 0 -1 I I #
point $-1 -1 $-1 7.921123463658663155 8.503849545302664126 0.1999999999999846068 #
straight-curve $-1 -1 $-1 9.950492691062724049 8.800000000000000711 -0.2000000000000154154 1 0 0 I I #
point $-1 -1 $-1 7.921123463658663155 8.800000000000000711 -0.2000000000000154154 #
coedge $-1 -1 $-1 $176 $148 $239 $240 forward $73 0 $-1 #
coedge $-1 -1 $-1 $156 $239 $150 $204 reversed $212 0 $-1 #
edge $-1 61 $-1 $158 0 $205 0.4000000000000000222 $150 $241 forward @7 unknown #
vertex $-1 25 $-1 $204 1 $242 #
straight-curve $-1 -1 $-1 7.921123463658663155 11.36064399418048509 -0.2000000000000154154 -1 -0 -0 I I #
ATTRIB_CUSTOM-attrib $-1 -1 $-1 $-1 $152 @22 generic_tag_attrib_def 3 3 -1 @23 generic_tag_attrib_def  1 1 @1 2 0 1 -318 0 #
plane-surface $-1 -1 $-1 8.768827103164637649 11.36064399418048509 0.1999999999999846068 0 -1 0 -1 -0 -0 forward_v I I I I #
coedge $-1 -1 $-1 $243 $244 $155 $210 reversed $232 0 $-1 #
edge $-1 56 $-1 $245 0 $213 2.029369227404060894 $209 $246 forward @7 unknown #
coedge $-1 -1 $-1 $239 $156 $244 $247 forward $212 0 $-1 #
loop $-1 -1 $-1 $-1 $156 $231 #
vertex $-1 22 $-1 $157 0 $248 #
straight-curve $-1 -1 $-1 7.921123463658663155 11.5435485168220513 0.1999999999999846068 0 -1 0 F 0 F 0.1829045226415662029 #
point $-1 -1 $-1 7.921123463658663155 11.36064399418048509 0.1999999999999846068 #
edge $-1 53 $-1 $168 0 $245 0.1829045226415662029 $181 $249 forward @7 unknown #
vertex $-1 16 $-1 $166 1 $250 #
straight-curve $-1 -1 $-1 9.286375079090358753 8.800000000000000711 0.1999999999999846068 1 -0 0 I I #
point $-1 -1 $-1 9.950492691062724049 11.36064399418048509 0.1999999999999846068 #
edge $-1 47 $-1 $217 0 $174 0.4000000000000000222 $169 $251 forward @7 unknown #
edge $-1 43 $-1 $222 -2.029369227404060894 $197 -0 $191 $252 forward @7 unknown #
vertex $-1 15 $-1 $192 1 $253 #
straight-curve $-1 -1 $-1 9.950492691062724049 8.503849545302664126 -0.2000000000000154154 -0 -1 -0 I I #
point $-1 -1 $-1 9.950492691062724049 8.800000000000000711 -0.2000000000000154154 #
coedge $-1 -1 $-1 $244 $243 $176 $226 reversed $232 0 $-1 #
edge $-1 57 $-1 $254 -2.029369227404060894 $228 -0 $225 $255 forward @7 unknown #
coedge $-1 -1 $-1 $181 $177 $243 $256 reversed $182 0 $-1 #
vertex $-1 21 $-1 $256 1 $257 #
straight-curve $-1 -1 $-1 9.950492691062724049 11.36064399418048509 -0.2000000000000154154 -0 -1 -0 I I #
ATTRIB_CUSTOM-attrib $-1 -1 $-1 $-1 $186 @22 generic_tag_attrib_def 3 3 -1 @23 generic_tag_attrib_def  1 1 @1 4 0 1 -318 0 #
face $258 74 $-1 $152 $212 $5 $-1 $259 forward single #
loop $-1 -1 $-1 $-1 $209 $186 #
plane-surface $-1 -1 $-1 7.921123463658663155 11.5435485168220513 0.1999999999999846068 0 1 0 1 -0 -0 forward_v I I I I #
straight-curve $-1 -1 $-1 9.950492691062724049 8.503849545302664126 0.1999999999999846068 0 1 0 F 0 F 0.2961504546973365848 #
straight-curve $-1 -1 $-1 9.950492691062724049 8.503849545302664126 0.1999999999999846068 0 0 -1 I I #
point $-1 -1 $-1 9.950492691062724049 8.503849545302664126 0.1999999999999846068 #
straight-curve $-1 -1 $-1 7.921123463658663155 8.800000000000000711 -0.2000000000000154154 0 1 0 I I #
point $-1 -1 $-1 7.921123463658663155 8.503849545302664126 -0.2000000000000154154 #
coedge $-1 -1 $-1 $203 $211 $202 $240 reversed $212 0 $-1 #
edge $-1 60 $-1 $205 -0.1829045226415662029 $254 -0 $239 $260 forward @7 unknown #
straight-curve $-1 -1 $-1 7.921123463658663155 11.36064399418048509 0.1999999999999846068 0 0 -1 I I #
point $-1 -1 $-1 7.921123463658663155 11.36064399418048509 -0.2000000000000154154 #
coedge $-1 -1 $-1 $225 $209 $227 $256 forward $232 0 $-1 #
coedge $-1 -1 $-1 $209 $225 $211 $247 reversed $232 0 $-1 #
vertex $-1 20 $-1 $210 0 $261 #
straight-curve $-1 -1 $-1 9.950492691062724049 11.5435485168220513 0.1999999999999846068 -1 0 0 F 0 F 2.029369227404060894 #
edge $-1 58 $-1 $213 0 $254 0.4000000000000000222 $211 $262 forward @7 unknown #
point $-1 -1 $-1 7.921123463658663155 11.5435485168220513 0.1999999999999846068 #
straight-curve $-1 -1 $-1 9.950492691062724049 11.36064399418048509 0.1999999999999846068 0 1 0 F 0 F 0.1829045226415662029 #
point $-1 -1 $-1 9.950492691062724049 8.800000000000000711 0.1999999999999846068 #
straight-curve $-1 -1 $-1 9.950492691062724049 8.800000000000000711 0.1999999999999846068 0 0 -1 I I #
straight-curve $-1 -1 $-1 7.921123463658663155 8.503849545302664126 -0.2000000000000154154 -1 -0 -0 I I #
point $-1 -1 $-1 9.950492691062724049 8.503849545302664126 -0.2000000000000154154 #
vertex $-1 23 $-1 $247 1 $263 #
straight-curve $-1 -1 $-1 9.950492691062724049 11.5435485168220513 -0.2000000000000154154 1 0 0 I I #
edge $-1 55 $-1 $245 0 $228 0.4000000000000000222 $243 $264 forward @7 unknown #
point $-1 -1 $-1 9.950492691062724049 11.5435485168220513 -0.2000000000000154154 #
ATTRIB_CUSTOM-attrib $-1 -1 $-1 $-1 $231 @22 generic_tag_attrib_def 3 3 -1 @23 generic_tag_attrib_def  1 1 @1 3 0 1 -318 0 #
plane-surface $-1 -1 $-1 7.921123463658663155 11.36064399418048509 0.1999999999999846068 -1 -0 -0 -0 1 -0 forward_v I I I I #
straight-curve $-1 -1 $-1 7.921123463658663155 11.5435485168220513 -0.2000000000000154154 0 1 0 I I #
point $-1 -1 $-1 9.950492691062724049 11.5435485168220513 0.1999999999999846068 #
straight-curve $-1 -1 $-1 7.921123463658663155 11.5435485168220513 0.1999999999999846068 0 0 -1 I I #
point $-1 -1 $-1 7.921123463658663155 11.5435485168220513 -0.2000000000000154154 #
straight-curve $-1 -1 $-1 9.950492691062724049 11.5435485168220513 0.1999999999999846068 0 0 -1 I I #
End-of-ASM-data 