22700 0 2 4           
16 Autodesk Neutron 20 ASM 227.1.1.65535 NT 24 Wed Aug 25 12:28:15 2021 
10 9.999999999999999547e-07 1.000000000000000036e-10 
asmheader $-1 -1 @13 227.1.1.65535 #
body $2 -1 $-1 $3 $-1 $-1 #
ATTRIB_CUSTOM-attrib $-1 -1 $4 $-1 $1 @20 Timestamp_attrib_def 1 1629894478216718 #
lump $-1 -1 $-1 $-1 $5 $1 #
ATTRIB_CUSTOM-attrib $-1 -1 $-1 $2 $1 @22 generic_tag_attrib_def 3 3 -1 @23 generic_tag_attrib_def  1 3 @3 321 1 0 0 #
shell $-1 -1 $-1 $-1 $-1 $6 $-1 $3 #
face $7 110 $-1 $8 $9 $5 $-1 $10 forward single #
ATTRIB_CUSTOM-attrib $-1 -1 $-1 $-1 $6 @22 generic_tag_attrib_def 3 3 -1 @23 generic_tag_attrib_def  1 4 @4 1432 0 1 -321 0 #
face $11 111 $-1 $12 $13 $5 $-1 $14 forward single #
loop $-1 -1 $-1 $-1 $15 $6 #
plane-surface $-1 -1 $-1 12.76969255576405793 10.42868405547900323 -0.4349999999999845657 0 0 -1 1 0 0 reverse_v I I I I #
ATTRIB_CUSTOM-attrib $-1 -1 $-1 $-1 $8 @22 generic_tag_attrib_def 3 3 -1 @23 generic_tag_attrib_def  1 4 @4 1431 0 1 -321 0 #
face $16 112 $-1 $17 $18 $5 $-1 $19 forward single #
loop $-1 -1 $-1 $-1 $20 $8 #
plane-surface $-1 -1 $-1 11.50068242911459926 10.86784956469976215 0 0.9391228521203209834 -0.3435815312635325247 0 0.3435815312635325247 0.9391228521203209834 -0 forward_v I I I I #
coedge $-1 -1 $-1 $21 $22 $23 $24 reversed $9 0 $-1 #
ATTRIB_CUSTOM-attrib $-1 -1 $-1 $-1 $12 @22 generic_tag_attrib_def 3 3 -1 @23 generic_tag_attrib_def  1 4 @4 1430 0 1 -321 0 #
face $25 113 $-1 $26 $27 $5 $-1 $28 forward single #
loop $-1 -1 $-1 $-1 $29 $12 #
plane-surface $-1 -1 $-1 12.76969255576405793 10.42868405547900323 0.4349999999999845657 0 0 1 1 0 0 forward_v I I I I #
coedge $-1 -1 $-1 $30 $31 $32 $33 reversed $13 0 $-1 #
coedge $-1 -1 $-1 $34 $15 $35 $36 reversed $9 0 $-1 #
coedge $-1 -1 $-1 $15 $37 $38 $39 reversed $9 0 $-1 #
coedge $-1 -1 $-1 $40 $41 $15 $24 forward $42 0 $-1 #
edge $-1 74 $-1 $43 0.1925746203607097973 $44 0.4774191822531312357 $23 $45 forward @7 unknown #
ATTRIB_CUSTOM-attrib $-1 -1 $-1 $-1 $17 @22 generic_tag_attrib_def 3 3 -1 @23 generic_tag_attrib_def  1 4 @4 1366 0 1 -321 0 #
face $46 114 $-1 $47 $48 $5 $-1 $49 forward single #
loop $-1 -1 $-1 $-1 $50 $17 #
cone-surface $-1 -1 $-1 0.4545797196741419022 11.34652238879130159 0 0 0 1 2.403472692397370825 -1.012541463674058839 0 1 I I 0 -1 2.408049309111902403 forward I I I I #
coedge $-1 -1 $-1 $51 $52 $53 $54 reversed $18 0 $-1 #
coedge $-1 -1 $-1 $55 $20 $56 $57 forward $13 0 $-1 #
coedge $-1 -1 $-1 $20 $55 $51 $58 reversed $13 0 $-1 #
coedge $-1 -1 $-1 $53 $59 $20 $33 forward $60 0 $-1 #
edge $-1 85 $-1 $61 -0.410955255840762923 $62 0.4109552558407633671 $32 $63 forward @7 unknown #
coedge $-1 -1 $-1 $64 $21 $65 $66 reversed $9 0 $-1 #
coedge $-1 -1 $-1 $67 $68 $21 $36 forward $48 0 $-1 #
edge $-1 75 $-1 $69 -1.730275034578033555 $43 -0.7452854887831890096 $21 $70 reversed @7 unknown #
coedge $-1 -1 $-1 $22 $71 $72 $73 reversed $9 0 $-1 #
coedge $-1 -1 $-1 $74 $75 $22 $39 forward $76 0 $-1 #
edge $-1 84 $-1 $44 -0.8124512265356544916 $77 0.812451226535651827 $38 $78 forward @7 unknown #
coedge $-1 -1 $-1 $79 $23 $75 $80 reversed $42 0 $-1 #
coedge $-1 -1 $-1 $23 $81 $67 $82 forward $42 0 $-1 #
loop $-1 -1 $-1 $-1 $23 $83 #
vertex $-1 51 $-1 $24 0 $84 #
vertex $-1 50 $-1 $24 1 $85 #
intcurve-curve $-1 -1 $-1 forward { int_int_cur 21900 full nubs 3 open 4 
	0.1925746203607097973 3 0.2335184925342754791 2 0.3538299882403669883 2 0.4774191822531312357 3 
	2.421893538963331594 13.10424457884022509 -0.4349999999999845657 
	2.433558501632560489 13.11329560521563309 -0.4349999999999845657 
	2.444370387902839337 13.12302809359029077 -0.4349999999999846212 
	2.482020742175255368 13.16139090990223615 -0.4349999999999845657 
	2.508281948162772945 13.20171864254277949 -0.4349999999999845657 
	2.538855497609497025 13.27705114188432134 -0.4349999999999845657 
	2.548181430361442068 13.32559919229401579 -0.4349999999999845657 
	2.548181430361442068 13.36679559029827047 -0.4349999999999845657 
	0.0004960625664569488606 
	
	torus 2.231822207728525242 14.80000000000000071 -1.157238689165056883e-15 1 0 0 1.497764961530503314 -0.3163592226329168255 0 0 -1 forward_v I I I I 
	plane 12.76969255576405793 10.42868405547900323 -0.4349999999999845657 -0 -0 1 1 0 0 forward_v I I I I 
	nullbs 
	nullbs 
	I I 
	0 
	0 
	0 
	
	0 } I I #
ATTRIB_CUSTOM-attrib $-1 -1 $-1 $-1 $26 @22 generic_tag_attrib_def 3 3 -1 @23 generic_tag_attrib_def  1 4 @4 1365 0 1 -321 0 #
face $86 115 $-1 $87 $88 $5 $-1 $89 forward single #
loop $-1 -1 $-1 $-1 $67 $26 #
plane-surface $-1 -1 $-1 2.421893538963331594 14.28923412463506892 0 -1 0 0 0 -1 0 forward_v I I I I #
coedge $-1 -1 $-1 $90 $90 $81 $91 reversed $27 0 $-1 #
coedge $-1 -1 $-1 $92 $29 $31 $58 forward $18 0 $-1 #
coedge $-1 -1 $-1 $29 $93 $94 $95 reversed $18 0 $-1 #
coedge $-1 -1 $-1 $96 $32 $29 $54 forward $60 0 $-1 #
edge $-1 88 $-1 $62 0.09141721395854417176 $97 0.4774191822531312357 $53 $98 forward @7 unknown #
coedge $-1 -1 $-1 $31 $30 $99 $100 forward $13 0 $-1 #
coedge $-1 -1 $-1 $101 $64 $30 $57 reversed $9 0 $-1 #
edge $-1 78 $-1 $61 2.316255943209594825 $102 2.940420940502386227 $56 $103 reversed @7 unknown #
edge $-1 87 $-1 $62 2.316255943209594825 $104 2.940420940502386227 $31 $105 reversed @7 unknown #
coedge $-1 -1 $-1 $32 $96 $101 $106 forward $60 0 $-1 #
loop $-1 -1 $-1 $-1 $59 $107 #
vertex $-1 55 $-1 $106 1 $108 #
vertex $-1 61 $-1 $33 1 $109 #
intcurve-curve $-1 -1 $-1 forward { int_int_cur 21900 full nubs 3 open 5 
	-0.410955255840762923 3 -0.316145398000202249 2 0 3 0.3161453980002024711 2 0.4109552558407633671 3 
	12.30055568876889005 13.05416980775481939 -0.4349999999999845657 
	12.29784395915946327 13.04675774682238831 -0.4016805684790912823 
	12.29543552138682472 13.04017468357716503 -0.3678854090681920042 
	12.28640807212507013 13.01549965559504152 -0.22065886154424183 
	12.28324801106470154 13.00686215536337365 -0.1053817993334018599 
	12.28324801106470154 13.00686215536337365 -1.157238689165056883e-15 
	12.28324801106470154 13.00686215536337365 0.1053817993333996672 
	12.28640807212506836 13.01549965559504329 0.220658861544240803 
	12.29543552138682116 13.0401746835771668 0.367885409068191227 
	12.29784395915946327 13.04675774682238831 0.4016805684790913378 
	12.30055568876889005 13.05416980775481939 0.4349999999999845657 
	0.00022541671104637999 
	
	torus 12.39655298743591061 14.80000000000000071 -1.157238689165056883e-15 1 0 0 1.497764961530503314 -0.3163592226329168255 0 0 -1 forward_v I I I I 
	plane 11.50068242911459926 10.86784956469976215 0 -0.9391228521203209834 0.3435815312635325247 -0 0.3435815312635325247 0.9391228521203209834 -0 reverse_v I I I I 
	nullbs 
	nullbs 
	I I 
	0 
	0 
	0 
	
	0 } I I #
coedge $-1 -1 $-1 $56 $34 $110 $111 reversed $9 0 $-1 #
coedge $-1 -1 $-1 $112 $113 $34 $66 forward $88 0 $-1 #
edge $-1 76 $-1 $114 0.2273426507321048007 $69 10.32045636606861905 $34 $115 reversed @7 unknown #
coedge $-1 -1 $-1 $116 $35 $41 $82 reversed $48 0 $-1 #
coedge $-1 -1 $-1 $35 $117 $112 $118 reversed $48 0 $-1 #
vertex $-1 52 $-1 $36 0 $119 #
straight-curve $-1 -1 $-1 2.421893538963331594 12.35895909005703608 -0.4349999999999845657 0 1 0 F -10012.35896009005774 F 9987.641041909942942 #
coedge $-1 -1 $-1 $37 $120 $121 $122 reversed $9 0 $-1 #
coedge $-1 -1 $-1 $123 $124 $37 $73 forward $125 0 $-1 #
edge $-1 83 $-1 $77 1.440880667044252883 $126 2.395719031550518352 $72 $127 forward @7 unknown #
coedge $-1 -1 $-1 $128 $38 $124 $129 reversed $76 0 $-1 #
coedge $-1 -1 $-1 $38 $128 $40 $80 forward $76 0 $-1 #
loop $-1 -1 $-1 $-1 $38 $130 #
vertex $-1 60 $-1 $39 1 $131 #
straight-curve $-1 -1 $-1 3.36063265689709656 13.36679559029827047 -0.4349999999999845657 1 0 0 I I #
coedge $-1 -1 $-1 $132 $40 $133 $134 forward $42 0 $-1 #
edge $-1 109 $-1 $135 4.417709927518717272 $44 5.007068033250660299 $75 $136 forward @7 unknown #
coedge $-1 -1 $-1 $41 $132 $50 $91 forward $42 0 $-1 #
edge $-1 100 $-1 $137 -1.467267865400301741 $43 -1.31968800284935095 $41 $138 forward @7 unknown #
face $139 122 $-1 $130 $42 $5 $-1 $140 forward single #
point $-1 -1 $-1 2.421893538963331594 13.10424457884022509 -0.4349999999999845657 #
point $-1 -1 $-1 2.548181430361442068 13.36679559029827047 -0.4349999999999845657 #
ATTRIB_CUSTOM-attrib $-1 -1 $-1 $-1 $47 @22 generic_tag_attrib_def 3 3 -1 @23 generic_tag_attrib_def  1 4 @4 1429 0 1 -321 0 #
face $141 116 $-1 $107 $142 $5 $-1 $143 forward single #
loop $-1 -1 $-1 $-1 $113 $47 #
plane-surface $-1 -1 $-1 12.71500725429984513 14.08923412463506963 0 0 1 0 -1 -0 -0 forward_v I I I I #
coedge $-1 -1 $-1 $50 $50 $116 $144 reversed $27 0 $-1 #
edge $-1 98 $-1 $145 -0.3599643900264885565 $137 -0 $81 $146 forward @7 unknown #
coedge $-1 -1 $-1 $147 $51 $148 $149 forward $18 0 $-1 #
coedge $-1 -1 $-1 $52 $150 $151 $152 reversed $18 0 $-1 #
coedge $-1 -1 $-1 $153 $154 $52 $95 forward $155 0 $-1 #
edge $-1 97 $-1 $97 -3.637195718052204541 $156 -1.96067751820212699 $94 $157 forward @7 unknown #
coedge $-1 -1 $-1 $59 $53 $154 $158 forward $60 0 $-1 #
vertex $-1 63 $-1 $158 0 $159 #
intcurve-curve $-1 -1 $-1 forward { int_int_cur 21900 full nubs 3 open 5 
	0.09141721395854417176 3 0.115870955116579244 2 0.2335184925342754791 2 0.3538299882403669883 2 0.4774191822531312357 3 
	12.30055568876889005 13.05416980775481939 0.4349999999999845657 
	12.29234901000260116 13.05686320875483553 0.4349999999999845657 
	12.28442380862989936 13.05984878516191117 0.4349999999999845102 
	12.24076996172713017 13.07823310283928286 0.4349999999999845657 
	12.20191379353850358 13.10478021347996958 0.4349999999999845657 
	12.14635445298918093 13.16139090990223615 0.4349999999999845657 
	12.12009324700166246 13.20171864254277949 0.4349999999999845657 
	12.08951969755493927 13.27705114188432134 0.4349999999999845657 
	12.08019376480299378 13.32559919229401579 0.4349999999999845657 
	12.08019376480299378 13.36679559029827047 0.4349999999999845657 
	0.0004994926295010767344 
	
	torus 12.39655298743591061 14.80000000000000071 -1.157238689165056883e-15 1 0 0 1.497764961530503314 -0.3163592226329168255 0 0 -1 forward_v I I I I 
	plane 12.76969255576405793 10.42868405547900323 0.4349999999999845657 -0 -0 -1 1 0 0 reverse_v I I I I 
	nullbs 
	nullbs 
	I I 
	0 
	0 
	0 
	
	0 } I I #
coedge $-1 -1 $-1 $110 $148 $55 $100 reversed $142 0 $-1 #
edge $-1 86 $-1 $102 -0.4349999999999845657 $104 0.4349999999999845657 $55 $160 reversed @7 unknown #
coedge $-1 -1 $-1 $161 $56 $59 $106 reversed $9 0 $-1 #
vertex $-1 54 $-1 $111 0 $162 #
straight-curve $-1 -1 $-1 11.50473292500267952 10.87892092012718059 -0.4349999999999845657 -0.3435815312635325247 -0.9391228521203209834 -0 F -10636.64999475495642 F 10659.81825414842388 #
vertex $-1 62 $-1 $100 1 $163 #
straight-curve $-1 -1 $-1 11.50473292500267952 10.87892092012718059 0.4349999999999845657 -0.3435815312635325247 -0.9391228521203209834 0 F -10636.64999475495642 F 10659.81825414842388 #
edge $-1 79 $-1 $164 -0.4774191822531315132 $61 -0.09141721395854332521 $59 $165 forward @7 unknown #
face $166 117 $-1 $167 $60 $5 $-1 $168 forward single #
point $-1 -1 $-1 12.30055568876889005 13.05416980775481939 -0.4349999999999845657 #
point $-1 -1 $-1 12.30055568876889005 13.05416980775481939 0.4349999999999845657 #
coedge $-1 -1 $-1 $169 $99 $64 $111 forward $142 0 $-1 #
edge $-1 77 $-1 $102 1.623545081736121887 $114 2.072441786165093447 $64 $170 reversed @7 unknown #
coedge $-1 -1 $-1 $171 $65 $68 $118 forward $88 0 $-1 #
coedge $-1 -1 $-1 $65 $171 $169 $172 reversed $88 0 $-1 #
vertex $-1 53 $-1 $66 0 $173 #
straight-curve $-1 -1 $-1 12.74234990503195064 14.08923412463506963 -0.4349999999999845657 1 0 0 F -10012.74235090503316 F 9987.257651094967514 #
coedge $-1 -1 $-1 $174 $67 $90 $144 forward $48 0 $-1 #
coedge $-1 -1 $-1 $68 $174 $175 $176 reversed $48 0 $-1 #
edge $-1 102 $-1 $69 -0.4349999999999845657 $177 0.4349999999999845657 $112 $178 reversed @7 unknown #
point $-1 -1 $-1 2.421893538963331594 14.08923412463506963 -0.4349999999999845657 #
coedge $-1 -1 $-1 $71 $161 $179 $180 reversed $9 0 $-1 #
coedge $-1 -1 $-1 $181 $182 $71 $122 forward $183 0 $-1 #
edge $-1 82 $-1 $126 -3.637195718052205429 $184 1.327959072936293339 $121 $185 forward @7 unknown #
coedge $-1 -1 $-1 $186 $72 $182 $187 reversed $125 0 $-1 #
coedge $-1 -1 $-1 $72 $186 $74 $129 forward $125 0 $-1 #
loop $-1 -1 $-1 $-1 $72 $188 #
vertex $-1 59 $-1 $73 1 $189 #
intcurve-curve $-1 -1 $-1 forward { int_int_cur 21900 full nubs 3 open 9 
	1.440880667044252883 3 1.564469861057018463 2 1.684781356763110027 2 1.802428894180805319 2 1.918299849297385729 3 
	2.03417080441396747 2 2.151818341831663872 2 2.27212983753775255 2 2.395719031550518352 3 
	4.173083883432751051 13.36679559029827402 -0.4349999999999845657 
	4.173083883432751051 13.32559919229401757 -0.4349999999999845657 
	4.182409816184693874 13.27705114188432312 -0.4349999999999845657 
	4.212983365631418842 13.20171864254277949 -0.4349999999999845657 
	4.239244571618935531 13.16139090990223615 -0.4349999999999845657 
	4.294803912168258186 13.10478021347996958 -0.4349999999999845657 
	4.333660080356885658 13.07823310283928464 -0.4349999999999845657 
	4.405397510338025846 13.04802170577572262 -0.4349999999999845657 
	4.450819454360139815 13.0388011027806634 -0.4349999999999845657 
	4.489443106065666989 13.0388011027806634 -0.4349999999999845657 
	4.528066757771194162 13.0388011027806634 -0.4349999999999845657 
	4.573488701793309907 13.04802170577572085 -0.4349999999999845657 
	4.645226131774450096 13.07823310283928286 -0.4349999999999845657 
	4.684082299963077567 13.10478021347996958 -0.4349999999999845657 
	4.739641640512399334 13.16139090990223615 -0.4349999999999845657 
	4.765902846499915135 13.20171864254277772 -0.4349999999999845657 
	4.796476395946639215 13.27705114188432134 -0.4349999999999845657 
	4.805802328698584702 13.32559919229401579 -0.4349999999999845657 
	4.805802328698584702 13.36679559029827047 -0.4349999999999845657 
	0.0004994926295016490847 
	
	torus 4.489443106065667877 14.80000000000000071 -1.157238689165056883e-15 1 0 0 1.497764961530503314 -0.3163592226329168255 0 0 -1 forward_v I I I I 
	plane 12.76969255576405793 10.42868405547900323 -0.4349999999999845657 -0 -0 1 1 0 0 forward_v I I I I 
	nullbs 
	nullbs 
	I I 
	0 
	0 
	0 
	
	0 } I I #
coedge $-1 -1 $-1 $75 $74 $190 $191 forward $76 0 $-1 #
edge $-1 108 $-1 $192 4.417709927518717272 $77 5.007068033250660299 $124 $193 forward @7 unknown #
face $194 123 $-1 $-1 $76 $5 $-1 $195 forward single #
point $-1 -1 $-1 4.173083883432748387 13.36679559029827047 -0.4349999999999845657 #
coedge $-1 -1 $-1 $81 $79 $174 $196 forward $42 0 $-1 #
coedge $-1 -1 $-1 $190 $175 $79 $134 reversed $18 0 $-1 #
edge $-1 92 $-1 $135 1.440880667044254437 $197 1.725725228936676903 $79 $198 forward @7 unknown #
vertex $-1 67 $-1 $80 0 $199 #
ellipse-curve $-1 -1 $-1 2.548181430361442068 14.80000000000000071 -1.157238689165056883e-15 1 0 0 0 0 -1.497764961530503314 1 I I #
vertex $-1 73 $-1 $91 1 $200 #
ellipse-curve $-1 -1 $-1 2.421893538963331594 14.80000000000000071 -1.157238689165056883e-15 1 0 0 0 0 -1.750660289260242086 1 I I #
ATTRIB_CUSTOM-attrib $-1 -1 $-1 $-1 $83 @22 generic_tag_attrib_def 3 3 -1 @23 generic_tag_attrib_def  1 1 @1 7 19923 1 -321 0 #
torus-surface $-1 -1 $-1 2.231822207728525242 14.80000000000000071 -1.157238689165056883e-15 1 0 0 1.497764961530503314 0.3163592226329168255 0 0 -1 forward_v I I I I #
ATTRIB_CUSTOM-attrib $-1 -1 $-1 $-1 $87 @22 generic_tag_attrib_def 3 3 -1 @23 generic_tag_attrib_def  1 4 @4 1363 0 1 -321 0 #
loop $-1 -1 $-1 $-1 $99 $87 #
plane-surface $-1 -1 $-1 12.51500725429984584 13.60490062146094736 0 1 0 -0 -0 1 -0 forward_v I I I I #
edge $-1 99 $-1 $137 -0.1809195746272095062 $145 0.1809195746272071748 $116 $201 reversed @7 unknown #
vertex $-1 72 $-1 $91 0 $202 #
intcurve-curve $-1 -1 $-1 forward { int_int_cur 21900 full nubs 3 open 2 
	-0.3599643900264885565 3 -0 3 
	2.421893538963302728 13.05871324707578829 0.1809195746277386385 
	2.428416557546471122 13.05121827387227285 0.06134354463736810259 
	2.428416557546471122 13.05121827387227285 -0.06134354463737023977 
	2.421893538963302728 13.05871324707578829 -0.1809195746277407757 
	1.171740255592266609e-05 
	
	cone 0.4545797196741419022 11.34652238879130159 0 0 0 1 2.403472692397370825 -1.012541463674058839 0 1 I I -0 1 2.408049309111902403 forward I I I I 
	torus 2.231822207728525242 14.80000000000000071 -1.157238689165056883e-15 1 0 0 1.497764961530503314 0.3163592226329168255 0 0 -1 forward_v I I I I 
	nullbs 
	nullbs 
	I I 
	0 
	0 
	0 
	
	0 } I I #
coedge $-1 -1 $-1 $175 $92 $171 $203 forward $18 0 $-1 #
coedge $-1 -1 $-1 $99 $169 $92 $149 reversed $142 0 $-1 #
edge $-1 89 $-1 $104 1.623545081736121887 $204 2.072441786165093447 $148 $205 reversed @7 unknown #
coedge $-1 -1 $-1 $93 $206 $207 $208 reversed $18 0 $-1 #
coedge $-1 -1 $-1 $209 $210 $93 $152 forward $211 0 $-1 #
edge $-1 96 $-1 $156 1.440880667044254881 $212 2.395719031550518352 $151 $213 forward @7 unknown #
coedge $-1 -1 $-1 $214 $94 $210 $215 forward $155 0 $-1 #
coedge $-1 -1 $-1 $94 $214 $96 $158 reversed $155 0 $-1 #
loop $-1 -1 $-1 $-1 $214 $167 #
vertex $-1 71 $-1 $215 0 $216 #
straight-curve $-1 -1 $-1 8.442998046750789243 13.36679559029827047 0.4349999999999845657 -1 -0 -0 I I #
edge $-1 104 $-1 $97 4.417709927518717272 $164 5.007068033250660299 $96 $217 forward @7 unknown #
point $-1 -1 $-1 12.08019376480299378 13.36679559029827047 0.4349999999999845657 #
straight-curve $-1 -1 $-1 12.51500725429984584 13.64033742020609807 0 0 -0 -1 F -10000.00000100000034 F 10000.00000100000034 #
coedge $-1 -1 $-1 $120 $101 $214 $218 reversed $9 0 $-1 #
point $-1 -1 $-1 12.51500725429984584 13.64033742020609807 -0.4349999999999845657 #
point $-1 -1 $-1 12.51500725429984584 13.64033742020609807 0.4349999999999845657 #
vertex $-1 56 $-1 $106 0 $219 #
intcurve-curve $-1 -1 $-1 forward { int_int_cur 21900 full nubs 3 open 5 
	-0.4774191822531315132 3 -0.3538299882403672658 2 -0.2335184925342757012 2 -0.1158709551165808538 2 -0.09141721395854332521 3 
	12.08019376480299378 13.36679559029827047 -0.4349999999999846212 
	12.08019376480299378 13.32559919229401579 -0.4349999999999845657 
	12.08951969755493927 13.27705114188432134 -0.4349999999999845657 
	12.12009324700166246 13.20171864254277949 -0.4349999999999845657 
	12.14635445298918093 13.16139090990223615 -0.4349999999999845657 
	12.20191379353850181 13.10478021347996958 -0.4349999999999845657 
	12.24076996172712839 13.07823310283928286 -0.4349999999999845657 
	12.28442380862989936 13.05984878516191117 -0.4349999999999846212 
	12.29234901000260116 13.05686320875483553 -0.4349999999999845657 
	12.30055568876889005 13.05416980775481939 -0.4349999999999845657 
	0.0004994926295007772778 
	
	torus 12.39655298743591061 14.80000000000000071 -1.157238689165056883e-15 1 0 0 1.497764961530503314 -0.3163592226329168255 0 0 -1 forward_v I I I I 
	plane 12.76969255576405793 10.42868405547900323 -0.4349999999999845657 -0 -0 1 1 0 0 forward_v I I I I 
	nullbs 
	nullbs 
	I I 
	0 
	0 
	0 
	
	0 } I I #
ATTRIB_CUSTOM-attrib $-1 -1 $-1 $-1 $107 @22 generic_tag_attrib_def 3 3 -1 @23 generic_tag_attrib_def  1 1 @1 3 13868 1 -321 0 #
face $220 118 $-1 $221 $155 $5 $-1 $222 forward single #
torus-surface $-1 -1 $-1 12.39655298743591061 14.80000000000000071 -1.157238689165056883e-15 1 0 0 1.497764961530503314 0.3163592226329168255 0 0 -1 forward_v I I I I #
coedge $-1 -1 $-1 $148 $110 $113 $172 forward $142 0 $-1 #
straight-curve $-1 -1 $-1 12.51500725429984584 12.01679233846997619 -0.4349999999999845657 0 -1 0 F -9987.983208661529716 F 10012.01679333847096 #
coedge $-1 -1 $-1 $113 $112 $147 $203 reversed $88 0 $-1 #
edge $-1 103 $-1 $114 -0.4349999999999845657 $204 0.4349999999999845657 $169 $223 reversed @7 unknown #
point $-1 -1 $-1 12.51500725429984584 14.08923412463506963 -0.4349999999999845657 #
coedge $-1 -1 $-1 $117 $116 $132 $196 reversed $48 0 $-1 #
coedge $-1 -1 $-1 $133 $147 $117 $176 forward $18 0 $-1 #
edge $-1 91 $-1 $177 -1.730275034578033555 $197 -0.7452854887831890096 $117 $224 reversed @7 unknown #
vertex $-1 65 $-1 $118 1 $225 #
straight-curve $-1 -1 $-1 2.421893538963331594 14.08923412463506963 0 0 0 -1 F -10000.00000100000034 F 10000.00000100000034 #
coedge $-1 -1 $-1 $210 $209 $120 $180 forward $211 0 $-1 #
edge $-1 81 $-1 $184 1.440880667044254215 $226 2.395719031550518352 $179 $227 forward @7 unknown #
coedge $-1 -1 $-1 $207 $121 $209 $228 forward $183 0 $-1 #
coedge $-1 -1 $-1 $121 $207 $123 $187 forward $183 0 $-1 #
loop $-1 -1 $-1 $-1 $121 $229 #
vertex $-1 58 $-1 $228 0 $230 #
straight-curve $-1 -1 $-1 8.442998046750789243 13.36679559029827047 -0.4349999999999845657 1 0 0 I I #
coedge $-1 -1 $-1 $124 $123 $206 $231 forward $125 0 $-1 #
edge $-1 107 $-1 $232 -1.86547537966086896 $126 -1.276117273928925711 $182 $233 forward @7 unknown #
face $234 121 $-1 $83 $125 $5 $-1 $235 forward single #
point $-1 -1 $-1 4.805802328698583814 13.36679559029827047 -0.4349999999999845657 #
coedge $-1 -1 $-1 $206 $133 $128 $191 reversed $18 0 $-1 #
edge $-1 93 $-1 $192 -0.812451226535651827 $135 0.8124512265356544916 $128 $236 forward @7 unknown #
vertex $-1 68 $-1 $129 0 $237 #
ellipse-curve $-1 -1 $-1 4.173083883432749275 14.80000000000000071 -1.157238689165056883e-15 1 0 0 0 0 -1.497764961530503314 1 I I #
ATTRIB_CUSTOM-attrib $-1 -1 $-1 $-1 $130 @22 generic_tag_attrib_def 3 3 -1 @23 generic_tag_attrib_def  1 1 @1 6 30983 1 -321 0 #
cone-surface $-1 -1 $-1 3.360632656897095671 14.80000000000000071 -1.157238689165056883e-15 1 0 0 0 1.497764961530503314 2.552201926111471475e-15 1 I I 0 1 1.497764961530503314 forward I I I I #
edge $-1 101 $-1 $197 -1.821904650740443499 $145 -1.674324788189491375 $132 $138 forward @7 unknown #
vertex $-1 66 $-1 $196 0 $238 #
intcurve-curve $-1 -1 $-1 forward { int_int_cur 21900 full nubs 3 open 4 
	1.440880667044254437 3 1.564469861057018685 2 1.684781356763110249 2 1.725725228936676903 3 
	2.548181430361442068 13.36679559029827047 0.4349999999999845657 
	2.548181430361442068 13.32559919229401579 0.4349999999999845657 
	2.538855497609497025 13.27705114188432134 0.4349999999999845657 
	2.508281948162772945 13.20171864254277949 0.4349999999999845657 
	2.482020742175255812 13.16139090990223615 0.4349999999999845657 
	2.444370387902839337 13.12302809359028899 0.4349999999999846212 
	2.433558501632560933 13.11329560521563309 0.4349999999999845657 
	2.421893538963331594 13.10424457884022509 0.4349999999999845657 
	0.0004960625664568453193 
	
	torus 2.231822207728525242 14.80000000000000071 -1.157238689165056883e-15 1 0 0 1.497764961530503314 -0.3163592226329168255 0 0 -1 forward_v I I I I 
	plane 12.76969255576405793 10.42868405547900323 0.4349999999999845657 -0 -0 -1 1 0 0 reverse_v I I I I 
	nullbs 
	nullbs 
	I I 
	0 
	0 
	0 
	
	0 } I I #
point $-1 -1 $-1 2.548181430361442068 13.36679559029827047 0.4349999999999845657 #
point $-1 -1 $-1 2.421893538963331594 13.05871324707575454 -0.1809195746272095062 #
straight-curve $-1 -1 $-1 2.421893538963331594 13.05871324707575454 0 0 0 -1 F -1.87000100000001801 F 1.23500100000003199 #
point $-1 -1 $-1 2.421893538963331594 13.05871324707575454 0.1809195746272071748 #
edge $-1 90 $-1 $204 0.2273426507321048007 $177 10.32045636606861905 $171 $239 reversed @7 unknown #
vertex $-1 64 $-1 $172 1 $240 #
straight-curve $-1 -1 $-1 12.51500725429984584 12.01679233846997619 0.4349999999999845657 0 -1 0 F -9987.983208661529716 F 10012.01679333847096 #
coedge $-1 -1 $-1 $150 $190 $186 $231 reversed $18 0 $-1 #
coedge $-1 -1 $-1 $182 $181 $150 $208 forward $183 0 $-1 #
edge $-1 95 $-1 $212 -1.327959072936293339 $232 3.637195718052205429 $207 $241 forward @7 unknown #
coedge $-1 -1 $-1 $179 $151 $181 $228 reversed $211 0 $-1 #
coedge $-1 -1 $-1 $151 $179 $153 $215 reversed $211 0 $-1 #
loop $-1 -1 $-1 $-1 $179 $221 #
vertex $-1 70 $-1 $208 0 $242 #
intcurve-curve $-1 -1 $-1 forward { int_int_cur 21900 full nubs 3 open 9 
	1.440880667044254881 3 1.564469861057019129 2 1.684781356763109805 2 1.802428894180807317 2 1.918299849297386617 3 
	2.034170804413965694 2 2.151818341831663428 2 2.272129837537753883 2 2.395719031550518352 3 
	10.40367556495291623 13.36679559029827047 0.4349999999999845657 
	10.40367556495291623 13.32559919229401579 0.4349999999999845657 
	10.39434963220097075 13.27705114188432134 0.4349999999999845657 
	10.36377608275424755 13.20171864254277949 0.4349999999999845657 
	10.33751487676673086 13.16139090990223615 0.4349999999999845657 
	10.28195553621740821 13.1047802134799678 0.4349999999999845657 
	10.24309936802877985 13.07823310283928286 0.4349999999999845657 
	10.17136193804764055 13.04802170577572085 0.4349999999999845657 
	10.12593999402552569 13.0388011027806634 0.4349999999999845657 
	10.08731634231999941 13.0388011027806634 0.4349999999999845657 
	10.04869269061447312 13.0388011027806634 0.4349999999999845657 
	10.00327074659235826 13.04802170577572085 0.4349999999999845657 
	9.931533316611218964 13.07823310283928286 0.4349999999999845657 
	9.892677148422590605 13.1047802134799678 0.4349999999999845657 
	9.83711780787326795 13.16139090990223615 0.4349999999999845657 
	9.81085660188575126 13.20171864254277949 0.4349999999999845657 
	9.780283052439028069 13.27705114188432134 0.4349999999999845657 
	9.770957119687082582 13.32559919229401579 0.4349999999999845657 
	9.770957119687082582 13.36679559029827047 0.4349999999999845657 
	0.0004994926295003956386 
	
	torus 10.08731634231999941 14.80000000000000071 -8.126516586891015145e-16 1 0 0 1.497764961530503314 -0.3163592226329168255 0 0 -1 forward_v I I I I 
	plane 12.76969255576405793 10.42868405547900323 0.4349999999999845657 -0 -0 -1 1 0 0 reverse_v I I I I 
	nullbs 
	nullbs 
	I I 
	0 
	0 
	0 
	
	0 } I I #
coedge $-1 -1 $-1 $154 $153 $161 $218 forward $155 0 $-1 #
edge $-1 105 $-1 $156 -3.43627170645576685 $226 -2.846913600723823823 $153 $243 forward @7 unknown #
point $-1 -1 $-1 10.40367556495291623 13.36679559029827047 0.4349999999999845657 #
ellipse-curve $-1 -1 $-1 12.08019376480299378 14.80000000000000071 -1.157238689165056883e-15 1 0 0 0 0 -1.497764961530503314 1 I I #
edge $-1 80 $-1 $226 1.96067751820212699 $164 3.637195718052204541 $214 $244 forward @7 unknown #
point $-1 -1 $-1 12.08019376480299378 13.36679559029827047 -0.4349999999999845657 #
ATTRIB_CUSTOM-attrib $-1 -1 $-1 $-1 $167 @22 generic_tag_attrib_def 3 3 -1 @23 generic_tag_attrib_def  1 1 @1 4 5513 1 -321 0 #
face $245 119 $-1 $229 $211 $5 $-1 $246 forward single #
cone-surface $-1 -1 $-1 8.442998046750789243 14.80000000000000071 -1.157238689165056883e-15 1 0 0 0 1.497764961530503314 2.552201926111471475e-15 1 I I 0 1 1.497764961530503314 forward I I I I #
straight-curve $-1 -1 $-1 12.51500725429984584 14.08923412463506963 0 -0 0 -1 F -10000.00000100000034 F 10000.00000100000034 #
straight-curve $-1 -1 $-1 2.421893538963331594 12.35895909005703608 0.4349999999999845657 0 1 -0 F -10012.35896009005774 F 9987.641041909942942 #
point $-1 -1 $-1 2.421893538963331594 14.08923412463506963 0.4349999999999845657 #
vertex $-1 57 $-1 $218 0 $247 #
intcurve-curve $-1 -1 $-1 forward { int_int_cur 21900 full nubs 3 open 9 
	1.440880667044254215 3 1.564469861057020239 2 1.684781356763109361 2 1.802428894180805541 2 1.918299849297386395 3 
	2.03417080441396747 2 2.151818341831663428 2 2.27212983753775255 2 2.395719031550518352 3 
	9.770957119687082582 13.36679559029827224 -0.4349999999999846212 
	9.770957119687082582 13.32559919229401579 -0.4349999999999845657 
	9.780283052439028069 13.27705114188432134 -0.4349999999999845657 
	9.81085660188575126 13.20171864254277772 -0.4349999999999845657 
	9.83711780787326795 13.16139090990223615 -0.4349999999999845657 
	9.892677148422590605 13.10478021347996958 -0.4349999999999845657 
	9.931533316611217188 13.07823310283928286 -0.4349999999999845657 
	10.00327074659235826 13.04802170577572085 -0.4349999999999845657 
	10.04869269061447312 13.0388011027806634 -0.4349999999999845657 
	10.08731634231999941 13.0388011027806634 -0.4349999999999845657 
	10.12593999402552569 13.0388011027806634 -0.4349999999999845657 
	10.17136193804764055 13.04802170577572085 -0.4349999999999845657 
	10.24309936802878163 13.07823310283928286 -0.4349999999999845657 
	10.28195553621740821 13.10478021347996958 -0.4349999999999845657 
	10.33751487676673086 13.16139090990223615 -0.4349999999999845657 
	10.36377608275424755 13.20171864254277772 -0.4349999999999845657 
	10.39434963220097075 13.27705114188432134 -0.4349999999999845657 
	10.40367556495291623 13.32559919229401579 -0.4349999999999845657 
	10.40367556495291623 13.36679559029827047 -0.4349999999999845657 
	0.0004994926295014582652 
	
	torus 10.08731634231999941 14.80000000000000071 -8.126516586891015145e-16 1 0 0 1.497764961530503314 -0.3163592226329168255 0 0 -1 forward_v I I I I 
	plane 12.76969255576405793 10.42868405547900323 -0.4349999999999845657 -0 -0 1 1 0 0 forward_v I I I I 
	nullbs 
	nullbs 
	I I 
	0 
	0 
	0 
	
	0 } I I #
edge $-1 106 $-1 $184 -3.436271706455762409 $212 -2.846913600723819382 $209 $248 forward @7 unknown #
face $249 120 $-1 $188 $183 $5 $-1 $250 forward single #
point $-1 -1 $-1 9.770957119687082582 13.36679559029827047 -0.4349999999999845657 #
edge $-1 94 $-1 $232 1.440880667044253993 $192 2.395719031550518796 $186 $251 forward @7 unknown #
vertex $-1 69 $-1 $187 0 $252 #
ellipse-curve $-1 -1 $-1 4.805802328698582926 14.80000000000000071 -1.157238689165056883e-15 1 0 0 0 0 -1.497764961530503314 1 I I #
ATTRIB_CUSTOM-attrib $-1 -1 $-1 $-1 $188 @22 generic_tag_attrib_def 3 3 -1 @23 generic_tag_attrib_def  1 1 @1 5 9023 1 -321 0 #
torus-surface $-1 -1 $-1 4.489443106065667877 14.80000000000000071 -1.157238689165056883e-15 1 0 0 1.497764961530503314 0.3163592226329168255 0 0 -1 forward_v I I I I #
straight-curve $-1 -1 $-1 3.36063265689709656 13.36679559029827047 0.4349999999999845657 -1 -0 -0 I I #
point $-1 -1 $-1 4.173083883432748387 13.36679559029827047 0.4349999999999845657 #
point $-1 -1 $-1 2.421893538963331594 13.10424457884022509 0.4349999999999845657 #
straight-curve $-1 -1 $-1 12.74234990503195064 14.08923412463506963 0.4349999999999845657 1 0 0 F -10012.74235090503316 F 9987.257651094967514 #
point $-1 -1 $-1 12.51500725429984584 14.08923412463506963 0.4349999999999845657 #
straight-curve $-1 -1 $-1 8.442998046750789243 13.36679559029827047 0.4349999999999845657 -1 -0 -0 I I #
point $-1 -1 $-1 9.770957119687082582 13.36679559029827047 0.4349999999999845657 #
ellipse-curve $-1 -1 $-1 10.40367556495291623 14.80000000000000071 -8.126516586891015145e-16 1 0 0 0 1.497764961530503314 2.552201926111471475e-15 1 I I #
straight-curve $-1 -1 $-1 8.442998046750789243 13.36679559029827047 -0.4349999999999845657 1 0 0 I I #
ATTRIB_CUSTOM-attrib $-1 -1 $-1 $-1 $221 @22 generic_tag_attrib_def 3 3 -1 @23 generic_tag_attrib_def  1 2 @2 25 25041 1 -321 0 #
torus-surface $-1 -1 $-1 10.08731634231999941 14.80000000000000071 -8.126516586891015145e-16 1 0 0 1.497764961530503314 0.3163592226329168255 0 0 -1 forward_v I I I I #
point $-1 -1 $-1 10.40367556495291623 13.36679559029827047 -0.4349999999999845657 #
ellipse-curve $-1 -1 $-1 9.770957119687082582 14.80000000000000071 -8.126516586891015145e-16 -1 -0 -0 0 1.497764961530503314 2.552201926111471475e-15 1 I I #
ATTRIB_CUSTOM-attrib $-1 -1 $-1 $-1 $229 @22 generic_tag_attrib_def 3 3 -1 @23 generic_tag_attrib_def  1 1 @1 4 24946 1 -321 0 #
cone-surface $-1 -1 $-1 8.442998046750789243 14.80000000000000071 -1.157238689165056883e-15 1 0 0 0 1.497764961530503314 2.552201926111471475e-15 1 I I 0 1 1.497764961530503314 forward I I I I #
intcurve-curve $-1 -1 $-1 forward { int_int_cur 21900 full nubs 3 open 9 
	1.440880667044253993 3 1.564469861057018019 2 1.684781356763110916 2 1.802428894180807761 2 1.918299849297386173 3 
	2.034170804413966582 2 2.151818341831661652 2 2.272129837537753438 2 2.395719031550518796 3 
	4.805802328698584702 13.36679559029827047 0.4349999999999846212 
	4.805802328698584702 13.32559919229401579 0.4349999999999845657 
	4.796476395946640991 13.27705114188432134 0.4349999999999845657 
	4.765902846499916912 13.20171864254277949 0.4349999999999845657 
	4.739641640512397558 13.16139090990223615 0.4349999999999845657 
	4.684082299963074014 13.10478021347996958 0.4349999999999845657 
	4.645226131774446543 13.07823310283928286 0.4349999999999845657 
	4.573488701793307243 13.04802170577572085 0.4349999999999845657 
	4.528066757771193274 13.0388011027806634 0.4349999999999845657 
	4.489443106065666989 13.0388011027806634 0.4349999999999845657 
	4.450819454360139815 13.0388011027806634 0.4349999999999845657 
	4.405397510338025846 13.04802170577572262 0.4349999999999845657 
	4.333660080356885658 13.07823310283928464 0.4349999999999845657 
	4.294803912168258186 13.10478021347996958 0.4349999999999845657 
	4.239244571618935531 13.16139090990223615 0.4349999999999845657 
	4.212983365631418842 13.20171864254277949 0.4349999999999845657 
	4.182409816184693874 13.27705114188432312 0.4349999999999845657 
	4.173083883432751051 13.32559919229401757 0.4349999999999845657 
	4.173083883432751051 13.36679559029827224 0.4349999999999845657 
	0.0004994926295022214351 
	
	torus 4.489443106065667877 14.80000000000000071 -1.157238689165056883e-15 1 0 0 1.497764961530503314 -0.3163592226329168255 0 0 -1 forward_v I I I I 
	plane 12.76969255576405793 10.42868405547900323 0.4349999999999845657 -0 -0 -1 1 0 0 reverse_v I I I I 
	nullbs 
	nullbs 
	I I 
	0 
	0 
	0 
	
	0 } I I #
point $-1 -1 $-1 4.805802328698583814 13.36679559029827047 0.4349999999999845657 #
End-of-ASM-data 