# WaveFront *.obj file
# Vertices: 110
# Triangles : 216

v 2.5481814303614421e+00 1.3366795590298270e+01 -4.3499999999998457e-01
v 2.5154949947993344e+00 1.3221252229701106e+01 -4.3499999999998462e-01
v 2.4218935389633316e+00 1.3104244578840225e+01 -4.3499999999998457e-01
v 2.4218935389633316e+00 1.4089234124635070e+01 -4.3499999999998457e-01
v 1.2515007254299846e+01 1.4089234124635070e+01 -4.3499999999998457e-01
v 1.2515007254299846e+01 1.3640337420206098e+01 -4.3499999999998457e-01
v 1.2300555688768890e+01 1.3054169807754819e+01 -4.3499999999998457e-01
v 1.2210697403564469e+01 1.3101448540916577e+01 -4.3499999999998462e-01
v 1.2140482872086681e+01 1.3174255050020914e+01 -4.3499999999998462e-01
v 1.2095746980223478e+01 1.3265287712361951e+01 -4.3499999999998457e-01
v 1.2080193764802994e+01 1.3366795590298270e+01 -4.3499999999998457e-01
v 1.0403675564952916e+01 1.3366795590298270e+01 -4.3499999999998457e-01
v 1.0380427957981256e+01 1.3242838112723039e+01 -4.3499999999998468e-01
v 1.0313049340264861e+01 1.3136537766329353e+01 -4.3499999999998468e-01
v 1.0210175274873345e+01 1.3064394184800550e+01 -4.3499999999998457e-01
v 1.0087316342319999e+01 1.3038801102780663e+01 -4.3499999999998457e-01
v 9.9644574097666503e+00 1.3064394184800550e+01 -4.3499999999998457e-01
v 9.8615833443751395e+00 1.3136537766329353e+01 -4.3499999999998468e-01
v 9.7942047266587444e+00 1.3242838112723041e+01 -4.3499999999998457e-01
v 9.7709571196870826e+00 1.3366795590298270e+01 -4.3499999999998457e-01
v 4.8058023286985838e+00 1.3366795590298270e+01 -4.3499999999998457e-01
v 4.7825547217269238e+00 1.3242838112723039e+01 -4.3499999999998468e-01
v 4.7151761040105296e+00 1.3136537766329351e+01 -4.3499999999998457e-01
v 4.6123020386190134e+00 1.3064394184800550e+01 -4.3499999999998457e-01
v 4.4894431060656670e+00 1.3038801102780663e+01 -4.3499999999998457e-01
v 4.3665841735123223e+00 1.3064394184800552e+01 -4.3499999999998457e-01
v 4.2637101081208035e+00 1.3136537766329353e+01 -4.3499999999998457e-01
v 4.1963314904044120e+00 1.3242838112723039e+01 -4.3499999999998457e-01
v 4.1730838834327484e+00 1.3366795590298270e+01 -4.3499999999998457e-01
v 1.2300555688768890e+01 1.3054169807754819e+01 4.3499999999998457e-01
v 1.2287424229944429e+01 1.3018277153634628e+01 2.1474733270183829e-01
v 1.2283248011064702e+01 1.3006862155363374e+01 -9.3519408424002557e-16
v 1.2287424229944428e+01 1.3018277153634628e+01 -2.1474733270183927e-01
v 1.2515007254299846e+01 1.3640337420206098e+01 4.3499999999998457e-01
v 1.2080193764802994e+01 1.3366795590298270e+01 4.3499999999998457e-01
v 1.2095746980223478e+01 1.3265287712361951e+01 4.3499999999998462e-01
v 1.2140482872086675e+01 1.3174255050020912e+01 4.3499999999998451e-01
v 1.2210697403564467e+01 1.3101448540916579e+01 4.3499999999998457e-01
v 1.2515007254299846e+01 1.4089234124635070e+01 4.3499999999998457e-01
v 2.4218935389633316e+00 1.4089234124635070e+01 4.3499999999998457e-01
v 2.4218935389633316e+00 1.3104244578840225e+01 4.3499999999998457e-01
v 2.5154949947993344e+00 1.3221252229701104e+01 4.3499999999998457e-01
v 2.5481814303614421e+00 1.3366795590298270e+01 4.3499999999998457e-01
v 4.1730838834327484e+00 1.3366795590298270e+01 4.3499999999998457e-01
v 4.1963314904044111e+00 1.3242838112723039e+01 4.3499999999998457e-01
v 4.2637101081208035e+00 1.3136537766329353e+01 4.3499999999998457e-01
v 4.3665841735123223e+00 1.3064394184800552e+01 4.3499999999998457e-01
v 4.4894431060656670e+00 1.3038801102780669e+01 4.3499999999998473e-01
v 4.6123020386190134e+00 1.3064394184800550e+01 4.3499999999998457e-01
v 4.7151761040105287e+00 1.3136537766329353e+01 4.3499999999998457e-01
v 4.7825547217269238e+00 1.3242838112723037e+01 4.3499999999998457e-01
v 4.8058023286985838e+00 1.3366795590298270e+01 4.3499999999998457e-01
v 9.7709571196870826e+00 1.3366795590298270e+01 4.3499999999998457e-01
v 9.7942047266587444e+00 1.3242838112723037e+01 4.3499999999998457e-01
v 9.8615833443751377e+00 1.3136537766329351e+01 4.3499999999998457e-01
v 9.9644574097666556e+00 1.3064394184800550e+01 4.3499999999998457e-01
v 1.0087316342319999e+01 1.3038801102780663e+01 4.3499999999998457e-01
v 1.0210175274873343e+01 1.3064394184800550e+01 4.3499999999998457e-01
v 1.0313049340264861e+01 1.3136537766329351e+01 4.3499999999998457e-01
v 1.0380427957981254e+01 1.3242838112723037e+01 4.3499999999998468e-01
v 1.0403675564952916e+01 1.3366795590298270e+01 4.3499999999998457e-01
v 2.4218935389633316e+00 1.3058713247075755e+01 -1.8091957462720951e-01
v 2.4267858029006790e+00 1.3053092017173151e+01 -1.0685896612017132e-15
v 2.4218935389633316e+00 1.3058713247075755e+01 1.8091957462720717e-01
v 2.4218935389633316e+00 1.3084905561572423e+01 -3.5108761822021900e-01
v 2.4218935389633316e+00 1.3069716200807587e+01 -2.6632578291450371e-01
v 2.4218935389633316e+00 1.3069716200807587e+01 2.6632578291450199e-01
v 2.4218935389633316e+00 1.3084905561572423e+01 3.5108761822021800e-01
v 1.2080193764802994e+01 1.3309454760487228e+01 1.4688352172479735e-01
v 1.2080193764802994e+01 1.3309454760487228e+01 -1.4688352172479649e-01
v 1.2185786523973491e+01 1.3074666891489501e+01 -1.7002033645704798e-01
v 1.2107796106753421e+01 1.3180839110629462e+01 -1.5955775602459341e-01
v 1.2185786523973491e+01 1.3074666891489501e+01 1.7002033645704845e-01
v 1.2107796106753421e+01 1.3180839110629462e+01 1.5955775602459446e-01
v 1.0403675564952916e+01 1.3309454760487228e+01 1.4688352172479668e-01
v 1.0403675564952916e+01 1.3309454760487228e+01 -1.4688352172479716e-01
v 9.7709571196870826e+00 1.3309454760487228e+01 1.4688352172479704e-01
v 9.7709571196870826e+00 1.3309454760487228e+01 -1.4688352172479677e-01
v 1.0372346152986069e+01 1.3172853291672549e+01 -1.6034470645129270e-01
v 1.0284563091355579e+01 1.3063307419063689e+01 -1.7113973845210925e-01
v 1.0157712892005970e+01 1.3002514046222796e+01 -1.7713052924710579e-01
v 1.0016919792634029e+01 1.3002514046222796e+01 -1.7713052924710579e-01
v 9.8900695932844194e+00 1.3063307419063689e+01 -1.7113973845210925e-01
v 9.8022865316539303e+00 1.3172853291672549e+01 -1.6034470645129273e-01
v 1.0372346152986069e+01 1.3172853291672549e+01 1.6034470645129234e-01
v 1.0284563091355579e+01 1.3063307419063689e+01 1.7113973845210895e-01
v 1.0157712892005970e+01 1.3002514046222796e+01 1.7713052924710554e-01
v 1.0016919792634029e+01 1.3002514046222796e+01 1.7713052924710554e-01
v 9.8900695932844194e+00 1.3063307419063689e+01 1.7113973845210895e-01
v 9.8022865316539303e+00 1.3172853291672549e+01 1.6034470645129234e-01
v 4.8058023286985829e+00 1.3309454760487228e+01 1.4688352172479696e-01
v 4.8058023286985829e+00 1.3309454760487228e+01 -1.4688352172479718e-01
v 4.1730838834327493e+00 1.3309454760487228e+01 1.4688352172479735e-01
v 4.1730838834327493e+00 1.3309454760487228e+01 -1.4688352172479649e-01
v 4.7744729167317361e+00 1.3172853291672549e+01 -1.6034470645129270e-01
v 4.6866898551012479e+00 1.3063307419063689e+01 -1.7113973845210922e-01
v 4.5598396557516381e+00 1.3002514046222796e+01 -1.7713052924710573e-01
v 4.4190465563796977e+00 1.3002514046222796e+01 -1.7713052924710534e-01
v 4.2921963570300870e+00 1.3063307419063689e+01 -1.7113973845210881e-01
v 4.2044132953995996e+00 1.3172853291672549e+01 -1.6034470645129234e-01
v 4.7744729167317361e+00 1.3172853291672549e+01 1.6034470645129267e-01
v 4.6866898551012479e+00 1.3063307419063689e+01 1.7113973845210934e-01
v 4.5598396557516381e+00 1.3002514046222796e+01 1.7713052924710596e-01
v 4.4190465563796977e+00 1.3002514046222796e+01 1.7713052924710596e-01
v 4.2921963570300870e+00 1.3063307419063690e+01 1.7113973845210934e-01
v 4.2044132953995996e+00 1.3172853291672549e+01 1.6034470645129303e-01
v 2.5481814303614421e+00 1.3309454760487228e+01 -1.4688352172479649e-01
v 2.5481814303614421e+00 1.3309454760487228e+01 1.4688352172479735e-01
v 2.5148539871625233e+00 1.3168798974053630e+01 -1.6074423303678023e-01
v 2.5148539871625233e+00 1.3168798974053630e+01 1.6074423303678056e-01

vn 0.0000000000000000e+00 0.0000000000000000e+00 -1.0000000000000000e+00
vn 9.3912285212032098e-01 -3.4358153126353252e-01 0.0000000000000000e+00
vn 0.0000000000000000e+00 0.0000000000000000e+00 1.0000000000000000e+00
vn -7.5432385899141707e-01 -6.5650248724303895e-01 0.0000000000000000e+00
vn -7.5619660472295591e-01 -6.5434447732480605e-01 0.0000000000000000e+00
vn -1.0000000000000000e+00 0.0000000000000000e+00 0.0000000000000000e+00
vn 0.0000000000000000e+00 1.0000000000000000e+00 0.0000000000000000e+00
vn 1.0000000000000000e+00 0.0000000000000000e+00 -0.0000000000000000e+00
vn -1.0000000000000000e+00 -6.9601333133411282e-16 -2.1125095421199359e-16
vn -9.5136549053620700e-01 -2.9638868620213477e-01 -8.4008631152844918e-02
vn -1.0000000000000000e+00 1.4858827560711990e-15 1.4642406435998172e-16
vn -9.1275000070899004e-01 -4.0654939276735708e-01 -4.0062793789651170e-02
vn -1.0000000000000000e+00 -6.0937179845906918e-17 6.0049620383679181e-18
vn -9.1275000070898982e-01 -4.0654939276735691e-01 4.0062793789652010e-02
vn -9.5136549053620656e-01 -2.9638868620213654e-01 8.4008631152845861e-02
vn -8.1033221916021392e-01 -5.6605793593850917e-01 1.5145992127265140e-01
vn -6.6622512758852104e-01 -7.4215591707328998e-01 7.3134630119817925e-02
vn -5.8809284721636734e-01 -7.8350730937461743e-01 2.0065666998506174e-01
vn -3.4504257741169159e-01 -9.3184300681994470e-01 1.1231309101730465e-01
vn -3.0344397064854833e-01 -9.2458092599815656e-01 2.3037332301600025e-01
vn -8.1033221916021136e-01 -5.6605793593851261e-01 -1.5145992127265170e-01
vn -6.6622512758852115e-01 -7.4215591707329021e-01 -7.3134630119816690e-02
vn -5.8809284721636201e-01 -7.8350730937462143e-01 -2.0065666998506157e-01
vn -3.4504257741169680e-01 -9.3184300681994292e-01 -1.1231309101730369e-01
vn -3.5815291056863108e-01 -9.3366294381388948e-01 1.5014445271108808e-16
vn -3.0344397064854872e-01 -9.2458092599815656e-01 -2.3037332301599903e-01
vn -1.0000000000000000e+00 -2.6082744910788151e-15 7.9165218578651528e-16
vn 0.0000000000000000e+00 -9.5689540516236826e-01 -2.9043275224937520e-01
vn 0.0000000000000000e+00 -9.9517966957221893e-01 -9.8068472355437017e-02
vn 0.0000000000000000e+00 -9.9517966957221893e-01 -9.8068472355436573e-02
vn -0.0000000000000000e+00 -9.9517966957221882e-01 9.8068472355437752e-02
vn -0.0000000000000000e+00 -9.9517966957221882e-01 9.8068472355438197e-02
vn -0.0000000000000000e+00 -9.5689540516236793e-01 2.9043275224937642e-01
vn -1.0000000000000000e+00 -6.9601333133411272e-16 -2.1125095421199373e-16
vn -9.2653421584322926e-01 -3.6233785757160741e-01 -1.0122066904634512e-01
vn -1.0000000000000000e+00 6.0198564983285274e-16 5.9321763560925126e-17
vn -9.0096886790241903e-01 -4.3179227612777010e-01 -4.2550315475123869e-02
vn -1.0000000000000000e+00 6.0198564983285274e-16 -5.9321763560925854e-17
vn -9.0096886790241915e-01 -4.3179227612777010e-01 4.2550315475124209e-02
vn -9.2653421584322515e-01 -3.6233785757161735e-01 1.0122066904634801e-01
vn -7.1355623733557960e-01 -6.7780573380254716e-01 1.7724808428832345e-01
vn -6.2348980185873371e-01 -7.7806279638369169e-01 7.6673019125026914e-02
vn -3.8835843100559836e-01 -8.9386118178619578e-01 2.2403106204867082e-01
vn -2.2252093395631437e-01 -9.7022843750184040e-01 9.5609691004347838e-02
vn -0.0000000000000000e+00 -9.7082598456814584e-01 2.3978512816121500e-01
vn 2.2252093395631450e-01 -9.7022843750184040e-01 9.5609691004347838e-02
vn 3.8835843100559836e-01 -8.9386118178619578e-01 2.2403106204867082e-01
vn 6.2348980185873382e-01 -7.7806279638369169e-01 7.6673019125026901e-02
vn 7.1355623733557960e-01 -6.7780573380254716e-01 1.7724808428832345e-01
vn 9.0096886790241937e-01 -4.3179227612776999e-01 4.2550315475124195e-02
vn 9.2653421584322504e-01 -3.6233785757161735e-01 1.0122066904634811e-01
vn 1.0000000000000000e+00 6.0198564983285274e-16 -5.9321763560925730e-17
vn 1.0000000000000000e+00 -1.9708541044972472e-15 5.9818510859500772e-16
vn -7.1355623733557993e-01 -6.7780573380254694e-01 -1.7724808428832300e-01
vn -6.2348980185873371e-01 -7.7806279638369169e-01 -7.6673019125026304e-02
vn -3.8835843100561301e-01 -8.9386118178619001e-01 -2.2403106204866860e-01
vn -2.2252093395631437e-01 -9.7022843750184051e-01 -9.5609691004347103e-02
vn 0.0000000000000000e+00 -9.7082598456814606e-01 -2.3978512816121403e-01
vn 2.2252093395631450e-01 -9.7022843750184040e-01 -9.5609691004347075e-02
vn 3.8835843100560336e-01 -8.9386118178619378e-01 -2.2403106204866954e-01
vn 6.2348980185873382e-01 -7.7806279638369169e-01 -7.6673019125026304e-02
vn 7.1355623733558293e-01 -6.7780573380254416e-01 -1.7724808428832226e-01
vn 9.0096886790241926e-01 -4.3179227612776994e-01 -4.2550315475123855e-02
vn 9.2653421584322837e-01 -3.6233785757160963e-01 -1.0122066904634566e-01
vn 1.0000000000000000e+00 6.0198564983285274e-16 5.9321763560925274e-17
vn 1.0000000000000000e+00 -6.9601333133411272e-16 -2.1125095421199373e-16
vn -1.0000000000000000e+00 -1.9708541044972472e-15 5.9818510859500772e-16
vn -9.2653421584322793e-01 -3.6233785757161063e-01 -1.0122066904634586e-01
vn -9.0096886790241959e-01 -4.3179227612776938e-01 -4.2550315475123605e-02
vn -9.0096886790241959e-01 -4.3179227612776938e-01 4.2550315475124424e-02
vn -9.2653421584322759e-01 -3.6233785757161135e-01 1.0122066904634661e-01
vn -7.1355623733558615e-01 -6.7780573380254061e-01 1.7724808428832209e-01
vn -6.2348980185873448e-01 -7.7806279638369125e-01 7.6673019125027192e-02
vn -3.8835843100560491e-01 -8.9386118178619300e-01 2.2403106204867052e-01
vn -2.2252093395631495e-01 -9.7022843750184018e-01 9.5609691004348241e-02
vn -2.8074996907257027e-15 -9.7082598456814562e-01 2.3978512816121592e-01
vn 2.2252093395631412e-01 -9.7022843750184040e-01 9.5609691004348255e-02
vn 3.8835843100560291e-01 -8.9386118178619378e-01 2.2403106204867046e-01
vn 6.2348980185873359e-01 -7.7806279638369202e-01 7.6673019125027261e-02
vn 7.1355623733558071e-01 -6.7780573380254594e-01 1.7724808428832348e-01
vn 9.0096886790241926e-01 -4.3179227612776988e-01 4.2550315475124376e-02
vn 9.2653421584322548e-01 -3.6233785757161641e-01 1.0122066904634784e-01
vn 1.0000000000000000e+00 6.0198564983285274e-16 -5.9321763560926002e-17
vn 1.0000000000000000e+00 -2.6082744910788151e-15 7.9165218578651528e-16
vn -7.1355623733558682e-01 -6.7780573380254017e-01 -1.7724808428832092e-01
vn -6.2348980185873437e-01 -7.7806279638369136e-01 -7.6673019125025901e-02
vn -3.8835843100560541e-01 -8.9386118178619300e-01 -2.2403106204866935e-01
vn -2.2252093395631509e-01 -9.7022843750184040e-01 -9.5609691004346645e-02
vn -2.8074996907256609e-15 -9.7082598456814606e-01 -2.3978512816121383e-01
vn 2.2252093395631423e-01 -9.7022843750184051e-01 -9.5609691004346881e-02
vn 3.8835843100560341e-01 -8.9386118178619400e-01 -2.2403106204866938e-01
vn 6.2348980185873359e-01 -7.7806279638369213e-01 -7.6673019125026179e-02
vn 7.1355623733558027e-01 -6.7780573380254672e-01 -1.7724808428832245e-01
vn 9.0096886790241915e-01 -4.3179227612776994e-01 -4.2550315475123758e-02
vn 9.2653421584322793e-01 -3.6233785757161063e-01 -1.0122066904634586e-01
vn 1.0000000000000000e+00 6.0198564983285274e-16 5.9321763560925126e-17
vn 1.0000000000000000e+00 -6.9601333133411282e-16 -2.1125095421199359e-16
vn 6.0080856708689401e-01 -7.7432207307047740e-01 -1.9863129881977742e-01
vn 8.9696868887404202e-01 -4.2621115945112559e-01 -1.1743601976782622e-01
vn 6.0080856708689434e-01 -7.8315272621484888e-01 -1.6031491863592326e-01
vn 8.9465316382576265e-01 -4.4460782670719373e-01 -4.3813204485163584e-02
vn 6.0080856708689334e-01 -7.9008854795499117e-01 -1.2161065786092816e-01
vn 6.0080856708689367e-01 -7.9511275712880225e-01 -8.2612161126725120e-02
vn 6.1627317184564523e-01 -7.8753246133940902e-01 1.2664487884354937e-16
vn 8.9465316382576288e-01 -4.4460782670719373e-01 4.3813204485164327e-02
vn 6.0080856708689367e-01 -7.9511275712880225e-01 8.2612161126725023e-02
vn 6.0080856708689334e-01 -7.9008854795499106e-01 1.2161065786092844e-01
vn 6.0080856708689401e-01 -7.8315272621484922e-01 1.6031491863592393e-01
vn 8.9696868887403891e-01 -4.2621115945113147e-01 1.1743601976782830e-01
vn 6.0080856708689334e-01 -7.7432207307047740e-01 1.9863129881977845e-01
vn 1.0000000000000000e+00 1.4858827560711990e-15 1.4642406435998172e-16
vn 1.0000000000000000e+00 -6.0937179845906918e-17 6.0049620383679181e-18

g face 0
f 2//1 3//1 1//1
f 1//1 3//1 4//1
f 1//1 4//1 29//1
f 29//1 4//1 21//1
f 29//1 21//1 28//1
f 28//1 21//1 22//1
f 28//1 22//1 27//1
f 27//1 22//1 23//1
f 27//1 23//1 26//1
f 26//1 23//1 24//1
f 26//1 24//1 25//1
f 5//1 6//1 4//1
f 4//1 6//1 20//1
f 4//1 20//1 21//1
f 7//1 9//1 6//1
f 6//1 9//1 10//1
f 6//1 10//1 11//1
f 7//1 8//1 9//1
f 11//1 12//1 6//1
f 6//1 12//1 20//1
f 20//1 12//1 19//1
f 19//1 12//1 13//1
f 19//1 13//1 18//1
f 18//1 13//1 14//1
f 18//1 14//1 17//1
f 17//1 14//1 15//1
f 17//1 15//1 16//1

g face 1
f 30//2 31//2 34//2
f 34//2 31//2 32//2
f 34//2 32//2 6//2
f 6//2 32//2 33//2
f 6//2 33//2 7//2

g face 2
f 61//3 35//3 34//3
f 34//3 35//3 36//3
f 34//3 36//3 37//3
f 38//3 30//3 37//3
f 37//3 30//3 34//3
f 39//3 40//3 34//3
f 34//3 40//3 53//3
f 34//3 53//3 61//3
f 61//3 53//3 60//3
f 60//3 53//3 54//3
f 60//3 54//3 59//3
f 59//3 54//3 55//3
f 59//3 55//3 58//3
f 58//3 55//3 56//3
f 58//3 56//3 57//3
f 41//3 43//3 40//3
f 40//3 43//3 44//3
f 40//3 44//3 52//3
f 52//3 44//3 51//3
f 51//3 44//3 45//3
f 51//3 45//3 50//3
f 50//3 45//3 46//3
f 50//3 46//3 49//3
f 49//3 46//3 47//3
f 49//3 47//3 48//3
f 41//3 42//3 43//3
f 52//3 53//3 40//3

g face 3
f 62//4 63//5 64//4

g face 4
f 3//6 65//6 4//6
f 4//6 65//6 66//6
f 4//6 66//6 62//6
f 62//6 64//6 4//6
f 4//6 64//6 40//6
f 40//6 64//6 67//6
f 40//6 67//6 68//6
f 68//6 41//6 40//6

g face 5
f 5//7 4//7 39//7
f 39//7 4//7 40//7

g face 6
f 6//8 5//8 34//8
f 34//8 5//8 39//8

g face 7
f 11//9 10//10 70//11
f 70//11 10//10 72//12
f 70//11 72//12 69//13
f 69//13 72//12 74//14
f 69//13 74//14 36//15
f 36//15 74//14 37//16
f 37//16 74//14 73//17
f 37//16 73//17 38//18
f 38//18 73//17 31//19
f 38//18 31//19 30//20
f 10//10 9//21 72//12
f 72//12 9//21 71//22
f 72//12 71//22 74//14
f 74//14 71//22 73//17
f 9//21 8//23 71//22
f 71//22 8//23 33//24
f 71//22 33//24 32//25
f 8//23 7//26 33//24
f 71//22 32//25 73//17
f 73//17 32//25 31//19
f 36//15 35//27 69//13

g face 8
f 12//28 11//28 76//29
f 76//29 11//28 70//30
f 76//29 70//30 75//31
f 75//31 70//30 69//32
f 75//31 69//32 61//33
f 61//33 69//32 35//33

g face 9
f 20//34 19//35 78//36
f 78//36 19//35 84//37
f 78//36 84//37 77//38
f 77//38 84//37 90//39
f 77//38 90//39 54//40
f 54//40 90//39 55//41
f 55//41 90//39 89//42
f 55//41 89//42 56//43
f 56//43 89//42 88//44
f 56//43 88//44 57//45
f 57//45 88//44 87//46
f 57//45 87//46 58//47
f 58//47 87//46 86//48
f 58//47 86//48 59//49
f 59//49 86//48 85//50
f 59//49 85//50 60//51
f 60//51 85//50 75//52
f 60//51 75//52 61//53
f 19//35 18//54 84//37
f 84//37 18//54 83//55
f 84//37 83//55 90//39
f 90//39 83//55 89//42
f 18//54 17//56 83//55
f 83//55 17//56 82//57
f 83//55 82//57 89//42
f 89//42 82//57 88//44
f 17//56 16//58 82//57
f 82//57 16//58 81//59
f 82//57 81//59 88//44
f 88//44 81//59 87//46
f 16//58 15//60 81//59
f 81//59 15//60 80//61
f 81//59 80//61 87//46
f 87//46 80//61 86//48
f 15//60 14//62 80//61
f 80//61 14//62 79//63
f 80//61 79//63 86//48
f 86//48 79//63 85//50
f 14//62 13//64 79//63
f 79//63 13//64 76//65
f 79//63 76//65 85//50
f 85//50 76//65 75//52
f 13//64 12//66 76//65
f 54//40 53//67 77//38

g face 10
f 21//28 20//28 92//29
f 92//29 20//28 78//30
f 92//29 78//30 91//31
f 91//31 78//30 77//32
f 91//31 77//32 52//33
f 52//33 77//32 53//33

g face 11
f 29//9 28//68 94//11
f 94//11 28//68 100//69
f 94//11 100//69 93//13
f 93//13 100//69 106//70
f 93//13 106//70 45//71
f 45//71 106//70 46//72
f 46//72 106//70 105//73
f 46//72 105//73 47//74
f 47//74 105//73 104//75
f 47//74 104//75 48//76
f 48//76 104//75 103//77
f 48//76 103//77 49//78
f 49//78 103//77 102//79
f 49//78 102//79 50//80
f 50//80 102//79 101//81
f 50//80 101//81 51//82
f 51//82 101//81 91//83
f 51//82 91//83 52//84
f 28//68 27//85 100//69
f 100//69 27//85 99//86
f 100//69 99//86 106//70
f 106//70 99//86 105//73
f 27//85 26//87 99//86
f 99//86 26//87 98//88
f 99//86 98//88 105//73
f 105//73 98//88 104//75
f 26//87 25//89 98//88
f 98//88 25//89 97//90
f 98//88 97//90 104//75
f 104//75 97//90 103//77
f 25//89 24//91 97//90
f 97//90 24//91 96//92
f 97//90 96//92 103//77
f 103//77 96//92 102//79
f 24//91 23//93 96//92
f 96//92 23//93 95//94
f 96//92 95//94 102//79
f 102//79 95//94 101//81
f 23//93 22//95 95//94
f 95//94 22//95 92//96
f 95//94 92//96 101//81
f 101//81 92//96 91//83
f 22//95 21//97 92//96
f 45//71 44//27 93//13

g face 12
f 3//98 2//99 65//100
f 65//100 2//99 109//101
f 65//100 109//101 66//102
f 66//102 109//101 62//103
f 62//103 109//101 63//104
f 63//104 109//101 110//105
f 63//104 110//105 64//106
f 64//106 110//105 67//107
f 67//107 110//105 68//108
f 68//108 110//105 42//109
f 68//108 42//109 41//110
f 1//97 107//111 2//99
f 2//99 107//111 109//101
f 109//101 107//111 110//105
f 110//105 107//111 108//112
f 110//105 108//112 42//109
f 42//109 108//112 43//84

g face 13
f 1//28 29//28 107//30
f 107//30 29//28 94//30
f 107//30 94//30 108//32
f 108//32 94//30 93//32
f 108//32 93//32 43//33
f 43//33 93//32 44//33

g halfedge 0 edge 0
l 3 2 1

g halfedge 1 edge 0
l 1 2 3

g halfedge 2 edge 1
l 3 4

g halfedge 3 edge 1
l 4 3

g halfedge 4 edge 2
l 4 5

g halfedge 5 edge 2
l 5 4

g halfedge 6 edge 3
l 5 6

g halfedge 7 edge 3
l 6 5

g halfedge 8 edge 4
l 6 7

g halfedge 9 edge 4
l 7 6

g halfedge 10 edge 5
l 11 10 9 8 7

g halfedge 11 edge 5
l 7 8 9 10 11

g halfedge 12 edge 6
l 12 11

g halfedge 13 edge 6
l 11 12

g halfedge 14 edge 7
l 20 19 18 17 16 15 14 13 12

g halfedge 15 edge 7
l 12 13 14 15 16 17 18 19 20

g halfedge 16 edge 8
l 21 20

g halfedge 17 edge 8
l 20 21

g halfedge 18 edge 9
l 29 28 27 26 25 24 23 22 21

g halfedge 19 edge 9
l 21 22 23 24 25 26 27 28 29

g halfedge 20 edge 10
l 1 29

g halfedge 21 edge 10
l 29 1

g halfedge 22 edge 11
l 7 33 32 31 30

g halfedge 23 edge 11
l 30 31 32 33 7

g halfedge 24 edge 12
l 6 34

g halfedge 25 edge 12
l 34 6

g halfedge 26 edge 13
l 34 30

g halfedge 27 edge 13
l 30 34

g halfedge 28 edge 14
l 30 38 37 36 35

g halfedge 29 edge 14
l 35 36 37 38 30

g halfedge 30 edge 15
l 39 34

g halfedge 31 edge 15
l 34 39

g halfedge 32 edge 16
l 40 39

g halfedge 33 edge 16
l 39 40

g halfedge 34 edge 17
l 41 40

g halfedge 35 edge 17
l 40 41

g halfedge 36 edge 18
l 43 42 41

g halfedge 37 edge 18
l 41 42 43

g halfedge 38 edge 19
l 44 43

g halfedge 39 edge 19
l 43 44

g halfedge 40 edge 20
l 52 51 50 49 48 47 46 45 44

g halfedge 41 edge 20
l 44 45 46 47 48 49 50 51 52

g halfedge 42 edge 21
l 53 52

g halfedge 43 edge 21
l 52 53

g halfedge 44 edge 22
l 61 60 59 58 57 56 55 54 53

g halfedge 45 edge 22
l 53 54 55 56 57 58 59 60 61

g halfedge 46 edge 23
l 35 61

g halfedge 47 edge 23
l 61 35

g halfedge 48 edge 24
l 64 63 62

g halfedge 49 edge 24
l 62 63 64

g halfedge 50 edge 25
l 62 64

g halfedge 51 edge 25
l 64 62

g halfedge 52 edge 26
l 62 66 65 3

g halfedge 53 edge 26
l 3 65 66 62

g halfedge 54 edge 27
l 41 68 67 64

g halfedge 55 edge 27
l 64 67 68 41

g halfedge 56 edge 28
l 4 40

g halfedge 57 edge 28
l 40 4

g halfedge 58 edge 29
l 5 39

g halfedge 59 edge 29
l 39 5

g halfedge 60 edge 30
l 35 69 70 11

g halfedge 61 edge 30
l 11 70 69 35

g halfedge 62 edge 31
l 61 75 76 12

g halfedge 63 edge 31
l 12 76 75 61

g halfedge 64 edge 32
l 53 77 78 20

g halfedge 65 edge 32
l 20 78 77 53

g halfedge 66 edge 33
l 52 91 92 21

g halfedge 67 edge 33
l 21 92 91 52

g halfedge 68 edge 34
l 44 93 94 29

g halfedge 69 edge 34
l 29 94 93 44

g halfedge 70 edge 35
l 43 108 107 1

g halfedge 71 edge 35
l 1 107 108 43

g vertex 0
p 1

g vertex 1
p 3

g vertex 2
p 4

g vertex 3
p 5

g vertex 4
p 6

g vertex 5
p 7

g vertex 6
p 11

g vertex 7
p 12

g vertex 8
p 20

g vertex 9
p 21

g vertex 10
p 29

g vertex 11
p 30

g vertex 12
p 34

g vertex 13
p 35

g vertex 14
p 39

g vertex 15
p 40

g vertex 16
p 41

g vertex 17
p 43

g vertex 18
p 44

g vertex 19
p 52

g vertex 20
p 53

g vertex 21
p 61

g vertex 22
p 64

g vertex 23
p 62

# End of file
