22700 0 2 4           
16 Autodesk Neutron 20 ASM 227.1.1.65535 NT 24 Wed Aug 25 18:38:50 2021 
10 9.999999999999999547e-07 1.000000000000000036e-10 
asmheader $-1 -1 @13 227.1.1.65535 #
body $2 1 $-1 $3 $-1 $-1 #
ATTRIB_CUSTOM-attrib $-1 -1 $4 $-1 $1 @20 Timestamp_attrib_def 1 1392787541000 #
lump $-1 -1 $-1 $-1 $5 $1 #
ATTRIB_CUSTOM-attrib $-1 -1 $-1 $2 $1 @22 generic_tag_attrib_def 3 3 -1 @23 generic_tag_attrib_def  1 3 @3 302 2 0 0 #
shell $-1 -1 $-1 $-1 $-1 $6 $-1 $3 #
face $7 104 $-1 $-1 $8 $5 $-1 $9 forward single #
ATTRIB_CUSTOM-attrib $-1 -1 $-1 $-1 $6 @22 generic_tag_attrib_def 3 3 -1 @23 generic_tag_attrib_def  1 1 @1 1 0 1 303 0 #
loop $-1 -1 $-1 $-1 $10 $6 #
spline-surface $-1 -1 $-1 forward { exact_spl_sur 22000 full nurbs 3 3 both periodic periodic none none 9 5 
	0 3 1 1 2 1 3 1 4 1 
	5 1 6 1 7 1 8 3 
	0 3 1 1 2 1 3 1 4 3 
	73.70126708875045551 57.9966666666666697 5.063948931609298308e-15 1 
	73.70126708875045551 60.11333333333334394 -21.63491007447999337 1 
	55.77832074160662046 68.58000000000001251 -64.90473022343999787 1 
	-3.552713678800500929e-14 43.18000000000000682 -78.59289510839670356 1 
	-52.74557614144528372 43.23417175053140227 -39.33479274050475993 1 
	-70.37697048534738542 68.63417175053136532 3.231158608091950768 1 
	-52.74557614144534057 68.63417175053137953 20.39710995668869842 1 
	-8.483020660707161653 55.7275291708102003 40.40990634462276887 1 
	55.77832074160659204 55.87999999999998124 64.90473022344002629 1 
	73.70126708875048394 55.88000000000000256 21.63491007448002179 1 
	73.70126708875045551 57.9966666666666697 3.552713678800500929e-15 1 
	73.70126708875045551 59.96875420406152557 5.063948931609298308e-15 1 
	73.70126708875045551 62.08542087072818561 -21.63491007447999337 1 
	55.77832074160663467 70.55208753739486838 -64.90473022344001208 0.999999999999999778 
	-3.552713678800499667e-14 44.86856634365894081 -78.59289510839667514 1.000000000000000444 
	-52.74557614144526241 44.52751018492497082 -39.33479274050474572 1.000000000000000444 
	-70.376970485347357 69.92751018492492676 3.231158608091949436 1.000000000000000444 
	-52.74557614144527662 69.92751018492495518 20.39710995668868776 1.000000000000000444 
	-10.17962479284857658 57.22751018492497366 38.02850430059081077 1.000000000000000444 
	55.77832074160657072 57.8520875373948229 64.90473022343999787 1.000000000000000444 
	73.70126708875045551 57.85208753739485132 21.63491007448001824 1.000000000000000222 
	73.70126708875045551 59.96875420406152557 3.552713678800500929e-15 1 
	69.75709201396074377 63.91292927885129416 4.440892098500626162e-15 1 
	69.75709201396072956 66.0295959455179684 -20.60467626140953001 0.999999999999999778 
	52.68761930239512736 74.49626261218459433 -61.81402878422856872 1.000000000000000444 
	4.263256414560603008e-14 48.24569903097681589 -74.85037629371115031 0.9999999999999995559 
	-50.71862607722643901 47.11418705371225002 -37.30784267628585127 0.9999999999999995559 
	-67.51043021427597068 72.51418705371234807 3.231158608091973417 0.9999999999999995559 
	-50.7186260772264248 72.51418705371233386 18.3701598924697862 0.9999999999999995559 
	-10.17962479284862276 59.81418705371228128 35.1619640295194742 0.9999999999999995559 
	52.68761930239519842 61.79626261218469807 61.8140287842286682 0.9999999999999995559 
	69.75709201396071535 61.79626261218463412 20.60467626140955488 0.9999999999999995559 
	69.75709201396074377 63.91292927885129416 2.960594732333750906e-15 1 
	63.84082940177619037 57.99666666666662707 4.440892098500626162e-16 1 
	63.84082940177621168 60.11333333333332263 -19.05932554180381544 1.000000000000000444 
	48.05156714357799075 68.57999999999995566 -57.17797662541149606 0.9999999999999996669 
	9.769962616701385129e-14 43.18000000000007077 -69.23659807168283464 0.9999999999999992228 
	-47.67820098089810443 43.23417175053136674 -34.26741757995764459 0.9999999999999992228 
	-63.210619807669012 68.63417175053126584 3.23115860809213995 0.9999999999999992228 
	-47.67820098089822523 68.63417175053139374 15.32973479614146761 0.9999999999999992228 
	-10.17962479284851263 55.93417175053114221 30.86215362291241249 0.9999999999999992228 
	48.05156714357803338 55.8799999999999244 57.17797662541147474 0.9999999999999992228 
	63.84082940177612642 55.87999999999986755 19.05932554180376926 1.000000000000001776 
	63.84082940177619037 57.99666666666662707 -6.307913047691525788e-16 1 
	69.75709201396072956 52.08040405448215893 5.77315972805081401e-15 1 
	69.75709201396068693 54.19707072114882607 -20.60467626140951936 1.000000000000000444 
	52.68761930239519131 62.6637373878155941 -61.81402878422860425 0.9999999999999996669 
	3.197442310920453361e-14 38.11430096902330433 -74.85037629371102241 0.9999999999999992228 
	-50.71862607722637506 39.3541564473506611 -37.30784267628597206 0.9999999999999992228 
	-67.51043021427594226 64.75415644735062415 3.23115860809199873 0.9999999999999992228 
	-50.71862607722647454 64.75415644735058152 18.37015989246982173 0.9999999999999992228 
	9.769962616701385129e-14 50.81430096902337823 49.45037629371118015 0.9999999999999992228 
	52.68761930239526237 49.96373738781573337 61.81402878422872504 0.9999999999999992228 
	69.75709201396060166 49.96373738781539942 20.60467626140938791 1.000000000000001776 
	69.75709201396072956 52.08040405448215893 4.450238732762443908e-15 1 
	73.70126708875045551 56.02457912927182804 5.640598934755087467e-15 1 
	73.70126708875045551 58.14124579593847386 -21.63491007447999337 1.000000000000000222 
	55.77832074160661335 66.60791246260521348 -64.90473022344002629 0.9999999999999995559 
	-4.440892098500624268e-14 41.49143365634096625 -78.5928951083966183 1.000000000000000444 
	-52.74557614144526241 41.94083331613783372 -39.33479274050467467 1.000000000000000444 
	-70.37697048534732858 67.3408333161377044 3.231158608091967199 1.000000000000000444 
	-52.74557614144536188 67.34083331613771861 20.39710995668869131 1.000000000000000444 
	-6.786416528565717421 54.22754815669528483 42.79130838865469144 1.000000000000000444 
	55.77832074160657783 53.90791246260501879 64.90473022343992682 1.000000000000000444 
	73.70126708875041288 53.90791246260501168 21.63491007447993297 1.000000000000001332 
	73.70126708875045551 56.02457912927182804 4.29286236188393836e-15 1 
	73.70126708875045551 57.9966666666666697 5.063948931609298308e-15 1 
	73.70126708875045551 60.11333333333334394 -21.63491007447999337 1 
	55.77832074160662046 68.58000000000001251 -64.90473022343999787 1 
	-3.197442310920450836e-14 43.18000000000000682 -78.59289510839670356 1 
	-52.74557614144527662 43.23417175053140227 -39.33479274050475283 1 
	-70.37697048534737121 68.63417175053135111 3.231158608091947215 1 
	-52.74557614144534057 68.63417175053137953 20.39710995668869842 1 
	-8.4830206607071581 55.7275291708102003 40.40990634462276176 1 
	55.77832074160658493 55.87999999999998124 64.90473022344002629 1 
	73.70126708875048394 55.88000000000000966 21.63491007448002534 1 
	73.70126708875045551 57.9966666666666697 4.440892098500626162e-15 1 
	0 
	
	0 
	0 
	8 0 1 2 3 4 5 6 7 
	0 
	0 
	4 0 1 2 3 
	F F 1 F 0 F 1 F 0 UNEXTENDED } I I I I #
coedge $-1 -1 $-1 $11 $12 $13 $14 forward $8 0 $15 #
coedge $-1 -1 $-1 $13 $10 $12 $16 forward $8 0 $17 #
coedge $-1 -1 $-1 $10 $13 $11 $16 reversed $8 0 $18 #
coedge $-1 -1 $-1 $12 $11 $10 $14 reversed $8 0 $19 #
edge $-1 102 $-1 $20 0 $20 8 $10 $21 forward @7 tangent #
pcurve $-1 -1 $-1 0 forward { exp_par_cur nubs 1 periodic 2 
	0 1 8 1 
	0 0 
	8 0 
	1.148870984425010695e-13 
	spline forward { ref 0 } I I I I 
	} 0 0 #
edge $-1 103 $-1 $20 0 $20 4 $11 $22 forward @7 tangent #
pcurve $-1 -1 $-1 0 forward { exp_par_cur nubs 1 periodic 2 
	0 1 4 1 
	2.32839000733265931e-17 -2.499090644845971031e-17 
	0 4 
	1.611694383690819186e-14 
	spline forward { ref 0 } I I I I 
	} 8 0 #
pcurve $-1 -1 $-1 0 forward { exp_par_cur nubs 1 periodic 2 
	-4 1 -0 1 
	9.599559707955746132e-18 4 
	0 0 
	2.718562954885727032e-14 
	spline forward { ref 0 } I I I I 
	} 0 0 #
pcurve $-1 -1 $-1 0 forward { exp_par_cur nubs 1 periodic 2 
	-8 1 -0 1 
	8 -2.499090644845971031e-17 
	0 0 
	1.167721248398912317e-13 
	spline forward { ref 0 } I I I I 
	} 0 4 #
vertex $-1 101 $-1 $14 0 $23 #
intcurve-curve $-1 -1 $-1 forward { exact_int_cur 22000 full nurbs 3 periodic 9 
	0 3 1 1 2 1 3 1 4 1 
	5 1 6 1 7 1 8 3 
	73.70126708875045551 57.9966666666666697 5.063948931609298308e-15 1 
	73.70126708875045551 60.11333333333334394 -21.63491007447999337 1 
	55.77832074160662046 68.58000000000001251 -64.90473022343999787 1 
	-3.552713678800500929e-14 43.18000000000000682 -78.59289510839670356 1 
	-52.74557614144528372 43.23417175053140227 -39.33479274050475993 1 
	-70.37697048534738542 68.63417175053136532 3.231158608091950768 1 
	-52.74557614144534057 68.63417175053137953 20.39710995668869842 1 
	-8.483020660707161653 55.7275291708102003 40.40990634462276887 1 
	55.77832074160659204 55.87999999999998124 64.90473022344002629 1 
	73.70126708875048394 55.88000000000000256 21.63491007448002179 1 
	73.70126708875045551 57.9966666666666697 3.552713678800500929e-15 1 
	0 
	
	null_surface 
	null_surface 
	nullbs 
	nullbs 
	I I 
	0 
	0 
	8 0 1 2 3 4 5 6 7 
	
	0 F 1 F 0 UNEXTENDED UNEXTENDED } I I #
intcurve-curve $-1 -1 $-1 forward { exact_int_cur 22000 full nurbs 3 periodic 5 
	0 3 1 1 2 1 3 1 4 3 
	73.70126708875045551 57.9966666666666697 3.552713678800500929e-15 1 
	73.70126708875045551 59.96875420406152557 3.552713678800500929e-15 1 
	69.75709201396074377 63.91292927885129416 2.960594732333750906e-15 1 
	63.84082940177619037 57.99666666666662707 -6.307913047691525788e-16 1 
	69.75709201396072956 52.08040405448215893 4.450238732762443908e-15 1 
	73.70126708875045551 56.02457912927182804 4.29286236188393836e-15 1 
	73.70126708875045551 57.9966666666666697 4.440892098500626162e-15 1 
	0 
	
	null_surface 
	null_surface 
	nullbs 
	nullbs 
	I I 
	0 
	0 
	4 0 1 2 3 
	
	0 F 1 F 0 UNEXTENDED UNEXTENDED } I I #
point $-1 -1 $-1 73.70126708875045551 57.9966666666666697 5.063948931609298308e-15 #
End-of-ASM-data 