22700 0 2 4           
16 Autodesk Neutron 20 ASM 227.1.1.65535 NT 24 Wed Aug 25 18:38:51 2021 
10 9.999999999999999547e-07 1.000000000000000036e-10 
asmheader $-1 -1 @13 227.1.1.65535 #
body $2 2 $-1 $3 $-1 $4 #
ATTRIB_CUSTOM-attrib $-1 -1 $5 $-1 $1 @20 Timestamp_attrib_def 1 1629916725415803 #
lump $-1 -1 $-1 $-1 $6 $1 #
transform $-1 -1 1 0 0 0 1 0 0 0 1 0 0 0 1 no_rotate no_reflect no_shear #
ATTRIB_CUSTOM-attrib $7 -1 $-1 $2 $1 @22 generic_tag_attrib_def 3 3 -1 @23 generic_tag_attrib_def  1 3 @3 304 2 0 0 #
shell $-1 -1 $-1 $-1 $-1 $8 $-1 $3 #
ATTRIB_CUSTOM-attrib $-1 -1 $-1 $-1 $5 @22 generic_tag_attrib_def 3 3 -1 @23 generic_tag_attrib_def  1 0 @0  0 1 309 0 #
face $9 108 $-1 $-1 $10 $6 $-1 $11 forward single #
ATTRIB_CUSTOM-attrib $12 -1 $-1 $-1 $8 @22 generic_tag_attrib_def 3 3 -1 @23 generic_tag_attrib_def  1 1 @1 1 0 1 305 0 #
loop $-1 -1 $-1 $-1 $13 $8 #
spline-surface $-1 -1 $-1 forward { exact_spl_sur 22000 full nurbs 3 3 both periodic periodic none none 13 5 
	0 3 1 1 2 1 3 1 4 1 
	5 1 6 1 7 1 8 1 9 1 
	10 1 11 1 12 3 
	0 3 1 1 2 1 3 1 4 3 
	56.63068626208901435 124.4599999999999795 -6.90787582527399735 1 
	53.5940000000000154 124.4599999999999795 -14.66241831721466227 1 
	41.44725495164400542 124.4599999999999795 -43.98725495164399035 1 
	17.63089928396750494 134.6199999999998624 -80.71112541832007992 1 
	-51.90741325863498901 134.6199999999998909 -51.90741325863496058 1 
	-54.44741325863499526 134.6199999999999193 -51.90741325863499611 1 
	-83.25112541832007196 134.6199999999999477 17.63089928396753692 0.999999999999999889 
	-80.71112541832000886 134.6199999999999477 17.6308992839675156 1.000000000000000444 
	-43.98725495164401167 126.9999999999999716 43.98725495164399746 1 
	-2.131628207280300558e-14 126.9999999999999716 62.20737252417801244 1 
	-8.881784197001252323e-15 126.9999999999999716 64.74737252417799027 1 
	41.44725495164400542 124.4599999999999795 46.52725495164397529 0.999999999999999889 
	59.66737252417800619 124.4599999999998943 2.539999999999997815 1.000000000000000444 
	59.6673725241780275 124.4599999999999795 0.8466666666666657903 1 
	56.63068626208901435 124.4599999999999795 -6.90787582527399735 1 
	56.63068626208901435 125.8569999999999993 -6.90787582527399735 1 
	53.5940000000000154 125.8569999999999993 -14.66241831721466227 1 
	41.44725495164401252 125.8569999999999709 -43.98725495164399746 0.999999999999999778 
	17.63089928396751915 136.8284811322915857 -80.71112541832003728 1.000000000000000444 
	-51.90741325863496769 136.8284811322916994 -51.90741325863493927 1.000000000000000444 
	-54.44741325863497394 136.8284811322916141 -51.90741325863498901 1.000000000000000444 
	-83.25112541832001511 136.8284811322916141 17.63089928396750139 1.000000000000000444 
	-80.71112541832000886 136.8284811322916994 17.63089928396751205 1.000000000000000444 
	-43.98725495164401877 128.3970000000000482 43.98725495164401877 0.999999999999999778 
	-2.131628207280299611e-14 128.3969999999999061 62.20737252417798402 1.000000000000000444 
	-8.881784197001250746e-15 128.3969999999999061 64.74737252417796185 1.000000000000000444 
	41.44725495164397699 125.8569999999999425 46.52725495164396818 1.000000000000000444 
	59.66737252417800619 125.8570000000000277 2.539999999999997815 1.000000000000000444 
	59.66737252417800619 125.8569999999999709 0.8466666666666655683 1.000000000000000222 
	56.63068626208901435 125.8569999999999993 -6.90787582527399735 1 
	53.68553898207552777 128.650999999999982 -6.542974011949649338 1 
	50.80000000000001847 128.6510000000000105 -13.93261469056596979 0.999999999999999778 
	39.25784407169788182 128.650999999999982 -41.79784407169788096 1.000000000000000444 
	17.63089928396749784 141.2454433968754302 -75.81627351006142135 0.9999999999999995559 
	-48.44623028140135546 141.2454433968753733 -48.44623028140143361 0.9999999999999995559 
	-50.98623028140133329 141.2454433968753733 -48.44623028140129151 0.9999999999999995559 
	-78.35627351006141339 141.2454433968752028 17.63089928396753692 0.9999999999999995559 
	-75.81627351006144977 141.2454433968750891 17.63089928396753692 0.9999999999999992228 
	-41.79784407169788096 131.190999999999832 41.79784407169783123 1.00000000000000111 
	2.842170943040402006e-14 131.1910000000000878 59.11107796415107885 0.9999999999999995559 
	-8.58572472376789092e-15 131.1910000000003436 61.65107796415110641 0.9999999999999988898 
	39.25784407169791734 128.6509999999998684 44.33784407169797959 0.9999999999999995559 
	56.57107796415105128 128.6509999999998684 2.539999999999996483 0.9999999999999996669 
	56.57107796415104417 128.6509999999999252 0.8466666666666696761 0.9999999999999995559 
	53.68553898207552777 128.650999999999982 -6.542974011949649338 1 
	49.26781806205530501 124.460000000000008 -5.995621291963129096 1 
	46.60899999999997334 124.4599999999999511 -12.83790925059292043 1.000000000000000444 
	35.97372775177882431 124.460000000000008 -38.51372775177878793 0.9999999999999996669 
	17.63089928396763639 134.6200000000000045 -68.4739956476734335 0.9999999999999992228 
	-43.2544558155509975 134.6199999999998624 -43.25445581555089092 0.9999999999999992228 
	-45.79445581555094691 134.6200000000000614 -43.2544558155511254 0.9999999999999990008 
	-71.01399564767348238 134.6200000000002603 17.6308992839675085 1 
	-68.47399564767336244 134.6200000000000045 17.6308992839675085 1.000000000000001554 
	-38.51372775177890873 126.9999999999998863 38.51372775177886609 0.9999999999999987788 
	-1.270095140171180092e-13 127.0000000000000853 54.4666361241106074 0.9999999999999992228 
	1.757853122323113657e-16 126.9999999999993747 57.0066361241106776 1.000000000000001332 
	35.97372775177881721 124.4600000000000364 41.05372775177858102 0.9999999999999990008 
	51.92663612411057983 124.459999999999809 2.540000000000068869 1.000000000000000888 
	51.92663612411063667 124.4600000000001785 0.8466666666666708974 1.00000000000000111 
	49.26781806205530501 124.460000000000008 -5.995621291963129096 1 
	53.68553898207549935 120.2689999999999202 -6.542974011949644897 1 
	50.79999999999996163 120.2689999999998633 -13.93261469056595203 1.000000000000000444 
	39.25784407169794576 120.2689999999999486 -41.79784407169788096 0.9999999999999996669 
	17.63089928396750494 127.9945566031248632 -75.8162735100614924 0.9999999999999992228 
	-48.44623028140132703 127.9945566031241526 -48.44623028140124887 0.9999999999999992228 
	-50.98623028140134039 127.9945566031240674 -48.4462302814012773 1.000000000000001332 
	-78.3562735100612997 127.9945566031238116 17.63089928396750139 1.000000000000000888 
	-75.81627351006156346 127.9945566031246926 17.63089928396754402 0.9999999999999992228 
	-41.79784407169798754 122.8089999999997133 41.79784407169794491 0.9999999999999987788 
	5.240252676230742657e-14 122.8089999999999975 59.11107796415117832 0.9999999999999992228 
	-1.033432598755249354e-14 122.8089999999994006 61.65107796415088615 1.000000000000000888 
	39.25784407169786761 120.2689999999995223 44.33784407169776642 1.000000000000000888 
	56.57107796415106549 120.268999999999977 2.539999999999950742 0.9999999999999987788 
	56.57107796415112233 120.2690000000000339 0.846666666666668899 1.000000000000000444 
	53.68553898207549935 120.2689999999999202 -6.542974011949644009 1 
	56.63068626208901435 123.0629999999999598 -6.907875825273998238 1 
	53.59400000000002251 123.0629999999999313 -14.66241831721466049 1.000000000000000222 
	41.44725495164397699 123.0630000000000734 -43.98725495164401167 0.9999999999999995559 
	17.63089928396759376 132.4115188677079118 -80.71112541832005149 1.000000000000000444 
	-51.90741325863495348 132.4115188677079118 -51.90741325863496769 1.000000000000000444 
	-54.4474132586349242 132.4115188677083665 -51.90741325863496769 1.00000000000000111 
	-83.25112541832005775 132.4115188677083381 17.6308992839675156 1.000000000000000888 
	-80.71112541832006571 132.4115188677080255 17.63089928396753692 0.9999999999999995559 
	-43.98725495164416088 125.6029999999998097 43.9872549516440472 0.9999999999999988898 
	-5.684341886080798963e-14 125.602999999999696 62.2073725241779556 1.000000000000000444 
	1.818915388677545713e-14 125.6029999999996107 64.74737252417800448 1.00000000000000111 
	41.44725495164391305 123.0629999999995334 46.52725495164379055 1.00000000000000222 
	59.66737252417809145 123.0629999999999882 2.540000000000008473 0.9999999999999984457 
	59.66737252417796356 123.0629999999999598 0.8466666666666746721 1.000000000000000444 
	56.63068626208901435 123.0629999999999598 -6.907875825273995574 1 
	56.63068626208901435 124.4599999999999795 -6.90787582527399735 1 
	53.5940000000000154 124.4599999999999795 -14.66241831721466227 1 
	41.44725495164400542 124.4599999999999795 -43.98725495164399035 1 
	17.63089928396750494 134.6199999999998624 -80.71112541832006571 1 
	-51.90741325863498901 134.6199999999998909 -51.90741325863496769 1 
	-54.44741325863501658 134.6199999999999193 -51.90741325863500322 1 
	-83.25112541832007196 134.6199999999999193 17.63089928396752981 1 
	-80.71112541832002307 134.6199999999999477 17.63089928396751205 1.000000000000000444 
	-43.98725495164401167 126.9999999999999716 43.98725495164399035 1 
	-2.309263891220325604e-14 126.9999999999999716 62.20737252417802665 1 
	-7.410738689372926218e-15 126.9999999999999716 64.74737252417800448 1 
	41.44725495164399831 124.4599999999999511 46.52725495164396818 1 
	59.66737252417799908 124.4599999999998943 2.539999999999997815 1.000000000000000444 
	59.6673725241780275 124.4599999999999795 0.8466666666666666785 1 
	56.63068626208901435 124.4599999999999795 -6.907875825273993797 1 
	0 
	
	0 
	0 
	12 0 1 2 3 4 5 6 7 8 9 10 11 
	0 
	0 
	4 0 1 2 3 
	F F 1 F 0 F 1 F 0 UNEXTENDED } I I I I #
ATTRIB_CUSTOM-attrib $-1 -1 $-1 $-1 $9 @22 generic_tag_attrib_def 3 3 -1 @23 generic_tag_attrib_def  1 0 @0  0 1 309 0 #
coedge $-1 -1 $-1 $14 $15 $16 $17 forward $10 0 $18 #
coedge $-1 -1 $-1 $16 $13 $15 $19 forward $10 0 $20 #
coedge $-1 -1 $-1 $13 $16 $14 $19 reversed $10 0 $21 #
coedge $-1 -1 $-1 $15 $14 $13 $17 reversed $10 0 $22 #
edge $-1 106 $-1 $23 0 $23 12 $13 $24 forward @7 tangent #
pcurve $-1 -1 $-1 0 forward { exp_par_cur nubs 1 periodic 2 
	0 1 12 1 
	0 0 
	12 0 
	1.521775678360665224e-13 
	spline forward { ref 0 } I I I I 
	} 0 0 #
edge $-1 107 $-1 $23 0 $23 4 $14 $25 forward @7 tangent #
pcurve $-1 -1 $-1 0 forward { exp_par_cur nubs 1 periodic 2 
	0 1 4 1 
	0 0 
	0 4 
	3.510836206040426561e-14 
	spline forward { ref 0 } I I I I 
	} 12 0 #
pcurve $-1 -1 $-1 0 forward { exp_par_cur nubs 1 periodic 2 
	-4 1 -0 1 
	-1.32410114226385725e-16 4 
	0 0 
	5.814081239654048299e-14 
	spline forward { ref 0 } I I I I 
	} 0 0 #
pcurve $-1 -1 $-1 0 forward { exp_par_cur nubs 1 periodic 2 
	-12 1 -0 1 
	12 0 
	0 0 
	1.725709815947859356e-13 
	spline forward { ref 0 } I I I I 
	} 0 4 #
vertex $-1 105 $-1 $17 0 $26 #
intcurve-curve $-1 -1 $-1 forward { exact_int_cur 22000 full nurbs 3 periodic 13 
	0 3 1 1 2 1 3 1 4 1 
	5 1 6 1 7 1 8 1 9 1 
	10 1 11 1 12 3 
	56.63068626208901435 124.4599999999999795 -6.90787582527399735 1 
	53.5940000000000154 124.4599999999999795 -14.66241831721466227 1 
	41.44725495164400542 124.4599999999999795 -43.98725495164399035 1 
	17.63089928396750494 134.6199999999998624 -80.71112541832007992 1 
	-51.90741325863498901 134.6199999999998909 -51.90741325863496058 1 
	-54.44741325863499526 134.6199999999999193 -51.90741325863499611 1 
	-83.25112541832007196 134.6199999999999477 17.63089928396753692 0.999999999999999889 
	-80.71112541832000886 134.6199999999999477 17.6308992839675156 1.000000000000000444 
	-43.98725495164401167 126.9999999999999716 43.98725495164399746 1 
	-2.131628207280300558e-14 126.9999999999999716 62.20737252417801244 1 
	-8.881784197001252323e-15 126.9999999999999716 64.74737252417799027 1 
	41.44725495164400542 124.4599999999999795 46.52725495164397529 0.999999999999999889 
	59.66737252417800619 124.4599999999998943 2.539999999999997815 1.000000000000000444 
	59.6673725241780275 124.4599999999999795 0.8466666666666657903 1 
	56.63068626208901435 124.4599999999999795 -6.90787582527399735 1 
	0 
	
	null_surface 
	null_surface 
	nullbs 
	nullbs 
	I I 
	0 
	0 
	12 0 1 2 3 4 5 6 7 8 9 10 11 
	
	0 F 1 F 0 UNEXTENDED UNEXTENDED } I I #
intcurve-curve $-1 -1 $-1 forward { exact_int_cur 22000 full nurbs 3 periodic 5 
	0 3 1 1 2 1 3 1 4 3 
	56.63068626208901435 124.4599999999999795 -6.90787582527399735 1 
	56.63068626208901435 125.8569999999999993 -6.90787582527399735 1 
	53.68553898207552777 128.650999999999982 -6.542974011949649338 1 
	49.26781806205530501 124.460000000000008 -5.995621291963129096 1 
	53.68553898207549935 120.2689999999999202 -6.542974011949644009 1 
	56.63068626208901435 123.0629999999999598 -6.907875825273995574 1 
	56.63068626208901435 124.4599999999999795 -6.907875825273993797 1 
	0 
	
	null_surface 
	null_surface 
	nullbs 
	nullbs 
	I I 
	0 
	0 
	4 0 1 2 3 
	
	0 F 1 F 0 UNEXTENDED UNEXTENDED } I I #
point $-1 -1 $-1 56.63068626208901435 124.4599999999999795 -6.90787582527399735 #
End-of-ASM-data 