22700 0 2 4           
16 Autodesk Neutron 20 ASM 227.1.1.65535 NT 24 Wed Aug 25 07:09:07 2021 
10 9.999999999999999547e-07 1.000000000000000036e-10 
asmheader $-1 -1 @13 227.1.1.65535 #
body $2 1385 $-1 $3 $-1 $4 #
ATTRIB_CUSTOM-attrib $-1 -1 $5 $-1 $1 @20 Timestamp_attrib_def 1 1445427251000 #
lump $-1 -1 $-1 $-1 $6 $1 #
transform $-1 -1 1 0 0 0 1 0 0 0 1 0 0 0 1 no_rotate no_reflect no_shear #
ATTRIB_CUSTOM-attrib $-1 -1 $-1 $2 $1 @22 generic_tag_attrib_def 3 3 -1 @23 generic_tag_attrib_def  1 3 @3 302 4 0 0 #
shell $-1 -1 $-1 $-1 $-1 $7 $-1 $3 #
face $8 1139 $-1 $9 $10 $6 $-1 $11 reversed single #
ATTRIB_CUSTOM-attrib $-1 -1 $12 $-1 $7 @22 FDM_feature_attrib_def 2 2 @12 feature_data 3 310 2097152 2 1902 #
face $13 1137 $-1 $14 $15 $6 $-1 $16 forward single #
loop $-1 -1 $-1 $-1 $17 $7 #
spline-surface $-1 -1 $-1 forward { helix_spl_line 22120 F 0 F 0.0332842430187819116 
	F 0 F 270.1769682087222009 
	F 0 F 270.1769682087222009 
	0 -0.02654212150939388309 0 
	0.2675250000000000128 6.938893903907228378e-18 1.083706251516049715e-13 
	1.083706251516049715e-13 0 -0.2675250000000000128 
	0 0.04999999999999999584 0 
	0 
	0 1 0 
	null_surface 
	null_surface 
	nullbs 
	nullbs 
	
	3.237175605212367469 1.311334432529256992e-12 0.5 
	} F 0 F 0.0332842430187819116 F 7.068583470577362249 F 254.6627936449674223 #
ATTRIB_CUSTOM-attrib $-1 -1 $-1 $8 $7 @22 generic_tag_attrib_def 3 3 -1 @23 generic_tag_attrib_def  1 1 @1 3 0 1 310 0 #
ATTRIB_CUSTOM-attrib $-1 -1 $18 $-1 $9 @22 FDM_feature_attrib_def 2 2 @12 feature_data 3 310 2097152 2 1902 #
face $19 1138 $-1 $20 $21 $6 $-1 $22 reversed single #
loop $-1 -1 $-1 $-1 $23 $9 #
plane-surface $-1 -1 $-1 3.503484816625571974e-17 0.04634999999999998149 -1.419062002629410992e-17 -0 1 0 0 -0 1 forward_v I I I I #
coedge $-1 -1 $-1 $24 $25 $26 $27 reversed $10 0 $28 #
ATTRIB_CUSTOM-attrib $-1 -1 $-1 $13 $9 @22 generic_tag_attrib_def 3 3 -1 @23 generic_tag_attrib_def  1 3 @3 101 0 1 310 0 #
ATTRIB_CUSTOM-attrib $-1 -1 $29 $-1 $14 @22 FDM_feature_attrib_def 2 2 @12 feature_data 3 310 2097152 2 1902 #
face $30 1136 $-1 $31 $32 $6 $-1 $33 reversed single #
loop $-1 -1 $-1 $-1 $34 $14 #
cone-surface $-1 -1 $-1 0 -0.03700787849061198259 0 0 1 0 0.2675250000000000128 6.938893903907228378e-18 1.083706251516049715e-13 1 I I -0 -1 0.2675250000000000128 forward I I I I #
coedge $-1 -1 $-1 $35 $36 $37 $38 reversed $15 0 $-1 #
coedge $-1 -1 $-1 $39 $17 $40 $41 reversed $10 0 $42 #
coedge $-1 -1 $-1 $17 $39 $43 $44 forward $10 0 $45 #
coedge $-1 -1 $-1 $46 $47 $17 $27 forward $48 0 $-1 #
edge $-1 1151 $-1 $49 0 $50 0.5925688818490072451 $26 $51 forward @7 unknown #
pcurve $-1 -1 $-1 -1 $51 0 0 #
ATTRIB_CUSTOM-attrib $-1 -1 $-1 $19 $14 @22 generic_tag_attrib_def 3 3 -1 @23 generic_tag_attrib_def  1 1 @1 2 0 1 310 0 #
ATTRIB_CUSTOM-attrib $-1 -1 $52 $-1 $20 @22 FDM_feature_attrib_def 2 2 @12 feature_data 3 310 2097152 2 1902 #
face $53 1140 $-1 $54 $48 $6 $-1 $55 forward single #
loop $-1 -1 $-1 $-1 $56 $20 #
spline-surface $-1 -1 $-1 forward { helix_spl_line 22120 F 0 F 0.0332842430187819116 
	F 0 F 270.1769682087222009 
	F 0 F 270.1769682087222009 
	0 -0.05365000000000292452 0 
	0.2963500000000000023 0 1.083706251516049715e-13 
	1.083706251516049715e-13 0 -0.2963500000000000023 
	0 0.04999999999999999584 0 
	0 
	0 1 0 
	null_surface 
	null_surface 
	nullbs 
	nullbs 
	
	-2.92230606979733043 -1.068642266469601462e-12 0.4999999999999998335 
	} F 0 F 0.0332842430187819116 F 10.47505994739748658 F 258.0692701217874969 #
coedge $-1 -1 $-1 $43 $57 $46 $58 reversed $21 0 $-1 #
coedge $-1 -1 $-1 $59 $23 $60 $61 forward $15 0 $-1 #
coedge $-1 -1 $-1 $23 $59 $39 $62 forward $15 0 $-1 #
coedge $-1 -1 $-1 $63 $63 $23 $38 forward $64 0 $-1 #
edge $-1 1141 $-1 $65 -6.283185307179586232 $66 -0.7853981633974089771 $37 $67 reversed @7 unknown #
coedge $-1 -1 $-1 $25 $24 $36 $62 reversed $10 0 $68 #
coedge $-1 -1 $-1 $69 $70 $24 $41 forward $71 0 $-1 #
edge $-1 1150 $-1 $66 3.749458635359279047e-14 $49 245.5028995074279976 $40 $72 forward @7 unknown #
pcurve $-1 -1 $-1 0 forward { exp_par_cur nubs 1 open 2 
	-245.5028995074279976 1 -0 1 
	0.0332842430187819116 252.5714829780053208 
	0.0332842430187819116 7.068583470577362249 
	1.712013633038020534e-14 
	spline reversed { ref 0 } F 0 F 0.0332842430187819116 F 7.068583470577362249 F 254.6627936449674223 
	} 0 0 #
coedge $-1 -1 $-1 $73 $34 $25 $44 reversed $21 0 $-1 #
edge $-1 1146 $-1 $74 9.159894137539453141 $50 254.6627936449674223 $43 $75 forward @7 unknown #
pcurve $-1 -1 $-1 0 reversed { exp_par_cur nubs 1 open 2 
	-254.6627936449674223 1 -9.159894137539453141 1 
	0 254.6627936449673939 
	6.859207902330172761e-17 9.159894137539469128 
	0 
	spline forward { ref 0 } I I I I 
	} 0 0 #
coedge $-1 -1 $-1 $76 $26 $34 $58 forward $48 0 $-1 #
coedge $-1 -1 $-1 $26 $76 $69 $77 reversed $48 0 $-1 #
loop $-1 -1 $-1 $-1 $26 $31 #
vertex $-1 1388 $-1 $77 0 $78 #
vertex $-1 1387 $-1 $27 1 $79 #
intcurve-curve $-1 -1 $-1 forward { int_int_cur 22120 full nubs 3 open 7 
	0 3 0.1146276789145518615 2 0.2272048706032609167 2 0.3377308538041366992 2 0.4462048971666769948 2 
	0.5198798737216187016 2 0.5925688818490072451 3 
	0.09511163876636002934 2.000000000000000444 -0.2806725826851946826 
	0.05839308638225982478 2.000000000000000444 -0.2912410681789339706 
	0.0199792435935366372 2.000000000000000444 -0.2945995913721562443 
	-0.05527540711524343148 2.000000000000000444 -0.2863501378592109847 
	-0.09141566887974524047 2.000000000000000444 -0.275083675971011854 
	-0.156677310482183918 2.000000000000000444 -0.2395479999439942553 
	-0.1852920487251905335 1.999999999999999778 -0.2158542698774155166 
	-0.231294579691653901 1.999999999999999778 -0.1592849174791257649 
	-0.2484406232988692342 2.000000000000000444 -0.1271236145853046617 
	-0.2659666755790289216 2.000000000000000444 -0.06909335079615219755 
	-0.2698795365637675636 2.000000000000000444 -0.04477844854553517107 
	-0.2710497444068674655 2.000000000000000444 0.003910514087532245692 
	-0.2683895696821123611 1.999999999999999778 0.02805916358579590639 
	-0.2625173756550272519 1.999999999999999778 0.05151944394301358199 
	3.751254641564439758e-07 
	
	spline forward { ref 0 } F 0 F 0.0332842430187819116 F 7.068583470577362249 F 254.6627936449674223 
	plane 0 2 0 0 1 0 1 0 0 forward_v I I I I 
	nubs 3 open 7 
	0 3 0.1146276789145518615 3 0.2272048706032609167 3 0.3377308538041366992 3 0.4462048971666769948 3 
	0.5198798737216187016 3 0.5925688818490072451 3 
	0.0332842430187819116 252.571482978005406 
	0.03123443011051392493 252.7002765214823796 
	0.02918645055607586164 252.8289548719408515 
	0.02709980674953030647 252.960062569006908 
	0.02505048932445493037 253.0888249803567192 
	0.02300268757906466163 253.2174921587432266 
	0.02091586418119798993 253.3486111398647722 
	0.01886706367057964379 253.4773410725213694 
	0.01681944965956543026 253.6059964552091799 
	0.0147324431304024818 253.7371269428094251 
	0.01268418234876455414 253.865822963294022 
	0.01063676675110028676 253.9944658793033909 
	0.00854957353648552916 254.1256080966965101 
	0.007131963328682775285 254.2146791729862514 
	0.005711495534744403732 254.3039297967081893 
	0.00427478676824276458 254.3942008708319804 
	0.002857305011366341116 254.4832638763119803 
	0.001436841397656910121 254.5725142373823644 
	0 254.6627936449674223 
	
	nullbs 
	I I 
	0 
	0 
	0 
	
	0 } I I #
ATTRIB_CUSTOM-attrib $-1 -1 $-1 $30 $20 @22 generic_tag_attrib_def 3 3 -1 @23 generic_tag_attrib_def  1 1 @1 1 0 1 310 0 #
ATTRIB_CUSTOM-attrib $-1 -1 $-1 $-1 $31 @22 generic_tag_attrib_def 3 3 -1 @23 generic_tag_attrib_def  1 1 @1 2 0 1 304 0 #
face $80 1133 $-1 $81 $82 $6 $-1 $83 forward single #
plane-surface $-1 -1 $-1 0 2 0 0 1 0 1 0 0 forward_v I I I I #
coedge $-1 -1 $-1 $84 $85 $76 $86 reversed $32 0 $87 #
coedge $-1 -1 $-1 $34 $73 $84 $88 forward $21 0 $-1 #
edge $-1 1152 $-1 $50 -2.947803949395623402 $89 -1.63263813953755399 $46 $90 forward @7 unknown #
coedge $-1 -1 $-1 $36 $35 $73 $91 forward $15 0 $-1 #
coedge $-1 -1 $-1 $85 $84 $35 $61 reversed $32 0 $92 #
edge $-1 1145 $-1 $65 -0.5912999189635422814 $93 -0 $60 $94 forward @7 unknown #
edge $-1 1143 $-1 $74 -0.5925688818490026932 $66 -0 $39 $95 forward @7 unknown #
coedge $-1 -1 $-1 $37 $37 $70 $96 forward $64 0 $-1 #
loop $-1 -1 $-1 $-1 $37 $54 #
vertex $-1 1391 $-1 $38 0 $97 #
vertex $-1 1389 $-1 $96 0 $98 #
ellipse-curve $-1 -1 $-1 0 0.04634999999999998149 0 0 1 0 0.2963500000000000023 0 0 1 I I #
pcurve $-1 -1 $-1 -2 $95 0 0 #
coedge $-1 -1 $-1 $99 $40 $47 $77 forward $71 0 $-1 #
coedge $-1 -1 $-1 $40 $99 $63 $96 reversed $71 0 $-1 #
loop $-1 -1 $-1 $-1 $40 $81 #
intcurve-curve $-1 -1 $-1 forward { helix_int_cur 22120 F 0 F 245.5028995074279976 
	0 0.04634999999999969006 0 
	0.2095510946046496292 0 -0.2095510946046170997 
	-0.2095510946046170997 0 -0.2095510946046496292 
	0 0.04999999999999999584 0 
	0 
	0 1 0 
	null_surface 
	null_surface 
	nullbs 
	nullbs 
	} I I #
coedge $-1 -1 $-1 $57 $43 $59 $91 reversed $21 0 $-1 #
vertex $-1 1390 $-1 $44 0 $100 #
intcurve-curve $-1 -1 $-1 forward { helix_int_cur 22120 F 9.159894137539453141 F 254.6627936449674223 
	0 -0.02654212150939388309 0 
	0.2675250000000000128 6.938893903907228378e-18 1.083706251516049715e-13 
	1.083706251516049715e-13 0 -0.2675250000000000128 
	0 0.04999999999999999584 0 
	0 
	0 1 0 
	null_surface 
	null_surface 
	nullbs 
	nullbs 
	} I I #
coedge $-1 -1 $-1 $47 $46 $56 $86 forward $48 0 $-1 #
edge $-1 1148 $-1 $49 -1.24407069082154198 $101 -0.458672527424085652 $69 $102 forward @7 unknown #
point $-1 -1 $-1 0.09511163876637110381 2 -0.2806725826851909633 #
point $-1 -1 $-1 -0.2625173756550272519 1.999999999999999778 0.05151944394301358199 #
ATTRIB_CUSTOM-attrib $-1 -1 $-1 $-1 $54 @22 generic_tag_attrib_def 3 3 -1 @23 generic_tag_attrib_def  1 1 @1 1 0 1 309 0 #
face $103 1135 $-1 $104 $71 $6 $-1 $105 forward single #
loop $-1 -1 $-1 $64 $106 $54 #
cone-surface $-1 -1 $-1 0 0.02500000000000000139 0 0 1 0 0.2750000000000000222 0 0 1 I I 0.7071067811865473507 0.7071067811865475727 0.2750000000000000222 forward I I I I #
coedge $-1 -1 $-1 $60 $56 $57 $88 reversed $32 0 $107 #
coedge $-1 -1 $-1 $56 $60 $99 $108 reversed $32 0 $109 #
edge $-1 1154 $-1 $89 0 $101 0.5912999189636256592 $76 $110 forward @7 unknown #
pcurve $-1 -1 $-1 -1 $110 0 0 #
edge $-1 1147 $-1 $93 10.47505994739748658 $89 255.9779594548254238 $84 $111 forward @7 unknown #
vertex $-1 1393 $-1 $58 1 $112 #
ellipse-curve $-1 -1 $-1 0 1.999999999999999778 0 0 1 0 0.2675250000000000128 6.938893903907228378e-18 1.083706251516049715e-13 1 I I #
edge $-1 1144 $-1 $93 2.091310666961647247 $74 3.406476476819719768 $73 $113 forward @7 unknown #
pcurve $-1 -1 $-1 -2 $94 0 0 #
vertex $-1 1392 $-1 $88 0 $114 #
intcurve-curve $-1 -1 $-1 forward { int_int_cur 22120 full nubs 3 open 7 
	-0.5912999189635422814 3 -0.5120895001290375337 2 -0.4338629939047015105 2 -0.3223256885327550059 2 -0.2128355892795991966 2 
	-0.1053934410755918982 2 -0 3 
	0.2963500000000000023 0.04634999999999998149 7.258481578546802324e-17 
	0.2951209603241536916 0.04634999999999998149 0.02642530881015426464 
	0.2903553855536309403 0.04634999999999999537 0.05256586136191915282 
	0.2740264244397462301 0.04634999999999999537 0.1025379856725529837 
	0.2626216282675245539 0.04635000000000000925 0.1261676055712430133 
	0.2276250845176309712 0.04635000000000000925 0.1789840272166762225 
	0.2012432281250673416 0.04634999999999999537 0.2057501260372801843 
	0.1402026625948968874 0.04634999999999999537 0.2471712946537113764 
	0.1062831959921478331 0.04634999999999998149 0.2616427210390910307 
	0.03545392283755987445 0.04634999999999998149 0.2765032114282638953 
	-0.0007154215330360050307 0.04634999999999999537 0.2770057689543584667 
	-0.0705107920827708623 0.04634999999999999537 0.2641181601885251862 
	-0.1035080914621706177 0.04634999999999999537 0.251111640833260874 
	-0.133047252212560807 0.04634999999999999537 0.232094925200201696 
	3.773979775153479194e-07 
	
	plane 3.503484816625571974e-17 0.04634999999999998149 -1.419062002629410992e-17 -0 1 0 0 -0 1 forward_v I I I I 
	spline forward { ref 1 } I I I I 
	nullbs 
	nubs 3 open 7 
	-0.5912999189635422814 3 -0.5120895001290375337 3 -0.4338629939047015105 3 -0.3223256885327550059 3 -0.2128355892795991966 3 
	-0.1053934410755918982 3 -0 3 
	0 12.56637061435953839 
	0.001419172775389161961 12.47720135905279371 
	0.00284054235160531663 12.38789407467926118 
	0.004277452952359008659 12.29761031893539958 
	0.005696514960963219333 12.20844802331101242 
	0.007117881139307707244 12.11914095243205125 
	0.008554905904718017318 12.02885002351125898 
	0.01060385168822223362 11.90011096309004657 
	0.01265140863003331659 11.77145916616603571 
	0.01473811928068105744 11.64034726916118601 
	0.01678652950083241863 11.51164185917787108 
	0.01883388466611461698 11.38300274024707726 
	0.02092076917373781458 11.25187991948628863 
	0.02296861967421341688 11.12320967772740232 
	0.02501576129187802616 10.99458397638914242 
	0.02710282237383055542 10.86345006113603695 
	0.02915008737028490851 10.73481660767978596 
	0.03119700273491586573 10.606205122238892 
	0.0332842430187819116 10.47505994739748658 
	
	I I 
	0 
	0 
	0 
	
	0 } I I #
intcurve-curve $-1 -1 $-1 forward { int_int_cur 22120 full nubs 3 open 7 
	-0.5925688818490026932 3 -0.5198798737216179244 2 -0.4462048971666712216 2 -0.337730853804130926 2 -0.2272048706032618604 2 
	-0.1146276789145524444 2 -0 3 
	-0.2581945097457803429 0.04634999999999997455 -0.07003728123032870734 
	-0.2530725276557905801 0.04634999999999997455 -0.09367269357285237796 
	-0.2447657361451912872 0.04634999999999997455 -0.1165031779513311522 
	-0.2221590408049618492 0.04634999999999997455 -0.1596415807320841207 
	-0.2078849859664398392 0.04634999999999997455 -0.1797108684875059481 
	-0.1664770313371988497 0.04634999999999997455 -0.2239833804716697685 
	-0.1368635034432875153 0.04634999999999997455 -0.2452289725059009495 
	-0.07056919998389202253 0.04634999999999997455 -0.2755833760565460366 
	-0.03442145740735556847 0.04634999999999996761 -0.2841587358626374571 
	0.03982852163785773753 0.04634999999999996761 -0.2871263522677757751 
	0.07722168215175884143 0.04634999999999998843 -0.2812269259679764932 
	0.1483506036306186382 0.04634999999999998843 -0.2553041084934638549 
	0.1813070176676697676 0.04634999999999998843 -0.2352846736948835116 
	0.2095510946046335865 0.04634999999999998843 -0.2095510946046331424 
	3.751254632100624283e-07 
	
	plane 3.503484816625571974e-17 0.04634999999999998149 -1.419062002629410992e-17 -0 1 0 0 -0 1 forward_v I I I I 
	spline forward { ref 0 } I I I I 
	nullbs 
	nubs 3 open 7 
	-0.5925688818490026932 3 -0.5198798737216179244 3 -0.4462048971666712216 3 -0.337730853804130926 3 -0.2272048706032618604 3 
	-0.1146276789145524444 3 -0 3 
	0 9.159894137539453141 
	0.001436841397657288941 9.069614729954375676 
	0.002857305011366383183 8.980364368883973825 
	0.004274786768242763713 8.891301363403966818 
	0.005711495534744533836 8.801030289280166841 
	0.007131963328682773551 8.711779665558221808 
	0.008549573536485527425 8.622708589268480495 
	0.01063676675110014277 8.491566371875364894 
	0.01268418234876458536 8.362923455866010158 
	0.01473244313040248353 8.234227435381415106 
	0.01681944965956527413 8.103096947781180504 
	0.01886706367057964726 7.974441565093373541 
	0.02091586418119798993 7.845711632436781713 
	0.02300268757906479347 7.714592651315228977 
	0.02505048932445494078 7.585925472928708224 
	0.02709980674953030647 7.45716306157890152 
	0.0291864505560758547 7.326055364512858326 
	0.03123443011051391105 7.197377014054365141 
	0.0332842430187819116 7.068583470577399552 
	
	I I 
	0 
	0 
	0 
	
	0 } I I #
edge $-1 1149 $-1 $66 -0.7853981633974089771 $65 2.449293598294855312e-16 $70 $67 reversed @7 unknown #
point $-1 -1 $-1 0.2963500000000000023 0.04634999999999998149 7.258481578546802324e-17 #
point $-1 -1 $-1 0.2095510946046416356 0.04634999999999998843 -0.2095510946046251211 #
coedge $-1 -1 $-1 $70 $69 $85 $108 forward $71 0 $-1 #
point $-1 -1 $-1 -0.2581945097457803429 0.04634999999999997455 -0.07003728123032870734 #
vertex $-1 1394 $-1 $108 0 $115 #
ellipse-curve $-1 -1 $-1 0 2 0 -0 -1 -0 0.2963500000000000023 0 0 1 I I #
ATTRIB_CUSTOM-attrib $-1 -1 $-1 $-1 $81 @22 generic_tag_attrib_def 3 3 -1 @23 generic_tag_attrib_def  1 1 @1 3 0 2 302 -310 0 #
face $116 1134 $-1 $-1 $117 $6 $-1 $118 reversed single #
cone-surface $-1 -1 $-1 0 0 0 0 1 0 0.2963500000000000023 0 0 1 I I 0 1 0.3000000000000000444 forward I I I I #
coedge $-1 -1 $-1 $106 $106 $119 $120 forward $82 0 $-1 #
pcurve $-1 -1 $-1 0 reversed { exp_par_cur nubs 1 open 2 
	10.47505994739748658 1 255.9779594548254238 1 
	0.03328424301878190467 10.47505994739748658 
	0.03328424301878190467 255.9779594548253954 
	0 
	spline forward { ref 1 } I I I I 
	} 0 0 #
edge $-1 1153 $-1 $101 -247.5942101743899855 $65 -2.091310666962054032 $99 $121 forward @7 unknown #
pcurve $-1 -1 $-1 0 forward { exp_par_cur nubs 1 open 2 
	2.091310666962054032 1 247.5942101743900423 1 
	0 12.56637061435954017 
	0 258.0692701217874969 
	2.870792197615612389e-14 
	spline reversed { ref 1 } F 0 F 0.0332842430187819116 F 10.47505994739748658 F 258.0692701217874969 
	} 0 0 #
intcurve-curve $-1 -1 $-1 forward { int_int_cur 22120 full nubs 3 open 7 
	0 3 0.1053934410755924811 2 0.212835589279604942 2 0.3223256885327876464 2 0.4338629939047681239 2 
	0.5120895001291331239 2 0.5912999189636256592 3 
	-0.01653368765056189432 2 0.2670136003983198947 
	0.01837214344429682206 2 0.2709860614595811512 
	0.05371761967266505677 1.999999999999999556 0.2680384145569700283 
	0.1220051079446732578 1.999999999999999556 0.2486914986431465191 
	0.1542135148997195726 1.999999999999999556 0.2322266100105430386 
	0.211142343378720676 1.999999999999999556 0.1875418408131585002 
	0.2351485859336148176 2 0.1595480430243871595 
	0.271540498552369336 2 0.09538191063553705384 
	0.2833446430548927641 2.000000000000000444 0.05970154397043694189 
	0.2913390749091576137 2.000000000000000444 -0.00315083489619296872 
	0.2911028744668749391 2.000000000000000888 -0.0293876891595700393 
	0.2836185217286202875 2.000000000000000888 -0.08142452844928997624 
	0.2763175868255466905 2 -0.1069732180467109495 
	0.2657195712513077956 2 -0.1312114017683720379 
	3.773979780331247076e-07 
	
	spline forward { ref 1 } F 0 F 0.0332842430187819116 F 10.47505994739748658 F 258.0692701217874969 
	plane 0 2 0 0 1 0 1 0 0 forward_v I I I I 
	nubs 3 open 7 
	0 3 0.1053934410755924811 3 0.212835589279604942 3 0.3223256885327876464 3 0.4338629939047681239 3 
	0.5120895001291331239 3 0.5912999189636256592 3 
	0.0332842430187819116 255.9779594548254238 
	0.03119700273491585185 256.109104629666831 
	0.02915008737028490851 256.2377161151077303 
	0.02710282237383054849 256.3663495685639759 
	0.02501576129187792208 256.4974834838170636 
	0.02296861967421341688 256.6261091851553715 
	0.02092076917373779724 256.75477942691424 
	0.01883388466611416942 256.8859022476750624 
	0.01678652950083246373 257.0145413666058971 
	0.01473811928068104009 257.1432467765891943 
	0.01265140863003311189 257.2743586735940653 
	0.01060385168822227525 257.4030104705180975 
	0.00855490590471799997 257.5317495309392939 
	0.007117881139307552854 257.6220404598601021 
	0.005696514960963215864 257.71134753073909 
	0.004277452952358999985 257.8005098263634522 
	0.002840542351606056056 257.8907935821072783 
	0.001419172775389151769 257.9801008664807682 
	0 258.0692701217874969 
	
	nullbs 
	I I 
	0 
	0 
	0 
	
	0 } I I #
intcurve-curve $-1 -1 $-1 forward { helix_int_cur 22120 F 10.47505994739748658 F 255.9779594548254238 
	0 -0.03700787849061197565 0 
	0.2675250000000000128 0 9.782976714588534317e-14 
	9.782976714588534317e-14 0 -0.2675250000000000128 
	0 0.04999999999999999584 0 
	0 
	0 1 0 
	null_surface 
	null_surface 
	nullbs 
	nullbs 
	} I I #
point $-1 -1 $-1 -0.01653368765054378381 1.999999999999999778 0.2670136003983210049 #
ellipse-curve $-1 -1 $-1 0 0.04634999999999998149 0 0 -1 -0 0.2675250000000000128 6.938893903907228378e-18 1.083706251516049715e-13 1 I I #
point $-1 -1 $-1 -0.1330472522125517032 0.04634999999999998843 0.2320949252002069418 #
point $-1 -1 $-1 0.2657195712513077956 2 -0.1312114017683720379 #
ATTRIB_CUSTOM-attrib $-1 -1 $-1 $-1 $104 @22 generic_tag_attrib_def 3 3 -1 @23 generic_tag_attrib_def  1 1 @1 1 0 1 302 0 #
loop $-1 -1 $-1 $-1 $119 $104 #
plane-surface $-1 -1 $-1 0 0 0 0 1 0 1 0 0 forward_v I I I I #
coedge $-1 -1 $-1 $119 $119 $106 $120 reversed $117 0 $-1 #
edge $-1 1142 $-1 $122 -3.141592653589793116 $122 3.141592653589793116 $119 $123 forward @7 unknown #
intcurve-curve $-1 -1 $-1 forward { helix_int_cur 22120 F -247.5942101743900423 F -2.091310666962054032 
	0 0.02970787849060901181 0 
	-0.1473826864524425684 0 0.2571024430729140775 
	-0.2571024430729140775 0 -0.1473826864524425684 
	-0 -0.04999999999999999584 -0 
	-0 
	-0 -1 -0 
	null_surface 
	null_surface 
	nullbs 
	nullbs 
	} I I #
vertex $-1 1395 $-1 $120 0 $124 #
ellipse-curve $-1 -1 $-1 0 0 0 0 1 0 0.2500000000000000555 0 0 1 I I #
point $-1 -1 $-1 -0.2500000000000000555 0 3.061616997868383634e-17 #
End-of-ASM-data 