22700 0 2 4           
16 Autodesk Neutron 20 ASM 227.1.1.65535 NT 24 Wed Aug 25 07:09:08 2021 
10 9.999999999999999547e-07 1.000000000000000036e-10 
asmheader $-1 -1 @13 227.1.1.65535 #
body $2 1386 $-1 $3 $-1 $4 #
ATTRIB_CUSTOM-attrib $-1 -1 $5 $-1 $1 @20 Timestamp_attrib_def 1 1445427445001 #
lump $-1 -1 $-1 $-1 $6 $1 #
transform $-1 -1 1 0 0 0 1 0 0 0 1 0 0 0 1 no_rotate no_reflect no_shear #
ATTRIB_CUSTOM-attrib $-1 -1 $-1 $2 $1 @22 generic_tag_attrib_def 3 3 -1 @23 generic_tag_attrib_def  1 3 @3 307 10 0 0 #
shell $-1 -1 $-1 $-1 $-1 $7 $-1 $3 #
face $8 1368 $-1 $9 $10 $6 $-1 $11 forward single #
ATTRIB_CUSTOM-attrib $-1 -1 $-1 $-1 $7 @22 generic_tag_attrib_def 3 3 -1 @23 generic_tag_attrib_def  1 1 @1 1 0 1 321 0 #
face $12 1372 $-1 $13 $14 $6 $-1 $15 forward single #
loop $-1 -1 $-1 $-1 $16 $7 #
plane-surface $-1 -1 $-1 0.7237606067544776201 1.989256050145192578 0.07379120022037123638 0.3420112424974394161 0.9187152696422381526 0.1974602829217752542 0 -0.2101321196020142223 0.9776729986613953427 forward_v I I I I #
ATTRIB_CUSTOM-attrib $-1 -1 $-1 $-1 $9 @22 generic_tag_attrib_def 3 3 -1 @23 generic_tag_attrib_def  1 1 @1 8 0 1 307 0 #
face $17 1371 $-1 $18 $19 $6 $-1 $20 forward single #
loop $-1 -1 $-1 $-1 $21 $9 #
plane-surface $-1 -1 $-1 0.3973003325475389924 2 -0.6881443618363471959 0.8660254037844390407 0 -0.4999999999999993894 0.4999999999999993894 -0 0.8660254037844390407 forward_v I I I I #
coedge $-1 -1 $-1 $22 $23 $24 $25 forward $10 0 $-1 #
ATTRIB_CUSTOM-attrib $-1 -1 $-1 $-1 $13 @22 generic_tag_attrib_def 3 3 -1 @23 generic_tag_attrib_def  1 1 @1 7 0 1 307 0 #
face $26 1370 $-1 $27 $28 $6 $-1 $29 forward single #
loop $-1 -1 $-1 $-1 $30 $13 #
plane-surface $-1 -1 $-1 0.7946006650950767636 2 4.440892098500626162e-16 0.8660254037844383745 0 0.5000000000000004441 -0.5000000000000004441 -0 0.8660254037844383745 forward_v I I I I #
coedge $-1 -1 $-1 $31 $32 $33 $34 reversed $14 0 $-1 #
coedge $-1 -1 $-1 $35 $16 $36 $37 forward $10 0 $-1 #
coedge $-1 -1 $-1 $16 $33 $38 $39 forward $10 0 $-1 #
coedge $-1 -1 $-1 $40 $41 $16 $25 reversed $42 0 $-1 #
edge $-1 1373 $-1 $43 -0.04077195384940510842 $44 0.01864918985397528983 $24 $45 forward @7 unknown #
ATTRIB_CUSTOM-attrib $-1 -1 $-1 $-1 $18 @22 generic_tag_attrib_def 3 3 -1 @23 generic_tag_attrib_def  1 1 @1 6 0 1 307 0 #
face $46 1369 $-1 $47 $48 $6 $-1 $49 forward single #
loop $-1 -1 $-1 $-1 $50 $18 #
plane-surface $-1 -1 $-1 0.3973003325475379932 2 0.68814436183634764 -4.191626335320199434e-16 0 1 -1 -0 -4.191626335320199434e-16 forward_v I I I I #
coedge $-1 -1 $-1 $51 $52 $53 $54 reversed $19 0 $-1 #
coedge $-1 -1 $-1 $55 $21 $52 $56 forward $14 0 $-1 #
coedge $-1 -1 $-1 $21 $57 $58 $59 reversed $14 0 $-1 #
coedge $-1 -1 $-1 $23 $53 $21 $34 forward $10 0 $-1 #
edge $-1 1377 $-1 $60 -0.3645307529924860512 $61 -0.3340680830888292929 $21 $62 forward @7 unknown #
coedge $-1 -1 $-1 $63 $22 $64 $65 forward $10 0 $-1 #
coedge $-1 -1 $-1 $66 $67 $22 $37 reversed $68 0 $-1 #
edge $-1 1376 $-1 $44 -0.0590905981574938316 $69 0.6670388929286501511 $36 $70 forward @7 unknown #
coedge $-1 -1 $-1 $58 $71 $23 $39 reversed $72 0 $-1 #
edge $-1 1374 $-1 $61 -0.05922305440586932146 $43 -0.05810600292565241964 $38 $73 forward @7 unknown #
coedge $-1 -1 $-1 $74 $24 $71 $75 forward $42 0 $-1 #
coedge $-1 -1 $-1 $24 $76 $66 $77 forward $42 0 $-1 #
loop $-1 -1 $-1 $-1 $24 $47 #
vertex $-1 1396 $-1 $75 0 $78 #
vertex $-1 1397 $-1 $37 0 $79 #
straight-curve $-1 -1 $-1 0.7469593301370551774 1.996578015163047892 -0.0004567703445643445104 -0.7952592682102946897 0.1710391346388074052 0.5816427690151700913 I I #
ATTRIB_CUSTOM-attrib $-1 -1 $-1 $-1 $27 @22 generic_tag_attrib_def 3 3 -1 @23 generic_tag_attrib_def  1 1 @1 1 0 1 314 0 #
face $80 1340 $-1 $81 $42 $6 $-1 $82 forward single #
loop $-1 -1 $-1 $-1 $64 $27 #
plane-surface $-1 -1 $-1 0.1986501662737688578 1.994686085958249588 0.6631443618363475068 -8.71488118652649886e-17 0.978147600733806688 0.2079116908177543188 0 -0.2079116908177543188 0.978147600733806688 forward_v I I I I #
coedge $-1 -1 $-1 $83 $84 $63 $85 reversed $28 0 $-1 #
coedge $-1 -1 $-1 $86 $30 $84 $87 forward $19 0 $-1 #
coedge $-1 -1 $-1 $30 $86 $31 $56 reversed $19 0 $-1 #
coedge $-1 -1 $-1 $33 $63 $30 $54 forward $10 0 $-1 #
edge $-1 1378 $-1 $88 -0.6952755819581921681 $60 0.09932508313688453994 $30 $89 forward @7 unknown #
coedge $-1 -1 $-1 $90 $31 $91 $92 reversed $14 0 $-1 #
edge $-1 1383 $-1 $60 0.02125565616700186844 $93 0.3999999999999999112 $31 $94 forward @7 unknown #
coedge $-1 -1 $-1 $32 $90 $95 $96 reversed $14 0 $-1 #
coedge $-1 -1 $-1 $97 $38 $32 $59 forward $72 0 $-1 #
edge $-1 1384 $-1 $61 -0.5674018819040784756 $98 0.1701015493565395942 $32 $99 forward @7 unknown #
vertex $-1 1401 $-1 $56 0 $100 #
vertex $-1 1402 $-1 $59 0 $101 #
straight-curve $-1 -1 $-1 0.6237875214237417199 2.105921974231318661 -0.2958570434393147375 -0.4685836305143123992 0.3488803876059865527 -0.8116106556458725363 I I #
coedge $-1 -1 $-1 $53 $35 $50 $85 forward $10 0 $-1 #
coedge $-1 -1 $-1 $102 $103 $35 $65 reversed $48 0 $-1 #
edge $-1 1375 $-1 $69 0.2638009195395036866 $104 0.3138018925201075948 $64 $105 forward @7 unknown #
coedge $-1 -1 $-1 $106 $36 $41 $77 reversed $68 0 $-1 #
coedge $-1 -1 $-1 $36 $106 $102 $107 reversed $68 0 $-1 #
loop $-1 -1 $-1 $-1 $36 $108 #
vertex $-1 1398 $-1 $107 0 $109 #
straight-curve $-1 -1 $-1 0.7025830899823207742 1.999767756457386803 0.06156435521119867776 -0.5000000000000004441 -0 0.8660254037844383745 F -0.2430583347954949069 F 0.8270069474790555653 #
coedge $-1 -1 $-1 $38 $97 $40 $75 reversed $72 0 $-1 #
loop $-1 -1 $-1 $-1 $38 $110 #
straight-curve $-1 -1 $-1 0.7303441733738449404 2.00168509768865599 0.004560014269626794237 -0.8439649687785030219 0.2079076450156329137 0.4944669277300088872 I I #
coedge $-1 -1 $-1 $111 $40 $112 $113 forward $42 0 $-1 #
edge $-1 1382 $-1 $43 -0.4680837674217602773 $114 0.2694336011479908088 $71 $115 forward @7 unknown #
coedge $-1 -1 $-1 $41 $111 $116 $117 forward $42 0 $-1 #
edge $-1 1348 $-1 $118 0.1068353488798778894 $44 0.1082729710285002395 $66 $119 forward @7 unknown #
point $-1 -1 $-1 0.779383604318837353 1.989604415459112152 -0.02417148247969053143 #
point $-1 -1 $-1 0.732128389061067697 1.999767756457386803 0.01039039608199108719 #
ATTRIB_CUSTOM-attrib $-1 -1 $-1 $-1 $47 @22 generic_tag_attrib_def 3 3 -1 @23 generic_tag_attrib_def  1 1 @1 1 0 1 320 0 #
face $120 1343 $-1 $121 $122 $6 $-1 $123 forward single #
plane-surface $-1 -1 $-1 0.5195622192821177654 1.994802207729556187 -0.4146601141360140019 0.148964878941927531 0.985095233867817055 -0.08600491295692172522 -0 0.08697534142678590985 0.9962104647029632609 forward_v I I I I #
coedge $-1 -1 $-1 $124 $50 $103 $125 reversed $28 0 $-1 #
coedge $-1 -1 $-1 $50 $126 $51 $87 reversed $28 0 $-1 #
edge $-1 1379 $-1 $104 -0.1778951055427615002 $88 -0.1474324356391048807 $50 $127 forward @7 unknown #
coedge $-1 -1 $-1 $52 $51 $128 $129 reversed $19 0 $-1 #
edge $-1 1381 $-1 $88 0.02125565616700186844 $130 0.3999999999999999112 $51 $131 forward @7 unknown #
vertex $-1 1400 $-1 $87 0 $132 #
straight-curve $-1 -1 $-1 0.7449381235266344659 1.978744343832998132 0.08601804522954380194 0.5000000000000004441 0 -0.8660254037844383745 F -0.8270069474790555653 F 0.2430583347954949069 #
coedge $-1 -1 $-1 $57 $55 $133 $134 reversed $14 0 $-1 #
coedge $-1 -1 $-1 $128 $135 $55 $92 forward $136 0 $-1 #
edge $-1 1131 $-1 $137 -0.7946006650950767636 $93 -0 $55 $138 forward @7 unknown #
vertex $-1 1403 $-1 $56 1 $139 #
straight-curve $-1 -1 $-1 0.7946006650950768746 2 4.996003610813204432e-16 0 -1 0 I I #
coedge $-1 -1 $-1 $140 $141 $57 $96 forward $142 0 $-1 #
edge $-1 1312 $-1 $98 -0.1778951055427617223 $143 -0.1474324356391043811 $57 $144 forward @7 unknown #
coedge $-1 -1 $-1 $71 $58 $141 $145 reversed $72 0 $-1 #
vertex $-1 1406 $-1 $96 0 $146 #
straight-curve $-1 -1 $-1 0.4966254156844234768 1.989372171916499177 -0.5161082713772602304 -0.4999999999999993894 0 -0.8660254037844390407 F -0.8925550391997514321 F 0.3910273640446474963 #
point $-1 -1 $-1 0.7946006650950768746 1.978744343832998132 4.996003610813204432e-16 #
point $-1 -1 $-1 0.780326356636462326 1.989372171916499177 -0.02472382749323015494 #
coedge $-1 -1 $-1 $147 $64 $67 $107 forward $48 0 $-1 #
coedge $-1 -1 $-1 $64 $148 $83 $125 forward $48 0 $-1 #
vertex $-1 1399 $-1 $65 1 $149 #
straight-curve $-1 -1 $-1 0.3707093487652445285 2.054613984391803427 0.3812057664680763014 -0.006238436356181726455 -0.2079076450156328026 0.9781285667313287524 I I #
coedge $-1 -1 $-1 $67 $66 $150 $151 forward $68 0 $-1 #
edge $-1 1380 $-1 $69 -0.1602003912993285595 $152 -0.1589175448904718846 $67 $153 forward @7 unknown #
face $154 1210 $-1 $155 $68 $6 $-1 $156 forward single #
point $-1 -1 $-1 0.3690636435179953656 1.999767756457387025 0.6392369817996577108 #
face $157 1308 $-1 $158 $72 $6 $-1 $159 forward single #
coedge $-1 -1 $-1 $76 $74 $160 $161 forward $42 0 $-1 #
coedge $-1 -1 $-1 $141 $162 $74 $113 reversed $142 0 $-1 #
edge $-1 1344 $-1 $114 -0.3198882428301060288 $163 -0.260467099126724777 $112 $164 forward @7 unknown #
vertex $-1 1412 $-1 $145 0 $165 #
straight-curve $-1 -1 $-1 0.5453417206079574919 1.989604415459112152 -0.4295439161660618566 -0.4999999999999994449 0 -0.8660254037844390407 F -1.567456401361098095 F 1.22518599019546337 #
coedge $-1 -1 $-1 $166 $150 $76 $117 reversed $122 0 $-1 #
edge $-1 1347 $-1 $167 -0.2752437153560829408 $118 0.4738938816298519097 $116 $168 forward @7 unknown #
vertex $-1 1415 $-1 $151 0 $169 #
straight-curve $-1 -1 $-1 0.6267845166838414972 2.017258929910040521 0.0282723327544635028 0.9729470926728052138 -0.1615469981704820979 -0.165156054208260572 I I #
ATTRIB_CUSTOM-attrib $-1 -1 $-1 $-1 $81 @22 generic_tag_attrib_def 3 3 -1 @23 generic_tag_attrib_def  1 1 @1 1 0 1 307 0 #
face $170 1342 $-1 $171 $172 $6 $-1 $173 forward single #
loop $-1 -1 $-1 $174 $116 $81 #
plane-surface $-1 -1 $-1 0 2 1.11022302462515654e-16 0 1 0 -1 0 0 forward_v I I I I #
coedge $-1 -1 $-1 $126 $83 $175 $176 forward $28 0 $-1 #
edge $-1 1215 $-1 $177 -0.5959504988213075727 $104 0.1701015493565402326 $83 $178 forward @7 unknown #
coedge $-1 -1 $-1 $84 $124 $179 $180 reversed $28 0 $-1 #
straight-curve $-1 -1 $-1 0.5354691844422171387 1.927308058541532532 0.68814436183634764 0.9371672610286259086 -0.3488803876059865527 3.928254971927487723e-16 I I #
coedge $-1 -1 $-1 $179 $91 $86 $129 forward $136 0 $-1 #
edge $-1 1132 $-1 $93 -0.7946006650950767636 $130 -0 $86 $181 forward @7 unknown #
vertex $-1 1407 $-1 $87 1 $182 #
straight-curve $-1 -1 $-1 0.3973003325475380487 2 0.68814436183634764 0 -1 0 I I #
point $-1 -1 $-1 0.3973003325475380487 1.978744343832998132 0.68814436183634764 #
coedge $-1 -1 $-1 $183 $184 $90 $134 forward $185 0 $-1 #
edge $-1 1314 $-1 $143 0.02125565616700209048 $137 0.3999999999999999112 $133 $186 forward @7 unknown #
coedge $-1 -1 $-1 $91 $187 $183 $188 forward $136 0 $-1 #
loop $-1 -1 $-1 $-1 $135 $189 #
vertex $-1 1404 $-1 $134 1 $190 #
straight-curve $-1 -1 $-1 0.7946006650950768746 1.600000000000000089 4.996003610813204432e-16 0.4999999999999993894 0 0.8660254037844390407 I I #
point $-1 -1 $-1 0.7946006650950768746 1.600000000000000089 4.996003610813204432e-16 #
coedge $-1 -1 $-1 $191 $95 $184 $192 forward $142 0 $-1 #
coedge $-1 -1 $-1 $95 $112 $97 $145 forward $142 0 $-1 #
loop $-1 -1 $-1 $-1 $112 $171 #
vertex $-1 1405 $-1 $134 0 $193 #
straight-curve $-1 -1 $-1 0.328215906600199836 1.927308058541532088 -0.8078020975888684507 -0.4685836305143118441 -0.3488803876059893283 -0.8116106556458716481 I I #
edge $-1 1349 $-1 $114 0.3126848410398912481 $98 0.3138018925201080944 $97 $194 forward @7 unknown #
point $-1 -1 $-1 0.411574641006153763 1.989372171916499177 -0.6634205343431160973 #
coedge $-1 -1 $-1 $148 $102 $195 $196 forward $48 0 $-1 #
coedge $-1 -1 $-1 $103 $147 $197 $198 reversed $48 0 $-1 #
point $-1 -1 $-1 0.3687517156303090626 1.989372171916499177 0.68814436183634764 #
coedge $-1 -1 $-1 $116 $195 $106 $151 reversed $122 0 $-1 #
edge $-1 1350 $-1 $118 -0.1575106940044671833 $152 0.5670829853618263305 $150 $199 forward @7 unknown #
vertex $-1 1410 $-1 $107 1 $200 #
straight-curve $-1 -1 $-1 0.2902870106961010777 2.028770064252386263 0.5027918513029391301 -0.4917380799320458795 0.1810376838643888708 -0.8517153384586674258 I I #
ATTRIB_CUSTOM-attrib $-1 -1 $-1 $-1 $108 @22 generic_tag_attrib_def 3 3 -1 @23 generic_tag_attrib_def  1 1 @1 1 0 1 313 0 #
face $201 1104 $-1 $202 $203 $6 $-1 $204 forward single #
plane-surface $-1 -1 $-1 0.6736249468635810977 1.994686085958249588 0.1595360904590872597 0.1800568059919507302 0.9781476007338067991 0.1039558454088771039 0 -0.1056831075412847376 0.9943998596039810289 forward_v I I I I #
ATTRIB_CUSTOM-attrib $-1 -1 $-1 $-1 $110 @22 generic_tag_attrib_def 3 3 -1 @23 generic_tag_attrib_def  1 1 @1 1 0 1 312 0 #
face $205 1306 $-1 $206 $207 $6 $-1 $208 forward single #
plane-surface $-1 -1 $-1 0.474974780589812573 1.994686085958249588 -0.5036082713772602748 0.1800568059919512298 0.978147600733806688 -0.1039558454088771039 -0 0.1056831075412847515 0.9943998596039810289 forward_v I I I I #
coedge $-1 -1 $-1 $209 $210 $111 $161 reversed $172 0 $-1 #
edge $-1 1346 $-1 $163 -0.1992111992847156177 $167 -0.1977735771360938088 $160 $211 forward @7 unknown #
coedge $-1 -1 $-1 $112 $191 $209 $212 forward $142 0 $-1 #
vertex $-1 1413 $-1 $113 1 $213 #
straight-curve $-1 -1 $-1 0.1222945966691994513 2.044317823693901914 -0.535598856633015763 -0.9013470479998109131 0.1710391346388074052 0.3978933443575483064 I I #
point $-1 -1 $-1 0.4106249200339622818 1.989604415459112152 -0.6628802593933460496 #
coedge $-1 -1 $-1 $214 $116 $210 $215 reversed $122 0 $-1 #
vertex $-1 1414 $-1 $161 1 $216 #
straight-curve $-1 -1 $-1 0.4937827179562780944 2 -0.3997763121059662028 0.4999999999999994449 -0 0.8660254037844390407 F -1.22518599019546337 F 1.567456401361098095 #
point $-1 -1 $-1 0.7307296587712037716 2 0.01062782808350140606 #
ATTRIB_CUSTOM-attrib $-1 -1 $-1 $-1 $121 @22 generic_tag_attrib_def 3 3 -1 @23 generic_tag_attrib_def  1 1 @1 1 0 1 317 0 #
face $217 1341 $-1 $110 $142 $6 $-1 $218 forward single #
loop $-1 -1 $-1 $-1 $160 $121 #
plane-surface $-1 -1 $-1 -0.1986501662737689688 1.994686085958249588 -0.6631443618363473957 8.71488118652647544e-17 0.9781476007338067991 -0.2079116908177538747 -0 0.2079116908177538747 0.9781476007338067991 forward_v I I I I #
loop $-1 -1 $-1 $-1 $219 $81 #
coedge $-1 -1 $-1 $220 $221 $124 $176 reversed $222 0 $-1 #
edge $-1 1216 $-1 $177 0.0106278280835008232 $223 0.3999999999999999112 $124 $224 forward @7 unknown #
vertex $-1 1408 $-1 $176 0 $225 #
straight-curve $-1 -1 $-1 0.1986501662737688301 1.989372171916499177 0.688144361836347529 1 -0 4.191626335320199434e-16 F -1.04825183136884581 F 0.5932164719023456101 #
coedge $-1 -1 $-1 $226 $128 $126 $180 forward $136 0 $-1 #
edge $-1 1129 $-1 $130 -0.7946006650950767636 $223 -0 $126 $227 forward @7 unknown #
straight-curve $-1 -1 $-1 0.3973003325475380487 1.600000000000000089 0.68814436183634764 -0.5000000000000004441 0 0.8660254037844383745 I I #
point $-1 -1 $-1 0.3973003325475380487 1.600000000000000089 0.68814436183634764 #
coedge $-1 -1 $-1 $228 $133 $135 $188 reversed $185 0 $-1 #
coedge $-1 -1 $-1 $133 $228 $140 $192 reversed $185 0 $-1 #
loop $-1 -1 $-1 $-1 $184 $202 #
straight-curve $-1 -1 $-1 0.3973003325475389924 2 -0.6881443618363471959 0 -1 0 I I #
coedge $-1 -1 $-1 $135 $226 $229 $230 forward $136 0 $-1 #
edge $-1 1126 $-1 $231 -0.7946006650950772077 $137 -0 $183 $232 forward @7 unknown #
face $233 1110 $-1 $-1 $234 $6 $-1 $235 reversed single #
point $-1 -1 $-1 0.3973003325475389924 1.600000000000000089 -0.6881443618363471959 #
coedge $-1 -1 $-1 $162 $140 $236 $237 forward $142 0 $-1 #
edge $-1 1313 $-1 $143 -0.6952755819581926122 $238 0.09932508313688465096 $184 $239 forward @7 unknown #
point $-1 -1 $-1 0.3973003325475389924 1.97874434383299791 -0.6881443618363471959 #
straight-curve $-1 -1 $-1 0.14477920344784867 2.054613984391803427 -0.5116465966851266867 0.8502034051346861743 -0.2079076450156329414 -0.4836616390013148692 I I #
coedge $-1 -1 $-1 $150 $240 $147 $196 reversed $122 0 $-1 #
edge $-1 1213 $-1 $152 -0.1697826528142878377 $241 0.5670829853618264416 $195 $242 forward @7 unknown #
coedge $-1 -1 $-1 $243 $244 $148 $198 forward $245 0 $-1 #
edge $-1 1228 $-1 $177 -0.2176226048351292408 $241 -0.1589175448904722732 $148 $246 forward @7 unknown #
straight-curve $-1 -1 $-1 0.6519743117689701384 2 0.1470360904590872486 -0.5000000000000004441 -0 0.8660254037844383745 F -0.4375196797332508436 F 0.7883276965921861557 #
point $-1 -1 $-1 0.3684328190880566956 2 0.6381443618363477066 #
ATTRIB_CUSTOM-attrib $-1 -1 $-1 $-1 $155 @22 generic_tag_attrib_def 3 3 -1 @23 generic_tag_attrib_def  1 1 @1 9 0 1 307 0 #
face $247 1111 $-1 $189 $185 $6 $-1 $248 forward single #
loop $-1 -1 $-1 $249 $250 $155 #
cone-surface $-1 -1 $-1 0 2 0 0 -1 0 -0.3000000000000000444 0 0 1 I I 0 -1 0.3000000000000000444 forward I I I I #
ATTRIB_CUSTOM-attrib $-1 -1 $-1 $-1 $158 @22 generic_tag_attrib_def 3 3 -1 @23 generic_tag_attrib_def  1 1 @1 1 0 1 318 0 #
face $251 1283 $-1 $252 $245 $6 $-1 $253 forward single #
loop $-1 -1 $-1 $-1 $236 $158 #
plane-surface $-1 -1 $-1 -0.7237606067544777311 1.989256050145192578 -0.07379120022037113924 -0.3420112424974394161 0.9187152696422381526 -0.1974602829217751709 -0 0.2101321196020141113 0.9776729986613953427 forward_v I I I I #
coedge $-1 -1 $-1 $254 $160 $162 $212 reversed $172 0 $-1 #
coedge $-1 -1 $-1 $160 $254 $166 $215 forward $172 0 $-1 #
straight-curve $-1 -1 $-1 0.2316618229200951562 2.031949727703774577 -0.4878327108915279653 -0.6295028848695566337 0.1615469981704820701 0.760018871688731168 I I #
edge $-1 1310 $-1 $255 -0.07108839410734169029 $163 0.655041096978800752 $209 $256 forward @7 unknown #
point $-1 -1 $-1 0.3570658475681471877 1.999767756457386803 -0.6392369817996569337 #
coedge $-1 -1 $-1 $240 $166 $257 $258 reversed $122 0 $-1 #
edge $-1 1261 $-1 $259 -0.1697826528142880043 $167 0.5548110265520057593 $166 $260 forward @7 unknown #
point $-1 -1 $-1 0.3561608602782367905 2 -0.6381443618363471515 #
ATTRIB_CUSTOM-attrib $-1 -1 $-1 $-1 $171 @22 generic_tag_attrib_def 3 3 -1 @23 generic_tag_attrib_def  1 1 @1 1 0 1 319 0 #
plane-surface $-1 -1 $-1 -0.2979752494106535643 1.989256050145192356 -0.6636906718180023423 1.655359444149390311e-16 0.9187152696422368203 -0.3949205658435529509 -0 0.3949205658435529509 0.9187152696422368203 forward_v I I I I #
coedge $261 -1 $-1 $219 $219 $262 $263 forward $174 0 $-1 #
coedge $-1 -1 $-1 $264 $175 $244 $265 reversed $222 0 $-1 #
coedge $-1 -1 $-1 $175 $266 $226 $267 reversed $222 0 $-1 #
loop $-1 -1 $-1 $-1 $264 $252 #
vertex $-1 1409 $-1 $176 1 $268 #
straight-curve $-1 -1 $-1 -0.3973003325475387704 2 0.6881443618363473069 0 -1 0 I I #
point $-1 -1 $-1 -0.3973003325475387704 1.989372171916499177 0.6881443618363473069 #
coedge $-1 -1 $-1 $187 $179 $221 $267 forward $136 0 $-1 #
straight-curve $-1 -1 $-1 -0.3973003325475387704 1.600000000000000089 0.6881443618363473069 -1 -0 -4.191626335320199434e-16 I I #
coedge $-1 -1 $-1 $184 $183 $269 $270 reversed $185 0 $-1 #
coedge $-1 -1 $-1 $271 $269 $187 $230 reversed $272 0 $-1 #
edge $-1 1121 $-1 $273 -0.7946006650950767636 $231 -0 $229 $274 forward @7 unknown #
vertex $-1 1425 $-1 $270 1 $275 #
straight-curve $-1 -1 $-1 0.3973003325475389924 1.600000000000000089 -0.6881443618363471959 1 0 4.191626335320196969e-16 I I #
ATTRIB_CUSTOM-attrib $-1 -1 $-1 $-1 $189 @22 generic_tag_attrib_def 3 3 -1 @23 generic_tag_attrib_def  1 1 @1 2 0 1 307 0 #
loop $-1 -1 $-1 $136 $276 $189 #
plane-surface $-1 -1 $-1 0 1.600000000000000089 1.11022302462515654e-16 0 1 0 -1 0 0 forward_v I I I I #
coedge $-1 -1 $-1 $277 $278 $191 $237 reversed $207 0 $-1 #
edge $-1 1309 $-1 $238 -0.2096826357910161198 $255 -0.1494229784091525293 $236 $279 forward @7 unknown #
vertex $-1 1420 $-1 $270 0 $280 #
straight-curve $-1 -1 $-1 -0.2979752494106535643 1.97874434383299791 -0.688144361836347529 -1 0 -4.191626335320196969e-16 F -0.8607423194081639251 F 0.2362432036696271442 #
coedge $-1 -1 $-1 $195 $214 $243 $281 reversed $122 0 $-1 #
vertex $-1 1411 $-1 $198 1 $282 #
straight-curve $-1 -1 $-1 0.1986501662737688578 2 0.6381443618363475956 -1 0 -4.191626335320199434e-16 F -0.5932164719023456101 F 1.04825183136884581 #
coedge $-1 -1 $-1 $283 $197 $240 $281 forward $245 0 $-1 #
coedge $-1 -1 $-1 $197 $284 $220 $265 forward $245 0 $-1 #
loop $-1 -1 $-1 $-1 $284 $206 #
straight-curve $-1 -1 $-1 -0.2902870106961023544 2.028770064252386263 0.5027918513029381309 0.4917380799320456575 0.1810376838643889819 -0.8517153384586674258 I I #
ATTRIB_CUSTOM-attrib $-1 -1 $-1 $-1 $202 @22 generic_tag_attrib_def 3 3 -1 @23 generic_tag_attrib_def  1 1 @1 3 0 1 307 0 #
plane-surface $-1 -1 $-1 -0.3973003325475382153 2 -0.688144361836347529 4.191626335320196969e-16 0 -1 1 -0 4.191626335320196969e-16 forward_v I I I I #
loop $-1 -1 $-1 $-1 $262 $155 #
coedge $-1 -1 $-1 $250 $250 $276 $285 reversed $203 0 $-1 #
ATTRIB_CUSTOM-attrib $-1 -1 $-1 $-1 $206 @22 generic_tag_attrib_def 3 3 -1 @23 generic_tag_attrib_def  1 1 @1 1 0 1 315 0 #
face $286 1282 $-1 $287 $222 $6 $-1 $288 forward single #
plane-surface $-1 -1 $-1 -0.4749747805898123509 1.994686085958249588 0.5036082713772604968 -0.1800568059919510633 0.9781476007338067991 0.1039558454088770484 0 -0.105683107541284696 0.99439985960398114 forward_v I I I I #
coedge $-1 -1 $-1 $210 $209 $289 $290 forward $172 0 $-1 #
vertex $-1 1419 $-1 $290 0 $291 #
straight-curve $-1 -1 $-1 -0.2979752494106535643 1.999767756457386803 -0.6392369817996571557 1 -0 4.191626335320196969e-16 F -0.2362432036696271442 F 0.8607423194081639251 #
coedge $-1 -1 $-1 $289 $292 $214 $258 forward $293 0 $-1 #
edge $-1 1245 $-1 $294 -0.1697826528142880043 $259 0.5670829853618262195 $214 $295 forward @7 unknown #
vertex $-1 1416 $-1 $290 1 $296 #
straight-curve $-1 -1 $-1 -0.1986501662737689688 2 -0.6381443618363473735 1 -0 4.191626335320196969e-16 F -0.593216471902345388 F 0.9905168044498834368 #
ATTRIB_CUSTOM-attrib $-1 -1 $-1 $-1 $219 @17 sketch_attrib_def 1 1 3 @13 101 0 0 0 1 1 #
coedge $297 -1 $-1 $262 $262 $219 $263 reversed $249 0 $-1 #
edge $-1 1115 $-1 $298 -3.141592653589793116 $298 3.141592653589793116 $219 $299 forward @7 unknown #
coedge $-1 -1 $-1 $266 $220 $300 $301 reversed $222 0 $-1 #
edge $-1 1292 $-1 $302 -0.5674018819040785866 $177 0.1986501662737691909 $220 $303 forward @7 unknown #
coedge $-1 -1 $-1 $221 $264 $271 $304 forward $222 0 $-1 #
edge $-1 1125 $-1 $223 -0.7946006650950768746 $273 -0 $221 $305 forward @7 unknown #
point $-1 -1 $-1 -0.3973003325475388259 1.600000000000000089 0.6881443618363473069 #
coedge $-1 -1 $-1 $229 $306 $228 $270 forward $272 0 $-1 #
edge $-1 1290 $-1 $238 0.02125565616700186844 $231 0.3999999999999999112 $228 $307 forward @7 unknown #
coedge $-1 -1 $-1 $306 $229 $266 $304 reversed $272 0 $-1 #
loop $-1 -1 $-1 $-1 $306 $287 #
vertex $-1 1424 $-1 $304 1 $308 #
straight-curve $-1 -1 $-1 -0.3973003325475382153 1.600000000000000089 -0.688144361836347529 0.5000000000000003331 0 -0.8660254037844384856 I I #
point $-1 -1 $-1 -0.3973003325475381597 1.600000000000000089 -0.688144361836347529 #
coedge $-1 -1 $-1 $276 $276 $250 $285 forward $234 0 $-1 #
coedge $-1 -1 $-1 $300 $236 $306 $309 forward $207 0 $-1 #
coedge $-1 -1 $-1 $236 $310 $311 $312 forward $207 0 $-1 #
straight-curve $-1 -1 $-1 -0.2990464818127731017 2.051898503082012937 -0.5179637003244466076 0.4685836305143184499 0.3488803876059878295 0.8116106556458684285 I I #
point $-1 -1 $-1 -0.3973003325475382153 1.978744343832998132 -0.688144361836347529 #
edge $-1 1229 $-1 $241 -0.1697826528142878377 $294 0.5670829853618263305 $240 $313 forward @7 unknown #
point $-1 -1 $-1 -0.3684328190880575837 2 0.6381443618363473735 #
coedge $-1 -1 $-1 $284 $243 $292 $314 reversed $245 0 $-1 #
coedge $-1 -1 $-1 $244 $283 $310 $315 reversed $245 0 $-1 #
edge $-1 1113 $-1 $316 -3.141592653589793116 $316 3.141592653589793116 $250 $317 forward @7 unknown #
ATTRIB_CUSTOM-attrib $-1 -1 $-1 $-1 $252 @22 generic_tag_attrib_def 3 3 -1 @23 generic_tag_attrib_def  1 1 @1 5 0 1 307 0 #
face $318 1281 $-1 $319 $272 $6 $-1 $320 forward single #
plane-surface $-1 -1 $-1 -0.3973003325475387704 2 0.6881443618363474179 -0.8660254037844389297 0 0.4999999999999995559 -0.4999999999999995559 -0 -0.8660254037844389297 forward_v I I I I #
coedge $-1 -1 $-1 $311 $257 $254 $290 reversed $293 0 $-1 #
edge $-1 1293 $-1 $255 -0.1602003912993292534 $259 -0.1589175448904722177 $289 $321 forward @7 unknown #
point $-1 -1 $-1 -0.3690636435179952546 1.999767756457387025 -0.6392369817996581549 #
coedge $-1 -1 $-1 $257 $311 $283 $314 forward $293 0 $-1 #
loop $-1 -1 $-1 $-1 $311 $319 #
vertex $-1 1417 $-1 $314 1 $322 #
straight-curve $-1 -1 $-1 -0.6519743117689702494 2 -0.1470360904590870821 0.5000000000000003331 -0 -0.8660254037844384856 F -0.4375196797332507326 F 0.7883276965921862667 #
point $-1 -1 $-1 -0.3684328190880569731 2 -0.6381443618363474846 #
ATTRIB_CUSTOM-attrib $-1 -1 $-1 $-1 $262 @17 sketch_attrib_def 1 1 3 @13 101 0 0 0 1 1 #
vertex $-1 1418 $-1 $263 0 $323 #
ellipse-curve $-1 -1 $-1 0 2 0 0 -1 0 -0.3000000000000000444 0 0 1 I I #
coedge $-1 -1 $-1 $310 $277 $264 $301 forward $207 0 $-1 #
edge $-1 1288 $-1 $324 -0.3645307529924859402 $302 -0.3340680830888292929 $264 $325 forward @7 unknown #
vertex $-1 1422 $-1 $265 0 $326 #
straight-curve $-1 -1 $-1 -0.4966254156844233103 1.989372171916499177 0.5161082713772604524 0.4999999999999995559 -0 0.8660254037844389297 F -0.8925550391997515431 F 0.3332923371256849565 #
edge $-1 1291 $-1 $324 0.02125565616700186844 $273 0.3999999999999999112 $266 $327 forward @7 unknown #
straight-curve $-1 -1 $-1 -0.7946006650950768746 1.600000000000000089 -2.775557561562891351e-16 -0.4999999999999995559 -0 -0.8660254037844389297 I I #
coedge $-1 -1 $-1 $269 $271 $277 $309 reversed $272 0 $-1 #
straight-curve $-1 -1 $-1 -0.3973003325475382153 2 -0.688144361836347529 0 -1 0 I I #
point $-1 -1 $-1 -0.7946006650950769856 1.600000000000000089 -2.775557561562891351e-16 #
edge $-1 1287 $-1 $238 -0.6952755819581922792 $324 0.09932508313688459545 $306 $328 forward @7 unknown #
coedge $-1 -1 $-1 $278 $300 $284 $315 forward $207 0 $-1 #
coedge $-1 -1 $-1 $292 $289 $278 $312 reversed $293 0 $-1 #
edge $-1 1285 $-1 $329 -0.07108839410734159314 $255 0.6670388929286508173 $311 $330 forward @7 unknown #
straight-curve $-1 -1 $-1 -0.4533241454952013916 2 0.4911082713772605413 -0.4999999999999995559 0 -0.8660254037844389297 F -0.3332923371256849565 F 0.8925550391997515431 #
edge $-1 1294 $-1 $329 -0.1602003912993287538 $294 -0.1589175448904724675 $283 $331 forward @7 unknown #
edge $-1 1286 $-1 $302 -0.05922305440586911329 $329 -0.009222081425264466031 $284 $332 forward @7 unknown #
vertex $-1 1426 $-1 $285 2 $333 #
ellipse-curve $-1 -1 $-1 0 1.600000000000000089 0 0 1 0 -0.3000000000000000444 0 0 1 I I #
ATTRIB_CUSTOM-attrib $-1 -1 $-1 $-1 $287 @22 generic_tag_attrib_def 3 3 -1 @23 generic_tag_attrib_def  1 1 @1 4 0 1 307 0 #
face $334 1258 $-1 $108 $293 $6 $-1 $335 forward single #
plane-surface $-1 -1 $-1 -0.7946006650950768746 2 -3.330669073875469621e-16 -0.8660254037844384856 -0 -0.5000000000000003331 0.5000000000000003331 -0 -0.8660254037844384856 forward_v I I I I #
straight-curve $-1 -1 $-1 -0.2902870106961009111 2.028770064252386263 -0.502791851302938797 0.4917380799320443252 0.1810376838643887043 0.851715338458668314 I I #
point $-1 -1 $-1 -0.7368656381761142793 2 -1.665334536937734811e-16 #
point $-1 -1 $-1 0.3000000000000000444 2 -3.673940397442060115e-17 #
vertex $-1 1421 $-1 $304 0 $336 #
straight-curve $-1 -1 $-1 -0.6237875214237417199 2.105921974231318661 0.2958570434393148485 0.4685836305143125657 0.3488803876059865527 0.8116106556458724253 I I #
point $-1 -1 $-1 -0.780326356636462326 1.989372171916499177 0.02472382749323026596 #
straight-curve $-1 -1 $-1 -0.7946006650950768746 2 -2.775557561562891351e-16 0 -1 0 I I #
straight-curve $-1 -1 $-1 -0.7449381235266345769 1.978744343832998132 -0.0860180452295437048 -0.5000000000000003331 1.41878258428516667e-17 0.8660254037844384856 F -0.8270069474790556763 F 0.2430583347954950457 #
vertex $-1 1423 $-1 $314 0 $337 #
straight-curve $-1 -1 $-1 -0.7025830899823208853 1.999767756457386803 -0.06156435521119856674 0.5000000000000003331 -1.41878258428516667e-17 -0.8660254037844384856 F -0.2430583347954950457 F 0.8270069474790556763 #
straight-curve $-1 -1 $-1 -0.5805740213922032655 2.028770064252386263 -5.273559366969493567e-16 0.9834761598640903157 0.1810376838643888708 1.610690202772194198e-15 I I #
straight-curve $-1 -1 $-1 -0.7303441733738451624 2.00168509768865599 -0.004560014269626627703 0.8439649687785027998 0.2079076450156327471 -0.4944669277300096089 I I #
point $-1 -1 $-1 0.3000000000000000444 1.600000000000000089 -3.673940397442060115e-17 #
ATTRIB_CUSTOM-attrib $-1 -1 $-1 $-1 $319 @22 generic_tag_attrib_def 3 3 -1 @23 generic_tag_attrib_def  1 1 @1 1 0 1 316 0 #
plane-surface $-1 -1 $-1 -0.6736249468635812088 1.994686085958249588 -0.1595360904590871209 -0.1800568059919507302 0.9781476007338067991 -0.1039558454088770761 -0 0.1056831075412847237 0.99439985960398114 forward_v I I I I #
point $-1 -1 $-1 -0.7946006650950768746 1.978744343832998132 -2.775557561562891351e-16 #
point $-1 -1 $-1 -0.7381272870359917304 1.999767756457387025 -7.853891374430500465e-16 #
End-of-ASM-data 