22700 0 3 4           
30 Autodesk Translation Framework 20 ASM 227.1.1.65535 NT 24 Wed Aug 25 07:09:05 2021 
10 9.999999999999999547e-07 1.000000000000000036e-10 
asmheader $-1 -1 @13 227.1.1.65535 #
body $3 -1 $-1 $4 $-1 $5 #
body $6 -1 $-1 $7 $-1 $8 #
rgb_color-st-attrib $-1 -1 $9 $-1 $1 0.627450980392156854 0.627450980392156854 0.627450980392156854 1 #
lump $-1 -1 $-1 $-1 $10 $1 #
transform $-1 -1 1 0 0 0 1 0 0 0 1 0 0 0 1 no_rotate no_reflect no_shear #
rgb_color-st-attrib $-1 -1 $11 $-1 $2 0.627450980392156854 0.627450980392156854 0.627450980392156854 1 #
lump $-1 -1 $-1 $-1 $12 $2 #
transform $-1 -1 1 0 0 0 1 0 0 0 1 0 0 0 1 no_rotate no_reflect no_shear #
ATTRIB_CUSTOM-attrib $-1 -1 $-1 $3 $1 @20 Timestamp_attrib_def 1 1445427251000 #
shell $-1 -1 $-1 $-1 $-1 $13 $-1 $4 #
ATTRIB_CUSTOM-attrib $-1 -1 $-1 $6 $2 @20 Timestamp_attrib_def 1 1445427445001 #
shell $-1 -1 $-1 $-1 $-1 $14 $-1 $7 #
face $15 -1 $-1 $16 $17 $10 $-1 $18 reversed single #
face $19 -1 $-1 $20 $21 $12 $-1 $22 forward single #
DXID-attrib $-1 -1 $-1 $-1 $13 @10 ASM ENTITY @1 0 #
face $23 -1 $-1 $24 $25 $10 $-1 $26 forward single #
loop $-1 -1 $-1 $-1 $27 $13 #
spline-surface $-1 -1 $-1 forward { helix_spl_line 22120 F 0 F 0.0332842430187819116 
	F 0 F 270.1769682087222009 
	F 0 F 270.1769682087222009 
	0 -0.02654212150939388309 0 
	0.2675250000000000128 6.938893903907228378e-18 1.083706251516049715e-13 
	1.083706251516049715e-13 0 -0.2675250000000000128 
	0 0.04999999999999999584 0 
	0 
	0 1 0 
	null_surface 
	null_surface 
	nullbs 
	nullbs 
	
	3.237175605212367469 1.311334432529256992e-12 0.5 
	} F 0 F 0.0332842430187819116 F 7.068583470577362249 F 254.6627936449674223 #
DXID-attrib $-1 -1 $-1 $-1 $14 @10 ASM ENTITY @1 0 #
face $28 -1 $-1 $29 $30 $12 $-1 $31 forward single #
loop $-1 -1 $-1 $-1 $32 $14 #
plane-surface $-1 -1 $-1 0.7237606067544776201 1.989256050145192578 0.07379120022037123638 0.3420112424974394161 0.9187152696422381526 0.1974602829217752542 0 -0.2101321196020142223 0.9776729986613953427 forward_v I I I I #
DXID-attrib $-1 -1 $-1 $-1 $16 @10 ASM ENTITY @1 1 #
face $33 -1 $-1 $34 $35 $10 $-1 $36 reversed single #
loop $-1 -1 $-1 $-1 $37 $16 #
plane-surface $-1 -1 $-1 3.503484816625571974e-17 0.04634999999999998149 -1.419062002629410992e-17 -0 1 0 0 -0 1 forward_v I I I I #
coedge $-1 -1 $-1 $38 $39 $40 $41 reversed $17 0 $42 #
DXID-attrib $-1 -1 $-1 $-1 $20 @10 ASM ENTITY @1 1 #
face $43 -1 $-1 $44 $45 $12 $-1 $46 forward single #
loop $-1 -1 $-1 $-1 $47 $20 #
plane-surface $-1 -1 $-1 0.3973003325475389924 2 -0.6881443618363471959 0.8660254037844390407 0 -0.4999999999999993894 0.4999999999999993894 -0 0.8660254037844390407 forward_v I I I I #
coedge $-1 -1 $-1 $48 $49 $50 $51 forward $21 0 $-1 #
DXID-attrib $-1 -1 $-1 $-1 $24 @10 ASM ENTITY @1 2 #
face $52 -1 $-1 $53 $54 $10 $-1 $55 reversed single #
loop $-1 -1 $-1 $-1 $56 $24 #
cone-surface $-1 -1 $-1 0 -0.03700787849061198259 0 0 1 0 0.2675250000000000128 6.938893903907228378e-18 1.083706251516049715e-13 1 I I -0 -1 0.2675250000000000128 forward I I I I #
coedge $-1 -1 $-1 $57 $58 $59 $60 reversed $25 0 $-1 #
coedge $-1 -1 $-1 $61 $27 $62 $63 reversed $17 0 $64 #
coedge $-1 -1 $-1 $27 $61 $65 $66 forward $17 0 $67 #
coedge $-1 -1 $-1 $68 $69 $27 $41 forward $70 0 $-1 #
edge $-1 -1 $-1 $71 0 $72 0.5925688818490072451 $40 $73 forward @7 unknown #
pcurve $-1 -1 $-1 -1 $73 0 0 #
DXID-attrib $-1 -1 $-1 $-1 $29 @10 ASM ENTITY @1 2 #
face $74 -1 $-1 $75 $76 $12 $-1 $77 forward single #
loop $-1 -1 $-1 $-1 $78 $29 #
plane-surface $-1 -1 $-1 0.7946006650950767636 2 4.440892098500626162e-16 0.8660254037844383745 0 0.5000000000000004441 -0.5000000000000004441 -0 0.8660254037844383745 forward_v I I I I #
coedge $-1 -1 $-1 $79 $80 $81 $82 reversed $30 0 $-1 #
coedge $-1 -1 $-1 $83 $32 $84 $85 forward $21 0 $-1 #
coedge $-1 -1 $-1 $32 $81 $86 $87 forward $21 0 $-1 #
coedge $-1 -1 $-1 $88 $89 $32 $51 reversed $90 0 $-1 #
edge $-1 -1 $-1 $91 -0.04077195384940510842 $92 0.01864918985397528983 $50 $93 forward @7 unknown #
DXID-attrib $-1 -1 $-1 $-1 $34 @10 ASM ENTITY @1 3 #
face $94 -1 $-1 $95 $70 $10 $-1 $96 forward single #
loop $-1 -1 $-1 $-1 $97 $34 #
spline-surface $-1 -1 $-1 forward { helix_spl_line 22120 F 0 F 0.0332842430187819116 
	F 0 F 270.1769682087222009 
	F 0 F 270.1769682087222009 
	0 -0.05365000000000292452 0 
	0.2963500000000000023 0 1.083706251516049715e-13 
	1.083706251516049715e-13 0 -0.2963500000000000023 
	0 0.04999999999999999584 0 
	0 
	0 1 0 
	null_surface 
	null_surface 
	nullbs 
	nullbs 
	
	-2.92230606979733043 -1.068642266469601462e-12 0.4999999999999998335 
	} F 0 F 0.0332842430187819116 F 10.47505994739748658 F 258.0692701217874969 #
coedge $-1 -1 $-1 $65 $98 $68 $99 reversed $35 0 $-1 #
coedge $-1 -1 $-1 $100 $37 $101 $102 forward $25 0 $-1 #
coedge $-1 -1 $-1 $37 $100 $61 $103 forward $25 0 $-1 #
coedge $-1 -1 $-1 $104 $104 $37 $60 forward $105 0 $-1 #
edge $-1 -1 $-1 $106 -6.283185307179586232 $107 -0.7853981633974089771 $59 $108 reversed @7 unknown #
coedge $-1 -1 $-1 $39 $38 $58 $103 reversed $17 0 $109 #
coedge $-1 -1 $-1 $110 $111 $38 $63 forward $112 0 $-1 #
edge $-1 -1 $-1 $107 3.749458635359279047e-14 $71 245.5028995074279976 $62 $113 forward @7 unknown #
pcurve $-1 -1 $-1 0 forward { exp_par_cur nubs 1 open 2 
	-245.5028995074279976 1 -0 1 
	0.0332842430187819116 252.5714829780053208 
	0.0332842430187819116 7.068583470577362249 
	1.712013633038020534e-14 
	spline reversed { ref 0 } F 0 F 0.0332842430187819116 F 7.068583470577362249 F 254.6627936449674223 
	} 0 0 #
coedge $-1 -1 $-1 $114 $56 $39 $66 reversed $35 0 $-1 #
edge $-1 -1 $-1 $115 9.159894137539453141 $72 254.6627936449674223 $65 $116 forward @7 unknown #
pcurve $-1 -1 $-1 0 reversed { exp_par_cur nubs 1 open 2 
	-254.6627936449674223 1 -9.159894137539453141 1 
	0 254.6627936449673939 
	6.859207902330172761e-17 9.159894137539469128 
	0 
	spline forward { ref 0 } I I I I 
	} 0 0 #
coedge $-1 -1 $-1 $117 $40 $56 $99 forward $70 0 $-1 #
coedge $-1 -1 $-1 $40 $117 $110 $118 reversed $70 0 $-1 #
loop $-1 -1 $-1 $-1 $40 $53 #
vertex $-1 -1 $-1 $118 0 $119 #
vertex $-1 -1 $-1 $41 1 $120 #
intcurve-curve $-1 -1 $-1 forward { int_int_cur 22120 full nubs 3 open 7 
	0 3 0.1146276789145518615 2 0.2272048706032609167 2 0.3377308538041366992 2 0.4462048971666769948 2 
	0.5198798737216187016 2 0.5925688818490072451 3 
	0.09511163876636002934 2.000000000000000444 -0.2806725826851946826 
	0.05839308638225982478 2.000000000000000444 -0.2912410681789339706 
	0.0199792435935366372 2.000000000000000444 -0.2945995913721562443 
	-0.05527540711524343148 2.000000000000000444 -0.2863501378592109847 
	-0.09141566887974524047 2.000000000000000444 -0.275083675971011854 
	-0.156677310482183918 2.000000000000000444 -0.2395479999439942553 
	-0.1852920487251905335 1.999999999999999778 -0.2158542698774155166 
	-0.231294579691653901 1.999999999999999778 -0.1592849174791257649 
	-0.2484406232988692342 2.000000000000000444 -0.1271236145853046617 
	-0.2659666755790289216 2.000000000000000444 -0.06909335079615219755 
	-0.2698795365637675636 2.000000000000000444 -0.04477844854553517107 
	-0.2710497444068674655 2.000000000000000444 0.003910514087532245692 
	-0.2683895696821123611 1.999999999999999778 0.02805916358579590639 
	-0.2625173756550272519 1.999999999999999778 0.05151944394301358199 
	3.751254641564439758e-07 
	
	spline forward { ref 0 } F 0 F 0.0332842430187819116 F 7.068583470577362249 F 254.6627936449674223 
	plane 0 2 0 0 1 0 1 0 0 forward_v I I I I 
	nubs 3 open 7 
	0 3 0.1146276789145518615 3 0.2272048706032609167 3 0.3377308538041366992 3 0.4462048971666769948 3 
	0.5198798737216187016 3 0.5925688818490072451 3 
	0.0332842430187819116 252.571482978005406 
	0.03123443011051392493 252.7002765214823796 
	0.02918645055607586164 252.8289548719408515 
	0.02709980674953030647 252.960062569006908 
	0.02505048932445493037 253.0888249803567192 
	0.02300268757906466163 253.2174921587432266 
	0.02091586418119798993 253.3486111398647722 
	0.01886706367057964379 253.4773410725213694 
	0.01681944965956543026 253.6059964552091799 
	0.0147324431304024818 253.7371269428094251 
	0.01268418234876455414 253.865822963294022 
	0.01063676675110028676 253.9944658793033909 
	0.00854957353648552916 254.1256080966965101 
	0.007131963328682775285 254.2146791729862514 
	0.005711495534744403732 254.3039297967081893 
	0.00427478676824276458 254.3942008708319804 
	0.002857305011366341116 254.4832638763119803 
	0.001436841397656910121 254.5725142373823644 
	0 254.6627936449674223 
	
	nullbs 
	I I 
	0 
	0 
	0 
	
	0 } I I #
DXID-attrib $-1 -1 $-1 $-1 $44 @10 ASM ENTITY @1 3 #
face $121 -1 $-1 $122 $123 $12 $-1 $124 forward single #
loop $-1 -1 $-1 $-1 $125 $44 #
plane-surface $-1 -1 $-1 0.3973003325475379932 2 0.68814436183634764 -4.191626335320199434e-16 0 1 -1 -0 -4.191626335320199434e-16 forward_v I I I I #
coedge $-1 -1 $-1 $126 $127 $128 $129 reversed $45 0 $-1 #
coedge $-1 -1 $-1 $130 $47 $127 $131 forward $30 0 $-1 #
coedge $-1 -1 $-1 $47 $132 $133 $134 reversed $30 0 $-1 #
coedge $-1 -1 $-1 $49 $128 $47 $82 forward $21 0 $-1 #
edge $-1 -1 $-1 $135 -0.3645307529924860512 $136 -0.3340680830888292929 $47 $137 forward @7 unknown #
coedge $-1 -1 $-1 $138 $48 $139 $140 forward $21 0 $-1 #
coedge $-1 -1 $-1 $141 $142 $48 $85 reversed $143 0 $-1 #
edge $-1 -1 $-1 $92 -0.0590905981574938316 $144 0.6670388929286501511 $84 $145 forward @7 unknown #
coedge $-1 -1 $-1 $133 $146 $49 $87 reversed $147 0 $-1 #
edge $-1 -1 $-1 $136 -0.05922305440586932146 $91 -0.05810600292565241964 $86 $148 forward @7 unknown #
coedge $-1 -1 $-1 $149 $50 $146 $150 forward $90 0 $-1 #
coedge $-1 -1 $-1 $50 $151 $141 $152 forward $90 0 $-1 #
loop $-1 -1 $-1 $-1 $50 $122 #
vertex $-1 -1 $-1 $150 0 $153 #
vertex $-1 -1 $-1 $85 0 $154 #
straight-curve $-1 -1 $-1 0.7469593301370551774 1.996578015163047892 -0.0004567703445643445104 -0.7952592682102946897 0.1710391346388074052 0.5816427690151700913 I I #
DXID-attrib $-1 -1 $-1 $-1 $53 @10 ASM ENTITY @1 4 #
face $155 -1 $-1 $156 $157 $10 $-1 $158 forward single #
plane-surface $-1 -1 $-1 0 2 0 0 1 0 1 0 0 forward_v I I I I #
coedge $-1 -1 $-1 $159 $160 $117 $161 reversed $54 0 $162 #
coedge $-1 -1 $-1 $56 $114 $159 $163 forward $35 0 $-1 #
edge $-1 -1 $-1 $72 -2.947803949395623402 $164 -1.63263813953755399 $68 $165 forward @7 unknown #
coedge $-1 -1 $-1 $58 $57 $114 $166 forward $25 0 $-1 #
coedge $-1 -1 $-1 $160 $159 $57 $102 reversed $54 0 $167 #
edge $-1 -1 $-1 $106 -0.5912999189635422814 $168 -0 $101 $169 forward @7 unknown #
edge $-1 -1 $-1 $115 -0.5925688818490026932 $107 -0 $61 $170 forward @7 unknown #
coedge $-1 -1 $-1 $59 $59 $111 $171 forward $105 0 $-1 #
loop $-1 -1 $-1 $-1 $59 $95 #
vertex $-1 -1 $-1 $60 0 $172 #
vertex $-1 -1 $-1 $171 0 $173 #
ellipse-curve $-1 -1 $-1 0 0.04634999999999998149 0 0 1 0 0.2963500000000000023 0 0 1 I I #
pcurve $-1 -1 $-1 -2 $170 0 0 #
coedge $-1 -1 $-1 $174 $62 $69 $118 forward $112 0 $-1 #
coedge $-1 -1 $-1 $62 $174 $104 $171 reversed $112 0 $-1 #
loop $-1 -1 $-1 $-1 $62 $156 #
intcurve-curve $-1 -1 $-1 forward { helix_int_cur 22120 F 0 F 245.5028995074279976 
	0 0.04634999999999969006 0 
	0.2095510946046496292 0 -0.2095510946046170997 
	-0.2095510946046170997 0 -0.2095510946046496292 
	0 0.04999999999999999584 0 
	0 
	0 1 0 
	null_surface 
	null_surface 
	nullbs 
	nullbs 
	} I I #
coedge $-1 -1 $-1 $98 $65 $100 $166 reversed $35 0 $-1 #
vertex $-1 -1 $-1 $66 0 $175 #
intcurve-curve $-1 -1 $-1 forward { helix_int_cur 22120 F 9.159894137539453141 F 254.6627936449674223 
	0 -0.02654212150939388309 0 
	0.2675250000000000128 6.938893903907228378e-18 1.083706251516049715e-13 
	1.083706251516049715e-13 0 -0.2675250000000000128 
	0 0.04999999999999999584 0 
	0 
	0 1 0 
	null_surface 
	null_surface 
	nullbs 
	nullbs 
	} I I #
coedge $-1 -1 $-1 $69 $68 $97 $161 forward $70 0 $-1 #
edge $-1 -1 $-1 $71 -1.24407069082154198 $176 -0.458672527424085652 $110 $177 forward @7 unknown #
point $-1 -1 $-1 0.09511163876637110381 2 -0.2806725826851909633 #
point $-1 -1 $-1 -0.2625173756550272519 1.999999999999999778 0.05151944394301358199 #
DXID-attrib $-1 -1 $-1 $-1 $75 @10 ASM ENTITY @1 4 #
face $178 -1 $-1 $179 $90 $12 $-1 $180 forward single #
loop $-1 -1 $-1 $-1 $139 $75 #
plane-surface $-1 -1 $-1 0.1986501662737688578 1.994686085958249588 0.6631443618363475068 -8.71488118652649886e-17 0.978147600733806688 0.2079116908177543188 0 -0.2079116908177543188 0.978147600733806688 forward_v I I I I #
coedge $-1 -1 $-1 $181 $182 $138 $183 reversed $76 0 $-1 #
coedge $-1 -1 $-1 $184 $78 $182 $185 forward $45 0 $-1 #
coedge $-1 -1 $-1 $78 $184 $79 $131 reversed $45 0 $-1 #
coedge $-1 -1 $-1 $81 $138 $78 $129 forward $21 0 $-1 #
edge $-1 -1 $-1 $186 -0.6952755819581921681 $135 0.09932508313688453994 $78 $187 forward @7 unknown #
coedge $-1 -1 $-1 $188 $79 $189 $190 reversed $30 0 $-1 #
edge $-1 -1 $-1 $135 0.02125565616700186844 $191 0.3999999999999999112 $79 $192 forward @7 unknown #
coedge $-1 -1 $-1 $80 $188 $193 $194 reversed $30 0 $-1 #
coedge $-1 -1 $-1 $195 $86 $80 $134 forward $147 0 $-1 #
edge $-1 -1 $-1 $136 -0.5674018819040784756 $196 0.1701015493565395942 $80 $197 forward @7 unknown #
vertex $-1 -1 $-1 $131 0 $198 #
vertex $-1 -1 $-1 $134 0 $199 #
straight-curve $-1 -1 $-1 0.6237875214237417199 2.105921974231318661 -0.2958570434393147375 -0.4685836305143123992 0.3488803876059865527 -0.8116106556458725363 I I #
coedge $-1 -1 $-1 $128 $83 $125 $183 forward $21 0 $-1 #
coedge $-1 -1 $-1 $200 $201 $83 $140 reversed $123 0 $-1 #
edge $-1 -1 $-1 $144 0.2638009195395036866 $202 0.3138018925201075948 $139 $203 forward @7 unknown #
coedge $-1 -1 $-1 $204 $84 $89 $152 reversed $143 0 $-1 #
coedge $-1 -1 $-1 $84 $204 $200 $205 reversed $143 0 $-1 #
loop $-1 -1 $-1 $-1 $84 $206 #
vertex $-1 -1 $-1 $205 0 $207 #
straight-curve $-1 -1 $-1 0.7025830899823207742 1.999767756457386803 0.06156435521119867776 -0.5000000000000004441 -0 0.8660254037844383745 F -0.2430583347954949069 F 0.8270069474790555653 #
coedge $-1 -1 $-1 $86 $195 $88 $150 reversed $147 0 $-1 #
loop $-1 -1 $-1 $-1 $86 $208 #
straight-curve $-1 -1 $-1 0.7303441733738449404 2.00168509768865599 0.004560014269626794237 -0.8439649687785030219 0.2079076450156329137 0.4944669277300088872 I I #
coedge $-1 -1 $-1 $209 $88 $210 $211 forward $90 0 $-1 #
edge $-1 -1 $-1 $91 -0.4680837674217602773 $212 0.2694336011479908088 $146 $213 forward @7 unknown #
coedge $-1 -1 $-1 $89 $209 $214 $215 forward $90 0 $-1 #
edge $-1 -1 $-1 $216 0.1068353488798778894 $92 0.1082729710285002395 $141 $217 forward @7 unknown #
point $-1 -1 $-1 0.779383604318837353 1.989604415459112152 -0.02417148247969053143 #
point $-1 -1 $-1 0.732128389061067697 1.999767756457386803 0.01039039608199108719 #
DXID-attrib $-1 -1 $-1 $-1 $95 @10 ASM ENTITY @1 5 #
face $218 -1 $-1 $219 $112 $10 $-1 $220 forward single #
loop $-1 -1 $-1 $105 $221 $95 #
cone-surface $-1 -1 $-1 0 0.02500000000000000139 0 0 1 0 0.2750000000000000222 0 0 1 I I 0.7071067811865473507 0.7071067811865475727 0.2750000000000000222 forward I I I I #
coedge $-1 -1 $-1 $101 $97 $98 $163 reversed $54 0 $222 #
coedge $-1 -1 $-1 $97 $101 $174 $223 reversed $54 0 $224 #
edge $-1 -1 $-1 $164 0 $176 0.5912999189636256592 $117 $225 forward @7 unknown #
pcurve $-1 -1 $-1 -1 $225 0 0 #
edge $-1 -1 $-1 $168 10.47505994739748658 $164 255.9779594548254238 $159 $226 forward @7 unknown #
vertex $-1 -1 $-1 $99 1 $227 #
ellipse-curve $-1 -1 $-1 0 1.999999999999999778 0 0 1 0 0.2675250000000000128 6.938893903907228378e-18 1.083706251516049715e-13 1 I I #
edge $-1 -1 $-1 $168 2.091310666961647247 $115 3.406476476819719768 $114 $228 forward @7 unknown #
pcurve $-1 -1 $-1 -2 $169 0 0 #
vertex $-1 -1 $-1 $163 0 $229 #
intcurve-curve $-1 -1 $-1 forward { int_int_cur 22120 full nubs 3 open 7 
	-0.5912999189635422814 3 -0.5120895001290375337 2 -0.4338629939047015105 2 -0.3223256885327550059 2 -0.2128355892795991966 2 
	-0.1053934410755918982 2 -0 3 
	0.2963500000000000023 0.04634999999999998149 7.258481578546802324e-17 
	0.2951209603241536916 0.04634999999999998149 0.02642530881015426464 
	0.2903553855536309403 0.04634999999999999537 0.05256586136191915282 
	0.2740264244397462301 0.04634999999999999537 0.1025379856725529837 
	0.2626216282675245539 0.04635000000000000925 0.1261676055712430133 
	0.2276250845176309712 0.04635000000000000925 0.1789840272166762225 
	0.2012432281250673416 0.04634999999999999537 0.2057501260372801843 
	0.1402026625948968874 0.04634999999999999537 0.2471712946537113764 
	0.1062831959921478331 0.04634999999999998149 0.2616427210390910307 
	0.03545392283755987445 0.04634999999999998149 0.2765032114282638953 
	-0.0007154215330360050307 0.04634999999999999537 0.2770057689543584667 
	-0.0705107920827708623 0.04634999999999999537 0.2641181601885251862 
	-0.1035080914621706177 0.04634999999999999537 0.251111640833260874 
	-0.133047252212560807 0.04634999999999999537 0.232094925200201696 
	3.773979775153479194e-07 
	
	plane 3.503484816625571974e-17 0.04634999999999998149 -1.419062002629410992e-17 -0 1 0 0 -0 1 forward_v I I I I 
	spline forward { ref 1 } I I I I 
	nullbs 
	nubs 3 open 7 
	-0.5912999189635422814 3 -0.5120895001290375337 3 -0.4338629939047015105 3 -0.3223256885327550059 3 -0.2128355892795991966 3 
	-0.1053934410755918982 3 -0 3 
	0 12.56637061435953839 
	0.001419172775389161961 12.47720135905279371 
	0.00284054235160531663 12.38789407467926118 
	0.004277452952359008659 12.29761031893539958 
	0.005696514960963219333 12.20844802331101242 
	0.007117881139307707244 12.11914095243205125 
	0.008554905904718017318 12.02885002351125898 
	0.01060385168822223362 11.90011096309004657 
	0.01265140863003331659 11.77145916616603571 
	0.01473811928068105744 11.64034726916118601 
	0.01678652950083241863 11.51164185917787108 
	0.01883388466611461698 11.38300274024707726 
	0.02092076917373781458 11.25187991948628863 
	0.02296861967421341688 11.12320967772740232 
	0.02501576129187802616 10.99458397638914242 
	0.02710282237383055542 10.86345006113603695 
	0.02915008737028490851 10.73481660767978596 
	0.03119700273491586573 10.606205122238892 
	0.0332842430187819116 10.47505994739748658 
	
	I I 
	0 
	0 
	0 
	
	0 } I I #
intcurve-curve $-1 -1 $-1 forward { int_int_cur 22120 full nubs 3 open 7 
	-0.5925688818490026932 3 -0.5198798737216179244 2 -0.4462048971666712216 2 -0.337730853804130926 2 -0.2272048706032618604 2 
	-0.1146276789145524444 2 -0 3 
	-0.2581945097457803429 0.04634999999999997455 -0.07003728123032870734 
	-0.2530725276557905801 0.04634999999999997455 -0.09367269357285237796 
	-0.2447657361451912872 0.04634999999999997455 -0.1165031779513311522 
	-0.2221590408049618492 0.04634999999999997455 -0.1596415807320841207 
	-0.2078849859664398392 0.04634999999999997455 -0.1797108684875059481 
	-0.1664770313371988497 0.04634999999999997455 -0.2239833804716697685 
	-0.1368635034432875153 0.04634999999999997455 -0.2452289725059009495 
	-0.07056919998389202253 0.04634999999999997455 -0.2755833760565460366 
	-0.03442145740735556847 0.04634999999999996761 -0.2841587358626374571 
	0.03982852163785773753 0.04634999999999996761 -0.2871263522677757751 
	0.07722168215175884143 0.04634999999999998843 -0.2812269259679764932 
	0.1483506036306186382 0.04634999999999998843 -0.2553041084934638549 
	0.1813070176676697676 0.04634999999999998843 -0.2352846736948835116 
	0.2095510946046335865 0.04634999999999998843 -0.2095510946046331424 
	3.751254632100624283e-07 
	
	plane 3.503484816625571974e-17 0.04634999999999998149 -1.419062002629410992e-17 -0 1 0 0 -0 1 forward_v I I I I 
	spline forward { ref 0 } I I I I 
	nullbs 
	nubs 3 open 7 
	-0.5925688818490026932 3 -0.5198798737216179244 3 -0.4462048971666712216 3 -0.337730853804130926 3 -0.2272048706032618604 3 
	-0.1146276789145524444 3 -0 3 
	0 9.159894137539453141 
	0.001436841397657288941 9.069614729954375676 
	0.002857305011366383183 8.980364368883973825 
	0.004274786768242763713 8.891301363403966818 
	0.005711495534744533836 8.801030289280166841 
	0.007131963328682773551 8.711779665558221808 
	0.008549573536485527425 8.622708589268480495 
	0.01063676675110014277 8.491566371875364894 
	0.01268418234876458536 8.362923455866010158 
	0.01473244313040248353 8.234227435381415106 
	0.01681944965956527413 8.103096947781180504 
	0.01886706367057964726 7.974441565093373541 
	0.02091586418119798993 7.845711632436781713 
	0.02300268757906479347 7.714592651315228977 
	0.02505048932445494078 7.585925472928708224 
	0.02709980674953030647 7.45716306157890152 
	0.0291864505560758547 7.326055364512858326 
	0.03123443011051391105 7.197377014054365141 
	0.0332842430187819116 7.068583470577399552 
	
	I I 
	0 
	0 
	0 
	
	0 } I I #
edge $-1 -1 $-1 $107 -0.7853981633974089771 $106 2.449293598294855312e-16 $111 $108 reversed @7 unknown #
point $-1 -1 $-1 0.2963500000000000023 0.04634999999999998149 7.258481578546802324e-17 #
point $-1 -1 $-1 0.2095510946046416356 0.04634999999999998843 -0.2095510946046251211 #
coedge $-1 -1 $-1 $111 $110 $160 $223 forward $112 0 $-1 #
point $-1 -1 $-1 -0.2581945097457803429 0.04634999999999997455 -0.07003728123032870734 #
vertex $-1 -1 $-1 $223 0 $230 #
ellipse-curve $-1 -1 $-1 0 2 0 -0 -1 -0 0.2963500000000000023 0 0 1 I I #
DXID-attrib $-1 -1 $-1 $-1 $122 @10 ASM ENTITY @1 5 #
face $231 -1 $-1 $232 $233 $12 $-1 $234 forward single #
plane-surface $-1 -1 $-1 0.5195622192821177654 1.994802207729556187 -0.4146601141360140019 0.148964878941927531 0.985095233867817055 -0.08600491295692172522 -0 0.08697534142678590985 0.9962104647029632609 forward_v I I I I #
coedge $-1 -1 $-1 $235 $125 $201 $236 reversed $76 0 $-1 #
coedge $-1 -1 $-1 $125 $237 $126 $185 reversed $76 0 $-1 #
edge $-1 -1 $-1 $202 -0.1778951055427615002 $186 -0.1474324356391048807 $125 $238 forward @7 unknown #
coedge $-1 -1 $-1 $127 $126 $239 $240 reversed $45 0 $-1 #
edge $-1 -1 $-1 $186 0.02125565616700186844 $241 0.3999999999999999112 $126 $242 forward @7 unknown #
vertex $-1 -1 $-1 $185 0 $243 #
straight-curve $-1 -1 $-1 0.7449381235266344659 1.978744343832998132 0.08601804522954380194 0.5000000000000004441 0 -0.8660254037844383745 F -0.8270069474790555653 F 0.2430583347954949069 #
coedge $-1 -1 $-1 $132 $130 $244 $245 reversed $30 0 $-1 #
coedge $-1 -1 $-1 $239 $246 $130 $190 forward $247 0 $-1 #
edge $-1 -1 $-1 $248 -0.7946006650950767636 $191 -0 $130 $249 forward @7 unknown #
vertex $-1 -1 $-1 $131 1 $250 #
straight-curve $-1 -1 $-1 0.7946006650950768746 2 4.996003610813204432e-16 0 -1 0 I I #
coedge $-1 -1 $-1 $251 $252 $132 $194 forward $253 0 $-1 #
edge $-1 -1 $-1 $196 -0.1778951055427617223 $254 -0.1474324356391043811 $132 $255 forward @7 unknown #
coedge $-1 -1 $-1 $146 $133 $252 $256 reversed $147 0 $-1 #
vertex $-1 -1 $-1 $194 0 $257 #
straight-curve $-1 -1 $-1 0.4966254156844234768 1.989372171916499177 -0.5161082713772602304 -0.4999999999999993894 0 -0.8660254037844390407 F -0.8925550391997514321 F 0.3910273640446474963 #
point $-1 -1 $-1 0.7946006650950768746 1.978744343832998132 4.996003610813204432e-16 #
point $-1 -1 $-1 0.780326356636462326 1.989372171916499177 -0.02472382749323015494 #
coedge $-1 -1 $-1 $258 $139 $142 $205 forward $123 0 $-1 #
coedge $-1 -1 $-1 $139 $259 $181 $236 forward $123 0 $-1 #
vertex $-1 -1 $-1 $140 1 $260 #
straight-curve $-1 -1 $-1 0.3707093487652445285 2.054613984391803427 0.3812057664680763014 -0.006238436356181726455 -0.2079076450156328026 0.9781285667313287524 I I #
coedge $-1 -1 $-1 $142 $141 $261 $262 forward $143 0 $-1 #
edge $-1 -1 $-1 $144 -0.1602003912993285595 $263 -0.1589175448904718846 $142 $264 forward @7 unknown #
face $265 -1 $-1 $266 $143 $12 $-1 $267 forward single #
point $-1 -1 $-1 0.3690636435179953656 1.999767756457387025 0.6392369817996577108 #
face $268 -1 $-1 $269 $147 $12 $-1 $270 forward single #
coedge $-1 -1 $-1 $151 $149 $271 $272 forward $90 0 $-1 #
coedge $-1 -1 $-1 $252 $273 $149 $211 reversed $253 0 $-1 #
edge $-1 -1 $-1 $212 -0.3198882428301060288 $274 -0.260467099126724777 $210 $275 forward @7 unknown #
vertex $-1 -1 $-1 $256 0 $276 #
straight-curve $-1 -1 $-1 0.5453417206079574919 1.989604415459112152 -0.4295439161660618566 -0.4999999999999994449 0 -0.8660254037844390407 F -1.567456401361098095 F 1.22518599019546337 #
coedge $-1 -1 $-1 $277 $261 $151 $215 reversed $233 0 $-1 #
edge $-1 -1 $-1 $278 -0.2752437153560829408 $216 0.4738938816298519097 $214 $279 forward @7 unknown #
vertex $-1 -1 $-1 $262 0 $280 #
straight-curve $-1 -1 $-1 0.6267845166838414972 2.017258929910040521 0.0282723327544635028 0.9729470926728052138 -0.1615469981704820979 -0.165156054208260572 I I #
DXID-attrib $-1 -1 $-1 $-1 $156 @10 ASM ENTITY @1 6 #
face $281 -1 $-1 $-1 $282 $10 $-1 $283 reversed single #
cone-surface $-1 -1 $-1 0 0 0 0 1 0 0.2963500000000000023 0 0 1 I I 0 1 0.3000000000000000444 forward I I I I #
coedge $-1 -1 $-1 $221 $221 $284 $285 forward $157 0 $-1 #
pcurve $-1 -1 $-1 0 reversed { exp_par_cur nubs 1 open 2 
	10.47505994739748658 1 255.9779594548254238 1 
	0.03328424301878190467 10.47505994739748658 
	0.03328424301878190467 255.9779594548253954 
	0 
	spline forward { ref 1 } I I I I 
	} 0 0 #
edge $-1 -1 $-1 $176 -247.5942101743899855 $106 -2.091310666962054032 $174 $286 forward @7 unknown #
pcurve $-1 -1 $-1 0 forward { exp_par_cur nubs 1 open 2 
	2.091310666962054032 1 247.5942101743900423 1 
	0 12.56637061435954017 
	0 258.0692701217874969 
	2.870792197615612389e-14 
	spline reversed { ref 1 } F 0 F 0.0332842430187819116 F 10.47505994739748658 F 258.0692701217874969 
	} 0 0 #
intcurve-curve $-1 -1 $-1 forward { int_int_cur 22120 full nubs 3 open 7 
	0 3 0.1053934410755924811 2 0.212835589279604942 2 0.3223256885327876464 2 0.4338629939047681239 2 
	0.5120895001291331239 2 0.5912999189636256592 3 
	-0.01653368765056189432 2 0.2670136003983198947 
	0.01837214344429682206 2 0.2709860614595811512 
	0.05371761967266505677 1.999999999999999556 0.2680384145569700283 
	0.1220051079446732578 1.999999999999999556 0.2486914986431465191 
	0.1542135148997195726 1.999999999999999556 0.2322266100105430386 
	0.211142343378720676 1.999999999999999556 0.1875418408131585002 
	0.2351485859336148176 2 0.1595480430243871595 
	0.271540498552369336 2 0.09538191063553705384 
	0.2833446430548927641 2.000000000000000444 0.05970154397043694189 
	0.2913390749091576137 2.000000000000000444 -0.00315083489619296872 
	0.2911028744668749391 2.000000000000000888 -0.0293876891595700393 
	0.2836185217286202875 2.000000000000000888 -0.08142452844928997624 
	0.2763175868255466905 2 -0.1069732180467109495 
	0.2657195712513077956 2 -0.1312114017683720379 
	3.773979780331247076e-07 
	
	spline forward { ref 1 } F 0 F 0.0332842430187819116 F 10.47505994739748658 F 258.0692701217874969 
	plane 0 2 0 0 1 0 1 0 0 forward_v I I I I 
	nubs 3 open 7 
	0 3 0.1053934410755924811 3 0.212835589279604942 3 0.3223256885327876464 3 0.4338629939047681239 3 
	0.5120895001291331239 3 0.5912999189636256592 3 
	0.0332842430187819116 255.9779594548254238 
	0.03119700273491585185 256.109104629666831 
	0.02915008737028490851 256.2377161151077303 
	0.02710282237383054849 256.3663495685639759 
	0.02501576129187792208 256.4974834838170636 
	0.02296861967421341688 256.6261091851553715 
	0.02092076917373779724 256.75477942691424 
	0.01883388466611416942 256.8859022476750624 
	0.01678652950083246373 257.0145413666058971 
	0.01473811928068104009 257.1432467765891943 
	0.01265140863003311189 257.2743586735940653 
	0.01060385168822227525 257.4030104705180975 
	0.00855490590471799997 257.5317495309392939 
	0.007117881139307552854 257.6220404598601021 
	0.005696514960963215864 257.71134753073909 
	0.004277452952358999985 257.8005098263634522 
	0.002840542351606056056 257.8907935821072783 
	0.001419172775389151769 257.9801008664807682 
	0 258.0692701217874969 
	
	nullbs 
	I I 
	0 
	0 
	0 
	
	0 } I I #
intcurve-curve $-1 -1 $-1 forward { helix_int_cur 22120 F 10.47505994739748658 F 255.9779594548254238 
	0 -0.03700787849061197565 0 
	0.2675250000000000128 0 9.782976714588534317e-14 
	9.782976714588534317e-14 0 -0.2675250000000000128 
	0 0.04999999999999999584 0 
	0 
	0 1 0 
	null_surface 
	null_surface 
	nullbs 
	nullbs 
	} I I #
point $-1 -1 $-1 -0.01653368765054378381 1.999999999999999778 0.2670136003983210049 #
ellipse-curve $-1 -1 $-1 0 0.04634999999999998149 0 0 -1 -0 0.2675250000000000128 6.938893903907228378e-18 1.083706251516049715e-13 1 I I #
point $-1 -1 $-1 -0.1330472522125517032 0.04634999999999998843 0.2320949252002069418 #
point $-1 -1 $-1 0.2657195712513077956 2 -0.1312114017683720379 #
DXID-attrib $-1 -1 $-1 $-1 $179 @10 ASM ENTITY @1 6 #
face $287 -1 $-1 $288 $289 $12 $-1 $290 forward single #
loop $-1 -1 $-1 $291 $214 $179 #
plane-surface $-1 -1 $-1 0 2 1.11022302462515654e-16 0 1 0 -1 0 0 forward_v I I I I #
coedge $-1 -1 $-1 $237 $181 $292 $293 forward $76 0 $-1 #
edge $-1 -1 $-1 $294 -0.5959504988213075727 $202 0.1701015493565402326 $181 $295 forward @7 unknown #
coedge $-1 -1 $-1 $182 $235 $296 $297 reversed $76 0 $-1 #
straight-curve $-1 -1 $-1 0.5354691844422171387 1.927308058541532532 0.68814436183634764 0.9371672610286259086 -0.3488803876059865527 3.928254971927487723e-16 I I #
coedge $-1 -1 $-1 $296 $189 $184 $240 forward $247 0 $-1 #
edge $-1 -1 $-1 $191 -0.7946006650950767636 $241 -0 $184 $298 forward @7 unknown #
vertex $-1 -1 $-1 $185 1 $299 #
straight-curve $-1 -1 $-1 0.3973003325475380487 2 0.68814436183634764 0 -1 0 I I #
point $-1 -1 $-1 0.3973003325475380487 1.978744343832998132 0.68814436183634764 #
coedge $-1 -1 $-1 $300 $301 $188 $245 forward $302 0 $-1 #
edge $-1 -1 $-1 $254 0.02125565616700209048 $248 0.3999999999999999112 $244 $303 forward @7 unknown #
coedge $-1 -1 $-1 $189 $304 $300 $305 forward $247 0 $-1 #
loop $-1 -1 $-1 $-1 $246 $306 #
vertex $-1 -1 $-1 $245 1 $307 #
straight-curve $-1 -1 $-1 0.7946006650950768746 1.600000000000000089 4.996003610813204432e-16 0.4999999999999993894 0 0.8660254037844390407 I I #
point $-1 -1 $-1 0.7946006650950768746 1.600000000000000089 4.996003610813204432e-16 #
coedge $-1 -1 $-1 $308 $193 $301 $309 forward $253 0 $-1 #
coedge $-1 -1 $-1 $193 $210 $195 $256 forward $253 0 $-1 #
loop $-1 -1 $-1 $-1 $210 $288 #
vertex $-1 -1 $-1 $245 0 $310 #
straight-curve $-1 -1 $-1 0.328215906600199836 1.927308058541532088 -0.8078020975888684507 -0.4685836305143118441 -0.3488803876059893283 -0.8116106556458716481 I I #
edge $-1 -1 $-1 $212 0.3126848410398912481 $196 0.3138018925201080944 $195 $311 forward @7 unknown #
point $-1 -1 $-1 0.411574641006153763 1.989372171916499177 -0.6634205343431160973 #
coedge $-1 -1 $-1 $259 $200 $312 $313 forward $123 0 $-1 #
coedge $-1 -1 $-1 $201 $258 $314 $315 reversed $123 0 $-1 #
point $-1 -1 $-1 0.3687517156303090626 1.989372171916499177 0.68814436183634764 #
coedge $-1 -1 $-1 $214 $312 $204 $262 reversed $233 0 $-1 #
edge $-1 -1 $-1 $216 -0.1575106940044671833 $263 0.5670829853618263305 $261 $316 forward @7 unknown #
vertex $-1 -1 $-1 $205 1 $317 #
straight-curve $-1 -1 $-1 0.2902870106961010777 2.028770064252386263 0.5027918513029391301 -0.4917380799320458795 0.1810376838643888708 -0.8517153384586674258 I I #
DXID-attrib $-1 -1 $-1 $-1 $206 @10 ASM ENTITY @2 15 #
face $318 -1 $-1 $319 $320 $12 $-1 $321 forward single #
plane-surface $-1 -1 $-1 0.6736249468635810977 1.994686085958249588 0.1595360904590872597 0.1800568059919507302 0.9781476007338067991 0.1039558454088771039 0 -0.1056831075412847376 0.9943998596039810289 forward_v I I I I #
DXID-attrib $-1 -1 $-1 $-1 $208 @10 ASM ENTITY @1 9 #
face $322 -1 $-1 $323 $324 $12 $-1 $325 forward single #
plane-surface $-1 -1 $-1 0.474974780589812573 1.994686085958249588 -0.5036082713772602748 0.1800568059919512298 0.978147600733806688 -0.1039558454088771039 -0 0.1056831075412847515 0.9943998596039810289 forward_v I I I I #
coedge $-1 -1 $-1 $326 $327 $209 $272 reversed $289 0 $-1 #
edge $-1 -1 $-1 $274 -0.1992111992847156177 $278 -0.1977735771360938088 $271 $328 forward @7 unknown #
coedge $-1 -1 $-1 $210 $308 $326 $329 forward $253 0 $-1 #
vertex $-1 -1 $-1 $211 1 $330 #
straight-curve $-1 -1 $-1 0.1222945966691994513 2.044317823693901914 -0.535598856633015763 -0.9013470479998109131 0.1710391346388074052 0.3978933443575483064 I I #
point $-1 -1 $-1 0.4106249200339622818 1.989604415459112152 -0.6628802593933460496 #
coedge $-1 -1 $-1 $331 $214 $327 $332 reversed $233 0 $-1 #
vertex $-1 -1 $-1 $272 1 $333 #
straight-curve $-1 -1 $-1 0.4937827179562780944 2 -0.3997763121059662028 0.4999999999999994449 -0 0.8660254037844390407 F -1.22518599019546337 F 1.567456401361098095 #
point $-1 -1 $-1 0.7307296587712037716 2 0.01062782808350140606 #
DXID-attrib $-1 -1 $-1 $-1 $219 @10 ASM ENTITY @1 7 #
loop $-1 -1 $-1 $-1 $284 $219 #
plane-surface $-1 -1 $-1 0 0 0 0 1 0 1 0 0 forward_v I I I I #
coedge $-1 -1 $-1 $284 $284 $221 $285 reversed $282 0 $-1 #
edge $-1 -1 $-1 $334 -3.141592653589793116 $334 3.141592653589793116 $284 $335 forward @7 unknown #
intcurve-curve $-1 -1 $-1 forward { helix_int_cur 22120 F -247.5942101743900423 F -2.091310666962054032 
	0 0.02970787849060901181 0 
	-0.1473826864524425684 0 0.2571024430729140775 
	-0.2571024430729140775 0 -0.1473826864524425684 
	-0 -0.04999999999999999584 -0 
	-0 
	-0 -1 -0 
	null_surface 
	null_surface 
	nullbs 
	nullbs 
	} I I #
DXID-attrib $-1 -1 $-1 $-1 $232 @10 ASM ENTITY @1 7 #
face $336 -1 $-1 $208 $253 $12 $-1 $337 forward single #
loop $-1 -1 $-1 $-1 $271 $232 #
plane-surface $-1 -1 $-1 -0.1986501662737689688 1.994686085958249588 -0.6631443618363473957 8.71488118652647544e-17 0.9781476007338067991 -0.2079116908177538747 -0 0.2079116908177538747 0.9781476007338067991 forward_v I I I I #
loop $-1 -1 $-1 $-1 $338 $179 #
coedge $-1 -1 $-1 $339 $340 $235 $293 reversed $341 0 $-1 #
edge $-1 -1 $-1 $294 0.0106278280835008232 $342 0.3999999999999999112 $235 $343 forward @7 unknown #
vertex $-1 -1 $-1 $293 0 $344 #
straight-curve $-1 -1 $-1 0.1986501662737688301 1.989372171916499177 0.688144361836347529 1 -0 4.191626335320199434e-16 F -1.04825183136884581 F 0.5932164719023456101 #
coedge $-1 -1 $-1 $345 $239 $237 $297 forward $247 0 $-1 #
edge $-1 -1 $-1 $241 -0.7946006650950767636 $342 -0 $237 $346 forward @7 unknown #
straight-curve $-1 -1 $-1 0.3973003325475380487 1.600000000000000089 0.68814436183634764 -0.5000000000000004441 0 0.8660254037844383745 I I #
point $-1 -1 $-1 0.3973003325475380487 1.600000000000000089 0.68814436183634764 #
coedge $-1 -1 $-1 $347 $244 $246 $305 reversed $302 0 $-1 #
coedge $-1 -1 $-1 $244 $347 $251 $309 reversed $302 0 $-1 #
loop $-1 -1 $-1 $-1 $301 $319 #
straight-curve $-1 -1 $-1 0.3973003325475389924 2 -0.6881443618363471959 0 -1 0 I I #
coedge $-1 -1 $-1 $246 $345 $348 $349 forward $247 0 $-1 #
edge $-1 -1 $-1 $350 -0.7946006650950772077 $248 -0 $300 $351 forward @7 unknown #
face $352 -1 $-1 $-1 $353 $12 $-1 $354 reversed single #
point $-1 -1 $-1 0.3973003325475389924 1.600000000000000089 -0.6881443618363471959 #
coedge $-1 -1 $-1 $273 $251 $355 $356 forward $253 0 $-1 #
edge $-1 -1 $-1 $254 -0.6952755819581926122 $357 0.09932508313688465096 $301 $358 forward @7 unknown #
point $-1 -1 $-1 0.3973003325475389924 1.97874434383299791 -0.6881443618363471959 #
straight-curve $-1 -1 $-1 0.14477920344784867 2.054613984391803427 -0.5116465966851266867 0.8502034051346861743 -0.2079076450156329414 -0.4836616390013148692 I I #
coedge $-1 -1 $-1 $261 $359 $258 $313 reversed $233 0 $-1 #
edge $-1 -1 $-1 $263 -0.1697826528142878377 $360 0.5670829853618264416 $312 $361 forward @7 unknown #
coedge $-1 -1 $-1 $362 $363 $259 $315 forward $364 0 $-1 #
edge $-1 -1 $-1 $294 -0.2176226048351292408 $360 -0.1589175448904722732 $259 $365 forward @7 unknown #
straight-curve $-1 -1 $-1 0.6519743117689701384 2 0.1470360904590872486 -0.5000000000000004441 -0 0.8660254037844383745 F -0.4375196797332508436 F 0.7883276965921861557 #
point $-1 -1 $-1 0.3684328190880566956 2 0.6381443618363477066 #
DXID-attrib $-1 -1 $-1 $-1 $266 @10 ASM ENTITY @2 16 #
face $366 -1 $-1 $306 $302 $12 $-1 $367 forward single #
loop $-1 -1 $-1 $368 $369 $266 #
cone-surface $-1 -1 $-1 0 2 0 0 -1 0 -0.3000000000000000444 0 0 1 I I 0 -1 0.3000000000000000444 forward I I I I #
DXID-attrib $-1 -1 $-1 $-1 $269 @10 ASM ENTITY @2 10 #
face $370 -1 $-1 $371 $364 $12 $-1 $372 forward single #
loop $-1 -1 $-1 $-1 $355 $269 #
plane-surface $-1 -1 $-1 -0.7237606067544777311 1.989256050145192578 -0.07379120022037113924 -0.3420112424974394161 0.9187152696422381526 -0.1974602829217751709 -0 0.2101321196020141113 0.9776729986613953427 forward_v I I I I #
coedge $-1 -1 $-1 $373 $271 $273 $329 reversed $289 0 $-1 #
coedge $-1 -1 $-1 $271 $373 $277 $332 forward $289 0 $-1 #
straight-curve $-1 -1 $-1 0.2316618229200951562 2.031949727703774577 -0.4878327108915279653 -0.6295028848695566337 0.1615469981704820701 0.760018871688731168 I I #
edge $-1 -1 $-1 $374 -0.07108839410734169029 $274 0.655041096978800752 $326 $375 forward @7 unknown #
point $-1 -1 $-1 0.3570658475681471877 1.999767756457386803 -0.6392369817996569337 #
coedge $-1 -1 $-1 $359 $277 $376 $377 reversed $233 0 $-1 #
edge $-1 -1 $-1 $378 -0.1697826528142880043 $278 0.5548110265520057593 $277 $379 forward @7 unknown #
point $-1 -1 $-1 0.3561608602782367905 2 -0.6381443618363471515 #
vertex $-1 -1 $-1 $285 0 $380 #
ellipse-curve $-1 -1 $-1 0 0 0 0 1 0 0.2500000000000000555 0 0 1 I I #
DXID-attrib $-1 -1 $-1 $-1 $288 @10 ASM ENTITY @1 8 #
plane-surface $-1 -1 $-1 -0.2979752494106535643 1.989256050145192356 -0.6636906718180023423 1.655359444149390311e-16 0.9187152696422368203 -0.3949205658435529509 -0 0.3949205658435529509 0.9187152696422368203 forward_v I I I I #
coedge $381 -1 $-1 $338 $338 $382 $383 forward $291 0 $-1 #
coedge $-1 -1 $-1 $384 $292 $363 $385 reversed $341 0 $-1 #
coedge $-1 -1 $-1 $292 $386 $345 $387 reversed $341 0 $-1 #
loop $-1 -1 $-1 $-1 $384 $371 #
vertex $-1 -1 $-1 $293 1 $388 #
straight-curve $-1 -1 $-1 -0.3973003325475387704 2 0.6881443618363473069 0 -1 0 I I #
point $-1 -1 $-1 -0.3973003325475387704 1.989372171916499177 0.6881443618363473069 #
coedge $-1 -1 $-1 $304 $296 $340 $387 forward $247 0 $-1 #
straight-curve $-1 -1 $-1 -0.3973003325475387704 1.600000000000000089 0.6881443618363473069 -1 -0 -4.191626335320199434e-16 I I #
coedge $-1 -1 $-1 $301 $300 $389 $390 reversed $302 0 $-1 #
coedge $-1 -1 $-1 $391 $389 $304 $349 reversed $392 0 $-1 #
edge $-1 -1 $-1 $393 -0.7946006650950767636 $350 -0 $348 $394 forward @7 unknown #
vertex $-1 -1 $-1 $390 1 $395 #
straight-curve $-1 -1 $-1 0.3973003325475389924 1.600000000000000089 -0.6881443618363471959 1 0 4.191626335320196969e-16 I I #
DXID-attrib $-1 -1 $-1 $-1 $306 @10 ASM ENTITY @2 18 #
loop $-1 -1 $-1 $247 $396 $306 #
plane-surface $-1 -1 $-1 0 1.600000000000000089 1.11022302462515654e-16 0 1 0 -1 0 0 forward_v I I I I #
coedge $-1 -1 $-1 $397 $398 $308 $356 reversed $324 0 $-1 #
edge $-1 -1 $-1 $357 -0.2096826357910161198 $374 -0.1494229784091525293 $355 $399 forward @7 unknown #
vertex $-1 -1 $-1 $390 0 $400 #
straight-curve $-1 -1 $-1 -0.2979752494106535643 1.97874434383299791 -0.688144361836347529 -1 0 -4.191626335320196969e-16 F -0.8607423194081639251 F 0.2362432036696271442 #
coedge $-1 -1 $-1 $312 $331 $362 $401 reversed $233 0 $-1 #
vertex $-1 -1 $-1 $315 1 $402 #
straight-curve $-1 -1 $-1 0.1986501662737688578 2 0.6381443618363475956 -1 0 -4.191626335320199434e-16 F -0.5932164719023456101 F 1.04825183136884581 #
coedge $-1 -1 $-1 $403 $314 $359 $401 forward $364 0 $-1 #
coedge $-1 -1 $-1 $314 $404 $339 $385 forward $364 0 $-1 #
loop $-1 -1 $-1 $-1 $404 $323 #
straight-curve $-1 -1 $-1 -0.2902870106961023544 2.028770064252386263 0.5027918513029381309 0.4917380799320456575 0.1810376838643889819 -0.8517153384586674258 I I #
DXID-attrib $-1 -1 $-1 $-1 $319 @10 ASM ENTITY @2 17 #
plane-surface $-1 -1 $-1 -0.3973003325475382153 2 -0.688144361836347529 4.191626335320196969e-16 0 -1 1 -0 4.191626335320196969e-16 forward_v I I I I #
loop $-1 -1 $-1 $-1 $382 $266 #
coedge $-1 -1 $-1 $369 $369 $396 $405 reversed $320 0 $-1 #
DXID-attrib $-1 -1 $-1 $-1 $323 @10 ASM ENTITY @2 11 #
face $406 -1 $-1 $407 $341 $12 $-1 $408 forward single #
plane-surface $-1 -1 $-1 -0.4749747805898123509 1.994686085958249588 0.5036082713772604968 -0.1800568059919510633 0.9781476007338067991 0.1039558454088770484 0 -0.105683107541284696 0.99439985960398114 forward_v I I I I #
coedge $-1 -1 $-1 $327 $326 $409 $410 forward $289 0 $-1 #
vertex $-1 -1 $-1 $410 0 $411 #
straight-curve $-1 -1 $-1 -0.2979752494106535643 1.999767756457386803 -0.6392369817996571557 1 -0 4.191626335320196969e-16 F -0.2362432036696271442 F 0.8607423194081639251 #
coedge $-1 -1 $-1 $409 $412 $331 $377 forward $413 0 $-1 #
edge $-1 -1 $-1 $414 -0.1697826528142880043 $378 0.5670829853618262195 $331 $415 forward @7 unknown #
vertex $-1 -1 $-1 $410 1 $416 #
straight-curve $-1 -1 $-1 -0.1986501662737689688 2 -0.6381443618363473735 1 -0 4.191626335320196969e-16 F -0.593216471902345388 F 0.9905168044498834368 #
point $-1 -1 $-1 -0.2500000000000000555 0 3.061616997868383634e-17 #
ATTRIB_CUSTOM-attrib $-1 -1 $-1 $-1 $338 @17 sketch_attrib_def 1 1 3 @13 101 0 0 0 1 1 #
coedge $417 -1 $-1 $382 $382 $338 $383 reversed $368 0 $-1 #
edge $-1 -1 $-1 $418 -3.141592653589793116 $418 3.141592653589793116 $338 $419 forward @7 unknown #
coedge $-1 -1 $-1 $386 $339 $420 $421 reversed $341 0 $-1 #
edge $-1 -1 $-1 $422 -0.5674018819040785866 $294 0.1986501662737691909 $339 $423 forward @7 unknown #
coedge $-1 -1 $-1 $340 $384 $391 $424 forward $341 0 $-1 #
edge $-1 -1 $-1 $342 -0.7946006650950768746 $393 -0 $340 $425 forward @7 unknown #
point $-1 -1 $-1 -0.3973003325475388259 1.600000000000000089 0.6881443618363473069 #
coedge $-1 -1 $-1 $348 $426 $347 $390 forward $392 0 $-1 #
edge $-1 -1 $-1 $357 0.02125565616700186844 $350 0.3999999999999999112 $347 $427 forward @7 unknown #
coedge $-1 -1 $-1 $426 $348 $386 $424 reversed $392 0 $-1 #
loop $-1 -1 $-1 $-1 $426 $407 #
vertex $-1 -1 $-1 $424 1 $428 #
straight-curve $-1 -1 $-1 -0.3973003325475382153 1.600000000000000089 -0.688144361836347529 0.5000000000000003331 0 -0.8660254037844384856 I I #
point $-1 -1 $-1 -0.3973003325475381597 1.600000000000000089 -0.688144361836347529 #
coedge $-1 -1 $-1 $396 $396 $369 $405 forward $353 0 $-1 #
coedge $-1 -1 $-1 $420 $355 $426 $429 forward $324 0 $-1 #
coedge $-1 -1 $-1 $355 $430 $431 $432 forward $324 0 $-1 #
straight-curve $-1 -1 $-1 -0.2990464818127731017 2.051898503082012937 -0.5179637003244466076 0.4685836305143184499 0.3488803876059878295 0.8116106556458684285 I I #
point $-1 -1 $-1 -0.3973003325475382153 1.978744343832998132 -0.688144361836347529 #
edge $-1 -1 $-1 $360 -0.1697826528142878377 $414 0.5670829853618263305 $359 $433 forward @7 unknown #
point $-1 -1 $-1 -0.3684328190880575837 2 0.6381443618363473735 #
coedge $-1 -1 $-1 $404 $362 $412 $434 reversed $364 0 $-1 #
coedge $-1 -1 $-1 $363 $403 $430 $435 reversed $364 0 $-1 #
edge $-1 -1 $-1 $436 -3.141592653589793116 $436 3.141592653589793116 $369 $437 forward @7 unknown #
DXID-attrib $-1 -1 $-1 $-1 $371 @10 ASM ENTITY @2 12 #
face $438 -1 $-1 $439 $392 $12 $-1 $440 forward single #
plane-surface $-1 -1 $-1 -0.3973003325475387704 2 0.6881443618363474179 -0.8660254037844389297 0 0.4999999999999995559 -0.4999999999999995559 -0 -0.8660254037844389297 forward_v I I I I #
coedge $-1 -1 $-1 $431 $376 $373 $410 reversed $413 0 $-1 #
edge $-1 -1 $-1 $374 -0.1602003912993292534 $378 -0.1589175448904722177 $409 $441 forward @7 unknown #
point $-1 -1 $-1 -0.3690636435179952546 1.999767756457387025 -0.6392369817996581549 #
coedge $-1 -1 $-1 $376 $431 $403 $434 forward $413 0 $-1 #
loop $-1 -1 $-1 $-1 $431 $439 #
vertex $-1 -1 $-1 $434 1 $442 #
straight-curve $-1 -1 $-1 -0.6519743117689702494 2 -0.1470360904590870821 0.5000000000000003331 -0 -0.8660254037844384856 F -0.4375196797332507326 F 0.7883276965921862667 #
point $-1 -1 $-1 -0.3684328190880569731 2 -0.6381443618363474846 #
ATTRIB_CUSTOM-attrib $-1 -1 $-1 $-1 $382 @17 sketch_attrib_def 1 1 3 @13 101 0 0 0 1 1 #
vertex $-1 -1 $-1 $383 0 $443 #
ellipse-curve $-1 -1 $-1 0 2 0 0 -1 0 -0.3000000000000000444 0 0 1 I I #
coedge $-1 -1 $-1 $430 $397 $384 $421 forward $324 0 $-1 #
edge $-1 -1 $-1 $444 -0.3645307529924859402 $422 -0.3340680830888292929 $384 $445 forward @7 unknown #
vertex $-1 -1 $-1 $385 0 $446 #
straight-curve $-1 -1 $-1 -0.4966254156844233103 1.989372171916499177 0.5161082713772604524 0.4999999999999995559 -0 0.8660254037844389297 F -0.8925550391997515431 F 0.3332923371256849565 #
edge $-1 -1 $-1 $444 0.02125565616700186844 $393 0.3999999999999999112 $386 $447 forward @7 unknown #
straight-curve $-1 -1 $-1 -0.7946006650950768746 1.600000000000000089 -2.775557561562891351e-16 -0.4999999999999995559 -0 -0.8660254037844389297 I I #
coedge $-1 -1 $-1 $389 $391 $397 $429 reversed $392 0 $-1 #
straight-curve $-1 -1 $-1 -0.3973003325475382153 2 -0.688144361836347529 0 -1 0 I I #
point $-1 -1 $-1 -0.7946006650950769856 1.600000000000000089 -2.775557561562891351e-16 #
edge $-1 -1 $-1 $357 -0.6952755819581922792 $444 0.09932508313688459545 $426 $448 forward @7 unknown #
coedge $-1 -1 $-1 $398 $420 $404 $435 forward $324 0 $-1 #
coedge $-1 -1 $-1 $412 $409 $398 $432 reversed $413 0 $-1 #
edge $-1 -1 $-1 $449 -0.07108839410734159314 $374 0.6670388929286508173 $431 $450 forward @7 unknown #
straight-curve $-1 -1 $-1 -0.4533241454952013916 2 0.4911082713772605413 -0.4999999999999995559 0 -0.8660254037844389297 F -0.3332923371256849565 F 0.8925550391997515431 #
edge $-1 -1 $-1 $449 -0.1602003912993287538 $414 -0.1589175448904724675 $403 $451 forward @7 unknown #
edge $-1 -1 $-1 $422 -0.05922305440586911329 $449 -0.009222081425264466031 $404 $452 forward @7 unknown #
vertex $-1 -1 $-1 $405 2 $453 #
ellipse-curve $-1 -1 $-1 0 1.600000000000000089 0 0 1 0 -0.3000000000000000444 0 0 1 I I #
DXID-attrib $-1 -1 $-1 $-1 $407 @10 ASM ENTITY @2 13 #
face $454 -1 $-1 $206 $413 $12 $-1 $455 forward single #
plane-surface $-1 -1 $-1 -0.7946006650950768746 2 -3.330669073875469621e-16 -0.8660254037844384856 -0 -0.5000000000000003331 0.5000000000000003331 -0 -0.8660254037844384856 forward_v I I I I #
straight-curve $-1 -1 $-1 -0.2902870106961009111 2.028770064252386263 -0.502791851302938797 0.4917380799320443252 0.1810376838643887043 0.851715338458668314 I I #
point $-1 -1 $-1 -0.7368656381761142793 2 -1.665334536937734811e-16 #
point $-1 -1 $-1 0.3000000000000000444 2 -3.673940397442060115e-17 #
vertex $-1 -1 $-1 $424 0 $456 #
straight-curve $-1 -1 $-1 -0.6237875214237417199 2.105921974231318661 0.2958570434393148485 0.4685836305143125657 0.3488803876059865527 0.8116106556458724253 I I #
point $-1 -1 $-1 -0.780326356636462326 1.989372171916499177 0.02472382749323026596 #
straight-curve $-1 -1 $-1 -0.7946006650950768746 2 -2.775557561562891351e-16 0 -1 0 I I #
straight-curve $-1 -1 $-1 -0.7449381235266345769 1.978744343832998132 -0.0860180452295437048 -0.5000000000000003331 1.41878258428516667e-17 0.8660254037844384856 F -0.8270069474790556763 F 0.2430583347954950457 #
vertex $-1 -1 $-1 $434 0 $457 #
straight-curve $-1 -1 $-1 -0.7025830899823208853 1.999767756457386803 -0.06156435521119856674 0.5000000000000003331 -1.41878258428516667e-17 -0.8660254037844384856 F -0.2430583347954950457 F 0.8270069474790556763 #
straight-curve $-1 -1 $-1 -0.5805740213922032655 2.028770064252386263 -5.273559366969493567e-16 0.9834761598640903157 0.1810376838643888708 1.610690202772194198e-15 I I #
straight-curve $-1 -1 $-1 -0.7303441733738451624 2.00168509768865599 -0.004560014269626627703 0.8439649687785027998 0.2079076450156327471 -0.4944669277300096089 I I #
point $-1 -1 $-1 0.3000000000000000444 1.600000000000000089 -3.673940397442060115e-17 #
DXID-attrib $-1 -1 $-1 $-1 $439 @10 ASM ENTITY @2 14 #
plane-surface $-1 -1 $-1 -0.6736249468635812088 1.994686085958249588 -0.1595360904590871209 -0.1800568059919507302 0.9781476007338067991 -0.1039558454088770761 -0 0.1056831075412847237 0.99439985960398114 forward_v I I I I #
point $-1 -1 $-1 -0.7946006650950768746 1.978744343832998132 -2.775557561562891351e-16 #
point $-1 -1 $-1 -0.7381272870359917304 1.999767756457387025 -7.853891374430500465e-16 #
End-of-ASM-data 